<svg width="282" height="45" viewBox="0 0 282 45" fill="none" xmlns="http://www.w3.org/2000/svg">
<path d="M55.7513 24.0921H51.3101L59.7956 0.248322H64.2368L55.7513 24.0921Z" fill="#00C6FF"/>
<path d="M48.8284 24.0921H44.3872L52.8727 0.248322H57.3139L48.8284 24.0921Z" fill="#00C6FF"/>
<path d="M48.8034 24.1169H17.0945V23.5711H48.8034V24.1169Z" fill="#00C6FF"/>
<path d="M56.1234 31.6101H2.23302L0 28.8808H53.9399L56.1234 31.6101Z" fill="#00C6FF"/>
<path d="M92.8689 44.4623H65.7253L53.5181 29.2033L53.9399 28.8808L65.9734 43.9413H92.8689V44.4623Z" fill="#00C6FF"/>
<path opacity="0.7" d="M0 28.8808L2.23302 31.6101H39.3012L36.9938 28.8808H0Z" fill="#BDE6FF"/>
<path opacity="0.7" d="M59.7957 0.248322L56.4709 9.5774H60.9122L64.2369 0.248322H59.7957Z" fill="#BDE6FF"/>
<path d="M232.954 24.0921H237.395L228.91 0.248322H224.493L232.954 24.0921Z" fill="#00C6FF"/>
<path d="M226.056 24.0921H230.472L222.012 0.248322H217.571L226.056 24.0921Z" fill="#00C6FF"/>
<path d="M232.979 24.1169H264.688V23.5711H232.979V24.1169Z" fill="#00C6FF"/>
<path fill-rule="evenodd" clip-rule="evenodd" d="M264.44 23.8437C264.44 22.7272 265.333 21.834 266.45 21.834C267.541 21.834 268.459 22.7272 268.459 23.8437C268.459 24.9603 267.541 25.8535 266.45 25.8535C265.333 25.8535 264.44 24.9603 264.44 23.8437ZM264.961 23.8437C264.961 24.6625 265.631 25.3324 266.45 25.3324C267.268 25.3324 267.914 24.6625 267.914 23.8437C267.914 23.025 267.268 22.3551 266.45 22.3551C265.631 22.3551 264.961 23.025 264.961 23.8437Z" fill="#00C6FF"/>
<path d="M225.685 31.6101H279.55L281.783 28.8808H227.843L225.685 31.6101Z" fill="#00C6FF"/>
<path d="M188.914 44.4623H216.057L228.264 29.2033L227.867 28.8808L215.809 43.9413H188.914V44.4623Z" fill="#00C6FF"/>
<path opacity="0.2" d="M215.14 0H121.899H66.6438L56.6448 28.1361L67.3881 41.9312H121.899H214.396L225.139 28.1361L215.14 0Z" fill="#000616"/>
<path d="M265.854 23.8436C265.854 24.1662 266.127 24.4143 266.449 24.4143C266.772 24.4143 267.02 24.1662 267.02 23.8436C267.02 23.5211 266.772 23.2482 266.449 23.2482C266.127 23.2482 265.854 23.5211 265.854 23.8436Z" fill="white"/>
<path opacity="0.7" d="M281.783 28.8808L279.55 31.6101H242.482L244.789 28.8808H281.783Z" fill="#BDE6FF"/>
<path opacity="0.7" d="M222.012 0.248322L225.312 9.5774H220.87L217.571 0.248322H222.012Z" fill="#BDE6FF"/>
<g filter="url(#filter0_i_104_23)">
<path d="M110.414 27L114.366 15.2292H117.23L121.265 27H119.405L115.829 15.9609L112.254 27H110.414ZM112.819 23.4876L112.881 22.1077H118.736L118.819 23.4876H112.819ZM124.625 30.6588V29.028H128.64V25.2856H128.598C128.57 25.3414 128.5 25.4738 128.389 25.6828C128.277 25.878 128.103 26.094 127.866 26.331C127.643 26.5679 127.343 26.777 126.967 26.9582C126.605 27.1254 126.152 27.2091 125.608 27.2091C124.786 27.2091 124.103 27.0209 123.559 26.6446C123.015 26.2682 122.611 25.7525 122.346 25.0974C122.096 24.4423 121.97 23.6897 121.97 22.8394C121.97 21.9613 122.103 21.1947 122.367 20.5396C122.632 19.8706 123.036 19.3549 123.58 18.9925C124.124 18.6301 124.807 18.4489 125.629 18.4489C126.186 18.4489 126.653 18.5395 127.03 18.7207C127.406 18.9019 127.699 19.1179 127.908 19.3688C128.131 19.6197 128.291 19.8497 128.389 20.0588C128.5 20.2678 128.563 20.4003 128.577 20.456H128.619V18.4489H130.417V28.0872C130.417 28.7005 130.34 29.1953 130.187 29.5716C130.033 29.9479 129.789 30.2197 129.455 30.387C129.134 30.5682 128.702 30.6588 128.159 30.6588H124.625ZM126.089 25.7037C126.632 25.7037 127.092 25.5853 127.469 25.3483C127.845 25.1114 128.124 24.7769 128.305 24.3448C128.5 23.9127 128.598 23.4109 128.598 22.8394C128.598 22.2819 128.507 21.7871 128.326 21.355C128.145 20.9229 127.873 20.5954 127.511 20.3724C127.162 20.1354 126.716 20.017 126.172 20.017C125.559 20.017 125.064 20.1494 124.688 20.4142C124.326 20.679 124.061 21.0275 123.894 21.4596C123.74 21.8916 123.664 22.3516 123.664 22.8394C123.664 23.3273 123.733 23.7942 123.873 24.2402C124.026 24.6723 124.277 25.0277 124.625 25.3065C124.988 25.5713 125.476 25.7037 126.089 25.7037ZM136.037 27.2091C135.076 27.2091 134.288 27 133.675 26.5819C133.062 26.1498 132.609 25.5992 132.316 24.9302C132.023 24.2472 131.877 23.5433 131.877 22.8185C131.863 21.9962 132.016 21.2505 132.337 20.5815C132.671 19.9124 133.145 19.3828 133.759 18.9925C134.386 18.6022 135.132 18.4071 135.996 18.4071C136.748 18.4071 137.417 18.5743 138.003 18.9089C138.588 19.2294 139.055 19.6894 139.404 20.2887C139.752 20.8742 139.94 21.5711 139.968 22.3795C139.982 22.4213 139.989 22.5049 139.989 22.6304C139.989 22.7419 139.989 22.8394 139.989 22.9231H133.529C133.529 23.8151 133.745 24.512 134.177 25.0138C134.623 25.5016 135.236 25.7456 136.017 25.7456C136.602 25.7456 137.097 25.5992 137.501 25.3065C137.919 24.9999 138.177 24.5957 138.275 24.0939H139.968C139.884 24.6793 139.675 25.2089 139.341 25.6828C139.006 26.1567 138.56 26.5331 138.003 26.8118C137.445 27.0767 136.79 27.2091 136.037 27.2091ZM133.591 22.0659H138.233C138.219 21.9126 138.177 21.7104 138.107 21.4596C138.052 21.2087 137.94 20.9648 137.773 20.7278C137.606 20.4769 137.376 20.2678 137.083 20.1006C136.79 19.9333 136.414 19.8497 135.954 19.8497C135.536 19.8497 135.18 19.9194 134.888 20.0588C134.595 20.1982 134.358 20.3863 134.177 20.6233C133.996 20.8463 133.856 21.0902 133.759 21.355C133.675 21.6059 133.619 21.8429 133.591 22.0659ZM141.662 27V18.4489H143.147L143.439 20.4351H143.481C143.495 20.3793 143.551 20.2469 143.648 20.0379C143.746 19.8288 143.906 19.6058 144.129 19.3688C144.352 19.1179 144.652 18.9019 145.028 18.7207C145.405 18.5395 145.879 18.4489 146.45 18.4489C147.049 18.4489 147.537 18.5465 147.914 18.7416C148.304 18.9228 148.61 19.1737 148.833 19.4943C149.07 19.8009 149.238 20.1494 149.335 20.5396C149.433 20.916 149.495 21.3062 149.523 21.7104C149.551 22.1007 149.565 22.4701 149.565 22.8185V27H147.872V22.7976C147.872 22.268 147.816 21.7941 147.704 21.3759C147.593 20.9438 147.391 20.6093 147.098 20.3724C146.805 20.1215 146.366 19.996 145.781 19.996C145.196 19.996 144.729 20.1354 144.38 20.4142C144.046 20.693 143.802 21.0554 143.648 21.5014C143.509 21.9335 143.439 22.4074 143.439 22.9231V27H141.662ZM154.96 27.2091C154.124 27.2091 153.434 27.0209 152.891 26.6446C152.361 26.2682 151.964 25.7525 151.699 25.0974C151.448 24.4423 151.323 23.6966 151.323 22.8603C151.323 21.9822 151.455 21.2156 151.72 20.5605C151.985 19.8915 152.382 19.3758 152.911 19.0134C153.455 18.6371 154.138 18.4489 154.96 18.4489C155.518 18.4489 155.985 18.5395 156.361 18.7207C156.751 18.9019 157.058 19.1179 157.281 19.3688C157.504 19.6197 157.664 19.8497 157.762 20.0588C157.874 20.2678 157.936 20.4003 157.95 20.456H157.992V15.2292H159.79V27H158.285L158.013 25.2856H157.971C157.943 25.3414 157.874 25.4738 157.762 25.6828C157.65 25.878 157.476 26.094 157.239 26.331C157.002 26.5679 156.696 26.777 156.319 26.9582C155.943 27.1254 155.49 27.2091 154.96 27.2091ZM155.462 25.7037C156.006 25.7037 156.466 25.5853 156.842 25.3483C157.218 25.1114 157.497 24.7769 157.678 24.3448C157.874 23.9127 157.971 23.4109 157.971 22.8394C157.971 22.2819 157.88 21.7871 157.699 21.355C157.518 20.9229 157.246 20.5954 156.884 20.3724C156.535 20.1354 156.089 20.017 155.546 20.017C154.933 20.017 154.438 20.1494 154.061 20.4142C153.699 20.679 153.434 21.0275 153.267 21.4596C153.114 21.8916 153.037 22.3516 153.037 22.8394C153.037 23.3273 153.107 23.7942 153.246 24.2402C153.399 24.6723 153.65 25.0277 153.999 25.3065C154.361 25.5713 154.849 25.7037 155.462 25.7037ZM164.538 27.1882C163.757 27.1882 163.116 27 162.614 26.6237C162.127 26.2473 161.764 25.7316 161.527 25.0765C161.304 24.4214 161.193 23.6688 161.193 22.8185C161.193 21.9404 161.311 21.1738 161.548 20.5187C161.785 19.8497 162.148 19.327 162.635 18.9507C163.137 18.5743 163.771 18.3862 164.538 18.3862C165.012 18.3862 165.416 18.4559 165.751 18.5953C166.085 18.7207 166.364 18.881 166.587 19.0761C166.81 19.2713 166.991 19.4734 167.13 19.6824C167.27 19.8776 167.367 20.0518 167.423 20.2051H167.465V18.4489H169.242V27H167.758L167.465 25.4738H167.423C167.367 25.6271 167.27 25.8013 167.13 25.9964C166.991 26.1916 166.803 26.3797 166.566 26.5609C166.343 26.7421 166.064 26.8885 165.73 27C165.395 27.1254 164.998 27.1882 164.538 27.1882ZM165.228 25.7037C165.785 25.7037 166.224 25.5853 166.545 25.3483C166.866 25.0974 167.096 24.7559 167.235 24.3239C167.374 23.8918 167.444 23.397 167.444 22.8394C167.444 22.2401 167.367 21.7244 167.214 21.2923C167.075 20.8602 166.845 20.5327 166.524 20.3097C166.204 20.0727 165.771 19.9542 165.228 19.9542C164.656 19.9542 164.196 20.0866 163.848 20.3515C163.513 20.6024 163.27 20.9438 163.116 21.3759C162.977 21.808 162.907 22.2889 162.907 22.8185C162.907 23.3621 162.977 23.8569 163.116 24.303C163.27 24.735 163.513 25.0765 163.848 25.3274C164.196 25.5783 164.656 25.7037 165.228 25.7037Z" fill="#CAFAFF"/>
</g>
<defs>
<filter id="filter0_i_104_23" x="110.414" y="15.2292" width="58.8279" height="15.4296" filterUnits="userSpaceOnUse" color-interpolation-filters="sRGB">
<feFlood flood-opacity="0" result="BackgroundImageFix"/>
<feBlend mode="normal" in="SourceGraphic" in2="BackgroundImageFix" result="shape"/>
<feColorMatrix in="SourceAlpha" type="matrix" values="0 0 0 0 0 0 0 0 0 0 0 0 0 0 0 0 0 0 127 0" result="hardAlpha"/>
<feOffset/>
<feGaussianBlur stdDeviation="1.21843"/>
<feComposite in2="hardAlpha" operator="arithmetic" k2="-1" k3="1"/>
<feColorMatrix type="matrix" values="0 0 0 0 0 0 0 0 0 0 0 0 0 0 0 0 0 0 0.16 0"/>
<feBlend mode="normal" in2="shape" result="effect1_innerShadow_104_23"/>
</filter>
</defs>
</svg>
