<svg width="282" height="45" viewBox="0 0 282 45" fill="none" xmlns="http://www.w3.org/2000/svg">
<path d="M55.7513 24.0921H51.3101L59.7956 0.248322H64.2368L55.7513 24.0921Z" fill="#00C6FF"/>
<path d="M48.8284 24.0921H44.3872L52.8727 0.248322H57.3139L48.8284 24.0921Z" fill="#00C6FF"/>
<path d="M48.8034 24.1169H17.0945V23.5711H48.8034V24.1169Z" fill="#00C6FF"/>
<path d="M56.1234 31.6101H2.23302L0 28.8808H53.9399L56.1234 31.6101Z" fill="#00C6FF"/>
<path d="M92.8689 44.4623H65.7253L53.5181 29.2033L53.9399 28.8808L65.9734 43.9413H92.8689V44.4623Z" fill="#00C6FF"/>
<path opacity="0.7" d="M0 28.8808L2.23302 31.6101H39.3012L36.9938 28.8808H0Z" fill="#BDE6FF"/>
<path opacity="0.7" d="M59.7957 0.248322L56.4709 9.5774H60.9122L64.2369 0.248322H59.7957Z" fill="#BDE6FF"/>
<path d="M232.954 24.0921H237.395L228.91 0.248322H224.493L232.954 24.0921Z" fill="#00C6FF"/>
<path d="M226.056 24.0921H230.472L222.012 0.248322H217.571L226.056 24.0921Z" fill="#00C6FF"/>
<path d="M232.979 24.1169H264.688V23.5711H232.979V24.1169Z" fill="#00C6FF"/>
<path fill-rule="evenodd" clip-rule="evenodd" d="M264.44 23.8437C264.44 22.7272 265.333 21.834 266.45 21.834C267.541 21.834 268.459 22.7272 268.459 23.8437C268.459 24.9603 267.541 25.8535 266.45 25.8535C265.333 25.8535 264.44 24.9603 264.44 23.8437ZM264.961 23.8437C264.961 24.6625 265.631 25.3324 266.45 25.3324C267.268 25.3324 267.914 24.6625 267.914 23.8437C267.914 23.025 267.268 22.3551 266.45 22.3551C265.631 22.3551 264.961 23.025 264.961 23.8437Z" fill="#00C6FF"/>
<path d="M225.685 31.6101H279.55L281.783 28.8808H227.843L225.685 31.6101Z" fill="#00C6FF"/>
<path d="M188.914 44.4623H216.057L228.264 29.2033L227.867 28.8808L215.809 43.9413H188.914V44.4623Z" fill="#00C6FF"/>
<path opacity="0.2" d="M215.14 0H121.899H66.6438L56.6448 28.1361L67.3881 41.9312H121.899H214.396L225.139 28.1361L215.14 0Z" fill="#000616"/>
<path d="M265.854 23.8436C265.854 24.1662 266.127 24.4143 266.449 24.4143C266.772 24.4143 267.02 24.1662 267.02 23.8436C267.02 23.5211 266.772 23.2482 266.449 23.2482C266.127 23.2482 265.854 23.5211 265.854 23.8436Z" fill="white"/>
<path opacity="0.7" d="M281.783 28.8808L279.55 31.6101H242.482L244.789 28.8808H281.783Z" fill="#BDE6FF"/>
<path opacity="0.7" d="M222.012 0.248322L225.312 9.5774H220.87L217.571 0.248322H222.012Z" fill="#BDE6FF"/>
<g filter="url(#filter0_i_104_42)">
<path d="M98.7253 27L102.677 15.2292H105.541L109.576 27H107.715L104.14 15.9609L100.565 27H98.7253ZM101.13 23.4876L101.192 22.1077H107.046L107.13 23.4876H101.13ZM115.738 27.2091C115.194 27.2091 114.741 27.1254 114.379 26.9582C114.016 26.777 113.717 26.5679 113.48 26.331C113.257 26.094 113.09 25.878 112.978 25.6828C112.867 25.4738 112.797 25.3414 112.769 25.2856H112.727V30.6588H110.95V18.4489H112.455L112.748 20.456H112.79C112.804 20.4003 112.86 20.2678 112.957 20.0588C113.055 19.8497 113.215 19.6197 113.438 19.3688C113.661 19.1179 113.954 18.9019 114.316 18.7207C114.692 18.5395 115.159 18.4489 115.717 18.4489C116.567 18.4489 117.257 18.6371 117.787 19.0134C118.33 19.3897 118.735 19.9124 118.999 20.5815C119.264 21.2365 119.397 21.9962 119.397 22.8603C119.397 23.7245 119.257 24.4842 118.978 25.1392C118.714 25.7943 118.309 26.3031 117.766 26.6655C117.236 27.0279 116.56 27.2091 115.738 27.2091ZM115.278 25.7037C115.891 25.7037 116.372 25.5713 116.72 25.3065C117.083 25.0277 117.334 24.6723 117.473 24.2402C117.626 23.7942 117.703 23.3273 117.703 22.8394C117.703 22.3516 117.619 21.8916 117.452 21.4596C117.299 21.0275 117.034 20.679 116.658 20.4142C116.295 20.1494 115.807 20.017 115.194 20.017C114.665 20.017 114.219 20.1354 113.856 20.3724C113.494 20.5954 113.222 20.9229 113.041 21.355C112.86 21.7871 112.769 22.2819 112.769 22.8394C112.769 23.4109 112.86 23.9127 113.041 24.3448C113.236 24.7769 113.522 25.1114 113.898 25.3483C114.274 25.5853 114.734 25.7037 115.278 25.7037ZM125.865 27.2091C125.321 27.2091 124.868 27.1254 124.506 26.9582C124.143 26.777 123.844 26.5679 123.607 26.331C123.384 26.094 123.217 25.878 123.105 25.6828C122.994 25.4738 122.924 25.3414 122.896 25.2856H122.854V30.6588H121.077V18.4489H122.582L122.875 20.456H122.917C122.931 20.4003 122.987 20.2678 123.084 20.0588C123.182 19.8497 123.342 19.6197 123.565 19.3688C123.788 19.1179 124.081 18.9019 124.443 18.7207C124.819 18.5395 125.286 18.4489 125.844 18.4489C126.694 18.4489 127.384 18.6371 127.914 19.0134C128.457 19.3897 128.862 19.9124 129.126 20.5815C129.391 21.2365 129.524 21.9962 129.524 22.8603C129.524 23.7245 129.384 24.4842 129.105 25.1392C128.841 25.7943 128.436 26.3031 127.893 26.6655C127.363 27.0279 126.687 27.2091 125.865 27.2091ZM125.405 25.7037C126.018 25.7037 126.499 25.5713 126.847 25.3065C127.21 25.0277 127.461 24.6723 127.6 24.2402C127.753 23.7942 127.83 23.3273 127.83 22.8394C127.83 22.3516 127.746 21.8916 127.579 21.4596C127.426 21.0275 127.161 20.679 126.785 20.4142C126.422 20.1494 125.934 20.017 125.321 20.017C124.792 20.017 124.346 20.1354 123.983 20.3724C123.621 20.5954 123.349 20.9229 123.168 21.355C122.987 21.7871 122.896 22.2819 122.896 22.8394C122.896 23.4109 122.987 23.9127 123.168 24.3448C123.363 24.7769 123.649 25.1114 124.025 25.3483C124.401 25.5853 124.861 25.7037 125.405 25.7037ZM131.204 27V15.2292H132.918V27H131.204ZM133.914 30.8888V29.5298H135.148C135.343 29.5298 135.517 29.5019 135.671 29.4462C135.824 29.4043 135.97 29.2928 136.11 29.1116C136.263 28.9304 136.423 28.6517 136.591 28.2753L137.322 26.6655L133.977 18.4489H135.775L138.18 24.8675L140.751 18.4489H142.57L138.18 28.4635C137.943 28.9932 137.727 29.4183 137.531 29.7389C137.35 30.0594 137.155 30.3034 136.946 30.4706C136.751 30.6379 136.521 30.7494 136.256 30.8051C136.005 30.8609 135.705 30.8888 135.357 30.8888H133.914ZM157.004 15.2292H158.781V27H155.498L150.543 16.0027H150.502V27H148.724V15.2292H151.798L156.962 26.2264H157.004V15.2292ZM164.713 27.2091C163.793 27.2091 163.02 27.0209 162.393 26.6446C161.765 26.2682 161.292 25.7525 160.971 25.0974C160.664 24.4284 160.511 23.6757 160.511 22.8394C160.511 21.9753 160.664 21.2156 160.971 20.5605C161.292 19.8915 161.765 19.3688 162.393 18.9925C163.02 18.6162 163.8 18.428 164.734 18.428C166.1 18.428 167.139 18.8322 167.849 19.6406C168.56 20.449 168.916 21.5153 168.916 22.8394C168.916 23.6618 168.762 24.4075 168.456 25.0765C168.163 25.7316 167.703 26.2543 167.076 26.6446C166.463 27.0209 165.675 27.2091 164.713 27.2091ZM164.713 25.7247C165.396 25.7247 165.919 25.5783 166.281 25.2856C166.644 24.9929 166.888 24.6235 167.013 24.1775C167.153 23.7175 167.222 23.2506 167.222 22.7767C167.222 22.3028 167.153 21.8429 167.013 21.3968C166.888 20.9369 166.644 20.5605 166.281 20.2678C165.919 19.9612 165.396 19.8079 164.713 19.8079C164.058 19.8079 163.543 19.9612 163.166 20.2678C162.804 20.5605 162.553 20.9369 162.414 21.3968C162.274 21.8429 162.204 22.3028 162.204 22.7767C162.204 23.2506 162.274 23.7175 162.414 24.1775C162.553 24.6235 162.804 24.9929 163.166 25.2856C163.543 25.5783 164.058 25.7247 164.713 25.7247ZM171.944 27L169.811 18.7625V18.428H171.505L173.178 25.5365H173.219L175.226 18.428H176.753L178.823 25.5365H178.864L180.516 18.428H182.21V18.7625L180.056 27H177.61L176.021 21.4387H175.979L174.411 27H171.944Z" fill="#CAFAFF"/>
</g>
<defs>
<filter id="filter0_i_104_42" x="98.7253" y="15.2292" width="83.4841" height="15.6596" filterUnits="userSpaceOnUse" color-interpolation-filters="sRGB">
<feFlood flood-opacity="0" result="BackgroundImageFix"/>
<feBlend mode="normal" in="SourceGraphic" in2="BackgroundImageFix" result="shape"/>
<feColorMatrix in="SourceAlpha" type="matrix" values="0 0 0 0 0 0 0 0 0 0 0 0 0 0 0 0 0 0 127 0" result="hardAlpha"/>
<feOffset/>
<feGaussianBlur stdDeviation="1.21843"/>
<feComposite in2="hardAlpha" operator="arithmetic" k2="-1" k3="1"/>
<feColorMatrix type="matrix" values="0 0 0 0 0 0 0 0 0 0 0 0 0 0 0 0 0 0 0.16 0"/>
<feBlend mode="normal" in2="shape" result="effect1_innerShadow_104_42"/>
</filter>
</defs>
</svg>
