<svg width="331" height="53" viewBox="0 0 331 53" fill="none" xmlns="http://www.w3.org/2000/svg">
<path d="M65.6914 28.2331H60.4868L70.4308 0.291016H75.6354L65.6914 28.2331Z" fill="#65F2FC"/>
<path d="M57.5786 28.2331H52.374L62.318 0.291016H67.5227L57.5786 28.2331Z" fill="#65F2FC"/>
<path d="M57.5491 28.2622H20.3899V27.6226H57.5491V28.2622Z" fill="#65F2FC"/>
<path d="M66.1272 37.0435H2.97402L0.357178 33.8451H63.5685L66.1272 37.0435Z" fill="#65F2FC"/>
<path d="M109.189 52.1049H77.3796L63.0742 34.2231L63.5685 33.8451L77.6704 51.4943H109.189V52.1049Z" fill="#65F2FC"/>
<path opacity="0.7" d="M0.357178 33.8451L2.97402 37.0435H46.4137L43.7096 33.8451H0.357178Z" fill="#BDE6FF"/>
<path opacity="0.7" d="M70.4309 0.291016L66.5347 11.2236H71.7393L75.6355 0.291016H70.4309Z" fill="#BDE6FF"/>
<path d="M273.352 28.2331H278.557L268.613 0.291016H263.437L273.352 28.2331Z" fill="#65F2FC"/>
<path d="M265.269 28.2331H270.444L260.529 0.291016H255.325L265.269 28.2331Z" fill="#65F2FC"/>
<path d="M273.382 28.2622H310.541V27.6226H273.382V28.2622Z" fill="#65F2FC"/>
<path fill-rule="evenodd" clip-rule="evenodd" d="M310.25 27.9421C310.25 26.6337 311.297 25.5869 312.605 25.5869C313.885 25.5869 314.961 26.6337 314.961 27.9421C314.961 29.2505 313.885 30.2972 312.605 30.2972C311.297 30.2972 310.25 29.2505 310.25 27.9421ZM310.861 27.9421C310.861 28.9016 311.646 29.6866 312.605 29.6866C313.565 29.6866 314.321 28.9016 314.321 27.9421C314.321 26.9826 313.565 26.1975 312.605 26.1975C311.646 26.1975 310.861 26.9826 310.861 27.9421Z" fill="#65F2FC"/>
<path d="M264.833 37.0435H327.958L330.574 33.8451H267.363L264.833 37.0435Z" fill="#65F2FC"/>
<path d="M221.742 52.1049H253.551L267.857 34.2231L267.391 33.8451L253.26 51.4943H221.742V52.1049Z" fill="#65F2FC"/>
<path opacity="0.2" d="M252.476 0H143.209H78.4562L66.7385 32.9723L79.3285 49.1385H143.209H251.604L264.194 32.9723L252.476 0Z" fill="#000616"/>
<path d="M311.907 27.942C311.907 28.32 312.227 28.6107 312.605 28.6107C312.983 28.6107 313.274 28.32 313.274 27.942C313.274 27.564 312.983 27.2441 312.605 27.2441C312.227 27.2441 311.907 27.564 311.907 27.942Z" fill="white"/>
<path opacity="0.7" d="M330.574 33.8451L327.957 37.0435H284.518L287.222 33.8451H330.574Z" fill="#BDE6FF"/>
<path opacity="0.7" d="M260.529 0.291016L264.396 11.2236H259.192L255.325 0.291016H260.529Z" fill="#BDE6FF"/>
<g filter="url(#filter0_i_104_20)">
<path d="M77.2006 31.594V18.4176H82.1856C82.6069 18.4176 83.0516 18.441 83.5197 18.4878C83.9877 18.519 84.4402 18.597 84.8771 18.7218C85.3296 18.8467 85.7352 19.0417 86.0941 19.3069C86.4529 19.5566 86.7338 19.892 86.9366 20.3133C87.1551 20.7346 87.2643 21.2651 87.2643 21.9048C87.2643 22.4041 87.1629 22.8721 86.96 23.309C86.7728 23.7303 86.4217 24.0735 85.9069 24.3388C85.4076 24.604 84.6743 24.7523 83.7069 24.7835V24.8771C84.8147 24.8927 85.665 25.0487 86.2579 25.3452C86.8664 25.6416 87.2877 26.0317 87.5217 26.5153C87.7558 26.9834 87.8728 27.5061 87.8728 28.0834C87.8728 28.7387 87.7558 29.2848 87.5217 29.7217C87.2877 30.143 86.9756 30.4784 86.5856 30.728C86.1955 30.9777 85.7586 31.1649 85.275 31.2897C84.7913 31.4146 84.292 31.5004 83.7771 31.5472C83.2778 31.5784 82.8097 31.594 82.3729 31.594H77.2006ZM79.1197 30.0025H82.209C82.88 30.0025 83.4885 29.9635 84.0345 29.8855C84.5806 29.7919 85.0175 29.5891 85.3452 29.277C85.6884 28.965 85.86 28.4891 85.86 27.8494C85.86 27.1629 85.6806 26.6636 85.3218 26.3515C84.9785 26.0239 84.5182 25.8132 83.9409 25.7196C83.3636 25.6104 82.7239 25.5558 82.0218 25.5558H79.1197V30.0025ZM79.1197 24.0345H81.9516C82.5913 24.0345 83.1608 23.9955 83.6601 23.9175C84.175 23.8395 84.5806 23.6679 84.8771 23.4026C85.1735 23.1218 85.3218 22.6849 85.3218 22.092C85.3218 21.4367 85.1657 20.9686 84.8537 20.6878C84.5416 20.3913 84.1282 20.2119 83.6133 20.1495C83.114 20.0715 82.5679 20.0325 81.975 20.0325H79.1197V24.0345ZM92.9006 31.8046C92.0269 31.8046 91.3091 31.594 90.7474 31.1727C90.2013 30.7515 89.7957 30.1742 89.5304 29.4408C89.2808 28.7075 89.156 27.865 89.156 26.9132C89.156 25.9303 89.2886 25.0721 89.5538 24.3388C89.8191 23.5899 90.2248 23.0048 90.7708 22.5835C91.3325 22.1622 92.0425 21.9516 92.9006 21.9516C93.4311 21.9516 93.8836 22.0296 94.258 22.1856C94.6325 22.326 94.9445 22.5055 95.1942 22.7239C95.4438 22.9424 95.6467 23.1686 95.8027 23.4026C95.9587 23.6211 96.0679 23.8161 96.1303 23.9877H96.1771V22.0218H98.1665V31.594H96.5048L96.1771 29.8855H96.1303C96.0679 30.0571 95.9587 30.2522 95.8027 30.4706C95.6467 30.689 95.436 30.8997 95.1708 31.1025C94.9211 31.3053 94.6091 31.4692 94.2346 31.594C93.8602 31.7344 93.4155 31.8046 92.9006 31.8046ZM93.6729 30.143C94.297 30.143 94.7885 30.0103 95.1474 29.7451C95.5062 29.4642 95.7637 29.082 95.9197 28.5983C96.0757 28.1146 96.1537 27.5607 96.1537 26.9366C96.1537 26.2657 96.0679 25.6884 95.8963 25.2047C95.7403 24.721 95.4828 24.3544 95.124 24.1047C94.7651 23.8395 94.2814 23.7069 93.6729 23.7069C93.0332 23.7069 92.5183 23.8551 92.1283 24.1516C91.7538 24.4324 91.4808 24.8147 91.3091 25.2983C91.1531 25.782 91.0751 26.3203 91.0751 26.9132C91.0751 27.5217 91.1531 28.0756 91.3091 28.5749C91.4808 29.0586 91.7538 29.4408 92.1283 29.7217C92.5183 30.0025 93.0332 30.143 93.6729 30.143ZM104.379 31.828C103.489 31.828 102.686 31.6408 101.968 31.2663C101.25 30.8919 100.681 30.3458 100.259 29.6281C99.8382 28.9103 99.6276 28.0366 99.6276 27.0068C99.6588 25.9771 99.8772 25.0877 100.283 24.3388C100.704 23.5899 101.274 23.0126 101.991 22.6069C102.709 22.2012 103.52 21.9984 104.425 21.9984C105.33 21.9984 106.103 22.17 106.742 22.5133C107.398 22.8565 107.913 23.3012 108.287 23.8473C108.661 24.3934 108.888 24.9863 108.966 25.626H107.164C107.039 25.0175 106.742 24.5416 106.274 24.1984C105.806 23.8551 105.213 23.6835 104.496 23.6835C103.871 23.6835 103.341 23.8239 102.904 24.1047C102.467 24.37 102.132 24.7445 101.898 25.2281C101.664 25.6962 101.539 26.2423 101.523 26.8664C101.523 27.8494 101.781 28.6373 102.296 29.2302C102.811 29.8231 103.536 30.1195 104.472 30.1195C105.143 30.1195 105.728 29.9479 106.227 29.6047C106.727 29.2614 107.039 28.7621 107.164 28.1068H108.966C108.888 28.7621 108.654 29.3706 108.264 29.9323C107.889 30.494 107.374 30.9543 106.719 31.3131C106.064 31.6564 105.284 31.828 104.379 31.828ZM110.79 31.594V18.4176H112.779V24.2452H112.826C112.842 24.1828 112.904 24.0345 113.013 23.8005C113.122 23.5665 113.294 23.3168 113.528 23.0516C113.778 22.7707 114.105 22.5289 114.511 22.326C114.917 22.1232 115.432 22.0218 116.056 22.0218C116.727 22.0218 117.28 22.131 117.717 22.3495C118.154 22.5523 118.497 22.8331 118.747 23.192C119.012 23.5509 119.207 23.9487 119.332 24.3856C119.457 24.8225 119.535 25.2593 119.566 25.6962C119.613 26.1331 119.636 26.5388 119.636 26.9132V31.594H117.741V26.8898C117.741 26.2969 117.678 25.7664 117.554 25.2983C117.429 24.8147 117.202 24.4402 116.875 24.175C116.547 23.8941 116.056 23.7537 115.4 23.7537C114.745 23.7537 114.222 23.9097 113.832 24.2218C113.458 24.5338 113.185 24.9395 113.013 25.4388C112.857 25.9224 112.779 26.4529 112.779 27.0302V31.594H110.79ZM125.975 31.828C124.898 31.828 124.017 31.594 123.33 31.1259C122.644 30.6422 122.136 30.0259 121.809 29.277C121.481 28.5125 121.317 27.7245 121.317 26.9132C121.302 25.9927 121.473 25.1579 121.832 24.409C122.207 23.6601 122.737 23.0672 123.424 22.6303C124.126 22.1934 124.961 21.975 125.928 21.975C126.77 21.975 127.519 22.1622 128.175 22.5367C128.83 22.8955 129.353 23.4104 129.743 24.0813C130.133 24.7367 130.343 25.5168 130.375 26.4217C130.39 26.4685 130.398 26.5622 130.398 26.7026C130.398 26.8274 130.398 26.9366 130.398 27.0302H123.166C123.166 28.0288 123.408 28.8089 123.892 29.3706C124.391 29.9167 125.078 30.1898 125.951 30.1898C126.607 30.1898 127.16 30.0259 127.613 29.6983C128.081 29.355 128.37 28.9025 128.479 28.3409H130.375C130.281 28.9962 130.047 29.5891 129.673 30.1195C129.298 30.65 128.799 31.0713 128.175 31.3834C127.551 31.6798 126.817 31.828 125.975 31.828ZM123.236 26.0707H128.432C128.417 25.899 128.37 25.6728 128.292 25.392C128.229 25.1111 128.104 24.8381 127.917 24.5728C127.73 24.292 127.473 24.0579 127.145 23.8707C126.817 23.6835 126.396 23.5899 125.881 23.5899C125.413 23.5899 125.015 23.6679 124.687 23.8239C124.36 23.9799 124.095 24.1906 123.892 24.4558C123.689 24.7054 123.533 24.9785 123.424 25.2749C123.33 25.5558 123.268 25.821 123.236 26.0707ZM132.552 31.594V18.4176H134.471V31.594H132.552ZM140.922 31.828C139.892 31.828 139.026 31.6174 138.324 31.1961C137.622 30.7749 137.092 30.1976 136.733 29.4642C136.39 28.7153 136.218 27.8728 136.218 26.9366C136.218 25.9693 136.39 25.1189 136.733 24.3856C137.092 23.6367 137.622 23.0516 138.324 22.6303C139.026 22.209 139.9 21.9984 140.946 21.9984C142.475 21.9984 143.637 22.4509 144.433 23.3558C145.228 24.2608 145.626 25.4544 145.626 26.9366C145.626 27.8572 145.455 28.6919 145.111 29.4408C144.784 30.1742 144.269 30.7593 143.567 31.1961C142.88 31.6174 141.999 31.828 140.922 31.828ZM140.922 30.1664C141.687 30.1664 142.272 30.0025 142.677 29.6749C143.083 29.3472 143.356 28.9338 143.497 28.4345C143.653 27.9196 143.731 27.3969 143.731 26.8664C143.731 26.3359 143.653 25.821 143.497 25.3217C143.356 24.8069 143.083 24.3856 142.677 24.0579C142.272 23.7147 141.687 23.5431 140.922 23.5431C140.189 23.5431 139.611 23.7147 139.19 24.0579C138.785 24.3856 138.504 24.8069 138.348 25.3217C138.192 25.821 138.114 26.3359 138.114 26.8664C138.114 27.3969 138.192 27.9196 138.348 28.4345C138.504 28.9338 138.785 29.3472 139.19 29.6749C139.611 30.0025 140.189 30.1664 140.922 30.1664ZM147.565 31.594V22.0218H149.367L149.531 24.7835L149.508 26.843V31.594H147.565ZM149.508 27.2877L149.437 25.1813C149.453 24.8381 149.531 24.487 149.672 24.1281C149.812 23.7537 150.023 23.4104 150.303 23.0984C150.6 22.7707 150.974 22.5133 151.427 22.326C151.895 22.1232 152.457 22.0218 153.112 22.0218H153.51V24.175H153.088C152.386 24.175 151.801 24.2452 151.333 24.3856C150.865 24.5104 150.498 24.7054 150.233 24.9707C149.968 25.2359 149.781 25.5636 149.672 25.9537C149.562 26.3437 149.508 26.7884 149.508 27.2877ZM164.623 31.828C163.593 31.828 162.727 31.6174 162.025 31.1961C161.323 30.7749 160.793 30.1976 160.434 29.4642C160.091 28.7153 159.919 27.8728 159.919 26.9366C159.919 25.9693 160.091 25.1189 160.434 24.3856C160.793 23.6367 161.323 23.0516 162.025 22.6303C162.727 22.209 163.601 21.9984 164.647 21.9984C166.176 21.9984 167.338 22.4509 168.134 23.3558C168.929 24.2608 169.327 25.4544 169.327 26.9366C169.327 27.8572 169.156 28.6919 168.812 29.4408C168.485 30.1742 167.97 30.7593 167.268 31.1961C166.581 31.6174 165.7 31.828 164.623 31.828ZM164.623 30.1664C165.388 30.1664 165.973 30.0025 166.378 29.6749C166.784 29.3472 167.057 28.9338 167.198 28.4345C167.354 27.9196 167.432 27.3969 167.432 26.8664C167.432 26.3359 167.354 25.821 167.198 25.3217C167.057 24.8069 166.784 24.3856 166.378 24.0579C165.973 23.7147 165.388 23.5431 164.623 23.5431C163.89 23.5431 163.313 23.7147 162.891 24.0579C162.486 24.3856 162.205 24.8069 162.049 25.3217C161.893 25.821 161.815 26.3359 161.815 26.8664C161.815 27.3969 161.893 27.9196 162.049 28.4345C162.205 28.9338 162.486 29.3472 162.891 29.6749C163.313 30.0025 163.89 30.1664 164.623 30.1664ZM171.968 31.6408V20.1729C171.968 19.4864 172.117 18.9715 172.413 18.6282C172.725 18.285 173.217 18.1133 173.887 18.1133H176.555V19.658H173.911V31.6408H171.968ZM170.564 23.426V22.0218H176.438V23.426H170.564ZM188.441 31.8748C187.724 31.8748 187.029 31.789 186.358 31.6174C185.687 31.4458 185.079 31.1805 184.533 30.8217C183.987 30.4628 183.55 30.0025 183.222 29.4408C182.895 28.8635 182.723 28.177 182.707 27.3813H184.673C184.673 27.4281 184.689 27.5529 184.72 27.7558C184.751 27.9586 184.829 28.1926 184.954 28.4579C185.095 28.7231 185.297 28.9806 185.563 29.2302C185.844 29.4798 186.226 29.6905 186.709 29.8621C187.209 30.0181 187.833 30.0961 188.582 30.0961C189.159 30.0961 189.643 30.0337 190.033 29.9089C190.423 29.7841 190.735 29.6203 190.969 29.4174C191.203 29.2146 191.367 29.004 191.46 28.7855C191.57 28.5671 191.624 28.3721 191.624 28.2004C191.624 27.7167 191.468 27.3267 191.156 27.0302C190.86 26.7338 190.454 26.4997 189.939 26.3281C189.424 26.1409 188.855 25.9771 188.231 25.8366C187.622 25.6806 187.014 25.5168 186.405 25.3452C185.797 25.1579 185.235 24.9161 184.72 24.6196C184.221 24.3232 183.831 23.9409 183.55 23.4728C183.269 22.9892 183.144 22.3729 183.175 21.6239C183.222 20.9062 183.472 20.2899 183.924 19.775C184.377 19.2601 184.993 18.8701 185.773 18.6048C186.569 18.324 187.474 18.1836 188.488 18.1836C189.409 18.1836 190.251 18.3474 191.016 18.675C191.796 19.0027 192.42 19.4942 192.888 20.1495C193.372 20.7892 193.606 21.6083 193.59 22.6069H191.694C191.71 22.0608 191.601 21.6239 191.367 21.2963C191.133 20.953 190.829 20.6878 190.454 20.5005C190.095 20.3133 189.721 20.1885 189.331 20.1261C188.941 20.0481 188.59 20.0091 188.278 20.0091C187.404 20.0091 186.678 20.1729 186.101 20.5005C185.539 20.8126 185.251 21.2573 185.235 21.8346C185.219 22.3339 185.368 22.7317 185.68 23.0282C185.992 23.3246 186.405 23.5587 186.92 23.7303C187.435 23.9019 188.004 24.0579 188.629 24.1984C189.253 24.3388 189.869 24.4948 190.477 24.6664C191.086 24.8381 191.64 25.0721 192.139 25.3686C192.654 25.6494 193.052 26.0317 193.333 26.5153C193.629 26.999 193.762 27.6231 193.731 28.3877C193.699 29.121 193.45 29.7451 192.982 30.26C192.514 30.7749 191.89 31.1727 191.109 31.4536C190.329 31.7344 189.44 31.8748 188.441 31.8748ZM200.074 31.828C199.185 31.828 198.381 31.6408 197.663 31.2663C196.946 30.8919 196.376 30.3458 195.955 29.6281C195.534 28.9103 195.323 28.0366 195.323 27.0068C195.354 25.9771 195.573 25.0877 195.978 24.3388C196.4 23.5899 196.969 23.0126 197.687 22.6069C198.405 22.2012 199.216 21.9984 200.121 21.9984C201.026 21.9984 201.798 22.17 202.438 22.5133C203.093 22.8565 203.608 23.3012 203.982 23.8473C204.357 24.3934 204.583 24.9863 204.661 25.626H202.859C202.734 25.0175 202.438 24.5416 201.97 24.1984C201.502 23.8551 200.909 23.6835 200.191 23.6835C199.567 23.6835 199.036 23.8239 198.6 24.1047C198.163 24.37 197.827 24.7445 197.593 25.2281C197.359 25.6962 197.234 26.2423 197.219 26.8664C197.219 27.8494 197.476 28.6373 197.991 29.2302C198.506 29.8231 199.231 30.1195 200.168 30.1195C200.839 30.1195 201.424 29.9479 201.923 29.6047C202.422 29.2614 202.734 28.7621 202.859 28.1068H204.661C204.583 28.7621 204.349 29.3706 203.959 29.9323C203.585 30.494 203.07 30.9543 202.414 31.3131C201.759 31.6564 200.979 31.828 200.074 31.828ZM206.672 31.594V22.0218H208.615V31.594H206.672ZM207.655 20.6878C207.203 20.6878 206.891 20.5708 206.719 20.3367C206.563 20.1027 206.485 19.8296 206.485 19.5176C206.485 19.2211 206.563 18.9637 206.719 18.7453C206.891 18.5112 207.203 18.3942 207.655 18.3942C208.108 18.3942 208.404 18.5112 208.545 18.7453C208.701 18.9637 208.779 19.2211 208.779 19.5176C208.779 19.8296 208.701 20.1027 208.545 20.3367C208.404 20.5708 208.108 20.6878 207.655 20.6878ZM215.065 31.828C213.988 31.828 213.107 31.594 212.42 31.1259C211.734 30.6422 211.227 30.0259 210.899 29.277C210.571 28.5125 210.408 27.7245 210.408 26.9132C210.392 25.9927 210.564 25.1579 210.922 24.409C211.297 23.6601 211.827 23.0672 212.514 22.6303C213.216 22.1934 214.051 21.975 215.018 21.975C215.861 21.975 216.61 22.1622 217.265 22.5367C217.92 22.8955 218.443 23.4104 218.833 24.0813C219.223 24.7367 219.434 25.5168 219.465 26.4217C219.48 26.4685 219.488 26.5622 219.488 26.7026C219.488 26.8274 219.488 26.9366 219.488 27.0302H212.256C212.256 28.0288 212.498 28.8089 212.982 29.3706C213.481 29.9167 214.168 30.1898 215.042 30.1898C215.697 30.1898 216.251 30.0259 216.703 29.6983C217.171 29.355 217.46 28.9025 217.569 28.3409H219.465C219.371 28.9962 219.137 29.5891 218.763 30.1195C218.388 30.65 217.889 31.0713 217.265 31.3834C216.641 31.6798 215.907 31.828 215.065 31.828ZM212.327 26.0707H217.522C217.507 25.899 217.46 25.6728 217.382 25.392C217.32 25.1111 217.195 24.8381 217.007 24.5728C216.82 24.292 216.563 24.0579 216.235 23.8707C215.907 23.6835 215.486 23.5899 214.971 23.5899C214.503 23.5899 214.105 23.6679 213.778 23.8239C213.45 23.9799 213.185 24.1906 212.982 24.4558C212.779 24.7054 212.623 24.9785 212.514 25.2749C212.42 25.5558 212.358 25.821 212.327 26.0707ZM221.361 31.594V22.0218H223.023L223.351 24.2452H223.397C223.413 24.1828 223.475 24.0345 223.585 23.8005C223.694 23.5665 223.873 23.3168 224.123 23.0516C224.373 22.7707 224.708 22.5289 225.129 22.326C225.551 22.1232 226.081 22.0218 226.721 22.0218C227.392 22.0218 227.938 22.131 228.359 22.3495C228.796 22.5523 229.139 22.8331 229.389 23.192C229.654 23.5353 229.841 23.9253 229.951 24.3622C230.06 24.7835 230.13 25.2203 230.161 25.6728C230.192 26.1097 230.208 26.5231 230.208 26.9132V31.594H228.312V26.8898C228.312 26.2969 228.25 25.7664 228.125 25.2983C228 24.8147 227.774 24.4402 227.446 24.175C227.119 23.8941 226.627 23.7537 225.972 23.7537C225.317 23.7537 224.794 23.9097 224.404 24.2218C224.029 24.5338 223.756 24.9395 223.585 25.4388C223.429 25.9224 223.351 26.4529 223.351 27.0302V31.594H221.361ZM236.528 31.828C235.639 31.828 234.835 31.6408 234.118 31.2663C233.4 30.8919 232.83 30.3458 232.409 29.6281C231.988 28.9103 231.777 28.0366 231.777 27.0068C231.809 25.9771 232.027 25.0877 232.433 24.3388C232.854 23.5899 233.423 23.0126 234.141 22.6069C234.859 22.2012 235.67 21.9984 236.575 21.9984C237.48 21.9984 238.252 22.17 238.892 22.5133C239.547 22.8565 240.062 23.3012 240.437 23.8473C240.811 24.3934 241.037 24.9863 241.115 25.626H239.313C239.189 25.0175 238.892 24.5416 238.424 24.1984C237.956 23.8551 237.363 23.6835 236.645 23.6835C236.021 23.6835 235.491 23.8239 235.054 24.1047C234.617 24.37 234.282 24.7445 234.048 25.2281C233.813 25.6962 233.689 26.2423 233.673 26.8664C233.673 27.8494 233.93 28.6373 234.445 29.2302C234.96 29.8231 235.686 30.1195 236.622 30.1195C237.293 30.1195 237.878 29.9479 238.377 29.6047C238.877 29.2614 239.189 28.7621 239.313 28.1068H241.115C241.037 28.7621 240.803 29.3706 240.413 29.9323C240.039 30.494 239.524 30.9543 238.869 31.3131C238.213 31.6564 237.433 31.828 236.528 31.828ZM247.222 31.828C246.146 31.828 245.264 31.594 244.578 31.1259C243.891 30.6422 243.384 30.0259 243.057 29.277C242.729 28.5125 242.565 27.7245 242.565 26.9132C242.549 25.9927 242.721 25.1579 243.08 24.409C243.454 23.6601 243.985 23.0672 244.671 22.6303C245.374 22.1934 246.208 21.975 247.176 21.975C248.018 21.975 248.767 22.1622 249.422 22.5367C250.078 22.8955 250.6 23.4104 250.99 24.0813C251.381 24.7367 251.591 25.5168 251.622 26.4217C251.638 26.4685 251.646 26.5622 251.646 26.7026C251.646 26.8274 251.646 26.9366 251.646 27.0302H244.414C244.414 28.0288 244.656 28.8089 245.14 29.3706C245.639 29.9167 246.325 30.1898 247.199 30.1898C247.854 30.1898 248.408 30.0259 248.861 29.6983C249.329 29.355 249.617 28.9025 249.727 28.3409H251.622C251.529 28.9962 251.295 29.5891 250.92 30.1195C250.546 30.65 250.047 31.0713 249.422 31.3834C248.798 31.6798 248.065 31.828 247.222 31.828ZM244.484 26.0707H249.68C249.664 25.899 249.617 25.6728 249.539 25.392C249.477 25.1111 249.352 24.8381 249.165 24.5728C248.978 24.292 248.72 24.0579 248.393 23.8707C248.065 23.6835 247.644 23.5899 247.129 23.5899C246.661 23.5899 246.263 23.6679 245.935 23.8239C245.608 23.9799 245.342 24.1906 245.14 24.4558C244.937 24.7054 244.781 24.9785 244.671 25.2749C244.578 25.5558 244.515 25.821 244.484 26.0707Z" fill="#CAFAFF"/>
</g>
<defs>
<filter id="filter0_i_104_20" x="77.2007" y="18.1134" width="174.445" height="13.7615" filterUnits="userSpaceOnUse" color-interpolation-filters="sRGB">
<feFlood flood-opacity="0" result="BackgroundImageFix"/>
<feBlend mode="normal" in="SourceGraphic" in2="BackgroundImageFix" result="shape"/>
<feColorMatrix in="SourceAlpha" type="matrix" values="0 0 0 0 0 0 0 0 0 0 0 0 0 0 0 0 0 0 127 0" result="hardAlpha"/>
<feOffset/>
<feGaussianBlur stdDeviation="1.36392"/>
<feComposite in2="hardAlpha" operator="arithmetic" k2="-1" k3="1"/>
<feColorMatrix type="matrix" values="0 0 0 0 0 0 0 0 0 0 0 0 0 0 0 0 0 0 0.16 0"/>
<feBlend mode="normal" in2="shape" result="effect1_innerShadow_104_20"/>
</filter>
</defs>
</svg>
