<svg width="55" height="48" viewBox="0 0 55 48" fill="none" xmlns="http://www.w3.org/2000/svg">
<g style="mix-blend-mode:screen" opacity="0.15">
<path d="M6.74727 2.53696V5.77565H5.55976V2.59093H3.99439V5.77565H2.75289V2.59093H1.2415V5.77565H0V1.4574H5.61373C6.20749 1.4574 6.74727 1.9432 6.74727 2.53696Z" fill="#33E7FF"/>
<path fill-rule="evenodd" clip-rule="evenodd" d="M12.6309 2.53696V5.77565H9.12234C8.4746 5.77565 7.93481 5.28985 7.93481 4.69609V3.02275H11.4434V2.59093H7.93481V1.4574H11.4974C12.1451 1.4574 12.6309 1.9432 12.6309 2.53696ZM11.4434 4.04834H9.17631V4.64209H11.4434V4.04834Z" fill="#33E7FF"/>
<path d="M18.4067 1.45742V1.83527L16.6793 3.61655L18.4067 5.39782V5.77567H17.1652L15.5998 4.15633H14.952V5.77567H13.7645V0H14.952V3.02277H15.5998L17.1652 1.45742H18.4067Z" fill="#33E7FF"/>
<path fill-rule="evenodd" clip-rule="evenodd" d="M23.9123 2.53696V4.15631H20.4037V4.64209H23.9123V5.77565H20.3497C19.702 5.77565 19.2162 5.28985 19.2162 4.69609V2.53696C19.2162 1.9432 19.702 1.4574 20.3497 1.4574H22.7248C23.3725 1.4574 23.9123 1.9432 23.9123 2.53696ZM22.6708 3.18471V2.59093H20.4037V3.18471H22.6708Z" fill="#33E7FF"/>
<path d="M30.6057 6.90919H24.938V5.77567H30.6057V6.90919Z" fill="#33E7FF"/>
<path d="M32.9808 1.18753V1.45742H34.7081V2.59095H32.9808V5.77567H31.7393V1.07956C31.7393 0.485804 32.279 0 32.9268 0H34.7081V1.18753H32.9808Z" fill="#33E7FF"/>
<path d="M36.813 0V4.64211H37.7846V5.77567H36.7591C36.1113 5.77567 35.5715 5.28987 35.5715 4.69611V0H36.813Z" fill="#33E7FF"/>
<path fill-rule="evenodd" clip-rule="evenodd" d="M42.157 1.4574C42.8048 1.4574 43.3445 1.9432 43.3445 2.53696V4.69609C43.3445 5.28985 42.8048 5.77565 42.157 5.77565H39.782C39.1882 5.77565 38.6484 5.28985 38.6484 4.69609V2.53696C38.6484 1.9432 39.1882 1.4574 39.782 1.4574H42.157ZM39.836 4.64209H42.103V2.59093H39.836V4.64209Z" fill="#33E7FF"/>
<path fill-rule="evenodd" clip-rule="evenodd" d="M49.1201 2.53696V5.77565H45.5575C44.9098 5.77565 44.37 5.28985 44.37 4.69609V3.02275H47.8786V2.59093H44.37V1.4574H47.9326C48.5803 1.4574 49.1201 1.9432 49.1201 2.53696ZM47.8786 4.04834H45.6115V4.64209H47.8786V4.04834Z" fill="#33E7FF"/>
<path d="M51.3873 2.59095V4.64211H53.1146V5.77567H51.3334C50.6856 5.77567 50.1998 5.28987 50.1998 4.69611V0.161926H51.3873V1.45742H53.1146V2.59095H51.3873Z" fill="#33E7FF"/>
<path fill-rule="evenodd" clip-rule="evenodd" d="M59.2681 3.29264V4.4262H58.4584V5.77566H57.2709V4.4262H53.8163V3.4006L57.3788 0.377838H58.4584V3.29264H59.2681ZM55.8675 3.29264H57.3249V2.15911L55.8675 3.29264Z" fill="#33E7FF"/>
<g opacity="0.5">
<path d="M6.74727 17.4349V20.6736H5.55976V17.4889H3.99439V20.6736H2.75289V17.4889H1.2415V20.6736H0V16.3554H5.61373C6.20749 16.3554 6.74727 16.8412 6.74727 17.4349Z" fill="#33E7FF"/>
</g>
<g opacity="0.5">
<path fill-rule="evenodd" clip-rule="evenodd" d="M12.6309 17.4349V20.6736H9.12234C8.4746 20.6736 7.93481 20.1878 7.93481 19.5941V17.9208H11.4434V17.4889H7.93481V16.3554H11.4974C12.1451 16.3554 12.6309 16.8412 12.6309 17.4349ZM11.4434 18.9463H9.17631V19.5401H11.4434V18.9463Z" fill="#33E7FF"/>
</g>
<g opacity="0.5">
<path d="M18.4067 16.3554V16.7332L16.6793 18.5145L18.4067 20.2958V20.6736H17.1652L15.5998 19.1083H14.952V20.6736H13.7645V14.952H14.952V17.9208H15.5998L17.1652 16.3554H18.4067Z" fill="#33E7FF"/>
</g>
<g opacity="0.5">
<path fill-rule="evenodd" clip-rule="evenodd" d="M23.9123 17.4349V19.1083H20.4037V19.5401H23.9123V20.6736H20.3497C19.702 20.6736 19.2162 20.1878 19.2162 19.5941V17.4349C19.2162 16.8412 19.702 16.3554 20.3497 16.3554H22.7248C23.3725 16.3554 23.9123 16.8412 23.9123 17.4349ZM22.6708 18.0827V17.4889H20.4037V18.0827H22.6708Z" fill="#33E7FF"/>
</g>
<g opacity="0.5">
<path d="M30.6057 21.8612H24.938V20.6736H30.6057V21.8612Z" fill="#33E7FF"/>
</g>
<g opacity="0.5">
<path d="M32.9808 16.0855V16.3554H34.7081V17.4889H32.9808V20.6736H31.7393V16.0315C31.7393 15.4378 32.279 14.952 32.9268 14.952H34.7081V16.0855H32.9808Z" fill="#33E7FF"/>
</g>
<g opacity="0.5">
<path d="M36.813 14.8979V19.5401H37.7846V20.6736H36.7591C36.1113 20.6736 35.5715 20.1878 35.5715 19.5941V14.8979H36.813Z" fill="#33E7FF"/>
</g>
<g opacity="0.5">
<path fill-rule="evenodd" clip-rule="evenodd" d="M42.157 16.3554C42.8048 16.3554 43.3445 16.8412 43.3445 17.4349V19.5941C43.3445 20.1878 42.8048 20.6736 42.157 20.6736H39.782C39.1882 20.6736 38.6484 20.1878 38.6484 19.5941V17.4349C38.6484 16.8412 39.1882 16.3554 39.782 16.3554H42.157ZM39.836 19.5401H42.103V17.4889H39.836V19.5401Z" fill="#33E7FF"/>
</g>
<g opacity="0.5">
<path fill-rule="evenodd" clip-rule="evenodd" d="M49.1201 17.4349V20.6736H45.5575C44.9098 20.6736 44.37 20.1878 44.37 19.5941V17.9208H47.8786V17.4889H44.37V16.3554H47.9326C48.5803 16.3554 49.1201 16.8412 49.1201 17.4349ZM47.8786 18.9463H45.6115V19.5401H47.8786V18.9463Z" fill="#33E7FF"/>
</g>
<g opacity="0.5">
<path d="M51.3873 17.489V19.5401H53.1146V20.6736H51.3334C50.6856 20.6736 50.1998 20.1878 50.1998 19.5941V15.0599H51.3873V16.3554H53.1146V17.489H51.3873Z" fill="#33E7FF"/>
</g>
<g opacity="0.5">
<path fill-rule="evenodd" clip-rule="evenodd" d="M59.2681 18.1907V19.3242H58.4584V20.6736H57.2709V19.3242H53.8163V18.2986L57.3788 15.2758H58.4584V18.1907H59.2681ZM55.8675 18.1907H57.3249V17.1111L55.8675 18.1907Z" fill="#33E7FF"/>
</g>
<g opacity="0.5">
<path d="M6.74727 26.3954V29.6341H5.55976V26.4493H3.99439V29.6341H2.75289V26.4493H1.2415V29.6341H0V25.3158H5.61373C6.20749 25.3158 6.74727 25.8016 6.74727 26.3954Z" fill="#33E7FF"/>
</g>
<g opacity="0.5">
<path fill-rule="evenodd" clip-rule="evenodd" d="M12.6309 26.3954V29.6341H9.12234C8.4746 29.6341 7.93481 29.1482 7.93481 28.5545V26.8811H11.4434V26.4493H7.93481V25.3158H11.4974C12.1451 25.3158 12.6309 25.8016 12.6309 26.3954ZM11.4434 27.9067H9.17631V28.5005H11.4434V27.9067Z" fill="#33E7FF"/>
</g>
<g opacity="0.5">
<path d="M18.4067 25.3158V25.6936L16.6793 27.4749L18.4067 29.2562V29.634H17.1652L15.5998 28.0147H14.952V29.634H13.7645V23.8584H14.952V26.8811H15.5998L17.1652 25.3158H18.4067Z" fill="#33E7FF"/>
</g>
<g opacity="0.5">
<path fill-rule="evenodd" clip-rule="evenodd" d="M23.9123 26.3954V28.0147H20.4037V28.5005H23.9123V29.6341H20.3497C19.702 29.6341 19.2162 29.1482 19.2162 28.5545V26.3954C19.2162 25.8016 19.702 25.3158 20.3497 25.3158H22.7248C23.3725 25.3158 23.9123 25.8016 23.9123 26.3954ZM22.6708 27.0431V26.4493H20.4037V27.0431H22.6708Z" fill="#33E7FF"/>
</g>
<g opacity="0.5">
<path d="M30.6057 30.7676H24.938V29.634H30.6057V30.7676Z" fill="#33E7FF"/>
</g>
<g opacity="0.5">
<path d="M32.9808 25.0459V25.3158H34.7081V26.4493H32.9808V29.634H31.7393V24.9379C31.7393 24.3442 32.279 23.8584 32.9268 23.8584H34.7081V25.0459H32.9808Z" fill="#33E7FF"/>
</g>
<g opacity="0.5">
<path d="M36.813 23.8584V28.5005H37.7846V29.634H36.7591C36.1113 29.634 35.5715 29.1482 35.5715 28.5545V23.8584H36.813Z" fill="#33E7FF"/>
</g>
<g opacity="0.5">
<path fill-rule="evenodd" clip-rule="evenodd" d="M42.157 25.3158C42.8048 25.3158 43.3445 25.8016 43.3445 26.3954V28.5545C43.3445 29.1482 42.8048 29.6341 42.157 29.6341H39.782C39.1882 29.6341 38.6484 29.1482 38.6484 28.5545V26.3954C38.6484 25.8016 39.1882 25.3158 39.782 25.3158H42.157ZM39.836 28.5005H42.103V26.4493H39.836V28.5005Z" fill="#33E7FF"/>
</g>
<g opacity="0.5">
<path fill-rule="evenodd" clip-rule="evenodd" d="M49.1201 26.3954V29.6341H45.5575C44.9098 29.6341 44.37 29.1482 44.37 28.5545V26.8811H47.8786V26.4493H44.37V25.3158H47.9326C48.5803 25.3158 49.1201 25.8016 49.1201 26.3954ZM47.8786 27.9067H45.6115V28.5005H47.8786V27.9067Z" fill="#33E7FF"/>
</g>
<g opacity="0.5">
<path d="M51.3873 26.4493V28.5005H53.1146V29.634H51.3334C50.6856 29.634 50.1998 29.1482 50.1998 28.5545V24.0203H51.3873V25.3158H53.1146V26.4493H51.3873Z" fill="#33E7FF"/>
</g>
<g opacity="0.5">
<path fill-rule="evenodd" clip-rule="evenodd" d="M59.2681 27.151V28.2846H58.4584V29.6341H57.2709V28.2846H53.8163V27.259L57.3788 24.2362H58.4584V27.151H59.2681ZM55.8675 27.151H57.3249V26.0175L55.8675 27.151Z" fill="#33E7FF"/>
</g>
<path d="M6.74727 42.8047V46.0434H5.55976V42.8587H3.99439V46.0434H2.75289V42.8587H1.2415V46.0434H0V41.7251H5.61373C6.20749 41.7251 6.74727 42.2109 6.74727 42.8047Z" fill="#33E7FF"/>
<path fill-rule="evenodd" clip-rule="evenodd" d="M12.6309 42.8047V46.0434H9.12234C8.4746 46.0434 7.93481 45.5576 7.93481 44.9638V43.2905H11.4434V42.8587H7.93481V41.7251H11.4974C12.1451 41.7251 12.6309 42.2109 12.6309 42.8047ZM11.4434 44.3161H9.17631V44.9099H11.4434V44.3161Z" fill="#33E7FF"/>
<path d="M18.4067 41.7251V42.103L16.6793 43.8843L18.4067 45.6655V46.0434H17.1652L15.5998 44.424H14.952V46.0434H13.7645V40.2677H14.952V43.2905H15.5998L17.1652 41.7251H18.4067Z" fill="#33E7FF"/>
<path fill-rule="evenodd" clip-rule="evenodd" d="M23.9123 42.8047V44.4241H20.4037V44.9099H23.9123V46.0434H20.3497C19.702 46.0434 19.2162 45.5576 19.2162 44.9638V42.8047C19.2162 42.2109 19.702 41.7251 20.3497 41.7251H22.7248C23.3725 41.7251 23.9123 42.2109 23.9123 42.8047ZM22.6708 43.4525V42.8587H20.4037V43.4525H22.6708Z" fill="#33E7FF"/>
<path d="M30.6057 47.177H24.938V46.0434H30.6057V47.177Z" fill="#33E7FF"/>
<path d="M32.9808 41.4552V41.7251H34.7081V42.8587H32.9808V46.0434H31.7393V41.3473C31.7393 40.7535 32.279 40.2677 32.9268 40.2677H34.7081V41.4552H32.9808Z" fill="#33E7FF"/>
<path d="M36.813 40.2677V44.9099H37.7846V46.0434H36.7591C36.1113 46.0434 35.5715 45.5576 35.5715 44.9638V40.2677H36.813Z" fill="#33E7FF"/>
<path fill-rule="evenodd" clip-rule="evenodd" d="M42.157 41.7251C42.8048 41.7251 43.3445 42.2109 43.3445 42.8047V44.9638C43.3445 45.5576 42.8048 46.0434 42.157 46.0434H39.782C39.1882 46.0434 38.6484 45.5576 38.6484 44.9638V42.8047C38.6484 42.2109 39.1882 41.7251 39.782 41.7251H42.157ZM39.836 44.9099H42.103V42.8587H39.836V44.9099Z" fill="#33E7FF"/>
<path fill-rule="evenodd" clip-rule="evenodd" d="M49.1201 42.8047V46.0434H45.5575C44.9098 46.0434 44.37 45.5576 44.37 44.9638V43.2905H47.8786V42.8587H44.37V41.7251H47.9326C48.5803 41.7251 49.1201 42.2109 49.1201 42.8047ZM47.8786 44.3161H45.6115V44.9099H47.8786V44.3161Z" fill="#33E7FF"/>
<path d="M51.3873 42.8587V44.9099H53.1146V46.0434H51.3334C50.6856 46.0434 50.1998 45.5576 50.1998 44.9638V40.4297H51.3873V41.7251H53.1146V42.8587H51.3873Z" fill="#33E7FF"/>
<path fill-rule="evenodd" clip-rule="evenodd" d="M59.2681 43.5604V44.6939H58.4584V46.0434H57.2709V44.6939H53.8163V43.6684L57.3788 40.6456H58.4584V43.5604H59.2681ZM55.8675 43.5604H57.3249V42.4268L55.8675 43.5604Z" fill="#33E7FF"/>
</g>
</svg>
