<svg width="164" height="39" viewBox="0 0 164 39" fill="none" xmlns="http://www.w3.org/2000/svg">
<path opacity="0.3" d="M154.254 22.4861L158.982 10.5211L54.0948 10.4246L50.7176 4.24906L15.2084 4.15256L5.07666 29.6265L8.06796 34.5476L137.078 34.7406L154.254 22.4861Z" fill="#1B252F"/>
<path d="M53.9983 10.3281L50.7176 4.24906L15.2084 4.15256L5.07666 29.6265L8.06796 34.5476L44.349 34.6441L53.9983 10.3281Z" fill="#00E2A7"/>
<path fill-rule="evenodd" clip-rule="evenodd" d="M137.657 38.0214H137.464L4.59419 37.9249L0.92749 31.7494V31.5564L13.182 0.871876H53.4193L56.7 7.04738L163.71 7.14388L156.859 24.3195L137.657 38.0214ZM5.07665 36.96L137.368 37.153L156.184 23.7406L162.359 8.0123L56.2176 7.9158L52.9369 1.7403H13.8575L1.89241 31.6529L5.07665 36.96Z" fill="#00E2A7"/>
<path d="M69.5341 0.292847L72.3323 5.31046H76.0955L73.2972 0.292847H69.5341ZM62.7796 0.292847L65.5778 5.31046H69.3411L66.4463 0.292847H62.7796ZM56.0251 0.292847L58.9199 5.31046H62.5866L59.7883 0.292847H56.0251ZM89.8939 0.292847L92.6922 5.31046H96.4554L93.6571 0.292847H89.8939ZM76.2885 0.292847L79.1833 5.31046H82.9465L80.0517 0.292847H76.2885ZM83.043 0.292847L85.9378 5.31046H89.7009L86.8062 0.292847H83.043ZM103.403 0.389345L106.201 5.31046H109.964L107.166 0.389345H103.403ZM110.157 0.389345L112.956 5.31046L116.719 5.40696L113.921 0.389345H110.157ZM96.5519 0.389345L99.4467 5.31046H103.113L100.315 0.389345H96.5519ZM116.912 0.389345L119.71 5.40696H123.473L120.675 0.389345H116.912ZM130.421 0.389345L133.219 5.40696H136.982L134.184 0.389345H130.421ZM123.57 0.389345L126.465 5.40696H130.228L127.333 0.389345H123.57ZM150.684 0.389345L153.579 5.40696H157.246L154.447 0.389345H150.684ZM143.93 0.389345L146.728 5.40696H150.491L147.693 0.389345H143.93ZM137.079 0.389345L139.973 5.40696H143.64L140.842 0.389345H137.079ZM157.439 0.485843L160.237 5.40696H164L161.202 0.485843H157.439Z" fill="#00E2A7"/>
<path d="M155.701 28.4688L151.648 38.504H141.613L155.701 28.4688Z" fill="#00E2A7"/>
<path d="M29.2966 16.986C28.4282 16.986 27.7527 17.6614 27.7527 18.6263L27.6562 25.2843C27.6562 26.1527 28.4282 26.9247 29.2966 26.9247C30.1651 26.9247 30.937 26.1527 30.937 25.2843V18.6263C30.937 17.7579 30.1651 16.986 29.2966 16.986ZM29.2966 15.4421C30.1651 15.4421 30.8405 14.6701 30.8405 13.8017C30.8405 12.9333 30.1651 12.2578 29.2966 12.2578C28.4282 12.2578 27.7527 12.9333 27.7527 13.8017C27.7527 14.6701 28.4282 15.4421 29.2966 15.4421Z" fill="white"/>
<path fill-rule="evenodd" clip-rule="evenodd" d="M29.2958 30.3023C26.401 30.3023 23.6992 29.2409 21.6728 27.118C19.6465 25.0917 18.5851 22.3899 18.5851 19.5916C18.5851 13.6091 23.4097 8.78451 29.2958 8.78451C32.1905 8.78451 34.8923 9.9424 36.9186 11.9687C38.945 13.9951 40.1029 16.6969 40.1029 19.5916C40.1029 22.4864 38.945 25.1882 36.9186 27.2145C34.8923 29.2408 32.1905 30.3023 29.2958 30.3023ZM29.2958 9.9424C23.9887 9.9424 19.6465 14.1881 19.6465 19.5916C19.6465 22.1004 20.6114 24.6092 22.4448 26.3461C24.2781 28.1794 26.6905 29.2409 29.2958 29.2409C31.9011 29.2409 34.3133 28.1794 36.1467 26.4426C37.98 24.6092 38.945 22.1969 38.945 19.5916C38.945 16.9863 37.98 14.574 36.1467 12.7407C34.3133 10.9073 31.9011 9.9424 29.2958 9.9424Z" fill="white"/>
<g filter="url(#filter0_i_19_4633)">
<path d="M85.3854 27.1867C84.9083 27.1867 84.4468 27.1297 84.0008 27.0156C83.5547 26.9015 83.1502 26.7251 82.7872 26.4866C82.4242 26.248 82.1338 25.942 81.9159 25.5686C81.6981 25.1849 81.584 24.7285 81.5737 24.1995H82.8806C82.8806 24.2306 82.8909 24.3136 82.9117 24.4485C82.9324 24.5833 82.9843 24.7389 83.0673 24.9152C83.1606 25.0915 83.2954 25.2627 83.4718 25.4286C83.6585 25.5946 83.9126 25.7346 84.2341 25.8487C84.566 25.9524 84.9809 26.0043 85.4788 26.0043C85.8626 26.0043 86.1841 25.9628 86.4434 25.8798C86.7027 25.7968 86.9101 25.6879 87.0657 25.5531C87.2213 25.4182 87.3302 25.2782 87.3924 25.133C87.465 24.9878 87.5014 24.8582 87.5014 24.7441C87.5014 24.4225 87.3976 24.1632 87.1902 23.9661C86.9931 23.7691 86.7234 23.6135 86.3812 23.4994C86.0389 23.3749 85.6603 23.266 85.2454 23.1727C84.8409 23.069 84.4364 22.96 84.0319 22.846C83.6274 22.7215 83.254 22.5607 82.9117 22.3637C82.5798 22.1666 82.3205 21.9125 82.1338 21.6013C81.9471 21.2798 81.8641 20.8701 81.8848 20.3722C81.9159 19.8951 82.0819 19.4854 82.3827 19.1431C82.6835 18.8008 83.0932 18.5415 83.6118 18.3652C84.1408 18.1785 84.7424 18.0851 85.4165 18.0851C86.0285 18.0851 86.5886 18.194 87.0968 18.4119C87.6154 18.6297 88.0303 18.9564 88.3415 19.392C88.663 19.8173 88.8186 20.3618 88.8082 21.0256H87.548C87.5584 20.6626 87.4858 20.3722 87.3302 20.1544C87.1746 19.9262 86.9724 19.7499 86.7234 19.6254C86.4849 19.5009 86.2359 19.418 85.9766 19.3765C85.7173 19.3246 85.484 19.2987 85.2765 19.2987C84.6957 19.2987 84.2134 19.4076 83.8296 19.6254C83.4562 19.8328 83.2643 20.1285 83.254 20.5122C83.2436 20.8441 83.3421 21.1086 83.5496 21.3057C83.757 21.5028 84.0319 21.6583 84.3741 21.7724C84.7164 21.8865 85.095 21.9903 85.5099 22.0836C85.9248 22.177 86.3345 22.2807 86.739 22.3948C87.1435 22.5089 87.5117 22.6644 87.8436 22.8615C88.1859 23.0482 88.4504 23.3023 88.6371 23.6239C88.8342 23.9454 88.9223 24.3603 88.9016 24.8685C88.8808 25.356 88.7149 25.7709 88.4037 26.1132C88.0926 26.4555 87.6777 26.72 87.1591 26.9067C86.6405 27.0933 86.0493 27.1867 85.3854 27.1867ZM92.7451 27C92.3094 27 91.9879 26.8859 91.7805 26.6577C91.573 26.4295 91.4693 26.0821 91.4693 25.6153V21.4146H92.6984V25.9732H94.1764V27H92.7451ZM90.4891 21.5702V20.6367C90.7277 20.6367 90.9196 20.6211 91.0648 20.59C91.2204 20.5589 91.3345 20.4967 91.4071 20.4033C91.49 20.2996 91.5471 20.1388 91.5782 19.921C91.6093 19.6928 91.6249 19.3868 91.6249 19.0031H92.6984V20.6367H94.1609V21.5702H90.4891ZM98.4241 27.14C97.8432 27.14 97.3661 27 96.9927 26.72C96.6297 26.4399 96.36 26.0561 96.1837 25.5686C96.0177 25.0812 95.9348 24.5211 95.9348 23.8884C95.9348 23.2349 96.0229 22.6644 96.1992 22.177C96.3756 21.6791 96.6452 21.2901 97.0083 21.0101C97.3817 20.73 97.8536 20.59 98.4241 20.59C98.7767 20.59 99.0775 20.6419 99.3264 20.7456C99.5754 20.8389 99.7828 20.9582 99.9488 21.1034C100.115 21.2486 100.25 21.399 100.353 21.5546C100.457 21.6998 100.53 21.8295 100.571 21.9436H100.602V20.6367H101.925V27H100.82L100.602 25.8642H100.571C100.53 25.9783 100.457 26.108 100.353 26.2532C100.25 26.3984 100.11 26.5384 99.9332 26.6733C99.7673 26.8081 99.5598 26.917 99.3109 27C99.062 27.0933 98.7664 27.14 98.4241 27.14ZM98.9375 26.0354C99.3524 26.0354 99.6791 25.9472 99.9177 25.7709C100.156 25.5842 100.327 25.3301 100.431 25.0085C100.535 24.687 100.587 24.3188 100.587 23.9039C100.587 23.4579 100.53 23.0741 100.416 22.7526C100.312 22.4311 100.141 22.1873 99.9021 22.0214C99.6635 21.845 99.342 21.7569 98.9375 21.7569C98.5122 21.7569 98.17 21.8554 97.9107 22.0525C97.6617 22.2392 97.4802 22.4933 97.3661 22.8148C97.2624 23.1364 97.2105 23.4942 97.2105 23.8884C97.2105 24.2929 97.2624 24.6611 97.3661 24.993C97.4802 25.3145 97.6617 25.5686 97.9107 25.7553C98.17 25.942 98.5122 26.0354 98.9375 26.0354ZM103.954 27V20.6367H105.152L105.261 22.4726L105.245 23.8417V27H103.954ZM105.245 24.1373L105.199 22.737C105.209 22.5089 105.261 22.2755 105.354 22.0369C105.448 21.788 105.588 21.5598 105.774 21.3524C105.971 21.1346 106.22 20.9634 106.521 20.8389C106.832 20.7041 107.206 20.6367 107.641 20.6367H107.906V22.068H107.626C107.159 22.068 106.77 22.1147 106.459 22.2081C106.148 22.291 105.904 22.4207 105.728 22.597C105.551 22.7733 105.427 22.9912 105.354 23.2505C105.282 23.5098 105.245 23.8054 105.245 24.1373ZM111.761 27C111.326 27 111.004 26.8859 110.797 26.6577C110.589 26.4295 110.486 26.0821 110.486 25.6153V21.4146H111.715V25.9732H113.193V27H111.761ZM109.505 21.5702V20.6367C109.744 20.6367 109.936 20.6211 110.081 20.59C110.237 20.5589 110.351 20.4967 110.423 20.4033C110.506 20.2996 110.563 20.1388 110.594 19.921C110.626 19.6928 110.641 19.3868 110.641 19.0031H111.715V20.6367H113.177V21.5702H109.505Z" fill="#00E2A7"/>
</g>
<defs>
<filter id="filter0_i_19_4633" x="81.5736" y="18.0851" width="31.6191" height="9.10156" filterUnits="userSpaceOnUse" color-interpolation-filters="sRGB">
<feFlood flood-opacity="0" result="BackgroundImageFix"/>
<feBlend mode="normal" in="SourceGraphic" in2="BackgroundImageFix" result="shape"/>
<feColorMatrix in="SourceAlpha" type="matrix" values="0 0 0 0 0 0 0 0 0 0 0 0 0 0 0 0 0 0 127 0" result="hardAlpha"/>
<feOffset/>
<feGaussianBlur stdDeviation="0.906695"/>
<feComposite in2="hardAlpha" operator="arithmetic" k2="-1" k3="1"/>
<feColorMatrix type="matrix" values="0 0 0 0 0 0 0 0 0 0 0 0 0 0 0 0 0 0 0.16 0"/>
<feBlend mode="normal" in2="shape" result="effect1_innerShadow_19_4633"/>
</filter>
</defs>
</svg>
