<svg width="331" height="53" viewBox="0 0 331 53" fill="none" xmlns="http://www.w3.org/2000/svg">
<path d="M65.6905 29.0423H60.4858L70.4299 1.09998H75.6346L65.6905 29.0423Z" fill="#56EF81"/>
<path d="M57.5777 29.0423H52.373L62.3172 1.09998H67.5218L57.5777 29.0423Z" fill="#56EF81"/>
<path d="M57.5482 29.0714H20.3887V28.4318H57.5482V29.0714Z" fill="#56EF81"/>
<path d="M66.1263 37.8527H2.97258L0.355713 34.6543H63.5676L66.1263 37.8527Z" fill="#56EF81"/>
<path d="M109.188 52.9142H77.3788L63.0732 35.0323L63.5675 34.6543L77.6695 52.3036H109.188V52.9142Z" fill="#56EF81"/>
<path opacity="0.7" d="M0.355713 34.6543L2.97258 37.8527H46.4126L43.7085 34.6543H0.355713Z" fill="#BDE6FF"/>
<path opacity="0.7" d="M70.4302 1.09998L66.5339 12.0327H71.7386L75.6348 1.09998H70.4302Z" fill="#BDE6FF"/>
<path d="M273.353 29.0423H278.558L268.614 1.09998H263.438L273.353 29.0423Z" fill="#56EF81"/>
<path d="M265.27 29.0423H270.445L260.53 1.09998H255.325L265.27 29.0423Z" fill="#56EF81"/>
<path d="M273.383 29.0714H310.542V28.4318H273.383V29.0714Z" fill="#56EF81"/>
<path fill-rule="evenodd" clip-rule="evenodd" d="M310.251 28.7513C310.251 27.4429 311.298 26.3961 312.607 26.3961C313.886 26.3961 314.962 27.4429 314.962 28.7513C314.962 30.0597 313.886 31.1065 312.607 31.1065C311.298 31.1065 310.251 30.0597 310.251 28.7513ZM310.862 28.7513C310.862 29.7108 311.647 30.4959 312.607 30.4959C313.566 30.4959 314.322 29.7108 314.322 28.7513C314.322 27.7918 313.566 27.0067 312.607 27.0067C311.647 27.0067 310.862 27.7918 310.862 28.7513Z" fill="#56EF81"/>
<path d="M264.834 37.8527H327.959L330.576 34.6543H267.364L264.834 37.8527Z" fill="#56EF81"/>
<path d="M221.742 52.9142H253.552L267.857 35.0323L267.392 34.6543L253.261 52.3036H221.742V52.9142Z" fill="#56EF81"/>
<path opacity="0.2" d="M252.477 0.80896H143.208H78.4553L66.7375 33.7815L79.3276 49.9479H143.208H251.605L264.195 33.7815L252.477 0.80896Z" fill="#000616"/>
<path d="M311.909 28.7513C311.909 29.1293 312.229 29.4201 312.607 29.4201C312.985 29.4201 313.275 29.1293 313.275 28.7513C313.275 28.3733 312.985 28.0535 312.607 28.0535C312.229 28.0535 311.909 28.3733 311.909 28.7513Z" fill="white"/>
<path opacity="0.7" d="M330.576 34.6543L327.959 37.8527H284.519L287.223 34.6543H330.576Z" fill="#BDE6FF"/>
<path opacity="0.7" d="M260.53 1.09998L264.397 12.0327H259.193L255.325 1.09998H260.53Z" fill="#BDE6FF"/>
<g filter="url(#filter0_i_104_23)">
<path d="M82.0401 32.6686V18.8744H85.5683L89.4395 31.762H89.4885L93.2861 18.8744H96.8143V32.6686H94.7317L94.8542 19.83H94.8052L90.934 32.6686H87.9204L84.0737 19.83H84.0247L84.1227 32.6686H82.0401ZM102.639 32.8891C101.725 32.8891 100.973 32.6686 100.385 32.2276C99.8137 31.7865 99.389 31.1822 99.1113 30.4145C98.85 29.6468 98.7193 28.7647 98.7193 27.7683C98.7193 26.7393 98.8581 25.8409 99.1358 25.0732C99.4135 24.2892 99.8382 23.6766 100.41 23.2356C100.998 22.7946 101.741 22.5741 102.639 22.5741C103.195 22.5741 103.669 22.6558 104.061 22.8191C104.453 22.9661 104.779 23.154 105.041 23.3826C105.302 23.6113 105.514 23.8482 105.678 24.0932C105.841 24.3218 105.955 24.526 106.021 24.7057H106.07V22.6476H108.152V32.6686H106.413L106.07 30.88H106.021C105.955 31.0597 105.841 31.2638 105.678 31.4925C105.514 31.7212 105.294 31.9417 105.016 32.1541C104.755 32.3664 104.428 32.5379 104.036 32.6686C103.644 32.8156 103.178 32.8891 102.639 32.8891ZM103.448 31.1495C104.101 31.1495 104.616 31.0107 104.992 30.733C105.367 30.439 105.637 30.0388 105.8 29.5324C105.963 29.0261 106.045 28.4462 106.045 27.7928C106.045 27.0905 105.955 26.4861 105.776 25.9798C105.612 25.4734 105.343 25.0895 104.967 24.8282C104.591 24.5505 104.085 24.4117 103.448 24.4117C102.778 24.4117 102.239 24.5669 101.831 24.8772C101.439 25.1712 101.153 25.5714 100.973 26.0778C100.81 26.5841 100.728 27.1476 100.728 27.7683C100.728 28.4054 100.81 28.9852 100.973 29.5079C101.153 30.0143 101.439 30.4145 101.831 30.7085C102.239 31.0025 102.778 31.1495 103.448 31.1495ZM114.141 32.9136C113.684 32.9136 113.235 32.8483 112.793 32.7176C112.369 32.6032 111.969 32.4317 111.593 32.2031C111.234 31.9744 110.907 31.713 110.613 31.419C110.335 31.125 110.115 30.8065 109.951 30.4635C109.804 30.1041 109.731 29.7284 109.731 29.3364H111.642C111.642 29.3528 111.65 29.4671 111.666 29.6794C111.699 29.8918 111.789 30.1368 111.936 30.4145C112.083 30.6758 112.32 30.9045 112.646 31.1005C112.989 31.2965 113.471 31.3945 114.092 31.3945C114.566 31.3945 114.966 31.3373 115.293 31.223C115.636 31.1087 115.897 30.9535 116.077 30.7575C116.256 30.5451 116.338 30.292 116.322 29.998C116.322 29.5896 116.166 29.2711 115.856 29.0424C115.546 28.8137 115.146 28.6341 114.656 28.5034C114.166 28.3564 113.651 28.2175 113.112 28.0869C112.573 27.9562 112.058 27.7847 111.568 27.5723C111.078 27.3437 110.678 27.0415 110.368 26.6658C110.074 26.2738 109.935 25.7511 109.951 25.0977C109.951 24.2157 110.319 23.5378 111.054 23.0641C111.805 22.5741 112.753 22.3291 113.896 22.3291C114.451 22.3291 114.99 22.3944 115.513 22.5251C116.036 22.6558 116.501 22.8599 116.91 23.1376C117.334 23.4153 117.669 23.7828 117.914 24.2402C118.176 24.6975 118.298 25.2611 118.282 25.9308H116.395C116.411 25.5061 116.338 25.1631 116.175 24.9017C116.028 24.6404 115.823 24.4444 115.562 24.3137C115.301 24.1667 115.023 24.0687 114.729 24.0197C114.451 23.9543 114.182 23.9217 113.921 23.9217C113.267 23.9217 112.753 24.0442 112.377 24.2892C112.001 24.5179 111.813 24.8282 111.813 25.2202C111.813 25.6286 111.969 25.9471 112.279 26.1758C112.589 26.4044 112.989 26.5841 113.48 26.7148C113.97 26.8455 114.492 26.9761 115.048 27.1068C115.603 27.2375 116.126 27.4172 116.616 27.6458C117.106 27.8582 117.506 28.1604 117.816 28.5524C118.127 28.9444 118.282 29.4671 118.282 30.1205C118.282 30.7575 118.102 31.2802 117.743 31.6885C117.4 32.0969 116.918 32.4072 116.297 32.6196C115.676 32.8156 114.958 32.9136 114.141 32.9136ZM122.868 32.6686C122.182 32.6686 121.675 32.4889 121.349 32.1296C121.022 31.7702 120.859 31.223 120.859 30.488V23.8727H122.794V31.0515H125.122V32.6686H122.868ZM119.315 24.1177V22.6476C119.691 22.6476 119.993 22.6231 120.222 22.5741C120.467 22.5251 120.646 22.4271 120.761 22.2801C120.891 22.1167 120.981 21.8636 121.03 21.5205C121.079 21.1612 121.104 20.6793 121.104 20.075H122.794V22.6476H125.097V24.1177H119.315ZM131.474 32.9136C130.347 32.9136 129.424 32.6686 128.705 32.1786C127.987 31.6722 127.456 31.027 127.113 30.243C126.77 29.4426 126.598 28.6177 126.598 27.7683C126.582 26.8046 126.762 25.9308 127.137 25.1467C127.529 24.3627 128.085 23.742 128.803 23.2846C129.538 22.8273 130.412 22.5986 131.425 22.5986C132.307 22.5986 133.091 22.7946 133.777 23.1866C134.463 23.5623 135.01 24.1013 135.419 24.8037C135.827 25.4897 136.047 26.3064 136.08 27.2538C136.096 27.3028 136.105 27.4008 136.105 27.5478C136.105 27.6785 136.105 27.7928 136.105 27.8909H128.534C128.534 28.9362 128.787 29.7529 129.293 30.341C129.816 30.9127 130.535 31.1985 131.449 31.1985C132.135 31.1985 132.715 31.027 133.189 30.684C133.679 30.3246 133.981 29.8509 134.096 29.2629H136.08C135.982 29.9489 135.737 30.5696 135.345 31.125C134.953 31.6804 134.43 32.1214 133.777 32.4481C133.124 32.7584 132.356 32.9136 131.474 32.9136ZM128.607 26.8863H134.047C134.03 26.7066 133.981 26.4698 133.9 26.1758C133.834 25.8818 133.704 25.5959 133.508 25.3182C133.311 25.0242 133.042 24.7792 132.699 24.5832C132.356 24.3872 131.915 24.2892 131.376 24.2892C130.886 24.2892 130.469 24.3708 130.126 24.5342C129.783 24.6975 129.506 24.918 129.293 25.1957C129.081 25.4571 128.918 25.7429 128.803 26.0533C128.705 26.3473 128.64 26.625 128.607 26.8863ZM138.237 32.6686V22.6476H140.124L140.295 25.5387L140.271 27.6948V32.6686H138.237ZM140.271 28.1604L140.197 25.9553C140.213 25.5959 140.295 25.2284 140.442 24.8527C140.589 24.4607 140.81 24.1013 141.104 23.7747C141.414 23.4316 141.806 23.1621 142.28 22.9661C142.77 22.7538 143.358 22.6476 144.044 22.6476H144.46V24.9017H144.019C143.284 24.9017 142.672 24.9752 142.182 25.1222C141.692 25.2529 141.308 25.4571 141.03 25.7347C140.752 26.0124 140.556 26.3554 140.442 26.7638C140.328 27.1721 140.271 27.6377 140.271 28.1604ZM156.095 32.9136C155.017 32.9136 154.11 32.6931 153.375 32.2521C152.64 31.811 152.085 31.2067 151.709 30.439C151.35 29.6549 151.17 28.7729 151.17 27.7928C151.17 26.7801 151.35 25.8899 151.709 25.1222C152.085 24.3382 152.64 23.7257 153.375 23.2846C154.11 22.8436 155.025 22.6231 156.119 22.6231C157.72 22.6231 158.937 23.0968 159.77 24.0442C160.603 24.9915 161.019 26.2411 161.019 27.7928C161.019 28.7566 160.84 29.6304 160.48 30.4145C160.137 31.1822 159.598 31.7947 158.863 32.2521C158.145 32.6931 157.222 32.9136 156.095 32.9136ZM156.095 31.174C156.895 31.174 157.508 31.0025 157.932 30.6595C158.357 30.3165 158.643 29.8836 158.79 29.3609C158.953 28.8219 159.035 28.2747 159.035 27.7193C159.035 27.164 158.953 26.625 158.79 26.1023C158.643 25.5632 158.357 25.1222 157.932 24.7792C157.508 24.4199 156.895 24.2402 156.095 24.2402C155.327 24.2402 154.723 24.4199 154.282 24.7792C153.857 25.1222 153.563 25.5632 153.4 26.1023C153.236 26.625 153.155 27.164 153.155 27.7193C153.155 28.2747 153.236 28.8219 153.4 29.3609C153.563 29.8836 153.857 30.3165 154.282 30.6595C154.723 31.0025 155.327 31.174 156.095 31.174ZM163.784 32.7176V20.712C163.784 19.9933 163.939 19.4543 164.25 19.0949C164.576 18.7356 165.091 18.5559 165.793 18.5559H168.586V20.173H165.818V32.7176H163.784ZM162.314 24.1177V22.6476H168.464V24.1177H162.314ZM181.03 32.9626C180.278 32.9626 179.551 32.8728 178.849 32.6931C178.147 32.5134 177.51 32.2357 176.938 31.86C176.366 31.4844 175.909 31.0025 175.566 30.4145C175.223 29.8101 175.043 29.0914 175.027 28.2584H177.085C177.085 28.3074 177.101 28.438 177.134 28.6504C177.167 28.8627 177.248 29.1077 177.379 29.3854C177.526 29.6631 177.738 29.9326 178.016 30.194C178.31 30.4553 178.71 30.6758 179.217 30.8555C179.739 31.0188 180.393 31.1005 181.177 31.1005C181.781 31.1005 182.287 31.0352 182.696 30.9045C183.104 30.7738 183.431 30.6023 183.676 30.39C183.921 30.1776 184.092 29.9571 184.19 29.7284C184.305 29.4998 184.362 29.2956 184.362 29.1159C184.362 28.6096 184.198 28.2012 183.872 27.8909C183.561 27.5805 183.137 27.3355 182.598 27.1558C182.059 26.9598 181.462 26.7883 180.809 26.6413C180.172 26.4779 179.535 26.3064 178.898 26.1268C178.261 25.9308 177.673 25.6776 177.134 25.3672C176.611 25.0569 176.203 24.6567 175.909 24.1667C175.615 23.6603 175.484 23.0151 175.517 22.2311C175.566 21.4797 175.827 20.8345 176.301 20.2955C176.775 19.7565 177.42 19.3481 178.236 19.0704C179.07 18.7764 180.017 18.6294 181.079 18.6294C182.042 18.6294 182.924 18.8009 183.725 19.1439C184.541 19.4869 185.195 20.0015 185.685 20.6875C186.191 21.3572 186.436 22.2147 186.42 23.2601H184.435C184.452 22.6884 184.337 22.2311 184.092 21.8881C183.847 21.5287 183.529 21.251 183.137 21.055C182.761 20.859 182.369 20.7283 181.961 20.663C181.552 20.5813 181.185 20.5405 180.858 20.5405C179.943 20.5405 179.184 20.712 178.58 21.055C177.991 21.3817 177.689 21.8472 177.673 22.4516C177.657 22.9743 177.812 23.3908 178.138 23.7011C178.465 24.0115 178.898 24.2565 179.437 24.4362C179.976 24.6159 180.572 24.7792 181.226 24.9262C181.879 25.0732 182.524 25.2366 183.161 25.4162C183.798 25.5959 184.378 25.8409 184.901 26.1513C185.44 26.4453 185.856 26.8455 186.15 27.3518C186.461 27.8582 186.6 28.5115 186.567 29.3119C186.534 30.0796 186.273 30.733 185.783 31.272C185.293 31.811 184.639 32.2276 183.823 32.5216C183.006 32.8156 182.075 32.9626 181.03 32.9626ZM193.208 32.9136C192.277 32.9136 191.435 32.7176 190.684 32.3256C189.933 31.9335 189.336 31.3618 188.895 30.6105C188.454 29.8591 188.234 28.9444 188.234 27.8663C188.267 26.7883 188.495 25.8573 188.92 25.0732C189.361 24.2892 189.957 23.6848 190.709 23.2601C191.46 22.8354 192.309 22.6231 193.257 22.6231C194.204 22.6231 195.013 22.8028 195.682 23.1621C196.368 23.5215 196.907 23.987 197.299 24.5587C197.691 25.1304 197.928 25.7511 198.01 26.4208H196.123C195.993 25.7837 195.682 25.2856 195.192 24.9262C194.702 24.5669 194.082 24.3872 193.33 24.3872C192.677 24.3872 192.121 24.5342 191.664 24.8282C191.207 25.1059 190.856 25.4979 190.611 26.0043C190.366 26.4943 190.235 27.066 190.219 27.7193C190.219 28.7484 190.488 29.5733 191.027 30.194C191.566 30.8147 192.326 31.125 193.306 31.125C194.008 31.125 194.621 30.9453 195.143 30.586C195.666 30.2266 195.993 29.7039 196.123 29.0179H198.01C197.928 29.7039 197.683 30.341 197.275 30.929C196.883 31.517 196.344 31.9989 195.658 32.3746C194.972 32.7339 194.155 32.9136 193.208 32.9136ZM200.115 32.6686V22.6476H202.149V32.6686H200.115ZM201.145 21.251C200.671 21.251 200.344 21.1285 200.164 20.8835C200.001 20.6385 199.919 20.3527 199.919 20.026C199.919 19.7156 200.001 19.4461 200.164 19.2174C200.344 18.9724 200.671 18.8499 201.145 18.8499C201.618 18.8499 201.929 18.9724 202.076 19.2174C202.239 19.4461 202.321 19.7156 202.321 20.026C202.321 20.3527 202.239 20.6385 202.076 20.8835C201.929 21.1285 201.618 21.251 201.145 21.251ZM208.901 32.9136C207.774 32.9136 206.851 32.6686 206.133 32.1786C205.414 31.6722 204.883 31.027 204.54 30.243C204.197 29.4426 204.026 28.6177 204.026 27.7683C204.009 26.8046 204.189 25.9308 204.565 25.1467C204.957 24.3627 205.512 23.742 206.231 23.2846C206.966 22.8273 207.84 22.5986 208.852 22.5986C209.734 22.5986 210.519 22.7946 211.205 23.1866C211.891 23.5623 212.438 24.1013 212.846 24.8037C213.254 25.4897 213.475 26.3064 213.508 27.2538C213.524 27.3028 213.532 27.4008 213.532 27.5478C213.532 27.6785 213.532 27.7928 213.532 27.8909H205.961C205.961 28.9362 206.214 29.7529 206.721 30.341C207.244 30.9127 207.962 31.1985 208.877 31.1985C209.563 31.1985 210.143 31.027 210.617 30.684C211.107 30.3246 211.409 29.8509 211.523 29.2629H213.508C213.41 29.9489 213.165 30.5696 212.773 31.125C212.381 31.6804 211.858 32.1214 211.205 32.4481C210.551 32.7584 209.783 32.9136 208.901 32.9136ZM206.035 26.8863H211.474C211.458 26.7066 211.409 26.4698 211.327 26.1758C211.262 25.8818 211.131 25.5959 210.935 25.3182C210.739 25.0242 210.47 24.7792 210.126 24.5832C209.783 24.3872 209.342 24.2892 208.803 24.2892C208.313 24.2892 207.897 24.3708 207.554 24.5342C207.211 24.6975 206.933 24.918 206.721 25.1957C206.508 25.4571 206.345 25.7429 206.231 26.0533C206.133 26.3473 206.067 26.625 206.035 26.8863ZM215.493 32.6686V22.6476H217.233L217.576 24.9752H217.625C217.641 24.9099 217.706 24.7547 217.821 24.5097C217.935 24.2647 218.123 24.0033 218.384 23.7257C218.646 23.4316 218.997 23.1785 219.438 22.9661C219.879 22.7538 220.434 22.6476 221.104 22.6476C221.806 22.6476 222.378 22.7619 222.819 22.9906C223.276 23.203 223.636 23.497 223.897 23.8727C224.175 24.232 224.371 24.6404 224.485 25.0977C224.599 25.5387 224.673 25.9961 224.705 26.4698C224.738 26.9271 224.754 27.36 224.754 27.7683V32.6686H222.77V27.7438C222.77 27.1231 222.705 26.5678 222.574 26.0778C222.443 25.5714 222.206 25.1794 221.863 24.9017C221.52 24.6077 221.006 24.4607 220.32 24.4607C219.634 24.4607 219.087 24.624 218.678 24.9507C218.286 25.2774 218 25.7021 217.821 26.2248C217.657 26.7311 217.576 27.2865 217.576 27.8909V32.6686H215.493ZM231.371 32.9136C230.44 32.9136 229.599 32.7176 228.847 32.3256C228.096 31.9335 227.5 31.3618 227.059 30.6105C226.618 29.8591 226.397 28.9444 226.397 27.8663C226.43 26.7883 226.659 25.8573 227.083 25.0732C227.524 24.2892 228.121 23.6848 228.872 23.2601C229.623 22.8354 230.473 22.6231 231.42 22.6231C232.367 22.6231 233.176 22.8028 233.846 23.1621C234.532 23.5215 235.071 23.987 235.463 24.5587C235.855 25.1304 236.092 25.7511 236.173 26.4208H234.287C234.156 25.7837 233.846 25.2856 233.356 24.9262C232.866 24.5669 232.245 24.3872 231.494 24.3872C230.84 24.3872 230.285 24.5342 229.828 24.8282C229.37 25.1059 229.019 25.4979 228.774 26.0043C228.529 26.4943 228.398 27.066 228.382 27.7193C228.382 28.7484 228.651 29.5733 229.191 30.194C229.73 30.8147 230.489 31.125 231.469 31.125C232.171 31.125 232.784 30.9453 233.307 30.586C233.829 30.2266 234.156 29.7039 234.287 29.0179H236.173C236.092 29.7039 235.847 30.341 235.438 30.929C235.046 31.517 234.507 31.9989 233.821 32.3746C233.135 32.7339 232.318 32.9136 231.371 32.9136ZM242.567 32.9136C241.44 32.9136 240.517 32.6686 239.798 32.1786C239.079 31.6722 238.548 31.027 238.205 30.243C237.862 29.4426 237.691 28.6177 237.691 27.7683C237.675 26.8046 237.854 25.9308 238.23 25.1467C238.622 24.3627 239.177 23.742 239.896 23.2846C240.631 22.8273 241.505 22.5986 242.518 22.5986C243.4 22.5986 244.184 22.7946 244.87 23.1866C245.556 23.5623 246.103 24.1013 246.511 24.8037C246.92 25.4897 247.14 26.3064 247.173 27.2538C247.189 27.3028 247.197 27.4008 247.197 27.5478C247.197 27.6785 247.197 27.7928 247.197 27.8909H239.626C239.626 28.9362 239.88 29.7529 240.386 30.341C240.909 30.9127 241.627 31.1985 242.542 31.1985C243.228 31.1985 243.808 31.027 244.282 30.684C244.772 30.3246 245.074 29.8509 245.188 29.2629H247.173C247.075 29.9489 246.83 30.5696 246.438 31.125C246.046 31.6804 245.523 32.1214 244.87 32.4481C244.216 32.7584 243.449 32.9136 242.567 32.9136ZM239.7 26.8863H245.139C245.123 26.7066 245.074 26.4698 244.992 26.1758C244.927 25.8818 244.796 25.5959 244.6 25.3182C244.404 25.0242 244.135 24.7792 243.792 24.5832C243.449 24.3872 243.008 24.2892 242.469 24.2892C241.979 24.2892 241.562 24.3708 241.219 24.5342C240.876 24.6975 240.598 24.918 240.386 25.1957C240.174 25.4571 240.01 25.7429 239.896 26.0533C239.798 26.3473 239.733 26.625 239.7 26.8863Z" fill="#CAFAFF"/>
</g>
<defs>
<filter id="filter0_i_104_23" x="82.04" y="18.5559" width="165.157" height="14.4067" filterUnits="userSpaceOnUse" color-interpolation-filters="sRGB">
<feFlood flood-opacity="0" result="BackgroundImageFix"/>
<feBlend mode="normal" in="SourceGraphic" in2="BackgroundImageFix" result="shape"/>
<feColorMatrix in="SourceAlpha" type="matrix" values="0 0 0 0 0 0 0 0 0 0 0 0 0 0 0 0 0 0 127 0" result="hardAlpha"/>
<feOffset/>
<feGaussianBlur stdDeviation="1.42787"/>
<feComposite in2="hardAlpha" operator="arithmetic" k2="-1" k3="1"/>
<feColorMatrix type="matrix" values="0 0 0 0 0 0 0 0 0 0 0 0 0 0 0 0 0 0 0.16 0"/>
<feBlend mode="normal" in2="shape" result="effect1_innerShadow_104_23"/>
</filter>
</defs>
</svg>
