<svg width="104" height="56" viewBox="0 0 104 56" fill="none" xmlns="http://www.w3.org/2000/svg">
<g style="mix-blend-mode:screen" opacity="0.21">
<path d="M2.0252 6.85583H0.551514V5.51027H2.0252V6.85583Z" fill="#33E7FF"/>
<path fill-rule="evenodd" clip-rule="evenodd" d="M8.49654 0.448517C9.26542 0.448517 9.84208 1.08923 9.84208 1.79404V5.44622C9.84208 6.15102 9.26542 6.85584 8.49654 6.85584H4.52401C3.8192 6.85584 3.17847 6.15102 3.17847 5.44622V1.79404C3.17847 1.08923 3.8192 0.448517 4.52401 0.448517H8.49654ZM4.65215 1.85814V4.22881L7.66359 1.85814H4.65215ZM8.49654 5.38216V3.01145L5.42103 5.38216H8.49654Z" fill="#33E7FF"/>
<path d="M12.7254 1.40962V1.72998H14.7757V3.07551H12.7254V6.85584H11.2517V1.28146C11.2517 0.576659 11.8924 0 12.6613 0H14.7757V1.40962H12.7254Z" fill="#33E7FF"/>
<path d="M16.4416 5.57438V6.72769C16.4416 7.36842 15.8008 7.881 14.9679 8.00915V5.57438H16.4416Z" fill="#33E7FF"/>
<path d="M22.6566 2.3707V3.52401H23.9381V4.86954H22.6566V6.08694H21.183V4.86954H19.9656V3.52401H21.183V2.3707H22.6566Z" fill="#33E7FF"/>
<path d="M26.6933 0.448517H28.231V6.85584H26.7573V2.49887C26.7573 2.56294 26.501 2.88329 26.501 2.88329H24.5148L26.6933 0.448517Z" fill="#33E7FF"/>
<path d="M30.7299 6.85583H29.2562V5.51027H30.7299V6.85583Z" fill="#33E7FF"/>
<path fill-rule="evenodd" clip-rule="evenodd" d="M37.2014 0.448517C37.9062 0.448517 38.5469 1.08923 38.5469 1.79404V5.44622C38.5469 6.15102 37.9062 6.85584 37.2014 6.85584H33.2288C32.46 6.85584 31.8833 6.15102 31.8833 5.44622V1.79404C31.8833 1.08923 32.46 0.448517 33.2288 0.448517H37.2014ZM33.357 1.85814V4.22881L36.3684 1.85814H33.357ZM37.1373 5.38216V3.01145L34.1259 5.38216H37.1373Z" fill="#33E7FF"/>
<path d="M41.4301 1.40962V1.72998H43.4164V3.07551H41.4301V6.85584H39.9564V1.28146C39.9564 0.576659 40.5972 0 41.302 0H43.4164V1.40962H41.4301Z" fill="#33E7FF"/>
<path d="M45.1464 5.57438V6.72769C45.1464 7.36842 44.5057 7.881 43.6727 8.00915V5.57438H45.1464Z" fill="#33E7FF"/>
<path d="M51.3616 2.3707V3.52401H52.6431V4.86954H51.3616V6.08694H49.8879V4.86954H48.6705V3.52401H49.8879V2.3707H51.3616Z" fill="#33E7FF"/>
<path d="M55.3982 0.448517H56.936V6.85584H55.4623V2.49887C55.4623 2.56294 55.1419 2.88329 55.1419 2.88329H53.2197L55.3982 0.448517Z" fill="#33E7FF"/>
<path d="M59.3707 6.85583H57.9611V5.51027H59.3707V6.85583Z" fill="#33E7FF"/>
<path fill-rule="evenodd" clip-rule="evenodd" d="M65.8421 0.448517C66.611 0.448517 67.2517 1.08923 67.2517 1.79404V5.44622C67.2517 6.15102 66.611 6.85584 65.8421 6.85584H61.9337C61.1648 6.85584 60.524 6.15102 60.524 5.44622V1.79404C60.524 1.08923 61.1648 0.448517 61.9337 0.448517H65.8421ZM61.9977 1.85814V4.22881L65.0092 1.85814H61.9977ZM65.7781 5.38216V3.01145L62.7666 5.38216H65.7781Z" fill="#33E7FF"/>
<path d="M70.0709 1.40962V1.72998H72.1212V3.07551H70.0709V6.85584H68.6613V1.28146C68.6613 0.576659 69.2379 0 70.0068 0H72.1212V1.40962H70.0709Z" fill="#33E7FF"/>
<path d="M73.7872 5.57438V6.72769C73.7872 7.36842 73.2105 7.881 72.3776 8.00915V5.57438H73.7872Z" fill="#33E7FF"/>
<path d="M79.3615 0.448517H80.8992V6.85584H79.4255V2.49887C79.4255 2.56294 79.1052 2.88329 79.1052 2.88329H77.183L79.3615 0.448517Z" fill="#33E7FF"/>
<path d="M83.3981 6.85583H81.9244V5.51027H83.3981V6.85583Z" fill="#33E7FF"/>
<path fill-rule="evenodd" clip-rule="evenodd" d="M89.8695 0.448517C90.5743 0.448517 91.215 1.08923 91.215 1.79404V5.44622C91.215 6.15102 90.5743 6.85584 89.8695 6.85584H85.8969C85.1281 6.85584 84.5514 6.15102 84.5514 5.44622V1.79404C84.5514 1.08923 85.1281 0.448517 85.8969 0.448517H89.8695ZM86.0251 1.85814V4.22881L89.0365 1.85814H86.0251ZM89.8054 5.38216V3.01145L86.794 5.38216H89.8054Z" fill="#33E7FF"/>
<path d="M94.0342 1.40962V1.72998H96.0846V3.07551H94.0342V6.85584H92.6246V1.28146C92.6246 0.576659 93.2013 0 93.9702 0H96.0846V1.40962H94.0342Z" fill="#33E7FF"/>
<path d="M97.238 5.51028H97.7506V1.79404H97.238V0.448517H97.8147C98.5836 0.448517 99.2243 1.02518 99.2243 1.72998V5.57437C99.2243 6.27918 98.5836 6.85584 97.8147 6.85584H97.238V5.51028Z" fill="#33E7FF"/>
<path d="M101.787 5.57438V6.72769C101.787 7.36842 101.21 7.881 100.377 8.00915V5.57438H101.787Z" fill="#33E7FF"/>
<g opacity="0.5">
<path d="M2.34552 24.54H0.935913V23.1945H2.34552V24.54Z" fill="#33E7FF"/>
</g>
<g opacity="0.5">
<path fill-rule="evenodd" clip-rule="evenodd" d="M8.81686 18.1327C9.58574 18.1327 10.2265 18.7735 10.2265 19.4783V23.1945C10.2265 23.8993 9.58574 24.54 8.81686 24.54H4.90839C4.13951 24.54 3.49878 23.8993 3.49878 23.1945V19.4783C3.49878 18.7735 4.13951 18.1327 4.90839 18.1327H8.81686ZM4.90839 19.5423V21.913L7.9839 19.5423H4.90839ZM8.68871 23.1304V20.6956L5.67726 23.1304H8.68871Z" fill="#33E7FF"/>
</g>
<g opacity="0.5">
<path d="M13.0457 19.0938V19.4142H15.096V20.7597H13.0457V24.54H11.572V19.0297C11.572 18.3249 12.2128 17.7483 12.9816 17.7483H15.096V19.0938H13.0457Z" fill="#33E7FF"/>
</g>
<g opacity="0.5">
<path d="M16.762 23.2586V24.4119C16.762 25.0526 16.1213 25.5652 15.2883 25.6933V23.2586H16.762Z" fill="#33E7FF"/>
</g>
<g opacity="0.5">
<path d="M24.643 22.6178H20.7345V21.2723H24.643V22.6178Z" fill="#33E7FF"/>
</g>
<g opacity="0.5">
<path d="M27.5904 18.1327H29.064V24.54H27.6544V20.2471C27.5904 20.2471 27.3341 20.5675 27.3341 20.5675H25.4119L27.5904 18.1327Z" fill="#33E7FF"/>
</g>
<g opacity="0.5">
<path d="M31.5629 24.54H30.0892V23.1945H31.5629V24.54Z" fill="#33E7FF"/>
</g>
<g opacity="0.5">
<path fill-rule="evenodd" clip-rule="evenodd" d="M38.0343 18.1327C38.8031 18.1327 39.3798 18.7735 39.3798 19.4783V23.1945C39.3798 23.8993 38.8031 24.54 38.0343 24.54H34.0617C33.3569 24.54 32.7162 23.8993 32.7162 23.1945V19.4783C32.7162 18.7735 33.3569 18.1327 34.0617 18.1327H38.0343ZM34.1899 19.5423V21.913L37.2013 19.5423H34.1899ZM38.0343 23.1304V20.6956L34.9587 23.1304H38.0343Z" fill="#33E7FF"/>
</g>
<g opacity="0.5">
<path d="M42.2631 19.0938V19.4142H44.2494V20.7597H42.2631V24.54H40.7894V19.0297C40.7894 18.3249 41.4301 17.7483 42.199 17.7483H44.2494V19.0938H42.2631Z" fill="#33E7FF"/>
</g>
<g opacity="0.5">
<path d="M45.9794 23.2586V24.4119C45.9794 25.0526 45.3387 25.5652 44.5057 25.6933V23.2586H45.9794Z" fill="#33E7FF"/>
</g>
<g opacity="0.5">
<path d="M53.8604 22.6178H49.8878V21.2723H53.8604V22.6178Z" fill="#33E7FF"/>
</g>
<g opacity="0.5">
<path d="M56.7438 18.1327H58.2815V24.54H56.8079V20.2471L56.4875 20.5675H54.5653L56.7438 18.1327Z" fill="#33E7FF"/>
</g>
<g opacity="0.5">
<path d="M60.7162 24.54H59.3066V23.1945H60.7162V24.54Z" fill="#33E7FF"/>
</g>
<g opacity="0.5">
<path fill-rule="evenodd" clip-rule="evenodd" d="M67.1875 18.1327C67.9563 18.1327 68.5971 18.7735 68.5971 19.4783V23.1945C68.5971 23.8993 67.9563 24.54 67.1875 24.54H63.279C62.5101 24.54 61.8694 23.8993 61.8694 23.1945V19.4783C61.8694 18.7735 62.5101 18.1327 63.279 18.1327H67.1875ZM63.3431 19.5423V21.913L66.3545 19.5423H63.3431ZM67.1234 23.1304V20.6956L64.1119 23.1304H67.1234Z" fill="#33E7FF"/>
</g>
<g opacity="0.5">
<path d="M71.4165 19.0938V19.4142H73.4668V20.7597H71.4165V24.54H70.0068V19.0297C70.0068 18.3249 70.5835 17.7483 71.3524 17.7483H73.4668V19.0938H71.4165Z" fill="#33E7FF"/>
</g>
<g opacity="0.5">
<path d="M75.1326 23.2586V24.4119C75.1326 25.0526 74.4919 25.5652 73.723 25.6933V23.2586H75.1326Z" fill="#33E7FF"/>
</g>
<g opacity="0.5">
<path d="M80.707 18.1327H82.2448V24.54H80.7711V20.2471L80.4508 20.5675H78.5286L80.707 18.1327Z" fill="#33E7FF"/>
</g>
<g opacity="0.5">
<path d="M84.7437 24.54H83.27V23.1945H84.7437V24.54Z" fill="#33E7FF"/>
</g>
<g opacity="0.5">
<path fill-rule="evenodd" clip-rule="evenodd" d="M91.215 18.1327C91.9198 18.1327 92.5606 18.7735 92.5606 19.4783V23.1945C92.5606 23.8993 91.9198 24.54 91.215 24.54H87.2425C86.4736 24.54 85.897 23.8993 85.897 23.1945V19.4783C85.897 18.7735 86.4736 18.1327 87.2425 18.1327H91.215ZM87.3706 19.5423V21.913L90.3821 19.5423H87.3706ZM91.151 23.1304V20.6956L88.1395 23.1304H91.151Z" fill="#33E7FF"/>
</g>
<g opacity="0.5">
<path d="M95.3798 19.0938V19.4142H97.4302V20.7597H95.3798V24.54H93.9702V19.0297C93.9702 18.3249 94.5469 17.7483 95.3157 17.7483H97.4302V19.0938H95.3798Z" fill="#33E7FF"/>
</g>
<g opacity="0.5">
<path d="M98.5194 23.1945H99.0961V19.5423H98.5194V18.1327H99.1601C99.929 18.1327 100.57 18.7094 100.57 19.4783V23.2586C100.57 23.9634 99.929 24.54 99.1601 24.54H98.5194V23.1945Z" fill="#33E7FF"/>
</g>
<g opacity="0.5">
<path d="M103.133 23.2586V24.4119C103.133 25.0526 102.556 25.5652 101.723 25.6933V23.2586H103.133Z" fill="#33E7FF"/>
</g>
<g opacity="0.5">
<path d="M2.34552 35.1762H0.935913V33.8306H2.34552V35.1762Z" fill="#33E7FF"/>
</g>
<g opacity="0.5">
<path fill-rule="evenodd" clip-rule="evenodd" d="M8.81686 28.7689C9.58574 28.7689 10.2265 29.4096 10.2265 30.1144V33.7666C10.2265 34.4714 9.58574 35.1762 8.81686 35.1762H4.90839C4.13951 35.1762 3.49878 34.4714 3.49878 33.7666V30.1144C3.49878 29.4096 4.13951 28.7689 4.90839 28.7689H8.81686ZM4.90839 30.1785V32.5492L7.9839 30.1785H4.90839ZM8.68871 33.7025V31.3318L5.67726 33.7025H8.68871Z" fill="#33E7FF"/>
</g>
<g opacity="0.5">
<path d="M13.0457 29.73V30.0503H15.096V31.3959H13.0457V35.1762H11.572V29.6018C11.572 28.897 12.2128 28.3204 12.9816 28.3204H15.096V29.73H13.0457Z" fill="#33E7FF"/>
</g>
<g opacity="0.5">
<path d="M16.762 33.8947V35.0481C16.762 35.6888 16.1213 36.2014 15.2883 36.3295V33.8947H16.762Z" fill="#33E7FF"/>
</g>
<g opacity="0.5">
<path d="M24.643 33.254H20.7345V31.8444H24.643V33.254Z" fill="#33E7FF"/>
</g>
<g opacity="0.5">
<path d="M27.5904 28.7689H29.064V35.1762H27.6544V30.8833C27.5904 30.8833 27.3341 31.2037 27.3341 31.2037H25.4119L27.5904 28.7689Z" fill="#33E7FF"/>
</g>
<g opacity="0.5">
<path d="M31.5629 35.1762H30.0892V33.8306H31.5629V35.1762Z" fill="#33E7FF"/>
</g>
<g opacity="0.5">
<path fill-rule="evenodd" clip-rule="evenodd" d="M38.0343 28.7689C38.8031 28.7689 39.3798 29.4096 39.3798 30.1144V33.7666C39.3798 34.4714 38.8031 35.1762 38.0343 35.1762H34.0617C33.3569 35.1762 32.7162 34.4714 32.7162 33.7666V30.1144C32.7162 29.4096 33.3569 28.7689 34.0617 28.7689H38.0343ZM34.1899 30.1785V32.5492L37.2013 30.1785H34.1899ZM38.0343 33.7025V31.3318L34.9587 33.7025H38.0343Z" fill="#33E7FF"/>
</g>
<g opacity="0.5">
<path d="M42.2631 29.73V30.0503H44.2494V31.3959H42.2631V35.1762H40.7894V29.6018C40.7894 28.897 41.4301 28.3204 42.199 28.3204H44.2494V29.73H42.2631Z" fill="#33E7FF"/>
</g>
<g opacity="0.5">
<path d="M45.9794 33.8947V35.0481C45.9794 35.6888 45.3387 36.2014 44.5057 36.3295V33.8947H45.9794Z" fill="#33E7FF"/>
</g>
<g opacity="0.5">
<path d="M52.1945 30.6911V31.8444H53.476V33.254H52.1945V34.4073H50.7208V33.254H49.5034V31.8444H50.7208V30.6911H52.1945Z" fill="#33E7FF"/>
</g>
<g opacity="0.5">
<path d="M56.2311 28.7689H57.7689V35.1762H56.2952V30.8833L55.9748 31.2037H54.0526L56.2311 28.7689Z" fill="#33E7FF"/>
</g>
<g opacity="0.5">
<path d="M60.2678 35.1762H58.7941V33.8306H60.2678V35.1762Z" fill="#33E7FF"/>
</g>
<g opacity="0.5">
<path fill-rule="evenodd" clip-rule="evenodd" d="M66.7391 28.7689C67.4439 28.7689 68.0846 29.4096 68.0846 30.1144V33.7666C68.0846 34.4714 67.4439 35.1762 66.7391 35.1762H62.7666C61.9977 35.1762 61.421 34.4714 61.421 33.7666V30.1144C61.421 29.4096 61.9977 28.7689 62.7666 28.7689H66.7391ZM62.8947 30.1785V32.5492L65.9061 30.1785H62.8947ZM66.675 33.7025V31.3318L63.6636 33.7025H66.675Z" fill="#33E7FF"/>
</g>
<g opacity="0.5">
<path d="M70.9039 29.73V30.0503H72.9542V31.3959H70.9039V35.1762H69.4943V29.6018C69.4943 28.897 70.0709 28.3204 70.8398 28.3204H72.9542V29.73H70.9039Z" fill="#33E7FF"/>
</g>
<g opacity="0.5">
<path d="M74.6201 33.8947V35.0481C74.6201 35.6888 74.0434 36.2014 73.2104 36.3295V33.8947H74.6201Z" fill="#33E7FF"/>
</g>
<g opacity="0.5">
<path d="M80.2586 28.7689H81.7323V35.1762H80.2586V30.8833L80.0023 31.2037H78.0801L80.2586 28.7689Z" fill="#33E7FF"/>
</g>
<g opacity="0.5">
<path d="M84.231 35.1762H82.7573V33.8306H84.231V35.1762Z" fill="#33E7FF"/>
</g>
<g opacity="0.5">
<path fill-rule="evenodd" clip-rule="evenodd" d="M90.7024 28.7689C91.4712 28.7689 92.0479 29.4096 92.0479 30.1144V33.7666C92.0479 34.4714 91.4712 35.1762 90.7024 35.1762H86.7298C85.9609 35.1762 85.3843 34.4714 85.3843 33.7666V30.1144C85.3843 29.4096 85.9609 28.7689 86.7298 28.7689H90.7024ZM86.858 30.1785V32.5492L89.8694 30.1785H86.858ZM90.6383 33.7025V31.3318L87.6268 33.7025H90.6383Z" fill="#33E7FF"/>
</g>
<g opacity="0.5">
<path d="M94.9312 29.73V30.0503H96.9175V31.3959H94.9312V35.1762H93.4575V29.6018C93.4575 28.897 94.0983 28.3204 94.8671 28.3204H96.9175V29.73H94.9312Z" fill="#33E7FF"/>
</g>
<g opacity="0.5">
<path d="M98.0709 33.8306H98.5835V30.1144H98.0709V28.7689H98.7117C99.4165 28.7689 100.057 29.3455 100.057 30.0504V33.8947C100.057 34.5995 99.4165 35.1762 98.7117 35.1762H98.0709V33.8306Z" fill="#33E7FF"/>
</g>
<g opacity="0.5">
<path d="M102.684 33.8947V35.0481C102.684 35.6888 102.044 36.2014 101.211 36.3295V33.8947H102.684Z" fill="#33E7FF"/>
</g>
<path d="M2.0252 54.6544H0.551514V53.3089H2.0252V54.6544Z" fill="#33E7FF"/>
<path fill-rule="evenodd" clip-rule="evenodd" d="M8.49654 48.2471C9.26542 48.2471 9.84208 48.8879 9.84208 49.5927V53.2448C9.84208 53.9496 9.26542 54.6544 8.49654 54.6544H4.52401C3.8192 54.6544 3.17847 53.9496 3.17847 53.2448V49.5927C3.17847 48.8879 3.8192 48.2471 4.52401 48.2471H8.49654ZM4.65215 49.6567V52.0274L7.66359 49.6567H4.65215ZM8.49654 53.1808V50.81L5.42103 53.1808H8.49654Z" fill="#33E7FF"/>
<path d="M12.7254 49.2082V49.5286H14.7757V50.8741H12.7254V54.6544H11.2517V49.0801C11.2517 48.3753 11.8924 47.7986 12.6613 47.7986H14.7757V49.2082H12.7254Z" fill="#33E7FF"/>
<path d="M16.4416 53.373V54.5263C16.4416 55.167 15.8008 55.6796 14.9679 55.8077V53.373H16.4416Z" fill="#33E7FF"/>
<path d="M24.3226 52.7322H20.3501V51.3226H24.3226V52.7322Z" fill="#33E7FF"/>
<path d="M27.206 48.2471H28.7437V54.6544H27.27V50.2975C27.27 50.3615 26.9497 50.6819 26.9497 50.6819H25.0275L27.206 48.2471Z" fill="#33E7FF"/>
<path d="M31.2425 54.6544H29.7688V53.3089H31.2425V54.6544Z" fill="#33E7FF"/>
<path fill-rule="evenodd" clip-rule="evenodd" d="M37.6499 48.2471C38.4187 48.2471 39.0595 48.8879 39.0595 49.5927V53.2448C39.0595 53.9496 38.4187 54.6544 37.6499 54.6544H33.7414C32.9725 54.6544 32.3318 53.9496 32.3318 53.2448V49.5927C32.3318 48.8879 32.9725 48.2471 33.7414 48.2471H37.6499ZM33.8055 49.6567V52.0274L36.8169 49.6567H33.8055ZM37.5858 53.1808V50.81L34.5743 53.1808H37.5858Z" fill="#33E7FF"/>
<path d="M41.8786 49.2082V49.5286H43.9289V50.8741H41.8786V54.6544H40.469V49.0801C40.469 48.3753 41.0456 47.7986 41.8145 47.7986H43.9289V49.2082H41.8786Z" fill="#33E7FF"/>
<path d="M45.5949 53.373V54.5263C45.5949 55.167 45.0183 55.6796 44.1853 55.8077V53.373H45.5949Z" fill="#33E7FF"/>
<path d="M51.8741 50.1693V51.3226H53.1555V52.7322H51.8741V53.8856H50.4004V52.7322H49.183V51.3226H50.4004V50.1693H51.8741Z" fill="#33E7FF"/>
<path d="M55.9107 48.2471H57.4484V54.6544H55.9747V50.2975C55.9747 50.3615 55.6544 50.6819 55.6544 50.6819H53.7322L55.9107 48.2471Z" fill="#33E7FF"/>
<path d="M59.8833 54.6544H58.4736V53.3089H59.8833V54.6544Z" fill="#33E7FF"/>
<path fill-rule="evenodd" clip-rule="evenodd" d="M66.3546 48.2471C67.1235 48.2471 67.7642 48.8879 67.7642 49.5927V53.2448C67.7642 53.9496 67.1235 54.6544 66.3546 54.6544H62.4461C61.6772 54.6544 61.0365 53.9496 61.0365 53.2448V49.5927C61.0365 48.8879 61.6772 48.2471 62.4461 48.2471H66.3546ZM62.4461 49.6567V52.0274L65.5216 49.6567H62.4461ZM66.2264 53.1808V50.81L63.215 53.1808H66.2264Z" fill="#33E7FF"/>
<path d="M70.5834 49.2082V49.5286H72.6338V50.8741H70.5834V54.6544H69.1738V49.0801C69.1738 48.3753 69.7505 47.7986 70.5194 47.7986H72.6338V49.2082H70.5834Z" fill="#33E7FF"/>
<path d="M74.2997 53.373V54.5263C74.2997 55.167 73.659 55.6796 72.826 55.8077V53.373H74.2997Z" fill="#33E7FF"/>
<path d="M79.8742 48.2471H81.4119V54.6544H79.9382V50.2975C79.9382 50.3615 79.6179 50.6819 79.6179 50.6819H77.6957L79.8742 48.2471Z" fill="#33E7FF"/>
<path d="M83.8467 54.6544H82.4371V53.3089H83.8467V54.6544Z" fill="#33E7FF"/>
<path fill-rule="evenodd" clip-rule="evenodd" d="M90.3181 48.2471C91.0869 48.2471 91.7277 48.8879 91.7277 49.5927V53.2448C91.7277 53.9496 91.0869 54.6544 90.3181 54.6544H86.4096C85.6407 54.6544 85 53.9496 85 53.2448V49.5927C85 48.8879 85.6407 48.2471 86.4096 48.2471H90.3181ZM86.4737 49.6567V52.0274L89.4851 49.6567H86.4737ZM90.254 53.1808V50.81L87.2426 53.1808H90.254Z" fill="#33E7FF"/>
<path d="M94.5469 49.2082V49.5286H96.5973V50.8741H94.5469V54.6544H93.1373V49.0801C93.1373 48.3753 93.714 47.7986 94.4829 47.7986H96.5973V49.2082H94.5469Z" fill="#33E7FF"/>
<path d="M97.6865 53.3089H98.2632V49.5927H97.6865V48.2471H98.3273C99.0961 48.2471 99.7369 48.8238 99.7369 49.5286V53.373C99.7369 54.0778 99.0961 54.6544 98.3273 54.6544H97.6865V53.3089Z" fill="#33E7FF"/>
<path d="M102.3 53.373V54.5263C102.3 55.167 101.723 55.6796 100.89 55.8077V53.373H102.3Z" fill="#33E7FF"/>
</g>
</svg>
