<svg width="177" height="50" viewBox="0 0 177 50" fill="none" xmlns="http://www.w3.org/2000/svg">
<path d="M169.804 25.4719L155.797 49.7209H132.673L128.295 45.3317H105.888L101.51 49.7209H14.4837L0.476562 25.4719L14.4837 1.2229H37.1844L41.9857 6.02151H64.3792L69.1806 1.2229H155.797L159.689 7.96655L169.804 25.4719Z" stroke="#FA8A00" stroke-width="0.505967" stroke-miterlimit="10"/>
<path d="M155.675 1.2229H162.448L166.34 7.96655L176.455 25.4719L162.448 49.7209H139.325L134.946 45.3317H112.54L108.161 49.7209H21.1348L7.12769 25.4719L21.1348 1.2229H43.8355L48.6369 6.02151H71.0431L75.8445 1.2229H155.675Z" stroke="#FA8A00" stroke-width="0.505967" stroke-miterlimit="10"/>
<path d="M155.947 7.87405H149.26L145.416 1.2229H152.104L155.947 7.87405Z" fill="#FA8A00"/>
<path d="M145.416 7.87405H138.548L134.608 1.2229H141.464L145.416 7.87405Z" fill="#FA8A00"/>
<path d="M43.4319 49.7209H36.7521L32.9009 43.0697H39.5806L43.4319 49.7209Z" fill="#FA8A00"/>
<path d="M32.9009 49.7209H26.0371L22.0928 43.0697H28.9565L32.9009 49.7209Z" fill="#FA8A00"/>
<path d="M39.0657 31.8024V18.9032H43.4242C44.4361 18.9032 45.2633 19.0858 45.9058 19.4511C46.5524 19.8122 47.0311 20.3014 47.3418 20.9187C47.6525 21.5359 47.8079 22.2245 47.8079 22.9846C47.8079 23.7446 47.6525 24.4353 47.3418 25.0567C47.0353 25.6782 46.5608 26.1737 45.9184 26.5432C45.2759 26.9085 44.4529 27.0911 43.4494 27.0911H40.3254V25.7055H43.399C44.0918 25.7055 44.6482 25.5858 45.0681 25.3465C45.488 25.1071 45.7924 24.7838 45.9814 24.3765C46.1745 23.965 46.2711 23.501 46.2711 22.9846C46.2711 22.4681 46.1745 22.0062 45.9814 21.5989C45.7924 21.1916 45.4859 20.8725 45.0618 20.6415C44.6377 20.4064 44.075 20.2888 43.3738 20.2888H40.6277V31.8024H39.0657ZM51.609 25.9826V31.8024H50.1226V18.9032H51.609V23.6396H51.735C51.9617 23.1399 52.3018 22.7431 52.7553 22.4492C53.213 22.1511 53.8219 22.002 54.5819 22.002C55.2411 22.002 55.8185 22.1343 56.314 22.3988C56.8094 22.6591 57.1936 23.0601 57.4666 23.6018C57.7437 24.1393 57.8823 24.8237 57.8823 25.6551V31.8024H56.3958V25.7559C56.3958 24.9875 56.1964 24.3933 55.7975 23.9734C55.4028 23.5493 54.8548 23.3373 54.1536 23.3373C53.6665 23.3373 53.2298 23.4401 52.8435 23.6459C52.4614 23.8516 52.1591 24.1519 51.9365 24.5466C51.7182 24.9413 51.609 25.4199 51.609 25.9826ZM61.6849 31.9031C61.3742 31.9031 61.1076 31.7919 60.885 31.5693C60.6625 31.3468 60.5512 31.0801 60.5512 30.7694C60.5512 30.4587 60.6625 30.1921 60.885 29.9695C61.1076 29.747 61.3742 29.6357 61.6849 29.6357C61.9957 29.6357 62.2623 29.747 62.4848 29.9695C62.7074 30.1921 62.8187 30.4587 62.8187 30.7694C62.8187 30.9752 62.7662 31.1641 62.6612 31.3363C62.5604 31.5084 62.424 31.647 62.2518 31.752C62.0838 31.8528 61.8949 31.9031 61.6849 31.9031ZM69.6682 31.8024H65.6876V18.9032H69.8446C71.0959 18.9032 72.1666 19.1614 73.0568 19.6779C73.947 20.1901 74.6293 20.9271 75.1038 21.8886C75.5783 22.846 75.8155 23.9923 75.8155 25.3276C75.8155 26.6712 75.5762 27.8281 75.0975 28.798C74.6188 29.7638 73.9218 30.507 73.0064 31.0277C72.091 31.5441 70.9783 31.8024 69.6682 31.8024ZM67.2496 30.4167H69.5674C70.634 30.4167 71.5179 30.211 72.2191 29.7995C72.9203 29.388 73.4431 28.8022 73.7874 28.0422C74.1317 27.2822 74.3039 26.3773 74.3039 25.3276C74.3039 24.2862 74.1338 23.3898 73.7937 22.6381C73.4536 21.8823 72.9455 21.3029 72.2695 20.8998C71.5934 20.4925 70.7516 20.2888 69.7438 20.2888H67.2496V30.4167ZM78.5034 31.9031C78.1926 31.9031 77.926 31.7919 77.7035 31.5693C77.4809 31.3468 77.3696 31.0801 77.3696 30.7694C77.3696 30.4587 77.4809 30.1921 77.7035 29.9695C77.926 29.747 78.1926 29.6357 78.5034 29.6357C78.8141 29.6357 79.0807 29.747 79.3033 29.9695C79.5258 30.1921 79.6371 30.4587 79.6371 30.7694C79.6371 30.9752 79.5846 31.1641 79.4796 31.3363C79.3788 31.5084 79.2424 31.647 79.0702 31.752C78.9023 31.8528 78.7133 31.9031 78.5034 31.9031ZM87.2928 31.8024V22.128H88.7793V31.8024H87.2928ZM88.0486 20.5156C87.7589 20.5156 87.5091 20.4169 87.2991 20.2195C87.0934 20.0222 86.9905 19.7849 86.9905 19.5078C86.9905 19.2307 87.0934 18.9934 87.2991 18.7961C87.5091 18.5987 87.7589 18.5001 88.0486 18.5001C88.3384 18.5001 88.5861 18.5987 88.7919 18.7961C89.0018 18.9934 89.1068 19.2307 89.1068 19.5078C89.1068 19.7849 89.0018 20.0222 88.7919 20.2195C88.5861 20.4169 88.3384 20.5156 88.0486 20.5156ZM92.9882 25.9826V31.8024H91.5018V22.128H92.9378V23.6396H93.0638C93.2905 23.1483 93.6348 22.7536 94.0967 22.4555C94.5586 22.1532 95.1549 22.002 95.8855 22.002C96.5405 22.002 97.1137 22.1364 97.6049 22.4051C98.0962 22.6696 98.4783 23.0727 98.7513 23.6144C99.0242 24.1519 99.1607 24.8321 99.1607 25.6551V31.8024H97.6742V25.7559C97.6742 24.9959 97.4769 24.4038 97.0822 23.9797C96.6875 23.5514 96.1458 23.3373 95.4572 23.3373C94.9827 23.3373 94.5586 23.4401 94.1849 23.6459C93.8154 23.8516 93.5236 24.1519 93.3094 24.5466C93.0953 24.9413 92.9882 25.4199 92.9882 25.9826ZM107.067 31.8024V18.9032H114.852V20.2888H108.629V24.6473H114.449V26.033H108.629V30.4167H114.952V31.8024H107.067ZM128.047 22.9342H126.485C126.392 22.4849 126.231 22.0902 126 21.7501C125.773 21.4099 125.496 21.1244 125.168 20.8935C124.845 20.6583 124.486 20.482 124.091 20.3644C123.697 20.2468 123.285 20.188 122.857 20.188C122.076 20.188 121.368 20.3854 120.734 20.7801C120.105 21.1748 119.603 21.7564 119.229 22.5248C118.86 23.2932 118.675 24.2358 118.675 25.3528C118.675 26.4697 118.86 27.4124 119.229 28.1808C119.603 28.9492 120.105 29.5307 120.734 29.9254C121.368 30.3201 122.076 30.5175 122.857 30.5175C123.285 30.5175 123.697 30.4587 124.091 30.3411C124.486 30.2236 124.845 30.0493 125.168 29.8184C125.496 29.5832 125.773 29.2956 126 28.9555C126.231 28.6112 126.392 28.2165 126.485 27.7714H128.047C127.929 28.4306 127.715 29.0206 127.404 29.5412C127.094 30.0619 126.707 30.5049 126.246 30.8702C125.784 31.2313 125.265 31.5063 124.69 31.6953C124.119 31.8842 123.508 31.9787 122.857 31.9787C121.757 31.9787 120.778 31.71 119.922 31.1725C119.065 30.6351 118.391 29.8708 117.9 28.8799C117.409 27.8889 117.163 26.7132 117.163 25.3528C117.163 23.9923 117.409 22.8166 117.9 21.8256C118.391 20.8347 119.065 20.0705 119.922 19.533C120.778 18.9955 121.757 18.7268 122.857 18.7268C123.508 18.7268 124.119 18.8213 124.69 19.0102C125.265 19.1992 125.784 19.4763 126.246 19.8416C126.707 20.2027 127.094 20.6436 127.404 21.1643C127.715 21.6808 127.929 22.2707 128.047 22.9342ZM130.571 31.8024V18.9032H138.356V20.2888H132.133V24.6473H137.953V26.033H132.133V30.4167H138.457V31.8024H130.571Z" fill="#CAFAFF"/>
</svg>
