<svg width="177" height="50" viewBox="0 0 177 50" fill="none" xmlns="http://www.w3.org/2000/svg">
<path d="M169.804 24.56L155.797 48.809H132.673L128.295 44.4199H105.888L101.51 48.809H14.4837L0.476562 24.56L14.4837 0.311035H37.1844L41.9857 5.10965H64.3792L69.1806 0.311035H155.797L159.689 7.05468L169.804 24.56Z" stroke="#00DAFA" stroke-width="0.505967" stroke-miterlimit="10"/>
<path d="M155.675 0.311035H162.448L166.34 7.05468L176.455 24.56L162.448 48.809H139.325L134.946 44.4199H112.54L108.161 48.809H21.1348L7.12769 24.56L21.1348 0.311035H43.8355L48.6369 5.10965H71.0431L75.8445 0.311035H155.675Z" stroke="#00DAFA" stroke-width="0.505967" stroke-miterlimit="10"/>
<path d="M155.947 6.96219H149.26L145.416 0.311035H152.104L155.947 6.96219Z" fill="#00DAFA"/>
<path d="M145.416 6.96219H138.548L134.608 0.311035H141.464L145.416 6.96219Z" fill="#00DAFA"/>
<path d="M43.4319 48.8091H36.7521L32.9009 42.158H39.5806L43.4319 48.8091Z" fill="#00DAFA"/>
<path d="M32.9009 48.8091H26.0371L22.0928 42.158H28.9565L32.9009 48.8091Z" fill="#00DAFA"/>
<path d="M37.2419 30.8905V17.9913H41.7516C42.6502 17.9913 43.3913 18.1467 43.975 18.4574C44.5586 18.7639 44.9932 19.1775 45.2788 19.6982C45.5643 20.2146 45.707 20.7878 45.707 21.4176C45.707 21.9719 45.6084 22.4296 45.411 22.7907C45.2179 23.1518 44.9617 23.4373 44.6426 23.6473C44.3277 23.8572 43.9855 24.0126 43.616 24.1134V24.2394C44.0107 24.2645 44.4075 24.4031 44.8064 24.655C45.2053 24.907 45.5391 25.2681 45.8078 25.7384C46.0766 26.2087 46.2109 26.7839 46.2109 27.4642C46.2109 28.1108 46.064 28.6923 45.77 29.2088C45.4761 29.7253 45.0121 30.1347 44.3781 30.437C43.744 30.7393 42.9189 30.8905 41.9028 30.8905H37.2419ZM38.804 29.5048H41.9028C42.9231 29.5048 43.6475 29.3075 44.0758 28.9128C44.5082 28.5139 44.7245 28.031 44.7245 27.4642C44.7245 27.0275 44.6132 26.6244 44.3907 26.2549C44.1681 25.8811 43.8511 25.583 43.4396 25.3605C43.0281 25.1337 42.541 25.0204 41.9784 25.0204H38.804V29.5048ZM38.804 23.6599H41.7012C42.1715 23.6599 42.5956 23.5675 42.9735 23.3828C43.3556 23.198 43.658 22.9377 43.8805 22.6018C44.1072 22.2658 44.2206 21.8711 44.2206 21.4176C44.2206 20.8508 44.0233 20.37 43.6286 19.9753C43.2339 19.5764 42.6082 19.377 41.7516 19.377H38.804V23.6599ZM49.6593 30.9913C49.3486 30.9913 49.082 30.88 48.8594 30.6575C48.6369 30.4349 48.5256 30.1683 48.5256 29.8576C48.5256 29.5468 48.6369 29.2802 48.8594 29.0577C49.082 28.8351 49.3486 28.7238 49.6593 28.7238C49.97 28.7238 50.2367 28.8351 50.4592 29.0577C50.6818 29.2802 50.793 29.5468 50.793 29.8576C50.793 30.0633 50.7406 30.2523 50.6356 30.4244C50.5348 30.5966 50.3983 30.7351 50.2262 30.8401C50.0582 30.9409 49.8693 30.9913 49.6593 30.9913ZM54.191 30.8905H52.5535L57.2899 17.9913H58.9023L63.6387 30.8905H62.0011L58.1465 20.032H58.0457L54.191 30.8905ZM54.7957 25.8518H61.3965V27.2374H54.7957V25.8518ZM66.5297 30.9913C66.219 30.9913 65.9523 30.88 65.7298 30.6575C65.5072 30.4349 65.396 30.1683 65.396 29.8576C65.396 29.5468 65.5072 29.2802 65.7298 29.0577C65.9523 28.8351 66.219 28.7238 66.5297 28.7238C66.8404 28.7238 67.107 28.8351 67.3296 29.0577C67.5521 29.2802 67.6634 29.5468 67.6634 29.8576C67.6634 30.0633 67.6109 30.2523 67.5059 30.4244C67.4052 30.5966 67.2687 30.7351 67.0965 30.8401C66.9286 30.9409 66.7396 30.9913 66.5297 30.9913ZM77.5866 21.2161C77.511 20.5779 77.2045 20.0824 76.667 19.7297C76.1296 19.377 75.4703 19.2006 74.6893 19.2006C74.1183 19.2006 73.6186 19.293 73.1903 19.4777C72.7662 19.6625 72.4345 19.9165 72.1951 20.2398C71.96 20.5632 71.8424 20.9306 71.8424 21.3421C71.8424 21.6864 71.9243 21.9824 72.0881 22.2301C72.256 22.4737 72.4702 22.6773 72.7305 22.8411C72.9908 23.0007 73.2638 23.1329 73.5493 23.2379C73.8348 23.3387 74.0973 23.4206 74.3366 23.4835L75.6467 23.8363C75.9826 23.9244 76.3563 24.0462 76.7678 24.2016C77.1835 24.3569 77.5803 24.569 77.9582 24.8377C78.3403 25.1022 78.6552 25.4424 78.903 25.858C79.1507 26.2737 79.2746 26.7839 79.2746 27.3886C79.2746 28.0856 79.0919 28.7154 78.7266 29.2781C78.3655 29.8408 77.8364 30.288 77.1394 30.6197C76.4466 30.9514 75.6047 31.1172 74.6137 31.1172C73.69 31.1172 72.8901 30.9682 72.214 30.6701C71.5422 30.3719 71.0131 29.9562 70.6268 29.423C70.2447 28.8897 70.0285 28.2704 69.9781 27.5649H71.5905C71.6325 28.052 71.7962 28.4551 72.0818 28.7742C72.3715 29.0891 72.7368 29.3243 73.1777 29.4797C73.6228 29.6308 74.1015 29.7064 74.6137 29.7064C75.21 29.7064 75.7454 29.6098 76.2198 29.4167C76.6943 29.2193 77.0701 28.9464 77.3473 28.5979C77.6244 28.2452 77.763 27.8337 77.763 27.3634C77.763 26.9351 77.6433 26.5866 77.4039 26.3178C77.1646 26.0491 76.8497 25.8308 76.4592 25.6628C76.0687 25.4948 75.6467 25.3479 75.1932 25.2219L73.606 24.7684C72.5982 24.4787 71.8004 24.0651 71.2126 23.5276C70.6247 22.9902 70.3308 22.2868 70.3308 21.4176C70.3308 20.6954 70.526 20.0656 70.9166 19.5281C71.3113 18.9865 71.8403 18.5666 72.5038 18.2684C73.1714 17.9661 73.9167 17.8149 74.7397 17.8149C75.5711 17.8149 76.3101 17.964 76.9568 18.2621C77.6034 18.5561 78.1157 18.9592 78.4936 19.4714C78.8757 19.9837 79.0772 20.5653 79.0982 21.2161H77.5866ZM82.7246 30.9913C82.4138 30.9913 82.1472 30.88 81.9247 30.6575C81.7021 30.4349 81.5908 30.1683 81.5908 29.8576C81.5908 29.5468 81.7021 29.2802 81.9247 29.0577C82.1472 28.8351 82.4138 28.7238 82.7246 28.7238C83.0353 28.7238 83.3019 28.8351 83.5245 29.0577C83.747 29.2802 83.8583 29.5468 83.8583 29.8576C83.8583 30.0633 83.8058 30.2523 83.7008 30.4244C83.6 30.5966 83.4636 30.7351 83.2914 30.8401C83.1235 30.9409 82.9345 30.9913 82.7246 30.9913ZM91.514 30.8905V21.2161H93.0005V30.8905H91.514ZM92.2698 19.6037C91.9801 19.6037 91.7303 19.505 91.5203 19.3077C91.3146 19.1103 91.2117 18.8731 91.2117 18.5959C91.2117 18.3188 91.3146 18.0816 91.5203 17.8842C91.7303 17.6869 91.9801 17.5882 92.2698 17.5882C92.5596 17.5882 92.8073 17.6869 93.0131 17.8842C93.223 18.0816 93.328 18.3188 93.328 18.5959C93.328 18.8731 93.223 19.1103 93.0131 19.3077C92.8073 19.505 92.5596 19.6037 92.2698 19.6037ZM97.2094 25.0707V30.8905H95.723V21.2161H97.159V22.7277H97.285C97.5117 22.2364 97.856 21.8417 98.3179 21.5436C98.7798 21.2413 99.3761 21.0901 100.107 21.0901C100.762 21.0901 101.335 21.2245 101.826 21.4932C102.317 21.7578 102.7 22.1609 102.972 22.7025C103.245 23.24 103.382 23.9202 103.382 24.7432V30.8905H101.895V24.844C101.895 24.084 101.698 23.4919 101.303 23.0678C100.909 22.6395 100.367 22.4254 99.6784 22.4254C99.2039 22.4254 98.7798 22.5283 98.4061 22.734C98.0366 22.9398 97.7448 23.24 97.5306 23.6347C97.3165 24.0294 97.2094 24.5081 97.2094 25.0707ZM111.817 30.8905H110.179L114.916 17.9913H116.528L121.265 30.8905H119.627L115.772 20.032H115.672L111.817 30.8905ZM112.422 25.8518H119.022V27.2374H112.422V25.8518ZM123.176 30.8905V21.2161H124.663V30.8905H123.176ZM123.932 19.6037C123.642 19.6037 123.393 19.505 123.183 19.3077C122.977 19.1103 122.874 18.8731 122.874 18.5959C122.874 18.3188 122.977 18.0816 123.183 17.8842C123.393 17.6869 123.642 17.5882 123.932 17.5882C124.222 17.5882 124.47 17.6869 124.675 17.8842C124.885 18.0816 124.99 18.3188 124.99 18.5959C124.99 18.8731 124.885 19.1103 124.675 19.3077C124.47 19.505 124.222 19.6037 123.932 19.6037ZM127.385 30.8905V21.2161H128.872V30.8905H127.385ZM128.141 19.6037C127.851 19.6037 127.601 19.505 127.392 19.3077C127.186 19.1103 127.083 18.8731 127.083 18.5959C127.083 18.3188 127.186 18.0816 127.392 17.8842C127.601 17.6869 127.851 17.5882 128.141 17.5882C128.431 17.5882 128.678 17.6869 128.884 17.8842C129.094 18.0816 129.199 18.3188 129.199 18.5959C129.199 18.8731 129.094 19.1103 128.884 19.3077C128.678 19.505 128.431 19.6037 128.141 19.6037Z" fill="#CAFAFF"/>
</svg>
