<svg width="177" height="50" viewBox="0 0 177 50" fill="none" xmlns="http://www.w3.org/2000/svg">
<path d="M169.804 24.6496L155.797 48.8986H132.673L128.295 44.5095H105.888L101.51 48.8986H14.4837L0.476562 24.6496L14.4837 0.400635H37.1844L41.9857 5.19925H64.3792L69.1806 0.400635H155.797L159.689 7.14428L169.804 24.6496Z" stroke="#FA8A00" stroke-width="0.505967" stroke-miterlimit="10"/>
<path d="M155.675 0.400635H162.448L166.34 7.14428L176.455 24.6496L162.448 48.8986H139.325L134.946 44.5095H112.54L108.161 48.8986H21.1348L7.12769 24.6496L21.1348 0.400635H43.8355L48.6369 5.19925H71.0431L75.8445 0.400635H155.675Z" stroke="#FA8A00" stroke-width="0.505967" stroke-miterlimit="10"/>
<path d="M155.947 7.05179H149.26L145.416 0.400635H152.104L155.947 7.05179Z" fill="#FA8A00"/>
<path d="M145.416 7.05179H138.548L134.608 0.400635H141.464L145.416 7.05179Z" fill="#FA8A00"/>
<path d="M43.4319 48.8986H36.7521L32.9009 42.2474H39.5806L43.4319 48.8986Z" fill="#FA8A00"/>
<path d="M32.9009 48.8986H26.0371L22.0928 42.2474H28.9565L32.9009 48.8986Z" fill="#FA8A00"/>
<path d="M39.0657 30.9801V18.0809H43.4242C44.4361 18.0809 45.2633 18.2636 45.9058 18.6289C46.5524 18.99 47.0311 19.4792 47.3418 20.0964C47.6525 20.7136 47.8079 21.4023 47.8079 22.1623C47.8079 22.9223 47.6525 23.613 47.3418 24.2345C47.0353 24.8559 46.5608 25.3514 45.9184 25.7209C45.2759 26.0862 44.4529 26.2689 43.4494 26.2689H40.3254V24.8832H43.399C44.0918 24.8832 44.6482 24.7635 45.0681 24.5242C45.488 24.2849 45.7924 23.9615 45.9814 23.5542C46.1745 23.1427 46.2711 22.6788 46.2711 22.1623C46.2711 21.6458 46.1745 21.1839 45.9814 20.7766C45.7924 20.3693 45.4859 20.0502 45.0618 19.8193C44.6377 19.5841 44.075 19.4666 43.3738 19.4666H40.6277V30.9801H39.0657ZM51.609 25.1603V30.9801H50.1226V18.0809H51.609V22.8173H51.735C51.9617 22.3176 52.3018 21.9208 52.7553 21.6269C53.213 21.3288 53.8219 21.1797 54.5819 21.1797C55.2411 21.1797 55.8185 21.312 56.314 21.5765C56.8094 21.8369 57.1936 22.2379 57.4666 22.7795C57.7437 23.317 57.8823 24.0014 57.8823 24.8328V30.9801H56.3958V24.9336C56.3958 24.1652 56.1964 23.571 55.7975 23.1511C55.4028 22.727 54.8548 22.515 54.1536 22.515C53.6665 22.515 53.2298 22.6179 52.8435 22.8236C52.4614 23.0294 52.1591 23.3296 51.9365 23.7243C51.7182 24.119 51.609 24.5977 51.609 25.1603ZM61.6849 31.0809C61.3742 31.0809 61.1076 30.9696 60.885 30.7471C60.6625 30.5245 60.5512 30.2579 60.5512 29.9472C60.5512 29.6364 60.6625 29.3698 60.885 29.1473C61.1076 28.9247 61.3742 28.8134 61.6849 28.8134C61.9957 28.8134 62.2623 28.9247 62.4848 29.1473C62.7074 29.3698 62.8187 29.6364 62.8187 29.9472C62.8187 30.1529 62.7662 30.3419 62.6612 30.514C62.5604 30.6862 62.424 30.8247 62.2518 30.9297C62.0838 31.0305 61.8949 31.0809 61.6849 31.0809ZM69.6682 30.9801H65.6876V18.0809H69.8446C71.0959 18.0809 72.1666 18.3391 73.0568 18.8556C73.947 19.3679 74.6293 20.1048 75.1038 21.0664C75.5783 22.0237 75.8155 23.17 75.8155 24.5053C75.8155 25.849 75.5762 27.0058 75.0975 27.9757C74.6188 28.9415 73.9218 29.6847 73.0064 30.2054C72.091 30.7219 70.9783 30.9801 69.6682 30.9801ZM67.2496 29.5944H69.5674C70.634 29.5944 71.5179 29.3887 72.2191 28.9772C72.9203 28.5657 73.4431 27.9799 73.7874 27.2199C74.1317 26.4599 74.3039 25.555 74.3039 24.5053C74.3039 23.464 74.1338 22.5675 73.7937 21.8159C73.4536 21.0601 72.9455 20.4806 72.2695 20.0775C71.5934 19.6702 70.7516 19.4666 69.7438 19.4666H67.2496V29.5944ZM78.5034 31.0809C78.1926 31.0809 77.926 30.9696 77.7035 30.7471C77.4809 30.5245 77.3696 30.2579 77.3696 29.9472C77.3696 29.6364 77.4809 29.3698 77.7035 29.1473C77.926 28.9247 78.1926 28.8134 78.5034 28.8134C78.8141 28.8134 79.0807 28.9247 79.3033 29.1473C79.5258 29.3698 79.6371 29.6364 79.6371 29.9472C79.6371 30.1529 79.5846 30.3419 79.4796 30.514C79.3788 30.6862 79.2424 30.8247 79.0702 30.9297C78.9023 31.0305 78.7133 31.0809 78.5034 31.0809ZM87.2928 30.9801V21.3057H88.7793V30.9801H87.2928ZM88.0486 19.6933C87.7589 19.6933 87.5091 19.5946 87.2991 19.3973C87.0934 19.1999 86.9905 18.9627 86.9905 18.6855C86.9905 18.4084 87.0934 18.1712 87.2991 17.9738C87.5091 17.7765 87.7589 17.6778 88.0486 17.6778C88.3384 17.6778 88.5861 17.7765 88.7919 17.9738C89.0018 18.1712 89.1068 18.4084 89.1068 18.6855C89.1068 18.9627 89.0018 19.1999 88.7919 19.3973C88.5861 19.5946 88.3384 19.6933 88.0486 19.6933ZM92.9882 25.1603V30.9801H91.5018V21.3057H92.9378V22.8173H93.0638C93.2905 22.326 93.6348 21.9313 94.0967 21.6332C94.5586 21.3309 95.1549 21.1797 95.8855 21.1797C96.5405 21.1797 97.1137 21.3141 97.6049 21.5828C98.0962 21.8474 98.4783 22.2505 98.7513 22.7921C99.0242 23.3296 99.1607 24.0098 99.1607 24.8328V30.9801H97.6742V24.9336C97.6742 24.1736 97.4769 23.5815 97.0822 23.1574C96.6875 22.7291 96.1458 22.515 95.4572 22.515C94.9827 22.515 94.5586 22.6179 94.1849 22.8236C93.8154 23.0294 93.5236 23.3296 93.3094 23.7243C93.0953 24.119 92.9882 24.5977 92.9882 25.1603ZM107.596 30.9801H105.958L110.695 18.0809H112.307L117.044 30.9801H115.406L111.551 20.1216H111.45L107.596 30.9801ZM108.201 25.9414H114.801V27.327H108.201V25.9414ZM118.955 30.9801V21.3057H120.442V30.9801H118.955ZM119.711 19.6933C119.421 19.6933 119.171 19.5946 118.961 19.3973C118.756 19.1999 118.653 18.9627 118.653 18.6855C118.653 18.4084 118.756 18.1712 118.961 17.9738C119.171 17.7765 119.421 17.6778 119.711 17.6778C120.001 17.6778 120.248 17.7765 120.454 17.9738C120.664 18.1712 120.769 18.4084 120.769 18.6855C120.769 18.9627 120.664 19.1999 120.454 19.3973C120.248 19.5946 120.001 19.6933 119.711 19.6933ZM133.745 22.1119H132.183C132.091 21.6626 131.929 21.2679 131.698 20.9278C131.472 20.5877 131.195 20.3021 130.867 20.0712C130.544 19.8361 130.185 19.6597 129.79 19.5421C129.395 19.4246 128.984 19.3658 128.555 19.3658C127.774 19.3658 127.067 19.5631 126.433 19.9578C125.803 20.3525 125.301 20.9341 124.928 21.7025C124.558 22.4709 124.373 23.4136 124.373 24.5305C124.373 25.6474 124.558 26.5901 124.928 27.3585C125.301 28.1269 125.803 28.7085 126.433 29.1032C127.067 29.4979 127.774 29.6952 128.555 29.6952C128.984 29.6952 129.395 29.6364 129.79 29.5189C130.185 29.4013 130.544 29.227 130.867 28.9961C131.195 28.761 131.472 28.4733 131.698 28.1332C131.929 27.7889 132.091 27.3942 132.183 26.9491H133.745C133.628 27.6083 133.414 28.1983 133.103 28.719C132.792 29.2396 132.406 29.6826 131.944 30.0479C131.482 30.409 130.964 30.6841 130.388 30.873C129.817 31.062 129.206 31.1565 128.555 31.1565C127.455 31.1565 126.477 30.8877 125.62 30.3503C124.764 29.8128 124.09 29.0486 123.599 28.0576C123.107 27.0667 122.862 25.891 122.862 24.5305C122.862 23.17 123.107 21.9943 123.599 21.0034C124.09 20.0124 124.764 19.2482 125.62 18.7107C126.477 18.1733 127.455 17.9045 128.555 17.9045C129.206 17.9045 129.817 17.999 130.388 18.188C130.964 18.3769 131.482 18.6541 131.944 19.0194C132.406 19.3805 132.792 19.8214 133.103 20.342C133.414 20.8585 133.628 21.4485 133.745 22.1119ZM136.269 30.9801V18.0809H144.054V19.4666H137.832V23.8251H143.651V25.2107H137.832V29.5944H144.155V30.9801H136.269Z" fill="#CAFAFF"/>
</svg>
