<svg width="177" height="50" viewBox="0 0 177 50" fill="none" xmlns="http://www.w3.org/2000/svg">
<path d="M169.804 24.7079L155.797 48.9568H132.673L128.295 44.5677H105.888L101.51 48.9568H14.4837L0.476562 24.7079L14.4837 0.458862H37.1844L41.9857 5.25748H64.3792L69.1806 0.458862H155.797L159.689 7.20251L169.804 24.7079Z" stroke="#00DAFA" stroke-width="0.505967" stroke-miterlimit="10"/>
<path d="M155.675 0.458862H162.448L166.34 7.20251L176.455 24.7079L162.448 48.9568H139.325L134.946 44.5677H112.54L108.161 48.9568H21.1348L7.12769 24.7079L21.1348 0.458862H43.8355L48.6369 5.25748H71.0431L75.8445 0.458862H155.675Z" stroke="#00DAFA" stroke-width="0.505967" stroke-miterlimit="10"/>
<path d="M155.947 7.11001H149.26L145.416 0.458862H152.104L155.947 7.11001Z" fill="#00DAFA"/>
<path d="M145.416 7.11001H138.548L134.608 0.458862H141.464L145.416 7.11001Z" fill="#00DAFA"/>
<path d="M43.4319 48.9568H36.7521L32.9009 42.3057H39.5806L43.4319 48.9568Z" fill="#00DAFA"/>
<path d="M32.9009 48.9568H26.0371L22.0928 42.3057H28.9565L32.9009 48.9568Z" fill="#00DAFA"/>
<path d="M30.8594 31.0383V18.1391H35.3691C36.2676 18.1391 37.0088 18.2945 37.5924 18.6052C38.1761 18.9117 38.6107 19.3253 38.8962 19.846C39.1817 20.3625 39.3245 20.9356 39.3245 21.5655C39.3245 22.1197 39.2258 22.5774 39.0285 22.9385C38.8353 23.2996 38.5792 23.5852 38.26 23.7951C37.9451 24.0051 37.6029 24.1604 37.2334 24.2612V24.3872C37.6281 24.4124 38.0249 24.5509 38.4238 24.8029C38.8227 25.0548 39.1565 25.4159 39.4253 25.8862C39.694 26.3565 39.8284 26.9317 39.8284 27.612C39.8284 28.2586 39.6814 28.8402 39.3875 29.3566C39.0935 29.8731 38.6296 30.2825 37.9955 30.5848C37.3615 30.8872 36.5364 31.0383 35.5202 31.0383H30.8594ZM32.4214 29.6527H35.5202C36.5406 29.6527 37.2649 29.4553 37.6932 29.0606C38.1257 28.6617 38.3419 28.1788 38.3419 27.612C38.3419 27.1753 38.2307 26.7722 38.0081 26.4027C37.7856 26.029 37.4685 25.7308 37.057 25.5083C36.6455 25.2816 36.1585 25.1682 35.5958 25.1682H32.4214V29.6527ZM32.4214 23.8077H35.3187C35.789 23.8077 36.2131 23.7153 36.591 23.5306C36.9731 23.3458 37.2754 23.0855 37.4979 22.7496C37.7247 22.4137 37.838 22.019 37.838 21.5655C37.838 20.9986 37.6407 20.5178 37.246 20.1231C36.8513 19.7242 36.2256 19.5248 35.3691 19.5248H32.4214V23.8077ZM43.2768 31.1391C42.966 31.1391 42.6994 31.0278 42.4768 30.8053C42.2543 30.5827 42.143 30.3161 42.143 30.0054C42.143 29.6947 42.2543 29.428 42.4768 29.2055C42.6994 28.9829 42.966 28.8717 43.2768 28.8717C43.5875 28.8717 43.8541 28.9829 44.0767 29.2055C44.2992 29.428 44.4105 29.6947 44.4105 30.0054C44.4105 30.2111 44.358 30.4001 44.253 30.5722C44.1522 30.7444 44.0158 30.883 43.8436 30.9879C43.6757 31.0887 43.4867 31.1391 43.2768 31.1391ZM47.2794 31.0383V18.1391H55.0643V19.5248H48.8414V23.8833H54.6612V25.269H48.8414V29.6527H55.1651V31.0383H47.2794ZM59.1646 25.2186V31.0383H57.6781V21.3639H59.1142V22.8756H59.2401C59.4669 22.3843 59.8112 21.9896 60.2731 21.6914C60.735 21.3891 61.3312 21.238 62.0618 21.238C62.7169 21.238 63.29 21.3723 63.7813 21.6411C64.2726 21.9056 64.6547 22.3087 64.9276 22.8504C65.2006 23.3878 65.337 24.0681 65.337 24.8911V31.0383H63.8506V24.9918C63.8506 24.2318 63.6533 23.6398 63.2585 23.2157C62.8638 22.7874 62.3222 22.5732 61.6336 22.5732C61.1591 22.5732 60.735 22.6761 60.3613 22.8819C59.9918 23.0876 59.6999 23.3878 59.4858 23.7825C59.2716 24.1772 59.1646 24.6559 59.1646 25.2186ZM71.9583 34.8678C71.2402 34.8678 70.623 34.7754 70.1065 34.5907C69.5901 34.4101 69.1597 34.1708 68.8153 33.8726C68.4752 33.5787 68.2044 33.2638 68.0029 32.9279L69.187 32.0965C69.3213 32.2728 69.4914 32.4744 69.6971 32.7011C69.9029 32.9321 70.1842 33.1315 70.5411 33.2995C70.9022 33.4716 71.3746 33.5577 71.9583 33.5577C72.7393 33.5577 73.3838 33.3688 73.8919 32.9908C74.4 32.6129 74.654 32.0209 74.654 31.2147V29.2496H74.528C74.4189 29.4259 74.2635 29.6443 74.062 29.9046C73.8646 30.1607 73.5791 30.3896 73.2054 30.5911C72.8359 30.7885 72.3362 30.8872 71.7063 30.8872C70.9253 30.8872 70.2241 30.7024 69.6027 30.3329C68.9854 29.9634 68.4962 29.4259 68.1351 28.7205C67.7782 28.0151 67.5998 27.1585 67.5998 26.1507C67.5998 25.1598 67.774 24.2969 68.1225 23.5621C68.471 22.8231 68.956 22.252 69.5775 21.8489C70.1989 21.4416 70.9169 21.238 71.7315 21.238C72.3614 21.238 72.861 21.3429 73.2306 21.5529C73.6043 21.7586 73.8898 21.9938 74.0871 22.2583C74.2887 22.5186 74.4441 22.7328 74.5532 22.9007H74.7044V21.3639H76.1404V31.3155C76.1404 32.1469 75.9515 32.8229 75.5736 33.3436C75.1999 33.8684 74.696 34.2526 74.062 34.4962C73.4321 34.7439 72.7309 34.8678 71.9583 34.8678ZM71.9079 29.5519C72.5041 29.5519 73.008 29.4154 73.4195 29.1425C73.831 28.8696 74.1438 28.477 74.358 27.9647C74.5721 27.4524 74.6792 26.8394 74.6792 26.1255C74.6792 25.4285 74.5742 24.8134 74.3643 24.2801C74.1543 23.7468 73.8436 23.329 73.4321 23.0267C73.0206 22.7244 72.5125 22.5732 71.9079 22.5732C71.278 22.5732 70.7532 22.7328 70.3333 23.0519C69.9176 23.371 69.6048 23.7993 69.3948 24.3368C69.1891 24.8743 69.0862 25.4705 69.0862 26.1255C69.0862 26.7974 69.1912 27.3915 69.4011 27.908C69.6153 28.4203 69.9302 28.8234 70.3459 29.1173C70.7658 29.407 71.2864 29.5519 71.9079 29.5519ZM79.9447 31.1391C79.634 31.1391 79.3673 31.0278 79.1448 30.8053C78.9222 30.5827 78.811 30.3161 78.811 30.0054C78.811 29.6947 78.9222 29.428 79.1448 29.2055C79.3673 28.9829 79.634 28.8717 79.9447 28.8717C80.2554 28.8717 80.522 28.9829 80.7446 29.2055C80.9671 29.428 81.0784 29.6947 81.0784 30.0054C81.0784 30.2111 81.0259 30.4001 80.9209 30.5722C80.8202 30.7444 80.6837 30.883 80.5116 30.9879C80.3436 31.0887 80.1546 31.1391 79.9447 31.1391ZM88.7342 31.0383V21.3639H90.2206V31.0383H88.7342ZM89.49 19.7515C89.2003 19.7515 88.9504 19.6529 88.7405 19.4555C88.5347 19.2581 88.4318 19.0209 88.4318 18.7438C88.4318 18.4666 88.5347 18.2294 88.7405 18.0321C88.9504 17.8347 89.2003 17.736 89.49 17.736C89.7797 17.736 90.0274 17.8347 90.2332 18.0321C90.4431 18.2294 90.5481 18.4666 90.5481 18.7438C90.5481 19.0209 90.4431 19.2581 90.2332 19.4555C90.0274 19.6529 89.7797 19.7515 89.49 19.7515ZM94.4295 25.2186V31.0383H92.9431V21.3639H94.3791V22.8756H94.5051C94.7319 22.3843 95.0762 21.9896 95.5381 21.6914C95.9999 21.3891 96.5962 21.238 97.3268 21.238C97.9818 21.238 98.555 21.3723 99.0463 21.6411C99.5376 21.9056 99.9197 22.3087 100.193 22.8504C100.466 23.3878 100.602 24.0681 100.602 24.8911V31.0383H99.1156V24.9918C99.1156 24.2318 98.9182 23.6398 98.5235 23.2157C98.1288 22.7874 97.5871 22.5732 96.8985 22.5732C96.424 22.5732 95.9999 22.6761 95.6262 22.8819C95.2567 23.0876 94.9649 23.3878 94.7507 23.7825C94.5366 24.1772 94.4295 24.6559 94.4295 25.2186ZM109.037 31.0383H107.4L112.136 18.1391H113.748L118.485 31.0383H116.847L112.993 20.1798H112.892L109.037 31.0383ZM109.642 25.9996H116.243V27.3852H109.642V25.9996ZM120.396 31.0383V21.3639H121.883V31.0383H120.396ZM121.152 19.7515C120.863 19.7515 120.613 19.6529 120.403 19.4555C120.197 19.2581 120.094 19.0209 120.094 18.7438C120.094 18.4666 120.197 18.2294 120.403 18.0321C120.613 17.8347 120.863 17.736 121.152 17.736C121.442 17.736 121.69 17.8347 121.895 18.0321C122.105 18.2294 122.21 18.4666 122.21 18.7438C122.21 19.0209 122.105 19.2581 121.895 19.4555C121.69 19.6529 121.442 19.7515 121.152 19.7515ZM135.187 22.1701H133.625C133.532 21.7208 133.371 21.3261 133.14 20.986C132.913 20.6459 132.636 20.3604 132.308 20.1294C131.985 19.8943 131.626 19.7179 131.231 19.6004C130.837 19.4828 130.425 19.424 129.997 19.424C129.216 19.424 128.508 19.6214 127.874 20.0161C127.244 20.4108 126.743 20.9923 126.369 21.7607C125.999 22.5291 125.815 23.4718 125.815 24.5887C125.815 25.7057 125.999 26.6483 126.369 27.4167C126.743 28.1851 127.244 28.7667 127.874 29.1614C128.508 29.5561 129.216 29.7534 129.997 29.7534C130.425 29.7534 130.837 29.6947 131.231 29.5771C131.626 29.4595 131.985 29.2853 132.308 29.0543C132.636 28.8192 132.913 28.5316 133.14 28.1914C133.371 27.8471 133.532 27.4524 133.625 27.0073H135.187C135.069 27.6666 134.855 28.2565 134.544 28.7772C134.234 29.2979 133.847 29.7409 133.385 30.1062C132.923 30.4673 132.405 30.7423 131.83 30.9313C131.259 31.1202 130.648 31.2147 129.997 31.2147C128.897 31.2147 127.918 30.946 127.062 30.4085C126.205 29.871 125.531 29.1068 125.04 28.1159C124.549 27.1249 124.303 25.9492 124.303 24.5887C124.303 23.2283 124.549 22.0526 125.04 21.0616C125.531 20.0706 126.205 19.3064 127.062 18.769C127.918 18.2315 128.897 17.9628 129.997 17.9628C130.648 17.9628 131.259 18.0572 131.83 18.2462C132.405 18.4352 132.923 18.7123 133.385 19.0776C133.847 19.4387 134.234 19.8796 134.544 20.4003C134.855 20.9167 135.069 21.5067 135.187 22.1701ZM137.711 31.0383V18.1391H145.496V19.5248H139.273V23.8833H145.093V25.269H139.273V29.6527H145.596V31.0383H137.711Z" fill="#CAFAFF"/>
</svg>
