<svg width="255" height="54" viewBox="0 0 255 54" fill="none" xmlns="http://www.w3.org/2000/svg">
<path d="M1.00657 29.4145H0V16.1053L16.6645 0H177.382L180.961 3.69079H255V17H253.993V4.69737H180.513L176.934 1.00658H17L1.00657 16.5526V29.4145Z" fill="#00E2A7"/>
<path d="M238.336 53.6839H77.5066L74.0395 49.9931H0V36.6839H1.00657V48.9865H74.4869L77.954 52.6773H237.888L253.993 37.1312V24.2694H255V37.5786L238.336 53.6839Z" fill="#00E2A7"/>
<path d="M236.547 50.9997H78.961L77.0597 48.9866H239.119L236.547 50.9997Z" fill="#00E2A7"/>
<path d="M18.1193 2.68408H176.04L177.83 4.69724H15.9943L18.1193 2.68408Z" fill="#00E2A7"/>
<path d="M67.3289 53.4604L64.6447 50.7762H62.2961L65.0921 53.4604H67.3289ZM63.1908 53.4604L60.3947 50.7762H58.1579L60.8421 53.4604H63.1908ZM59.1645 53.4604L56.3684 50.7762H54.1316L56.8158 53.4604H59.1645ZM71.5789 53.4604L68.7829 50.7762H66.546L69.2302 53.4604H71.5789ZM75.7171 53.4604L73.0329 50.7762H70.6842L73.4803 53.4604H75.7171ZM42.7237 53.4604L39.9276 50.7762H37.6908L40.4868 53.4604H42.7237ZM38.5855 53.4604L35.7895 50.7762H33.5526L36.2368 53.4604H38.5855ZM51 53.4604L48.2039 50.7762H45.9671L48.7632 53.4604H51ZM55.0263 53.4604L52.3421 50.7762H49.9934L52.7895 53.4604H55.0263ZM46.75 53.4604L44.0658 50.7762H41.7171L44.5131 53.4604H46.75ZM26.171 53.4604L23.375 50.7762H21.1381L23.8223 53.4604H26.171ZM17.8947 53.4604L15.2105 50.7762H12.8618L15.6579 53.4604H17.8947ZM22.0329 53.4604L19.2368 50.7762H17L19.6842 53.4604H22.0329ZM30.3092 53.4604L27.625 50.7762H25.2763L28.0724 53.4604H30.3092ZM34.4473 53.4604L31.6513 50.7762H29.4145L32.0987 53.4604H34.4473ZM13.8684 53.4604L11.0724 50.7762H8.83551L11.6316 53.4604H13.8684ZM5.5921 53.4604L2.79605 50.7762H0.559204L3.24341 53.4604H5.5921ZM9.73027 53.4604L7.04603 50.7762H4.69738L7.49343 53.4604H9.73027Z" fill="#00E2A7"/>
<path d="M245.829 2.9076L243.144 0.223389H240.796L243.592 2.9076H245.829ZM241.69 2.9076L238.894 0.223389H236.657L239.342 2.9076H241.69ZM237.552 2.9076L234.868 0.223389H232.519L235.315 2.9076H237.552ZM249.967 2.9076L247.171 0.223389H244.934L247.618 2.9076H249.967ZM254.105 2.9076L251.421 0.223389H249.072L251.868 2.9076H254.105ZM221.111 2.9076L218.315 0.223389H216.079L218.875 2.9076H221.111ZM216.973 2.9076L214.177 0.223389H211.94L214.625 2.9076H216.973ZM229.388 2.9076L226.592 0.223389H224.355L227.039 2.9076H229.388ZM233.526 2.9076L230.842 0.223389H228.493L231.289 2.9076H233.526ZM225.25 2.9076L222.565 0.223389H220.217L223.013 2.9076H225.25ZM204.671 2.9076L201.875 0.223389H199.638L202.322 2.9076H204.671ZM196.394 2.9076L193.71 0.223389H191.361L194.158 2.9076H196.394ZM200.533 2.9076L197.736 0.223389H195.5L198.184 2.9076H200.533ZM208.809 2.9076L206.125 0.223389H203.776L206.572 2.9076H208.809ZM212.947 2.9076L210.151 0.223389H207.914L210.598 2.9076H212.947ZM192.368 2.9076L189.572 0.223389H187.335L190.131 2.9076H192.368ZM184.092 2.9076L181.296 0.223389H179.059L181.743 2.9076H184.092ZM188.23 2.9076L185.546 0.223389H183.197L185.993 2.9076H188.23Z" fill="#00E2A7"/>
<path d="M13.8693 7.3811L3.69165 17.5587V46.6377H66.5469V7.3811H13.8693Z" fill="#00E2A7"/>
<path d="M34.705 23.8492C33.7169 23.8492 32.9484 24.6176 32.9484 25.7155L32.8386 33.2907C32.8386 34.2787 33.7169 35.157 34.705 35.157C35.6931 35.157 36.5713 34.2787 36.5713 33.2907V25.7155C36.5713 24.7274 35.6931 23.8492 34.705 23.8492ZM34.705 22.0926C35.6931 22.0926 36.4615 21.2143 36.4615 20.2262C36.4615 19.2382 35.6931 18.4697 34.705 18.4697C33.7169 18.4697 32.9484 19.2382 32.9484 20.2262C32.9484 21.2143 33.7169 22.0926 34.705 22.0926Z" fill="white"/>
<path fill-rule="evenodd" clip-rule="evenodd" d="M34.704 38.9999C31.4105 38.9999 28.3365 37.7923 26.031 35.377C23.7255 33.0715 22.5178 29.9975 22.5178 26.8138C22.5178 20.0071 28.0071 14.5178 34.704 14.5178C37.9976 14.5178 41.0715 15.8352 43.377 18.1407C45.6825 20.4462 47 23.5202 47 26.8138C47 30.1073 45.6825 33.1813 43.377 35.4868C41.0715 37.7923 37.9976 38.9999 34.704 38.9999ZM34.704 15.8352C28.6658 15.8352 23.7255 20.6658 23.7255 26.8138C23.7255 29.6682 24.8233 32.5226 26.9092 34.4987C28.9952 36.5846 31.7398 37.7923 34.704 37.7923C37.6682 37.7923 40.4128 36.5847 42.4988 34.6085C44.5847 32.5226 45.6826 29.778 45.6826 26.8138C45.6826 23.8496 44.5847 21.1049 42.4988 19.019C40.4128 16.9331 37.6682 15.8352 34.704 15.8352Z" fill="white"/>
<g filter="url(#filter0_i_86_1738)">
<path d="M113.668 34V19.9321H118.591C119.79 19.9321 120.806 20.057 121.639 20.3069C122.489 20.5568 123.139 20.9815 123.588 21.5812C124.038 22.1643 124.263 22.9722 124.263 24.005C124.263 24.7213 124.138 25.3627 123.888 25.9291C123.655 26.4954 123.297 26.9452 122.814 27.2784C122.331 27.5949 121.731 27.7531 121.015 27.7531C121.564 27.7531 121.989 27.8614 122.289 28.078C122.606 28.2779 122.839 28.5527 122.989 28.9026C123.139 29.2357 123.239 29.5939 123.289 29.977C123.339 30.3602 123.372 30.735 123.388 31.1015C123.422 31.4679 123.48 31.7844 123.563 32.051C123.647 32.3175 123.788 32.5008 123.988 32.6007C124.205 32.7007 124.513 32.6757 124.913 32.5257V33.7751C124.68 33.975 124.38 34.1083 124.013 34.1749C123.647 34.2582 123.272 34.2332 122.889 34.0999C122.522 33.9833 122.206 33.7335 121.939 33.3503C121.689 32.9505 121.564 32.3758 121.564 31.6262C121.564 30.9265 121.531 30.3435 121.464 29.8771C121.414 29.4106 121.29 29.0525 121.09 28.8026C120.89 28.5361 120.582 28.3445 120.165 28.2279C119.749 28.0946 119.182 28.028 118.466 28.028C117.766 28.0113 116.867 28.0197 115.767 28.053V34H113.668ZM115.767 26.5038H118.666C119.515 26.5038 120.215 26.4538 120.765 26.3538C121.315 26.2372 121.723 26.0123 121.989 25.6792C122.272 25.3294 122.414 24.8213 122.414 24.1549C122.414 23.372 122.247 22.8056 121.914 22.4558C121.581 22.106 121.098 21.8894 120.465 21.8061C119.832 21.7062 119.049 21.6562 118.116 21.6562H115.767V26.5038ZM132.658 34.2499C131.509 34.2499 130.567 34 129.834 33.5003C129.102 32.9838 128.56 32.3258 128.21 31.5262C127.86 30.71 127.686 29.8687 127.686 29.0025C127.669 28.0197 127.852 27.1285 128.235 26.3289C128.635 25.5293 129.201 24.8962 129.934 24.4298C130.684 23.9634 131.575 23.7302 132.608 23.7302C133.508 23.7302 134.307 23.9301 135.007 24.3299C135.707 24.713 136.265 25.2627 136.681 25.979C137.097 26.6787 137.322 27.5116 137.356 28.4778C137.372 28.5277 137.381 28.6277 137.381 28.7776C137.381 28.9109 137.381 29.0275 137.381 29.1274H129.66C129.66 30.1936 129.918 31.0265 130.434 31.6262C130.967 32.2092 131.7 32.5008 132.633 32.5008C133.333 32.5008 133.924 32.3258 134.407 31.976C134.907 31.6095 135.215 31.1264 135.332 30.5267H137.356C137.256 31.2264 137.006 31.8594 136.606 32.4258C136.206 32.9922 135.673 33.4419 135.007 33.7751C134.341 34.0916 133.558 34.2499 132.658 34.2499ZM129.735 28.103H135.282C135.265 27.9197 135.215 27.6782 135.132 27.3783C135.065 27.0785 134.932 26.787 134.732 26.5038C134.532 26.2039 134.257 25.954 133.907 25.7541C133.558 25.5542 133.108 25.4543 132.558 25.4543C132.058 25.4543 131.634 25.5376 131.284 25.7042C130.934 25.8708 130.651 26.0956 130.434 26.3788C130.218 26.6454 130.051 26.9369 129.934 27.2534C129.834 27.5532 129.768 27.8364 129.735 28.103ZM143.303 38.3728V36.4238H148.101V31.951H148.051C148.018 32.0177 147.934 32.1759 147.801 32.4258C147.668 32.659 147.46 32.9172 147.177 33.2004C146.91 33.4836 146.552 33.7335 146.102 33.95C145.669 34.1499 145.128 34.2499 144.478 34.2499C143.495 34.2499 142.679 34.025 142.029 33.5752C141.379 33.1254 140.896 32.5091 140.58 31.7261C140.28 30.9432 140.13 30.0437 140.13 29.0275C140.13 27.978 140.288 27.0618 140.605 26.2789C140.921 25.4793 141.404 24.8629 142.054 24.4298C142.704 23.9967 143.52 23.7801 144.503 23.7801C145.169 23.7801 145.727 23.8884 146.177 24.105C146.627 24.3215 146.977 24.5797 147.227 24.8796C147.493 25.1794 147.685 25.4543 147.801 25.7042C147.934 25.954 148.009 26.1123 148.026 26.1789H148.076V23.7801H150.225V35.2993C150.225 36.0323 150.133 36.6237 149.95 37.0735C149.767 37.5232 149.475 37.8481 149.076 38.048C148.692 38.2645 148.176 38.3728 147.526 38.3728H143.303ZM145.053 32.4508C145.702 32.4508 146.252 32.3092 146.702 32.026C147.152 31.7428 147.485 31.343 147.701 30.8266C147.934 30.3102 148.051 29.7105 148.051 29.0275C148.051 28.3612 147.943 27.7698 147.726 27.2534C147.51 26.737 147.185 26.3455 146.752 26.079C146.335 25.7958 145.802 25.6542 145.153 25.6542C144.42 25.6542 143.828 25.8124 143.378 26.129C142.945 26.4455 142.629 26.8619 142.429 27.3783C142.246 27.8947 142.154 28.4445 142.154 29.0275C142.154 29.6105 142.237 30.1686 142.404 30.7017C142.587 31.2181 142.887 31.6429 143.303 31.976C143.737 32.2925 144.32 32.4508 145.053 32.4508ZM153.819 34V23.7801H155.893V34H153.819ZM154.869 22.3558C154.386 22.3558 154.053 22.2309 153.869 21.981C153.703 21.7312 153.619 21.4396 153.619 21.1065C153.619 20.79 153.703 20.5151 153.869 20.2819C154.053 20.032 154.386 19.9071 154.869 19.9071C155.352 19.9071 155.668 20.032 155.818 20.2819C155.985 20.5151 156.068 20.79 156.068 21.1065C156.068 21.4396 155.985 21.7312 155.818 21.981C155.668 22.2309 155.352 22.3558 154.869 22.3558ZM163.604 34.2499C163.138 34.2499 162.68 34.1832 162.23 34.05C161.797 33.9334 161.389 33.7585 161.006 33.5252C160.639 33.292 160.306 33.0255 160.006 32.7256C159.723 32.4258 159.498 32.101 159.331 31.7511C159.181 31.3846 159.106 31.0015 159.106 30.6017H161.056C161.056 30.6184 161.064 30.735 161.08 30.9515C161.114 31.1681 161.205 31.418 161.355 31.7012C161.505 31.9677 161.747 32.2009 162.08 32.4008C162.43 32.6007 162.921 32.7007 163.554 32.7007C164.037 32.7007 164.445 32.6423 164.779 32.5257C165.128 32.4091 165.395 32.2509 165.578 32.051C165.761 31.8344 165.845 31.5762 165.828 31.2764C165.828 30.8599 165.67 30.5351 165.353 30.3019C165.037 30.0686 164.629 29.8854 164.129 29.7521C163.629 29.6022 163.104 29.4606 162.555 29.3273C162.005 29.1941 161.48 29.0192 160.981 28.8026C160.481 28.5694 160.073 28.2612 159.756 27.8781C159.456 27.4783 159.315 26.9452 159.331 26.2789C159.331 25.3793 159.706 24.688 160.456 24.2049C161.222 23.7052 162.188 23.4553 163.354 23.4553C163.921 23.4553 164.47 23.5219 165.004 23.6552C165.537 23.7885 166.011 23.9967 166.428 24.2799C166.861 24.5631 167.202 24.9379 167.452 25.4043C167.719 25.8708 167.844 26.4455 167.827 27.1285H165.903C165.92 26.6953 165.845 26.3455 165.678 26.079C165.528 25.8124 165.32 25.6125 165.054 25.4793C164.787 25.3294 164.504 25.2294 164.204 25.1794C163.921 25.1128 163.646 25.0795 163.379 25.0795C162.713 25.0795 162.188 25.2044 161.805 25.4543C161.422 25.6875 161.23 26.004 161.23 26.4038C161.23 26.8203 161.389 27.1451 161.705 27.3783C162.022 27.6115 162.43 27.7948 162.93 27.9281C163.429 28.0613 163.962 28.1946 164.529 28.3278C165.095 28.4611 165.628 28.6444 166.128 28.8776C166.628 29.0941 167.036 29.4023 167.352 29.8021C167.669 30.2019 167.827 30.735 167.827 31.4013C167.827 32.051 167.644 32.584 167.277 33.0005C166.928 33.417 166.436 33.7335 165.803 33.95C165.17 34.1499 164.437 34.2499 163.604 34.2499ZM173.754 34C173.054 34 172.538 33.8168 172.204 33.4503C171.871 33.0838 171.705 32.5257 171.705 31.7761V25.0295H173.679V32.3508H176.052V34H173.754ZM170.13 25.2794V23.7801C170.514 23.7801 170.822 23.7551 171.055 23.7052C171.305 23.6552 171.488 23.5552 171.605 23.4053C171.738 23.2387 171.83 22.9805 171.88 22.6307C171.93 22.2642 171.955 21.7728 171.955 21.1565H173.679V23.7801H176.027V25.2794H170.13ZM183.78 34.2499C182.63 34.2499 181.689 34 180.956 33.5003C180.223 32.9838 179.682 32.3258 179.332 31.5262C178.982 30.71 178.807 29.8687 178.807 29.0025C178.791 28.0197 178.974 27.1285 179.357 26.3289C179.757 25.5293 180.323 24.8962 181.056 24.4298C181.806 23.9634 182.697 23.7302 183.73 23.7302C184.629 23.7302 185.429 23.9301 186.129 24.3299C186.828 24.713 187.386 25.2627 187.803 25.979C188.219 26.6787 188.444 27.5116 188.477 28.4778C188.494 28.5277 188.502 28.6277 188.502 28.7776C188.502 28.9109 188.502 29.0275 188.502 29.1274H180.781C180.781 30.1936 181.04 31.0265 181.556 31.6262C182.089 32.2092 182.822 32.5008 183.755 32.5008C184.454 32.5008 185.046 32.3258 185.529 31.976C186.029 31.6095 186.337 31.1264 186.453 30.5267H188.477C188.378 31.2264 188.128 31.8594 187.728 32.4258C187.328 32.9922 186.795 33.4419 186.129 33.7751C185.462 34.0916 184.679 34.2499 183.78 34.2499ZM180.856 28.103H186.404C186.387 27.9197 186.337 27.6782 186.254 27.3783C186.187 27.0785 186.054 26.787 185.854 26.5038C185.654 26.2039 185.379 25.954 185.029 25.7541C184.679 25.5542 184.23 25.4543 183.68 25.4543C183.18 25.4543 182.755 25.5376 182.406 25.7042C182.056 25.8708 181.773 26.0956 181.556 26.3788C181.339 26.6454 181.173 26.9369 181.056 27.2534C180.956 27.5532 180.89 27.8364 180.856 28.103ZM191.927 34V23.7801H193.851L194.025 26.7287L194 28.9275V34H191.927ZM194 29.4023L193.926 27.1534C193.942 26.787 194.025 26.4121 194.175 26.029C194.325 25.6292 194.55 25.2627 194.85 24.9296C195.167 24.5797 195.566 24.3049 196.049 24.105C196.549 23.8884 197.149 23.7801 197.849 23.7801H198.273V26.079H197.824C197.074 26.079 196.449 26.1539 195.95 26.3039C195.45 26.4371 195.058 26.6454 194.775 26.9286C194.492 27.2117 194.292 27.5616 194.175 27.978C194.059 28.3945 194 28.8692 194 29.4023Z" fill="#00E2A7"/>
</g>
<defs>
<filter id="filter0_i_86_1738" x="113.668" y="19.9071" width="84.605" height="18.4657" filterUnits="userSpaceOnUse" color-interpolation-filters="sRGB">
<feFlood flood-opacity="0" result="BackgroundImageFix"/>
<feBlend mode="normal" in="SourceGraphic" in2="BackgroundImageFix" result="shape"/>
<feColorMatrix in="SourceAlpha" type="matrix" values="0 0 0 0 0 0 0 0 0 0 0 0 0 0 0 0 0 0 127 0" result="hardAlpha"/>
<feOffset/>
<feGaussianBlur stdDeviation="1.45621"/>
<feComposite in2="hardAlpha" operator="arithmetic" k2="-1" k3="1"/>
<feColorMatrix type="matrix" values="0 0 0 0 0 0 0 0 0 0 0 0 0 0 0 0 0 0 0.16 0"/>
<feBlend mode="normal" in2="shape" result="effect1_innerShadow_86_1738"/>
</filter>
</defs>
</svg>
