<svg width="164" height="39" viewBox="0 0 164 39" fill="none" xmlns="http://www.w3.org/2000/svg">
<path opacity="0.3" d="M154.254 22.2302L158.982 10.2651L54.0948 10.1687L50.7176 3.99315L15.2084 3.89665L5.07666 29.3706L8.06796 34.2917L137.078 34.4847L154.254 22.2302Z" fill="#1B252F"/>
<path d="M53.9983 10.0722L50.7176 3.99315L15.2084 3.89665L5.07666 29.3706L8.06796 34.2917L44.349 34.3882L53.9983 10.0722Z" fill="#134869"/>
<path fill-rule="evenodd" clip-rule="evenodd" d="M137.657 37.7656H137.464L4.59419 37.6691L0.92749 31.4936V31.3006L13.182 0.61602H53.4193L56.7 6.79152L163.71 6.88802L156.859 24.0636L137.657 37.7656ZM5.07665 36.7041L137.368 36.8971L156.184 23.4847L162.359 7.75644L56.2176 7.65995L52.9369 1.48444H13.8575L1.89241 31.3971L5.07665 36.7041Z" fill="#65F2FC"/>
<path d="M69.5341 0.0369415L72.3323 5.05455H76.0955L73.2972 0.0369415H69.5341ZM62.7796 0.0369415L65.5778 5.05455H69.3411L66.4463 0.0369415H62.7796ZM56.0251 0.0369415L58.9199 5.05455H62.5866L59.7883 0.0369415H56.0251ZM89.8939 0.0369415L92.6922 5.05455H96.4554L93.6571 0.0369415H89.8939ZM76.2885 0.0369415L79.1833 5.05455H82.9465L80.0517 0.0369415H76.2885ZM83.043 0.0369415L85.9378 5.05455H89.7009L86.8062 0.0369415H83.043ZM103.403 0.13344L106.201 5.05455H109.964L107.166 0.13344H103.403ZM110.157 0.13344L112.956 5.05455L116.719 5.15105L113.921 0.13344H110.157ZM96.5519 0.13344L99.4467 5.05455H103.113L100.315 0.13344H96.5519ZM116.912 0.13344L119.71 5.15105H123.473L120.675 0.13344H116.912ZM130.421 0.13344L133.219 5.15105H136.982L134.184 0.13344H130.421ZM123.57 0.13344L126.465 5.15105H130.228L127.333 0.13344H123.57ZM150.684 0.13344L153.579 5.15105H157.246L154.447 0.13344H150.684ZM143.93 0.13344L146.728 5.15105H150.491L147.693 0.13344H143.93ZM137.079 0.13344L139.973 5.15105H143.64L140.842 0.13344H137.079ZM157.439 0.229938L160.237 5.15105H164L161.202 0.229938H157.439Z" fill="#65F2FC"/>
<path d="M155.701 28.2129L151.648 38.2481H141.613L155.701 28.2129Z" fill="#65F2FC"/>
<path d="M29.2966 16.7301C28.4282 16.7301 27.7527 17.4055 27.7527 18.3705L27.6562 25.0284C27.6562 25.8968 28.4282 26.6688 29.2966 26.6688C30.1651 26.6688 30.937 25.8968 30.937 25.0284V18.3705C30.937 17.502 30.1651 16.7301 29.2966 16.7301ZM29.2966 15.1862C30.1651 15.1862 30.8405 14.4143 30.8405 13.5458C30.8405 12.6774 30.1651 12.002 29.2966 12.002C28.4282 12.002 27.7527 12.6774 27.7527 13.5458C27.7527 14.4143 28.4282 15.1862 29.2966 15.1862Z" fill="white"/>
<path fill-rule="evenodd" clip-rule="evenodd" d="M29.2958 30.0464C26.401 30.0464 23.6992 28.985 21.6728 26.8622C19.6465 24.8358 18.5851 22.134 18.5851 19.3357C18.5851 13.3532 23.4097 8.52863 29.2958 8.52863C32.1905 8.52863 34.8923 9.68652 36.9186 11.7129C38.945 13.7392 40.1029 16.441 40.1029 19.3357C40.1029 22.2305 38.945 24.9323 36.9186 26.9586C34.8923 28.985 32.1905 30.0464 29.2958 30.0464ZM29.2958 9.68652C23.9887 9.68652 19.6465 13.9322 19.6465 19.3357C19.6465 21.8445 20.6114 24.3533 22.4448 26.0902C24.2781 27.9236 26.6905 28.985 29.2958 28.985C31.9011 28.985 34.3133 27.9236 36.1467 26.1867C37.98 24.3534 38.945 21.941 38.945 19.3357C38.945 16.7305 37.98 14.3181 36.1467 12.4848C34.3133 10.6514 31.9011 9.68652 29.2958 9.68652Z" fill="white"/>
<g filter="url(#filter0_i_19_4620)">
<path d="M68.2334 25.7358V17.9996H69.4372V25.7358H68.2334ZM67.1031 26V24.9431H70.5528V26H67.1031ZM67.1031 18.7923V17.7354H70.5528V18.7923H67.1031ZM72.8186 26V19.996H73.8609L74.0664 21.3906H74.0958C74.1056 21.3515 74.1447 21.2585 74.2132 21.1117C74.2817 20.9649 74.3943 20.8083 74.5508 20.6419C74.7074 20.4658 74.9178 20.3141 75.1821 20.1869C75.4463 20.0597 75.779 19.996 76.1803 19.996C76.6011 19.996 76.9436 20.0645 77.2078 20.2016C77.4819 20.3288 77.6972 20.5049 77.8537 20.73C78.0201 20.9453 78.1376 21.19 78.2061 21.464C78.2746 21.7282 78.3186 22.0023 78.3382 22.2861C78.3577 22.5601 78.3675 22.8194 78.3675 23.0641V26H77.1785V23.0494C77.1785 22.6775 77.1393 22.3448 77.061 22.0512C76.9828 21.7478 76.8409 21.5129 76.6353 21.3466C76.4298 21.1704 76.1216 21.0823 75.7105 21.0823C75.2995 21.0823 74.9717 21.1802 74.727 21.3759C74.4921 21.5717 74.3209 21.8261 74.2132 22.1393C74.1153 22.4426 74.0664 22.7754 74.0664 23.1375V26H72.8186ZM82.7575 26.1468C82.4835 26.1468 82.2144 26.1077 81.9502 26.0294C81.6957 25.9609 81.4559 25.8581 81.2309 25.7211C81.0156 25.5841 80.8198 25.4275 80.6437 25.2513C80.4773 25.0752 80.3452 24.8843 80.2473 24.6788C80.1592 24.4635 80.1152 24.2384 80.1152 24.0036H81.2602C81.2602 24.0134 81.2651 24.0819 81.2749 24.2091C81.2945 24.3363 81.3483 24.4831 81.4364 24.6495C81.5245 24.8061 81.6664 24.9431 81.8621 25.0605C82.0676 25.1779 82.3563 25.2367 82.7282 25.2367C83.012 25.2367 83.2518 25.2024 83.4475 25.1339C83.653 25.0654 83.8096 24.9724 83.9172 24.855C84.0249 24.7278 84.0738 24.5761 84.064 24.3999C84.064 24.1553 83.9711 23.9644 83.7851 23.8274C83.5992 23.6904 83.3594 23.5828 83.0658 23.5045C82.7722 23.4164 82.4639 23.3332 82.141 23.2549C81.818 23.1766 81.5098 23.0739 81.2162 22.9466C80.9226 22.8096 80.6828 22.6286 80.4969 22.4035C80.3207 22.1686 80.2375 21.8555 80.2473 21.464C80.2473 20.9355 80.4675 20.5294 80.9079 20.2456C81.3581 19.952 81.9257 19.8052 82.6107 19.8052C82.9435 19.8052 83.2664 19.8443 83.5796 19.9226C83.8928 20.0009 84.1717 20.1233 84.4163 20.2896C84.6708 20.456 84.8714 20.6762 85.0182 20.9502C85.1748 21.2242 85.2482 21.5619 85.2384 21.9631H84.1081C84.1179 21.7087 84.0738 21.5031 83.9759 21.3466C83.8879 21.19 83.7655 21.0725 83.609 20.9943C83.4524 20.9062 83.286 20.8475 83.1099 20.8181C82.9435 20.779 82.782 20.7594 82.6254 20.7594C82.234 20.7594 81.9257 20.8328 81.7006 20.9796C81.4755 21.1166 81.363 21.3025 81.363 21.5374C81.363 21.7821 81.4559 21.9729 81.6419 22.1099C81.8278 22.2469 82.0676 22.3546 82.3612 22.4329C82.6548 22.5111 82.9679 22.5894 83.3007 22.6677C83.6334 22.746 83.9466 22.8537 84.2402 22.9907C84.5338 23.1179 84.7735 23.299 84.9595 23.5338C85.1454 23.7687 85.2384 24.0819 85.2384 24.4733C85.2384 24.855 85.1307 25.1682 84.9154 25.4128C84.7099 25.6575 84.4212 25.8434 84.0493 25.9706C83.6775 26.0881 83.2469 26.1468 82.7575 26.1468ZM88.7201 26C88.3091 26 88.0057 25.8923 87.81 25.677C87.6142 25.4617 87.5164 25.1339 87.5164 24.6935V20.73H88.6761V25.0311H90.0706V26H88.7201ZM86.5916 20.8768V19.996C86.8166 19.996 86.9977 19.9814 87.1347 19.952C87.2815 19.9226 87.3892 19.8639 87.4577 19.7758C87.5359 19.678 87.5898 19.5263 87.6191 19.3208C87.6485 19.1055 87.6632 18.8168 87.6632 18.4547H88.6761V19.996H90.0559V20.8768H86.5916ZM94.0784 26.1321C93.5303 26.1321 93.0802 26 92.7279 25.7358C92.3853 25.4715 92.1309 25.1094 91.9645 24.6495C91.8079 24.1895 91.7297 23.661 91.7297 23.0641C91.7297 22.4475 91.8128 21.9093 91.9792 21.4493C92.1456 20.9796 92.4 20.6126 92.7425 20.3483C93.0949 20.0841 93.5401 19.952 94.0784 19.952C94.4111 19.952 94.6949 20.0009 94.9298 20.0988C95.1647 20.1869 95.3604 20.2994 95.517 20.4364C95.6736 20.5734 95.8008 20.7153 95.8987 20.8621C95.9965 20.9991 96.065 21.1215 96.1042 21.2291H96.1335V19.996H97.3813V26H96.339L96.1335 24.9284H96.1042C96.065 25.036 95.9965 25.1584 95.8987 25.2954C95.8008 25.4324 95.6687 25.5645 95.5023 25.6917C95.3457 25.819 95.15 25.9217 94.9151 26C94.6803 26.0881 94.4013 26.1321 94.0784 26.1321ZM94.5628 25.0899C94.9543 25.0899 95.2625 25.0067 95.4876 24.8403C95.7127 24.6642 95.8742 24.4244 95.9721 24.121C96.0699 23.8176 96.1189 23.4702 96.1189 23.0788C96.1189 22.6579 96.065 22.2958 95.9574 21.9925C95.8595 21.6891 95.698 21.4591 95.473 21.3025C95.2479 21.1362 94.9445 21.053 94.5628 21.053C94.1616 21.053 93.8386 21.1459 93.594 21.3319C93.3591 21.508 93.1878 21.7478 93.0802 22.0512C92.9823 22.3546 92.9334 22.6922 92.9334 23.0641C92.9334 23.4457 92.9823 23.7932 93.0802 24.1063C93.1878 24.4097 93.3591 24.6495 93.594 24.8256C93.8386 25.0018 94.1616 25.0899 94.5628 25.0899ZM100.764 28.5689V27.4239H103.582V24.7963H103.553C103.533 24.8354 103.485 24.9284 103.406 25.0752C103.328 25.2122 103.206 25.3639 103.039 25.5303C102.883 25.6966 102.672 25.8434 102.408 25.9706C102.154 26.0881 101.836 26.1468 101.454 26.1468C100.876 26.1468 100.397 26.0147 100.015 25.7504C99.6336 25.4862 99.3498 25.1241 99.1638 24.6642C98.9877 24.2042 98.8996 23.6757 98.8996 23.0788C98.8996 22.4622 98.9926 21.924 99.1785 21.464C99.3645 20.9943 99.6483 20.6322 100.03 20.3777C100.412 20.1233 100.891 19.996 101.469 19.996C101.86 19.996 102.188 20.0597 102.452 20.1869C102.716 20.3141 102.922 20.4658 103.069 20.6419C103.225 20.8181 103.338 20.9796 103.406 21.1264C103.485 21.2732 103.529 21.3661 103.538 21.4053H103.568V19.996H104.83V26.7633C104.83 27.1939 104.776 27.5414 104.669 27.8056C104.561 28.0698 104.39 28.2607 104.155 28.3781C103.93 28.5053 103.626 28.5689 103.245 28.5689H100.764ZM101.791 25.0899C102.173 25.0899 102.496 25.0067 102.76 24.8403C103.025 24.6739 103.22 24.4391 103.348 24.1357C103.485 23.8323 103.553 23.48 103.553 23.0788C103.553 22.6873 103.489 22.3399 103.362 22.0365C103.235 21.7331 103.044 21.5031 102.79 21.3466C102.545 21.1802 102.232 21.097 101.85 21.097C101.42 21.097 101.072 21.19 100.808 21.3759C100.554 21.5619 100.368 21.8065 100.25 22.1099C100.142 22.4133 100.089 22.7362 100.089 23.0788C100.089 23.4213 100.138 23.7491 100.235 24.0623C100.343 24.3657 100.519 24.6152 100.764 24.811C101.018 24.9969 101.361 25.0899 101.791 25.0899ZM106.854 26V19.996H107.984L108.087 21.7282L108.072 23.02V26H106.854ZM108.072 23.299L108.028 21.9778C108.038 21.7625 108.087 21.5423 108.175 21.3172C108.263 21.0823 108.395 20.867 108.571 20.6713C108.757 20.4658 108.992 20.3043 109.276 20.1869C109.569 20.0597 109.922 19.996 110.333 19.996H110.582V21.3466H110.318C109.878 21.3466 109.511 21.3906 109.217 21.4787C108.923 21.557 108.694 21.6793 108.527 21.8457C108.361 22.012 108.243 22.2176 108.175 22.4622C108.106 22.7069 108.072 22.9858 108.072 23.299ZM114.271 26.1321C113.723 26.1321 113.273 26 112.921 25.7358C112.578 25.4715 112.324 25.1094 112.158 24.6495C112.001 24.1895 111.923 23.661 111.923 23.0641C111.923 22.4475 112.006 21.9093 112.172 21.4493C112.339 20.9796 112.593 20.6126 112.936 20.3483C113.288 20.0841 113.733 19.952 114.271 19.952C114.604 19.952 114.888 20.0009 115.123 20.0988C115.358 20.1869 115.553 20.2994 115.71 20.4364C115.867 20.5734 115.994 20.7153 116.092 20.8621C116.19 20.9991 116.258 21.1215 116.297 21.2291H116.327V19.996H117.574V26H116.532L116.327 24.9284H116.297C116.258 25.036 116.19 25.1584 116.092 25.2954C115.994 25.4324 115.862 25.5645 115.695 25.6917C115.539 25.819 115.343 25.9217 115.108 26C114.873 26.0881 114.594 26.1321 114.271 26.1321ZM114.756 25.0899C115.147 25.0899 115.456 25.0067 115.681 24.8403C115.906 24.6642 116.067 24.4244 116.165 24.121C116.263 23.8176 116.312 23.4702 116.312 23.0788C116.312 22.6579 116.258 22.2958 116.15 21.9925C116.053 21.6891 115.891 21.4591 115.666 21.3025C115.441 21.1362 115.138 21.053 114.756 21.053C114.355 21.053 114.032 21.1459 113.787 21.3319C113.552 21.508 113.381 21.7478 113.273 22.0512C113.175 22.3546 113.126 22.6922 113.126 23.0641C113.126 23.4457 113.175 23.7932 113.273 24.1063C113.381 24.4097 113.552 24.6495 113.787 24.8256C114.032 25.0018 114.355 25.0899 114.756 25.0899ZM119.386 26V19.996H120.531L120.575 21.3906H120.605C120.614 21.3319 120.654 21.2291 120.722 21.0823C120.791 20.9355 120.893 20.779 121.03 20.6126C121.177 20.4462 121.363 20.3043 121.588 20.1869C121.823 20.0597 122.117 19.996 122.469 19.996C122.812 19.996 123.095 20.0645 123.32 20.2016C123.545 20.3288 123.722 20.5 123.849 20.7153C123.986 20.9209 124.084 21.1459 124.142 21.3906H124.172C124.191 21.3319 124.24 21.2291 124.319 21.0823C124.397 20.9355 124.509 20.779 124.656 20.6126C124.813 20.4364 125.013 20.2896 125.258 20.1722C125.503 20.0548 125.801 19.996 126.154 19.996C126.535 19.996 126.848 20.0743 127.093 20.2309C127.348 20.3875 127.548 20.593 127.695 20.8475C127.842 21.0921 127.949 21.3563 128.018 21.6402C128.086 21.9142 128.13 22.1784 128.15 22.4329C128.17 22.6873 128.179 22.8977 128.179 23.0641V26H126.99V23.0494C126.99 22.8928 126.981 22.7069 126.961 22.4916C126.951 22.2665 126.907 22.0463 126.829 21.831C126.76 21.6157 126.643 21.4395 126.477 21.3025C126.31 21.1557 126.075 21.0823 125.772 21.0823C125.42 21.0823 125.141 21.1802 124.935 21.3759C124.73 21.5717 124.583 21.8261 124.495 22.1393C124.416 22.4524 124.377 22.7852 124.377 23.1375V26H123.188V23.0494C123.188 22.8928 123.179 22.7069 123.159 22.4916C123.149 22.2665 123.105 22.0463 123.027 21.831C122.958 21.6157 122.841 21.4395 122.675 21.3025C122.508 21.1557 122.273 21.0823 121.97 21.0823C121.618 21.0823 121.339 21.1802 121.133 21.3759C120.928 21.5717 120.781 21.8261 120.693 22.1393C120.614 22.4524 120.575 22.7852 120.575 23.1375V26H119.386Z" fill="#CAFAFF"/>
</g>
<defs>
<filter id="filter0_i_19_4620" x="67.1031" y="17.7354" width="61.0762" height="10.8335" filterUnits="userSpaceOnUse" color-interpolation-filters="sRGB">
<feFlood flood-opacity="0" result="BackgroundImageFix"/>
<feBlend mode="normal" in="SourceGraphic" in2="BackgroundImageFix" result="shape"/>
<feColorMatrix in="SourceAlpha" type="matrix" values="0 0 0 0 0 0 0 0 0 0 0 0 0 0 0 0 0 0 127 0" result="hardAlpha"/>
<feOffset/>
<feGaussianBlur stdDeviation="0.855492"/>
<feComposite in2="hardAlpha" operator="arithmetic" k2="-1" k3="1"/>
<feColorMatrix type="matrix" values="0 0 0 0 0 0 0 0 0 0 0 0 0 0 0 0 0 0 0.16 0"/>
<feBlend mode="normal" in2="shape" result="effect1_innerShadow_19_4620"/>
</filter>
</defs>
</svg>
