<svg width="104" height="43" viewBox="0 0 104 43" fill="none" xmlns="http://www.w3.org/2000/svg">
<g style="mix-blend-mode:screen" opacity="0.59">
<path d="M6.03217 2.2681V5.16354H4.97051V2.31634H3.57105V5.16354H2.46113V2.31634H1.10992V5.16354H0V1.30295H5.01877C5.5496 1.30295 6.03217 1.73726 6.03217 2.2681Z" fill="#33E7FF"/>
<path fill-rule="evenodd" clip-rule="evenodd" d="M11.2923 2.2681V5.16354H8.15554C7.57645 5.16354 7.09387 4.72922 7.09387 4.19839V2.70239H10.2306V2.31634H7.09387V1.30295H10.2789C10.8579 1.30295 11.2923 1.73726 11.2923 2.2681ZM10.2306 3.6193H8.20379V4.15012H10.2306V3.6193Z" fill="#33E7FF"/>
<path d="M16.4558 1.30295V1.64076L14.9116 3.23325L16.4558 4.82574V5.16354H15.3459L13.9464 3.71582H13.3673V5.16354H12.3057V0H13.3673V2.7024H13.9464L15.3459 1.30295H16.4558Z" fill="#33E7FF"/>
<path fill-rule="evenodd" clip-rule="evenodd" d="M21.378 2.2681V3.71582H18.2412V4.15012H21.378V5.16354H18.193C17.6139 5.16354 17.1796 4.72922 17.1796 4.19839V2.2681C17.1796 1.73726 17.6139 1.30295 18.193 1.30295H20.3163C20.8954 1.30295 21.378 1.73726 21.378 2.2681ZM20.268 2.84719V2.31634H18.2412V2.84719H20.268Z" fill="#33E7FF"/>
<path d="M27.3619 6.17694H22.2949V5.16354H27.3619V6.17694Z" fill="#33E7FF"/>
<path d="M29.4853 1.06167V1.30295H31.0295V2.31635H29.4853V5.16354H28.3754V0.965147C28.3754 0.434316 28.8579 0 29.437 0H31.0295V1.06167H29.4853Z" fill="#33E7FF"/>
<path d="M32.9116 0V4.15012H33.7802V5.16354H32.8633C32.2842 5.16354 31.8016 4.72923 31.8016 4.1984V0H32.9116Z" fill="#33E7FF"/>
<path fill-rule="evenodd" clip-rule="evenodd" d="M37.689 1.30295C38.2681 1.30295 38.7506 1.73726 38.7506 2.2681V4.19839C38.7506 4.72922 38.2681 5.16354 37.689 5.16354H35.5656C35.0348 5.16354 34.5522 4.72922 34.5522 4.19839V2.2681C34.5522 1.73726 35.0348 1.30295 35.5656 1.30295H37.689ZM35.6139 4.15012H37.6407V2.31634H35.6139V4.15012Z" fill="#33E7FF"/>
<path fill-rule="evenodd" clip-rule="evenodd" d="M43.9143 2.2681V5.16354H40.7293C40.1502 5.16354 39.6676 4.72922 39.6676 4.19839V2.70239H42.8043V2.31634H39.6676V1.30295H42.8526C43.4317 1.30295 43.9143 1.73726 43.9143 2.2681ZM42.8043 3.6193H40.7775V4.15012H42.8043V3.6193Z" fill="#33E7FF"/>
<path d="M45.9411 2.31634V4.15012H47.4853V5.16354H45.8928C45.3137 5.16354 44.8794 4.72922 44.8794 4.19839V0.14476H45.9411V1.30295H47.4853V2.31634H45.9411Z" fill="#33E7FF"/>
<path fill-rule="evenodd" clip-rule="evenodd" d="M52.9865 2.94368V3.9571H52.2627V5.16354H51.201V3.9571H48.1125V3.0402L51.2975 0.337799H52.2627V2.94368H52.9865ZM49.9463 2.94368H51.2493V1.93029L49.9463 2.94368Z" fill="#33E7FF"/>
<path d="M54.9651 1.35119V4.15011H55.3994V5.16354H54.9169C54.3378 5.16354 53.9034 4.72922 53.9034 4.19839V1.30295C53.9034 0.772115 54.3378 0.337799 54.9169 0.337799H55.3994V1.35119H54.9651Z" fill="#33E7FF"/>
<path d="M57.9571 1.78552V2.65415H58.9223V3.66754H57.9571V4.58444H56.8954V3.66754H55.9303V2.65415H56.8954V1.78552H57.9571Z" fill="#33E7FF"/>
<path d="M61.0455 0.337799H62.1555V5.16354H61.0938V1.88204C61.0455 1.9303 60.8525 2.17157 60.8525 2.17157H59.4048L61.0455 0.337799Z" fill="#33E7FF"/>
<path d="M64.0375 5.16354H62.9276V4.15012H64.0375V5.16354Z" fill="#33E7FF"/>
<path fill-rule="evenodd" clip-rule="evenodd" d="M68.9115 0.337799C69.4906 0.337799 69.9249 0.820361 69.9249 1.35119V4.10187C69.9249 4.6327 69.4906 5.16354 68.9115 5.16354H65.9195C65.3887 5.16354 64.9061 4.6327 64.9061 4.10187V1.35119C64.9061 0.820361 65.3887 0.337799 65.9195 0.337799H68.9115ZM66.016 1.39947V3.18497L68.2841 1.39947H66.016ZM68.9115 4.05362V2.26809L66.5951 4.05362H68.9115Z" fill="#33E7FF"/>
<path d="M72.0965 1.06167V1.30295H73.6407V2.31635H72.0965V5.16354H70.9866V0.965147C70.9866 0.434316 71.4691 0 72.0482 0H73.6407V1.06167H72.0965Z" fill="#33E7FF"/>
<path d="M74.8954 4.19839V5.06702C74.8954 5.5496 74.4129 5.93565 73.7855 6.03217V4.19839H74.8954Z" fill="#33E7FF"/>
<path d="M79.5764 1.78552V2.65415H80.5415V3.66754H79.5764V4.58444H78.4665V3.66754H77.5496V2.65415H78.4665V1.78552H79.5764Z" fill="#33E7FF"/>
<path d="M82.6166 0.337799H83.7748V5.16354H82.6648V1.88204C82.6648 1.9303 82.4718 2.17157 82.4718 2.17157H80.9758L82.6166 0.337799Z" fill="#33E7FF"/>
<path d="M85.6568 5.16354H84.5469V4.15012H85.6568V5.16354Z" fill="#33E7FF"/>
<path fill-rule="evenodd" clip-rule="evenodd" d="M90.5309 0.337799C91.0617 0.337799 91.5443 0.820361 91.5443 1.35119V4.10187C91.5443 4.6327 91.0617 5.16354 90.5309 5.16354H87.5389C86.9598 5.16354 86.5255 4.6327 86.5255 4.10187V1.35119C86.5255 0.820361 86.9598 0.337799 87.5389 0.337799H90.5309ZM87.6354 1.39947V3.18497L89.9035 1.39947H87.6354ZM90.4826 4.05362V2.26809L88.2145 4.05362H90.4826Z" fill="#33E7FF"/>
<path d="M93.7158 1.06167V1.30295H95.2117V2.31635H93.7158V5.16354H92.6058V0.965147C92.6058 0.434316 93.0884 0 93.6192 0H95.2117V1.06167H93.7158Z" fill="#33E7FF"/>
<path d="M96.5147 4.19839V5.06702C96.5147 5.5496 96.0321 5.93565 95.4048 6.03217V4.19839H96.5147Z" fill="#33E7FF"/>
<path d="M101.196 1.78552V2.65415H102.161V3.66754H101.196V4.58444H100.086V3.66754H99.1689V2.65415H100.086V1.78552H101.196Z" fill="#33E7FF"/>
<path d="M104.236 0.337799H105.394V5.16354H104.284V1.88204C104.284 1.9303 104.043 2.17157 104.043 2.17157H102.595L104.236 0.337799Z" fill="#33E7FF"/>
<g opacity="0.5">
<path d="M6.03217 15.5871V18.4826H4.97051V15.6354H3.57105V18.4826H2.46113V15.6354H1.10992V18.4826H0V14.622H5.01877C5.5496 14.622 6.03217 15.0563 6.03217 15.5871Z" fill="#33E7FF"/>
</g>
<g opacity="0.5">
<path fill-rule="evenodd" clip-rule="evenodd" d="M11.2923 15.5871V18.4826H8.15554C7.57645 18.4826 7.09387 18.0483 7.09387 17.5174V16.0215H10.2306V15.6354H7.09387V14.622H10.2789C10.8579 14.622 11.2923 15.0563 11.2923 15.5871ZM10.2306 16.9383H8.20379V17.4692H10.2306V16.9383Z" fill="#33E7FF"/>
</g>
<g opacity="0.5">
<path d="M16.4558 14.622V14.9598L14.9116 16.5523L16.4558 18.1448V18.4826H15.3459L13.9464 17.0831H13.3673V18.4826H12.3057V13.3673H13.3673V16.0214H13.9464L15.3459 14.622H16.4558Z" fill="#33E7FF"/>
</g>
<g opacity="0.5">
<path fill-rule="evenodd" clip-rule="evenodd" d="M21.378 15.5871V17.0831H18.2412V17.4692H21.378V18.4826H18.193C17.6139 18.4826 17.1796 18.0483 17.1796 17.5174V15.5871C17.1796 15.0563 17.6139 14.622 18.193 14.622H20.3163C20.8954 14.622 21.378 15.0563 21.378 15.5871ZM20.268 16.1662V15.6354H18.2412V16.1662H20.268Z" fill="#33E7FF"/>
</g>
<g opacity="0.5">
<path d="M27.3619 19.5442H22.2949V18.4826H27.3619V19.5442Z" fill="#33E7FF"/>
</g>
<g opacity="0.5">
<path d="M29.4853 14.3807V14.622H31.0295V15.6354H29.4853V18.4826H28.3754V14.3324C28.3754 13.8016 28.8579 13.3673 29.437 13.3673H31.0295V14.3807H29.4853Z" fill="#33E7FF"/>
</g>
<g opacity="0.5">
<path d="M32.9116 13.319V17.4692H33.7802V18.4826H32.8633C32.2842 18.4826 31.8016 18.0482 31.8016 17.5174V13.319H32.9116Z" fill="#33E7FF"/>
</g>
<g opacity="0.5">
<path fill-rule="evenodd" clip-rule="evenodd" d="M37.689 14.622C38.2681 14.622 38.7506 15.0563 38.7506 15.5871V17.5174C38.7506 18.0483 38.2681 18.4826 37.689 18.4826H35.5656C35.0348 18.4826 34.5522 18.0483 34.5522 17.5174V15.5871C34.5522 15.0563 35.0348 14.622 35.5656 14.622H37.689ZM35.6139 17.4692H37.6407V15.6354H35.6139V17.4692Z" fill="#33E7FF"/>
</g>
<g opacity="0.5">
<path fill-rule="evenodd" clip-rule="evenodd" d="M43.9143 15.5871V18.4826H40.7293C40.1502 18.4826 39.6676 18.0483 39.6676 17.5174V16.0215H42.8043V15.6354H39.6676V14.622H42.8526C43.4317 14.622 43.9143 15.0563 43.9143 15.5871ZM42.8043 16.9383H40.7775V17.4692H42.8043V16.9383Z" fill="#33E7FF"/>
</g>
<g opacity="0.5">
<path d="M45.9411 15.6354V17.4692H47.4853V18.4826H45.8928C45.3137 18.4826 44.8794 18.0483 44.8794 17.5174V13.4638H45.9411V14.622H47.4853V15.6354H45.9411Z" fill="#33E7FF"/>
</g>
<g opacity="0.5">
<path fill-rule="evenodd" clip-rule="evenodd" d="M52.9865 16.2627V17.2761H52.2627V18.4826H51.201V17.2761H48.1125V16.3593L51.2975 13.6568H52.2627V16.2627H52.9865ZM49.9463 16.2627H51.2493V15.2976L49.9463 16.2627Z" fill="#33E7FF"/>
</g>
<g opacity="0.5">
<path d="M54.9651 14.7185V17.4692H55.3994V18.4826H54.9169C54.3378 18.4826 53.9034 18.0483 53.9034 17.5174V14.6703C53.9034 14.0912 54.3378 13.6568 54.9169 13.6568H55.3994V14.7185H54.9651Z" fill="#33E7FF"/>
</g>
<g opacity="0.5">
<path d="M59.1152 17.0348H56.1233V16.0215H59.1152V17.0348Z" fill="#33E7FF"/>
</g>
<g opacity="0.5">
<path d="M61.2869 13.6568H62.445V18.4826H61.3351V15.2493L61.0938 15.4906H59.6461L61.2869 13.6568Z" fill="#33E7FF"/>
</g>
<g opacity="0.5">
<path d="M64.2788 18.4826H63.2172V17.4692H64.2788V18.4826Z" fill="#33E7FF"/>
</g>
<g opacity="0.5">
<path fill-rule="evenodd" clip-rule="evenodd" d="M69.1528 13.6568C69.7319 13.6568 70.2145 14.1394 70.2145 14.6703V17.4692C70.2145 18 69.7319 18.4826 69.1528 18.4826H66.2091C65.63 18.4826 65.1475 18 65.1475 17.4692V14.6703C65.1475 14.1394 65.63 13.6568 66.2091 13.6568H69.1528ZM66.2091 14.7185V16.504L68.5255 14.7185H66.2091ZM69.0563 17.4209V15.5871L66.7882 17.4209H69.0563Z" fill="#33E7FF"/>
</g>
<g opacity="0.5">
<path d="M72.3378 14.3807V14.622H73.8821V15.6354H72.3378V18.4826H71.2279V14.3324C71.2279 13.8016 71.7105 13.3673 72.2896 13.3673H73.8821V14.3807H72.3378Z" fill="#33E7FF"/>
</g>
<g opacity="0.5">
<path d="M75.1368 17.5174V18.3861C75.1368 18.8686 74.6542 19.2547 74.0269 19.3512V17.5174H75.1368Z" fill="#33E7FF"/>
</g>
<g opacity="0.5">
<path d="M81.0724 17.0348H78.1287V16.0215H81.0724V17.0348Z" fill="#33E7FF"/>
</g>
<g opacity="0.5">
<path d="M83.2922 13.6568H84.4022V18.4826H83.3405V15.2493C83.2922 15.2493 83.0992 15.4906 83.0992 15.4906H81.6515L83.2922 13.6568Z" fill="#33E7FF"/>
</g>
<g opacity="0.5">
<path d="M86.2842 18.4826H85.1743V17.4692H86.2842V18.4826Z" fill="#33E7FF"/>
</g>
<g opacity="0.5">
<path fill-rule="evenodd" clip-rule="evenodd" d="M91.1582 13.6568C91.7373 13.6568 92.1716 14.1394 92.1716 14.6703V17.4692C92.1716 18 91.7373 18.4826 91.1582 18.4826H88.1662C87.6354 18.4826 87.1528 18 87.1528 17.4692V14.6703C87.1528 14.1394 87.6354 13.6568 88.1662 13.6568H91.1582ZM88.2627 14.7185V16.504L90.5308 14.7185H88.2627ZM91.1582 17.4209V15.5871L88.8418 17.4209H91.1582Z" fill="#33E7FF"/>
</g>
<g opacity="0.5">
<path d="M94.3432 14.3807V14.622H95.8392V15.6354H94.3432V18.4826H93.2333V14.3324C93.2333 13.8016 93.7158 13.3673 94.2949 13.3673H95.8392V14.3807H94.3432Z" fill="#33E7FF"/>
</g>
<g opacity="0.5">
<path d="M97.1421 17.5174V18.3861C97.1421 18.8686 96.6596 19.2547 96.0322 19.3512V17.5174H97.1421Z" fill="#33E7FF"/>
</g>
<g opacity="0.5">
<path d="M103.078 17.0348H100.086V16.0215H103.078V17.0348Z" fill="#33E7FF"/>
</g>
<g opacity="0.5">
<path d="M105.249 13.6568H106.408V18.4826H105.298V15.2493L105.056 15.4906H103.609L105.249 13.6568Z" fill="#33E7FF"/>
</g>
<g opacity="0.5">
<path d="M6.03217 23.5979V26.4933H4.97051V23.6461H3.57105V26.4933H2.46113V23.6461H1.10992V26.4933H0V22.6327H5.01877C5.5496 22.6327 6.03217 23.067 6.03217 23.5979Z" fill="#33E7FF"/>
</g>
<g opacity="0.5">
<path fill-rule="evenodd" clip-rule="evenodd" d="M11.2923 23.5979V26.4933H8.15554C7.57645 26.4933 7.09387 26.059 7.09387 25.5282V24.0322H10.2306V23.6461H7.09387V22.6327H10.2789C10.8579 22.6327 11.2923 23.067 11.2923 23.5979ZM10.2306 24.9491H8.20379V25.4799H10.2306V24.9491Z" fill="#33E7FF"/>
</g>
<g opacity="0.5">
<path d="M16.4558 22.6327V22.9705L14.9116 24.563L16.4558 26.1555V26.4933H15.3459L13.9464 25.0456H13.3673V26.4933H12.3057V21.3298H13.3673V24.0322H13.9464L15.3459 22.6327H16.4558Z" fill="#33E7FF"/>
</g>
<g opacity="0.5">
<path fill-rule="evenodd" clip-rule="evenodd" d="M21.378 23.5979V25.0456H18.2412V25.4799H21.378V26.4933H18.193C17.6139 26.4933 17.1796 26.059 17.1796 25.5282V23.5979C17.1796 23.067 17.6139 22.6327 18.193 22.6327H20.3163C20.8954 22.6327 21.378 23.067 21.378 23.5979ZM20.268 24.1769V23.6461H18.2412V24.1769H20.268Z" fill="#33E7FF"/>
</g>
<g opacity="0.5">
<path d="M27.3619 27.5067H22.2949V26.4933H27.3619V27.5067Z" fill="#33E7FF"/>
</g>
<g opacity="0.5">
<path d="M29.4853 22.3914V22.6327H31.0295V23.6461H29.4853V26.4933H28.3754V22.2949C28.3754 21.7641 28.8579 21.3298 29.437 21.3298H31.0295V22.3914H29.4853Z" fill="#33E7FF"/>
</g>
<g opacity="0.5">
<path d="M32.9116 21.3298V25.4799H33.7802V26.4933H32.8633C32.2842 26.4933 31.8016 26.059 31.8016 25.5282V21.3298H32.9116Z" fill="#33E7FF"/>
</g>
<g opacity="0.5">
<path fill-rule="evenodd" clip-rule="evenodd" d="M37.689 22.6327C38.2681 22.6327 38.7506 23.067 38.7506 23.5979V25.5282C38.7506 26.059 38.2681 26.4933 37.689 26.4933H35.5656C35.0348 26.4933 34.5522 26.059 34.5522 25.5282V23.5979C34.5522 23.067 35.0348 22.6327 35.5656 22.6327H37.689ZM35.6139 25.4799H37.6407V23.6461H35.6139V25.4799Z" fill="#33E7FF"/>
</g>
<g opacity="0.5">
<path fill-rule="evenodd" clip-rule="evenodd" d="M43.9143 23.5979V26.4933H40.7293C40.1502 26.4933 39.6676 26.059 39.6676 25.5282V24.0322H42.8043V23.6461H39.6676V22.6327H42.8526C43.4317 22.6327 43.9143 23.067 43.9143 23.5979ZM42.8043 24.9491H40.7775V25.4799H42.8043V24.9491Z" fill="#33E7FF"/>
</g>
<g opacity="0.5">
<path d="M45.9411 23.6461V25.4799H47.4853V26.4933H45.8928C45.3137 26.4933 44.8794 26.059 44.8794 25.5282V21.4745H45.9411V22.6327H47.4853V23.6461H45.9411Z" fill="#33E7FF"/>
</g>
<g opacity="0.5">
<path fill-rule="evenodd" clip-rule="evenodd" d="M52.9865 24.2735V25.2869H52.2627V26.4933H51.201V25.2869H48.1125V24.37L51.2975 21.6676H52.2627V24.2735H52.9865ZM49.9463 24.2735H51.2493V23.2601L49.9463 24.2735Z" fill="#33E7FF"/>
</g>
<g opacity="0.5">
<path d="M54.9651 22.681V25.4799H55.3994V26.4933H54.9169C54.3378 26.4933 53.9034 26.059 53.9034 25.5282V22.6327C53.9034 22.1019 54.3378 21.6676 54.9169 21.6676H55.3994V22.681H54.9651Z" fill="#33E7FF"/>
</g>
<g opacity="0.5">
<path d="M59.1152 25.0456H56.1233V23.9839H59.1152V25.0456Z" fill="#33E7FF"/>
</g>
<g opacity="0.5">
<path d="M61.2869 21.6676H62.445V26.4933H61.3351V23.2601L61.0938 23.5013H59.6461L61.2869 21.6676Z" fill="#33E7FF"/>
</g>
<g opacity="0.5">
<path d="M64.2788 26.4933H63.2172V25.4799H64.2788V26.4933Z" fill="#33E7FF"/>
</g>
<g opacity="0.5">
<path fill-rule="evenodd" clip-rule="evenodd" d="M69.1528 21.6676C69.7319 21.6676 70.2145 22.1501 70.2145 22.681V25.4316C70.2145 25.9625 69.7319 26.4933 69.1528 26.4933H66.2091C65.63 26.4933 65.1475 25.9625 65.1475 25.4316V22.681C65.1475 22.1501 65.63 21.6676 66.2091 21.6676H69.1528ZM66.2091 22.7292V24.5147L68.5255 22.7292H66.2091ZM69.0563 25.3834V23.5979L66.7882 25.3834H69.0563Z" fill="#33E7FF"/>
</g>
<g opacity="0.5">
<path d="M72.3378 22.3914V22.6327H73.8821V23.6461H72.3378V26.4933H71.2279V22.2949C71.2279 21.7641 71.7105 21.3298 72.2896 21.3298H73.8821V22.3914H72.3378Z" fill="#33E7FF"/>
</g>
<g opacity="0.5">
<path d="M75.1368 25.5282V26.3968C75.1368 26.8794 74.6542 27.2654 74.0269 27.3619V25.5282H75.1368Z" fill="#33E7FF"/>
</g>
<g opacity="0.5">
<path d="M81.0724 25.0456H78.1287V23.9839H81.0724V25.0456Z" fill="#33E7FF"/>
</g>
<g opacity="0.5">
<path d="M83.2922 21.6676H84.4022V26.4933H83.3405V23.2601C83.2922 23.2601 83.0992 23.5013 83.0992 23.5013H81.6515L83.2922 21.6676Z" fill="#33E7FF"/>
</g>
<g opacity="0.5">
<path d="M86.2842 26.4933H85.1743V25.4799H86.2842V26.4933Z" fill="#33E7FF"/>
</g>
<g opacity="0.5">
<path fill-rule="evenodd" clip-rule="evenodd" d="M91.1582 21.6676C91.7373 21.6676 92.1716 22.1501 92.1716 22.681V25.4316C92.1716 25.9625 91.7373 26.4933 91.1582 26.4933H88.1662C87.6354 26.4933 87.1528 25.9625 87.1528 25.4316V22.681C87.1528 22.1501 87.6354 21.6676 88.1662 21.6676H91.1582ZM88.2627 22.7292V24.5147L90.5308 22.7292H88.2627ZM91.1582 25.3834V23.5979L88.8418 25.3834H91.1582Z" fill="#33E7FF"/>
</g>
<g opacity="0.5">
<path d="M94.3432 22.3914V22.6327H95.8392V23.6461H94.3432V26.4933H93.2333V22.2949C93.2333 21.7641 93.7158 21.3298 94.2949 21.3298H95.8392V22.3914H94.3432Z" fill="#33E7FF"/>
</g>
<g opacity="0.5">
<path d="M97.1421 25.5282V26.3968C97.1421 26.8794 96.6596 27.2654 96.0322 27.3619V25.5282H97.1421Z" fill="#33E7FF"/>
</g>
<g opacity="0.5">
<path d="M101.823 23.1153V23.9839H102.788V25.0456H101.823V25.9142H100.713V25.0456H99.7963V23.9839H100.713V23.1153H101.823Z" fill="#33E7FF"/>
</g>
<g opacity="0.5">
<path d="M104.863 21.6676H106.021V26.4933H104.912V23.2601L104.67 23.5013H103.223L104.863 21.6676Z" fill="#33E7FF"/>
</g>
<path d="M6.03217 38.2681V41.1635H4.97051V38.3164H3.57105V41.1635H2.46113V38.3164H1.10992V41.1635H0V37.3029H5.01877C5.5496 37.3029 6.03217 37.7373 6.03217 38.2681Z" fill="#33E7FF"/>
<path fill-rule="evenodd" clip-rule="evenodd" d="M11.2923 38.2681V41.1635H8.15554C7.57645 41.1635 7.09387 40.7292 7.09387 40.1984V38.7024H10.2306V38.3164H7.09387V37.3029H10.2789C10.8579 37.3029 11.2923 37.7373 11.2923 38.2681ZM10.2306 39.6193H8.20379V40.1501H10.2306V39.6193Z" fill="#33E7FF"/>
<path d="M16.4558 37.3029V37.6407L14.9116 39.2332L16.4558 40.8257V41.1635H15.3459L13.9464 39.7158H13.3673V41.1635H12.3057V36H13.3673V38.7024H13.9464L15.3459 37.3029H16.4558Z" fill="#33E7FF"/>
<path fill-rule="evenodd" clip-rule="evenodd" d="M21.378 38.2681V39.7158H18.2412V40.1501H21.378V41.1635H18.193C17.6139 41.1635 17.1796 40.7292 17.1796 40.1984V38.2681C17.1796 37.7373 17.6139 37.3029 18.193 37.3029H20.3163C20.8954 37.3029 21.378 37.7373 21.378 38.2681ZM20.268 38.8472V38.3164H18.2412V38.8472H20.268Z" fill="#33E7FF"/>
<path d="M27.3619 42.177H22.2949V41.1635H27.3619V42.177Z" fill="#33E7FF"/>
<path d="M29.4853 37.0617V37.3029H31.0295V38.3164H29.4853V41.1635H28.3754V36.9651C28.3754 36.4343 28.8579 36 29.437 36H31.0295V37.0617H29.4853Z" fill="#33E7FF"/>
<path d="M32.9116 36V40.1501H33.7802V41.1635H32.8633C32.2842 41.1635 31.8016 40.7292 31.8016 40.1984V36H32.9116Z" fill="#33E7FF"/>
<path fill-rule="evenodd" clip-rule="evenodd" d="M37.689 37.3029C38.2681 37.3029 38.7506 37.7373 38.7506 38.2681V40.1984C38.7506 40.7292 38.2681 41.1635 37.689 41.1635H35.5656C35.0348 41.1635 34.5522 40.7292 34.5522 40.1984V38.2681C34.5522 37.7373 35.0348 37.3029 35.5656 37.3029H37.689ZM35.6139 40.1501H37.6407V38.3164H35.6139V40.1501Z" fill="#33E7FF"/>
<path fill-rule="evenodd" clip-rule="evenodd" d="M43.9143 38.2681V41.1635H40.7293C40.1502 41.1635 39.6676 40.7292 39.6676 40.1984V38.7024H42.8043V38.3164H39.6676V37.3029H42.8526C43.4317 37.3029 43.9143 37.7373 43.9143 38.2681ZM42.8043 39.6193H40.7775V40.1501H42.8043V39.6193Z" fill="#33E7FF"/>
<path d="M45.9411 38.3164V40.1501H47.4853V41.1635H45.8928C45.3137 41.1635 44.8794 40.7292 44.8794 40.1984V36.1448H45.9411V37.3029H47.4853V38.3164H45.9411Z" fill="#33E7FF"/>
<path fill-rule="evenodd" clip-rule="evenodd" d="M52.9865 38.9437V39.9571H52.2627V41.1635H51.201V39.9571H48.1125V39.0402L51.2975 36.3378H52.2627V38.9437H52.9865ZM49.9463 38.9437H51.2493V37.9303L49.9463 38.9437Z" fill="#33E7FF"/>
<path d="M54.9651 37.3512V40.1501H55.3994V41.1635H54.9169C54.3378 41.1635 53.9034 40.7292 53.9034 40.1984V37.3029C53.9034 36.7721 54.3378 36.3378 54.9169 36.3378H55.3994V37.3512H54.9651Z" fill="#33E7FF"/>
<path d="M57.9571 37.7855V38.6541H58.9223V39.7158H57.9571V40.5844H56.8954V39.7158H55.9303V38.6541H56.8954V37.7855H57.9571Z" fill="#33E7FF"/>
<path d="M61.0455 36.3378H62.1555V41.1635H61.0938V37.882C61.0455 37.9303 60.8525 38.1716 60.8525 38.1716H59.4048L61.0455 36.3378Z" fill="#33E7FF"/>
<path d="M64.0375 41.1635H62.9276V40.1501H64.0375V41.1635Z" fill="#33E7FF"/>
<path fill-rule="evenodd" clip-rule="evenodd" d="M68.9115 36.3378C69.4906 36.3378 69.9249 36.8204 69.9249 37.3512V40.1019C69.9249 40.6327 69.4906 41.1635 68.9115 41.1635H65.9195C65.3887 41.1635 64.9061 40.6327 64.9061 40.1019V37.3512C64.9061 36.8204 65.3887 36.3378 65.9195 36.3378H68.9115ZM66.016 37.3995V39.185L68.2841 37.3995H66.016ZM68.9115 40.0536V38.2681L66.5951 40.0536H68.9115Z" fill="#33E7FF"/>
<path d="M72.0965 37.0617V37.3029H73.6407V38.3164H72.0965V41.1635H70.9866V36.9651C70.9866 36.4343 71.4691 36 72.0482 36H73.6407V37.0617H72.0965Z" fill="#33E7FF"/>
<path d="M74.8954 40.1984V41.067C74.8954 41.5496 74.4129 41.9356 73.7855 42.0322V40.1984H74.8954Z" fill="#33E7FF"/>
<path d="M80.8311 39.7158H77.8391V38.6541H80.8311V39.7158Z" fill="#33E7FF"/>
<path d="M83.0027 36.3378H84.1609V41.1635H83.0509V37.882C83.0509 37.9303 82.8097 38.1716 82.8097 38.1716H81.3619L83.0027 36.3378Z" fill="#33E7FF"/>
<path d="M86.0429 41.1635H84.933V40.1501H86.0429V41.1635Z" fill="#33E7FF"/>
<path fill-rule="evenodd" clip-rule="evenodd" d="M90.8686 36.3378C91.4477 36.3378 91.9303 36.8204 91.9303 37.3512V40.1019C91.9303 40.6327 91.4477 41.1635 90.8686 41.1635H87.9249C87.3459 41.1635 86.8633 40.6327 86.8633 40.1019V37.3512C86.8633 36.8204 87.3459 36.3378 87.9249 36.3378H90.8686ZM87.9732 37.3995V39.185L90.2413 37.3995H87.9732ZM90.8204 40.0536V38.2681L88.5523 40.0536H90.8204Z" fill="#33E7FF"/>
<path d="M94.0536 37.0617V37.3029H95.5978V38.3164H94.0536V41.1635H92.9919V36.9651C92.9919 36.4343 93.4262 36 94.0053 36H95.5978V37.0617H94.0536Z" fill="#33E7FF"/>
<path d="M96.8526 40.1984V41.067C96.8526 41.5496 96.4182 41.9356 95.7909 42.0322V40.1984H96.8526Z" fill="#33E7FF"/>
<path d="M101.582 37.7855V38.6541H102.547V39.7158H101.582V40.5844H100.472V39.7158H99.5549V38.6541H100.472V37.7855H101.582Z" fill="#33E7FF"/>
<path d="M104.622 36.3378H105.78V41.1635H104.67V37.882C104.67 37.9303 104.429 38.1716 104.429 38.1716H102.981L104.622 36.3378Z" fill="#33E7FF"/>
</g>
</svg>
