<svg width="51" height="143" viewBox="0 0 51 143" fill="none" xmlns="http://www.w3.org/2000/svg">
<g opacity="0.19">
<path d="M28.3849 65.698L55.1839 36.1088C55.2714 36.0122 55.2427 35.8984 55.1461 35.811C55.0496 35.7235 54.9335 35.7062 54.8461 35.8028L28.0907 65.3438L18.0928 65.9537L41.9627 39.5985C42.0283 39.5261 42.0238 39.4342 41.9732 39.3444C41.9227 39.2547 41.8284 39.2133 41.7364 39.2178L31.5326 39.861L45.7191 24.1976L52.8014 16.3779L54.5719 14.423L55.4682 13.4334L55.6868 13.1921C55.7086 13.168 55.796 13.0714 55.8616 12.999L56.0365 12.8059C56.3149 12.5309 56.5933 12.2559 56.8717 11.9808C57.1582 11.7131 57.4687 11.4672 57.7574 11.2454L58.2233 10.8765C58.3866 10.7609 58.5427 10.6533 58.6914 10.5537C59.0342 10.3369 59.3697 10.1282 59.6979 9.92756C60.026 9.7269 60.3703 9.54079 60.7307 9.36927C62.1028 8.67894 63.5759 8.16803 65.1306 7.90667C65.3123 7.85158 65.4676 7.72867 65.4389 7.61482C65.4321 7.47684 65.2217 7.41808 65.0159 7.45132C61.8628 8.02229 58.8495 9.5546 56.4682 11.7472C56.1737 12.0077 55.8953 12.2827 55.633 12.5723L55.3903 12.7918L55.3247 12.8642L55.2592 12.9366L55.0406 13.178L54.1444 14.1675L52.3519 16.1466L45.1603 24.0869L30.799 39.9435C30.7334 40.0159 30.738 40.1078 30.7885 40.1976C30.8391 40.2873 30.9115 40.3529 31.0035 40.3483L41.2532 39.7028L17.3614 66.0821C17.3177 66.1304 17.2763 66.2247 17.3268 66.3144C17.3992 66.3799 17.4716 66.4455 17.5636 66.441L28.2492 65.7509C28.3105 65.7478 28.3557 65.7302 28.3849 65.698Z" fill="#27AAE1"/>
<g opacity="0.2">
<path d="M23.4164 62.2086L21.9956 63.7774L27.7276 63.609L29.1484 62.0402L23.4164 62.2086Z" fill="#27AAE1"/>
</g>
<g opacity="0.3">
<path d="M26.7613 58.5155L25.3405 60.0843L31.0724 59.916L32.4932 58.3472L26.7613 58.5155Z" fill="#27AAE1"/>
</g>
<g opacity="0.4">
<path d="M30.1054 54.823L28.6846 56.3918L34.4165 56.2235L35.8374 54.6547L30.1054 54.823Z" fill="#27AAE1"/>
</g>
<g opacity="0.5">
<path d="M33.4496 51.1306L32.0288 52.6993L37.7608 52.531L39.1816 50.9622L33.4496 51.1306Z" fill="#27AAE1"/>
</g>
<g opacity="0.5">
<path d="M36.7942 47.4381L35.3733 49.0068L41.1052 48.8385L42.5261 47.2697L36.7942 47.4381Z" fill="#27AAE1"/>
</g>
<g opacity="0.6">
<path d="M40.1389 43.7451L38.718 45.3138L44.45 45.1455L45.8708 43.5767L40.1389 43.7451Z" fill="#27AAE1"/>
</g>
<g opacity="0.7">
<path d="M43.4831 40.0525L42.0623 41.6213L47.7942 41.453L49.215 39.8842L43.4831 40.0525Z" fill="#27AAE1"/>
</g>
<g opacity="0.8">
<path d="M46.8276 36.36L45.4068 37.9288L51.1387 37.7605L52.5595 36.1917L46.8276 36.36Z" fill="#27AAE1"/>
</g>
<g opacity="0.9">
<path d="M50.1718 32.6676L48.751 34.2363L54.4829 34.068L55.9038 32.4992L50.1718 32.6676Z" fill="#27AAE1"/>
</g>
<path d="M44.3037 32.4047L53.397 22.3647L53.266 15.5243L37.4838 32.9497L44.3037 32.4047Z" fill="#27AAE1"/>
<path d="M17.4551 62.3886L34.6799 43.3704C34.7674 43.2738 34.7605 43.1359 34.664 43.0484C34.5675 42.961 34.4295 42.9678 34.342 43.0643L17.4451 61.7206L16.9324 56.9508C16.9256 56.8129 16.8049 56.7036 16.6911 56.7323C16.5749 56.7149 16.4875 56.8115 16.4943 56.9495L17.0562 62.247C17.0826 62.3148 17.1331 62.4045 17.2274 62.446C17.2975 62.4655 17.3895 62.461 17.4551 62.3886Z" fill="#27AAE1"/>
<path d="M35.141 43.832C35.4251 43.5183 35.376 42.9905 35.014 42.6626C34.6519 42.3347 34.1219 42.3379 33.8377 42.6516C33.5535 42.9654 33.6027 43.4932 33.9647 43.821C34.3268 44.1489 34.8568 44.1458 35.141 43.832Z" fill="#27AAE1"/>
<path d="M15.8961 56.9791C15.8274 56.5214 16.1553 56.1594 16.6393 56.1585C17.0774 56.1599 17.4877 56.5314 17.5564 56.9891C17.5792 57.449 17.2513 57.8111 16.8132 57.8097C16.3292 57.8106 15.9189 57.439 15.8961 56.9791Z" fill="#27AAE1"/>
<path d="M29.4328 44.9439C29.9879 45.4467 30.7939 45.4299 31.2311 44.9472C31.6682 44.4645 31.6054 43.6607 31.0503 43.158C30.4952 42.6552 29.6892 42.672 29.252 43.1547C28.8148 43.6374 28.8777 44.4412 29.4328 44.9439Z" fill="#27AAE1"/>
<path d="M26.2848 48.4196C26.8399 48.9223 27.6241 48.9296 28.0831 48.4228C28.5203 47.9401 28.4356 47.1605 27.8805 46.6577C27.3254 46.1549 26.5412 46.1476 26.104 46.6303C25.645 47.1372 25.7297 47.9168 26.2848 48.4196Z" fill="#27AAE1"/>
<path d="M23.1154 51.9188C23.6705 52.4216 24.4765 52.4048 24.9137 51.9221C25.3509 51.4394 25.2881 50.6356 24.733 50.1328C24.1779 49.6301 23.3718 49.6469 22.9346 50.1296C22.4974 50.6123 22.5603 51.4161 23.1154 51.9188Z" fill="#27AAE1"/>
<path d="M19.9674 55.3944C20.5225 55.8972 21.3067 55.9045 21.7439 55.4218C22.2029 54.915 22.1183 54.1354 21.5632 53.6326C21.0081 53.1298 20.2238 53.1225 19.7648 53.6294C19.3276 54.1121 19.4123 54.8917 19.9674 55.3944Z" fill="#27AAE1"/>
<path d="M65.6753 112.563L36.0861 85.7642C36.0137 85.6986 35.8757 85.7054 35.7883 85.8019C35.7008 85.8985 35.7077 86.0364 35.7801 86.102L65.321 112.857L65.9552 122.877L39.5758 98.9854C39.5034 98.9198 39.4114 98.9243 39.3436 98.9507C39.2539 99.0013 39.2124 99.0956 39.217 99.1876L39.8625 109.437L24.199 95.2509L16.3552 88.1467L14.4003 86.3761L13.4349 85.5018L13.1694 85.2613C13.1453 85.2395 13.0487 85.152 13.0004 85.1083L12.7832 84.9116C12.5082 84.6332 12.2331 84.3548 11.9581 84.0764C11.7363 83.7877 11.4904 83.4771 11.2227 83.1906L10.8538 82.7248C10.7543 82.576 10.6539 82.4119 10.5528 82.2325C10.3376 81.9204 10.1216 81.593 9.90484 81.2502C9.71875 80.906 9.5407 80.569 9.3707 80.2393C8.6781 78.8212 8.16719 77.348 7.90811 75.8393C7.87487 75.6335 7.73008 75.5023 7.5921 75.5092C7.47825 75.5378 7.39535 75.7264 7.45045 75.9081C7.99957 79.0853 9.53188 82.0986 11.7245 84.4799C11.9995 84.7583 12.2826 85.0439 12.5737 85.3369L12.7909 85.5336L12.8634 85.5992L12.9358 85.6648L13.1771 85.8834L14.1667 86.7796L16.1457 88.572L24.086 95.7636L39.9667 110.147C40.015 110.191 40.1093 110.232 40.199 110.181C40.2887 110.131 40.3301 110.037 40.3256 109.945L39.6801 99.6949L66.0594 123.587C66.1077 123.63 66.2238 123.648 66.3135 123.597C66.3814 123.571 66.4228 123.476 66.4182 123.384L65.7741 112.697C65.7565 112.651 65.7236 112.607 65.6753 112.563Z" fill="#27AAE1"/>
<path d="M8.52738 75.7858C8.37712 75.0785 7.95771 74.523 7.47592 74.5699C6.99412 74.6168 6.63618 75.303 6.83698 76.0999C6.90346 76.5116 7.05736 76.8267 7.2987 77.0453C7.49406 77.2662 7.75271 77.3686 8.00226 77.2871C8.22996 77.2297 8.38071 77.0148 8.48318 76.7561C8.56151 76.4756 8.61344 76.1273 8.52738 75.7858Z" fill="#27AAE1"/>
<path d="M35.3676 86.6077C35.0539 86.3235 35.0749 85.8153 35.4027 85.4533C35.7306 85.0913 36.2343 85.0202 36.548 85.3044C36.8859 85.6104 36.8649 86.1186 36.5371 86.4806C36.2092 86.8427 35.7055 86.9137 35.3676 86.6077Z" fill="#27AAE1"/>
<path d="M17.0372 66.0519C17.1984 67.9112 17.9024 69.5593 18.9274 70.7073C19.9547 71.9013 21.3272 72.6172 22.6966 72.8031C22.7079 73.033 22.7435 73.2848 22.8446 73.4643C22.9238 73.6678 23.0249 73.8472 23.218 74.0221C23.218 74.0221 23.226 74.0294 23.2421 74.044L23.2662 74.0659L23.3386 74.1314L23.6765 74.4374L24.3764 75.0714L25.728 76.2955L28.4552 78.7655C24.8791 79.173 21.2788 79.5586 17.7245 79.942C16.7833 79.0895 15.9928 78.0221 15.4518 76.8731C14.9108 75.7242 14.593 74.4258 14.5315 73.184C14.4678 71.8962 14.6559 70.5729 15.0808 69.3761C15.5034 68.1334 16.1629 67.0172 17.0372 66.0519Z" fill="#27AAE1"/>
<g opacity="0.5">
<path d="M51.1328 107.52L52.6774 108.919L52.5309 103.163L50.9622 101.742L51.1328 107.52Z" fill="#27AAE1"/>
</g>
<g opacity="0.5">
<path d="M47.4402 104.176L48.9848 105.575L48.8383 99.8186L47.2695 98.3978L47.4402 104.176Z" fill="#27AAE1"/>
</g>
<g opacity="0.6">
<path d="M43.7478 100.831L45.2924 102.23L45.1459 96.4743L43.5771 95.0534L43.7478 100.831Z" fill="#27AAE1"/>
</g>
<g opacity="0.7">
<path d="M40.0552 97.4871L41.5998 98.886L41.4533 93.13L39.8845 91.7091L40.0552 97.4871Z" fill="#27AAE1"/>
</g>
<g opacity="0.8">
<path d="M36.3628 94.1428L37.9074 95.5417L37.7609 89.7857L36.1921 88.3648L36.3628 94.1428Z" fill="#27AAE1"/>
</g>
<g opacity="0.9">
<path d="M32.646 90.7766L34.2147 92.1974L34.0683 86.4414L32.4995 85.0205L32.646 90.7766Z" fill="#27AAE1"/>
</g>
<path d="M28.9525 87.4314L30.5213 88.8522L30.3748 83.0961L28.806 81.6753L28.9525 87.4314Z" fill="#27AAE1"/>
<path d="M32.3826 96.6442L22.3425 87.5509L15.5022 87.6819L32.9517 103.486L32.3826 96.6442Z" fill="#27AAE1"/>
<path d="M62.3666 123.494L43.3484 106.269C43.2519 106.182 43.1139 106.188 43.0264 106.285C42.939 106.381 42.9458 106.519 43.0424 106.607L61.6985 123.504L56.9289 124.016C56.815 124.045 56.7276 124.142 56.7103 124.258C56.7171 124.396 56.8137 124.483 56.9275 124.455L62.225 123.893C62.317 123.888 62.3826 123.816 62.424 123.722C62.4654 123.627 62.439 123.559 62.3666 123.494Z" fill="#27AAE1"/>
<path d="M43.8095 105.808C43.4957 105.523 42.9679 105.573 42.64 105.935C42.3122 106.297 42.3153 106.827 42.6291 107.111C42.9428 107.395 43.4706 107.346 43.7985 106.984C44.1264 106.622 44.1232 106.092 43.8095 105.808Z" fill="#27AAE1"/>
<path d="M44.9223 111.516C45.425 110.961 45.4082 110.155 44.9255 109.718C44.4428 109.28 43.6632 109.365 43.1604 109.92C42.6577 110.475 42.6503 111.259 43.133 111.697C43.6157 112.134 44.4195 112.071 44.9223 111.516Z" fill="#27AAE1"/>
<path d="M48.398 114.664C48.9007 114.109 48.908 113.325 48.4253 112.887C47.9426 112.45 47.1389 112.513 46.6361 113.068C46.1334 113.623 46.1502 114.429 46.6329 114.866C47.1156 115.304 47.8952 115.219 48.398 114.664Z" fill="#27AAE1"/>
<path d="M51.8966 117.833C52.3994 117.277 52.3825 116.471 51.8999 116.034C51.4172 115.597 50.6376 115.682 50.1348 116.237C49.632 116.792 49.6247 117.576 50.1074 118.013C50.5901 118.451 51.3939 118.388 51.8966 117.833Z" fill="#27AAE1"/>
<path d="M18.2288 82.683L17.2634 81.8086L16.7807 81.3714C16.7083 81.3059 16.6118 81.2184 16.5153 81.131L16.2475 80.8446L14.1595 82.9074L14.5215 83.2353C14.6181 83.3227 14.741 83.478 14.8134 83.5436L15.2961 83.9807L16.2615 84.8551L18.2288 82.683Z" fill="#27AAE1"/>
<path d="M14.6254 78.8044C14.0959 77.8854 13.6582 76.9619 13.3782 75.9614L10.5585 76.7464C10.8981 78.0206 11.4874 79.2132 12.1422 80.3335L14.6254 78.8044Z" fill="#27AAE1"/>
<path d="M12.9505 73.3776C12.915 73.1258 12.9255 72.8717 12.936 72.6176L12.9396 72.2255L12.9651 71.8093C12.9997 71.577 13.0102 71.323 13.0425 71.0447L13.212 70.2755L10.3458 69.6566C10.2851 69.9824 10.2243 70.3081 10.1636 70.6339C10.1094 70.9363 10.0794 71.2605 10.0493 71.5847L10.0042 72.0711L10.0051 72.5551C9.99917 72.9012 10.0151 73.2232 10.031 73.5451L12.9505 73.3776Z" fill="#27AAE1"/>
<path d="M14.0346 67.8138C14.2659 67.3644 14.495 66.8689 14.8206 66.4609L15.0346 66.1275C15.0979 66.0091 15.1635 65.9368 15.2268 65.8184L15.7273 65.2173L13.5115 63.2982C13.309 63.5541 13.1137 63.802 12.9258 64.0418C12.8165 64.1625 12.7314 64.3051 12.6462 64.4476L12.3666 64.8533C11.9777 65.3797 11.6853 65.9936 11.3907 66.5615L14.0346 67.8138Z" fill="#27AAE1"/>
</g>
</svg>
