<svg width="335" height="209" viewBox="0 0 335 209" fill="none" xmlns="http://www.w3.org/2000/svg">
<path d="M0 18.5582L14.6812 6.35836H38.6156L45.8012 0L82.7108 0.0516817L86.071 3.15334L128.719 3.10166L131.717 0.0516817C155.531 0.0516817 179.362 0.0516817 203.21 0.0516817L206.053 3.15334H248.701L252.113 0.0516817L289.126 0L295.95 6.35836H319.729L334.41 18.5582H326.036L317.351 11.3727H293.365L286.541 5.01432H254.594L251.183 8.11598L203.262 8.16766L200.367 5.01432H134.457L131.459 8.11598C115.502 8.11598 99.5287 8.11598 83.5379 8.11598L80.1778 5.01432H48.2825L41.097 11.3727H17.0591L8.37448 18.5582H0ZM334.41 190.235L319.677 202.435H296.053L289.126 208.948L251.544 208.845L247.202 202.383C212.67 202.435 180.31 202.383 147.38 202.383C128.15 202.331 108.713 202.331 88.5006 202.331L82.9176 208.948L45.6461 209L38.6673 202.435H14.6812L0.103395 190.235H8.47787L17.0591 197.42H41.2521L48.2308 203.986L79.9711 203.934L85.554 197.317H87.0532C107.731 197.317 127.685 197.317 147.38 197.369C180.827 197.369 213.704 197.42 248.856 197.369H250.51L254.904 203.882L286.593 203.934L293.468 197.42H317.3L326.036 190.235H334.41Z" fill="#00DAE2"/>
</svg>
