<svg width="335" height="19" viewBox="0 0 335 19" fill="none" xmlns="http://www.w3.org/2000/svg">
<path d="M0 18.5582L14.6812 6.35836H38.6156L45.8012 0L82.7108 0.0516817L86.071 3.15334L128.719 3.10166L131.717 0.0516817C155.531 0.0516817 179.362 0.0516817 203.21 0.0516817L206.053 3.15334H248.701L252.113 0.0516817L289.126 0L295.95 6.35836H319.729L334.41 18.5582H326.036L317.351 11.3727H293.365L286.541 5.01432H254.594L251.183 8.11598L203.262 8.16766L200.367 5.01432H134.457L131.459 8.11598C115.502 8.11598 99.5287 8.11598 83.5379 8.11598L80.1778 5.01432H48.2825L41.097 11.3727H17.0591L8.37448 18.5582H0Z" fill="#00DAE2"/>
</svg>
