<svg width="331" height="54" viewBox="0 0 331 54" fill="none" xmlns="http://www.w3.org/2000/svg">
<path d="M65.6905 29.2044H60.4858L70.4299 1.26208H75.6346L65.6905 29.2044Z" fill="#FA8A00"/>
<path d="M57.5777 29.2044H52.373L62.3172 1.26208H67.5218L57.5777 29.2044Z" fill="#FA8A00"/>
<path d="M57.5482 29.2337H20.3887V28.594H57.5482V29.2337Z" fill="#FA8A00"/>
<path d="M66.1263 38.0149H2.97258L0.355713 34.8165H63.5676L66.1263 38.0149Z" fill="#FA8A00"/>
<path d="M109.188 53.0765H77.3788L63.0732 35.1945L63.5675 34.8165L77.6695 52.4658H109.188V53.0765Z" fill="#FA8A00"/>
<path opacity="0.7" d="M0.355713 34.8165L2.97258 38.0149H46.4126L43.7085 34.8165H0.355713Z" fill="#BDE6FF"/>
<path opacity="0.7" d="M70.4302 1.26208L66.5339 12.1948H71.7386L75.6348 1.26208H70.4302Z" fill="#BDE6FF"/>
<path d="M273.353 29.2044H278.558L268.614 1.26208H263.438L273.353 29.2044Z" fill="#FA8A00"/>
<path d="M265.27 29.2044H270.445L260.53 1.26208H255.325L265.27 29.2044Z" fill="#FA8A00"/>
<path d="M273.383 29.2337H310.542V28.594H273.383V29.2337Z" fill="#FA8A00"/>
<path fill-rule="evenodd" clip-rule="evenodd" d="M310.251 28.9135C310.251 27.6051 311.298 26.5583 312.607 26.5583C313.886 26.5583 314.962 27.6051 314.962 28.9135C314.962 30.222 313.886 31.2687 312.607 31.2687C311.298 31.2687 310.251 30.222 310.251 28.9135ZM310.862 28.9135C310.862 29.8731 311.647 30.6581 312.607 30.6581C313.566 30.6581 314.322 29.8731 314.322 28.9135C314.322 27.954 313.566 27.169 312.607 27.169C311.647 27.169 310.862 27.954 310.862 28.9135Z" fill="#FA8A00"/>
<path d="M264.834 38.0149H327.959L330.576 34.8165H267.364L264.834 38.0149Z" fill="#FA8A00"/>
<path d="M221.742 53.0765H253.552L267.857 35.1945L267.392 34.8165L253.261 52.4658H221.742V53.0765Z" fill="#FA8A00"/>
<path opacity="0.2" d="M252.477 0.971191H143.208H78.4553L66.7375 33.9437L79.3276 50.1102H143.208H251.605L264.195 33.9437L252.477 0.971191Z" fill="#000616"/>
<path d="M311.909 28.9134C311.909 29.2914 312.229 29.5822 312.607 29.5822C312.985 29.5822 313.275 29.2914 313.275 28.9134C313.275 28.5354 312.985 28.2156 312.607 28.2156C312.229 28.2156 311.909 28.5354 311.909 28.9134Z" fill="white"/>
<path opacity="0.7" d="M330.576 34.8165L327.959 38.0149H284.519L287.223 34.8165H330.576Z" fill="#BDE6FF"/>
<path opacity="0.7" d="M260.53 1.26208L264.397 12.1948H259.193L255.325 1.26208H260.53Z" fill="#BDE6FF"/>
<g filter="url(#filter0_i_104_42)">
<path d="M79.9693 30.7816C80.5487 30.7816 80.9944 30.7816 81.3064 30.7816C81.6184 30.7816 81.8487 30.7816 81.9972 30.7816C82.7995 30.7816 83.5201 30.7221 84.1589 30.6033C84.7978 30.4696 85.3475 30.2319 85.808 29.8902C86.2686 29.5336 86.6177 29.0507 86.8554 28.4416C87.108 27.8176 87.2343 27.0153 87.2343 26.0348C87.2343 24.9948 87.0189 24.1331 86.588 23.4497C86.1572 22.7663 85.548 22.2537 84.7606 21.912C83.9881 21.5703 83.0669 21.3994 81.9972 21.3994H79.9693V30.7816ZM89.1954 26.0571C89.1954 27.7062 88.876 28.9913 88.2371 29.9124C87.6131 30.8187 86.7217 31.4501 85.5629 31.8067C84.4189 32.1633 83.0669 32.3416 81.507 32.3416C81.2692 32.3416 80.8904 32.3416 80.3704 32.3416C79.8504 32.3416 79.1001 32.3416 78.1196 32.3416V19.7949C79.1596 19.7949 79.9321 19.7949 80.4373 19.7949C80.9424 19.7949 81.299 19.7949 81.507 19.7949C83.0669 19.7949 84.4189 20.0326 85.5629 20.508C86.7217 20.9686 87.6131 21.6594 88.2371 22.5806C88.876 23.5017 89.1954 24.6605 89.1954 26.0571ZM95.0048 32.5644C94.0242 32.5644 93.1996 32.3638 92.5311 31.9627C91.8625 31.5616 91.3574 31.0119 91.0157 30.3136C90.6888 29.6005 90.5254 28.7982 90.5254 27.9068C90.5254 26.9856 90.6888 26.1759 91.0157 25.4777C91.3574 24.7645 91.8625 24.2074 92.5311 23.8063C93.1996 23.4051 94.0316 23.2045 95.027 23.2045C96.483 23.2045 97.5899 23.6354 98.3476 24.4971C99.1053 25.3588 99.4841 26.4954 99.4841 27.9068C99.4841 28.7833 99.3207 29.5782 98.9938 30.2913C98.6818 30.9896 98.1916 31.5467 97.523 31.9627C96.8693 32.3638 96.0299 32.5644 95.0048 32.5644ZM95.0048 30.9821C95.7327 30.9821 96.2899 30.8261 96.6762 30.5142C97.0624 30.2022 97.3224 29.8084 97.4561 29.333C97.6047 28.8427 97.679 28.345 97.679 27.8399C97.679 27.3348 97.6047 26.8445 97.4561 26.3691C97.3224 25.8788 97.0624 25.4777 96.6762 25.1657C96.2899 24.8388 95.7327 24.6754 95.0048 24.6754C94.3065 24.6754 93.7568 24.8388 93.3556 25.1657C92.9694 25.4777 92.7019 25.8788 92.5534 26.3691C92.4048 26.8445 92.3305 27.3348 92.3305 27.8399C92.3305 28.345 92.4048 28.8427 92.5534 29.333C92.7019 29.8084 92.9694 30.2022 93.3556 30.5142C93.7568 30.8261 94.3065 30.9821 95.0048 30.9821ZM105.453 32.5644C104.606 32.5644 103.841 32.3861 103.158 32.0296C102.474 31.673 101.932 31.153 101.531 30.4696C101.13 29.7862 100.929 28.9542 100.929 27.9736C100.959 26.9931 101.167 26.1462 101.553 25.4331C101.954 24.72 102.497 24.1702 103.18 23.784C103.863 23.3977 104.636 23.2045 105.498 23.2045C106.359 23.2045 107.095 23.368 107.704 23.6948C108.328 24.0217 108.818 24.4451 109.175 24.9651C109.531 25.4851 109.747 26.0496 109.821 26.6588H108.105C107.986 26.0794 107.704 25.6262 107.258 25.2994C106.813 24.9725 106.248 24.8091 105.565 24.8091C104.97 24.8091 104.465 24.9428 104.049 25.2102C103.633 25.4628 103.314 25.8194 103.091 26.2799C102.868 26.7256 102.749 27.2456 102.734 27.8399C102.734 28.7759 102.979 29.5262 103.47 30.0907C103.96 30.6553 104.651 30.9376 105.542 30.9376C106.181 30.9376 106.738 30.7741 107.214 30.4473C107.689 30.1204 107.986 29.645 108.105 29.021H109.821C109.747 29.645 109.524 30.2244 109.152 30.7593C108.796 31.2941 108.306 31.7324 107.682 32.0741C107.058 32.401 106.315 32.5644 105.453 32.5644ZM114.076 32.3416C113.452 32.3416 112.992 32.1781 112.694 31.8513C112.397 31.5244 112.249 31.0267 112.249 30.3582V24.3411H114.009V30.8707H116.126V32.3416H114.076ZM110.845 24.564V23.2268C111.186 23.2268 111.461 23.2045 111.669 23.16C111.892 23.1154 112.056 23.0263 112.16 22.8926C112.278 22.744 112.36 22.5137 112.405 22.2017C112.449 21.8749 112.472 21.4366 112.472 20.8869H114.009V23.2268H116.104V24.564H110.845ZM121.904 32.5644C120.923 32.5644 120.099 32.3638 119.43 31.9627C118.762 31.5616 118.257 31.0119 117.915 30.3136C117.588 29.6005 117.425 28.7982 117.425 27.9068C117.425 26.9856 117.588 26.1759 117.915 25.4777C118.257 24.7645 118.762 24.2074 119.43 23.8063C120.099 23.4051 120.931 23.2045 121.926 23.2045C123.382 23.2045 124.489 23.6354 125.247 24.4971C126.004 25.3588 126.383 26.4954 126.383 27.9068C126.383 28.7833 126.22 29.5782 125.893 30.2913C125.581 30.9896 125.091 31.5467 124.422 31.9627C123.768 32.3638 122.929 32.5644 121.904 32.5644ZM121.904 30.9821C122.632 30.9821 123.189 30.8261 123.575 30.5142C123.962 30.2022 124.222 29.8084 124.355 29.333C124.504 28.8427 124.578 28.345 124.578 27.8399C124.578 27.3348 124.504 26.8445 124.355 26.3691C124.222 25.8788 123.962 25.4777 123.575 25.1657C123.189 24.8388 122.632 24.6754 121.904 24.6754C121.206 24.6754 120.656 24.8388 120.255 25.1657C119.869 25.4777 119.601 25.8788 119.453 26.3691C119.304 26.8445 119.23 27.3348 119.23 27.8399C119.23 28.345 119.304 28.8427 119.453 29.333C119.601 29.8084 119.869 30.2022 120.255 30.5142C120.656 30.8261 121.206 30.9821 121.904 30.9821ZM128.229 32.3416V23.2268H129.945L130.101 25.8565L130.079 27.8176V32.3416H128.229ZM130.079 28.241L130.012 26.2354C130.027 25.9085 130.101 25.5742 130.235 25.2325C130.369 24.876 130.569 24.5491 130.837 24.252C131.119 23.94 131.476 23.6948 131.907 23.5165C132.352 23.3234 132.887 23.2268 133.511 23.2268H133.89V25.2771H133.489C132.82 25.2771 132.263 25.3439 131.817 25.4777C131.372 25.5965 131.023 25.7822 130.77 26.0348C130.517 26.2874 130.339 26.5994 130.235 26.9708C130.131 27.3422 130.079 27.7656 130.079 28.241ZM144.472 32.5644C143.492 32.5644 142.667 32.3638 141.999 31.9627C141.33 31.5616 140.825 31.0119 140.483 30.3136C140.156 29.6005 139.993 28.7982 139.993 27.9068C139.993 26.9856 140.156 26.1759 140.483 25.4777C140.825 24.7645 141.33 24.2074 141.999 23.8063C142.667 23.4051 143.499 23.2045 144.494 23.2045C145.95 23.2045 147.057 23.6354 147.815 24.4971C148.573 25.3588 148.952 26.4954 148.952 27.9068C148.952 28.7833 148.788 29.5782 148.461 30.2913C148.149 30.9896 147.659 31.5467 146.99 31.9627C146.337 32.3638 145.497 32.5644 144.472 32.5644ZM144.472 30.9821C145.2 30.9821 145.757 30.8261 146.144 30.5142C146.53 30.2022 146.79 29.8084 146.924 29.333C147.072 28.8427 147.146 28.345 147.146 27.8399C147.146 27.3348 147.072 26.8445 146.924 26.3691C146.79 25.8788 146.53 25.4777 146.144 25.1657C145.757 24.8388 145.2 24.6754 144.472 24.6754C143.774 24.6754 143.224 24.8388 142.823 25.1657C142.437 25.4777 142.169 25.8788 142.021 26.3691C141.872 26.8445 141.798 27.3348 141.798 27.8399C141.798 28.345 141.872 28.8427 142.021 29.333C142.169 29.8084 142.437 30.2022 142.823 30.5142C143.224 30.8261 143.774 30.9821 144.472 30.9821ZM151.466 32.3861V21.4663C151.466 20.8126 151.607 20.3223 151.89 19.9955C152.187 19.6686 152.655 19.5052 153.294 19.5052H155.834V20.976H153.316V32.3861H151.466ZM150.129 24.564V23.2268H155.723V24.564H150.129ZM164.255 32.3416H162.405V19.7949H164.255V32.3416ZM163.988 19.7949H167.308C168.705 19.7949 169.774 20.1366 170.517 20.82C171.275 21.5034 171.654 22.5286 171.654 23.8954C171.654 25.1285 171.267 26.0868 170.495 26.7702C169.722 27.4536 168.66 27.7953 167.308 27.7953H163.988V26.3914H167.085C167.977 26.3914 168.675 26.1834 169.18 25.7674C169.7 25.3514 169.96 24.72 169.96 23.8731C169.96 22.9966 169.707 22.3577 169.202 21.9566C168.697 21.5406 167.992 21.3326 167.085 21.3326H163.988V19.7949ZM173.039 32.3416V19.7949H174.933V25.3439H174.977C174.992 25.2845 175.052 25.1434 175.156 24.9205C175.26 24.6977 175.423 24.46 175.646 24.2074C175.884 23.94 176.196 23.7097 176.582 23.5165C176.968 23.3234 177.459 23.2268 178.053 23.2268C178.692 23.2268 179.219 23.3308 179.635 23.5388C180.051 23.732 180.378 23.9994 180.616 24.3411C180.868 24.6828 181.054 25.0617 181.173 25.4777C181.292 25.8936 181.366 26.3096 181.396 26.7256C181.44 27.1416 181.462 27.5279 181.462 27.8845V32.3416H179.657V27.8622C179.657 27.2976 179.598 26.7925 179.479 26.3468C179.36 25.8862 179.145 25.5297 178.833 25.2771C178.521 25.0097 178.053 24.876 177.429 24.876C176.805 24.876 176.307 25.0245 175.936 25.3217C175.579 25.6188 175.319 26.0051 175.156 26.4805C175.007 26.9411 174.933 27.4462 174.933 27.9959V32.3416H173.039ZM183.598 32.3416V23.2268H185.448V32.3416H183.598ZM184.534 21.9566C184.103 21.9566 183.806 21.8451 183.642 21.6223C183.494 21.3994 183.42 21.1394 183.42 20.8423C183.42 20.56 183.494 20.3149 183.642 20.1069C183.806 19.884 184.103 19.7726 184.534 19.7726C184.965 19.7726 185.247 19.884 185.381 20.1069C185.529 20.3149 185.604 20.56 185.604 20.8423C185.604 21.1394 185.529 21.3994 185.381 21.6223C185.247 21.8451 184.965 21.9566 184.534 21.9566ZM187.667 32.3416V19.7949H189.494V32.3416H187.667ZM195.637 32.5644C194.657 32.5644 193.832 32.3638 193.163 31.9627C192.495 31.5616 191.99 31.0119 191.648 30.3136C191.321 29.6005 191.158 28.7982 191.158 27.9068C191.158 26.9856 191.321 26.1759 191.648 25.4777C191.99 24.7645 192.495 24.2074 193.163 23.8063C193.832 23.4051 194.664 23.2045 195.659 23.2045C197.115 23.2045 198.222 23.6354 198.98 24.4971C199.738 25.3588 200.117 26.4954 200.117 27.9068C200.117 28.7833 199.953 29.5782 199.626 30.2913C199.314 30.9896 198.824 31.5467 198.155 31.9627C197.502 32.3638 196.662 32.5644 195.637 32.5644ZM195.637 30.9821C196.365 30.9821 196.922 30.8261 197.309 30.5142C197.695 30.2022 197.955 29.8084 198.089 29.333C198.237 28.8427 198.311 28.345 198.311 27.8399C198.311 27.3348 198.237 26.8445 198.089 26.3691C197.955 25.8788 197.695 25.4777 197.309 25.1657C196.922 24.8388 196.365 24.6754 195.637 24.6754C194.939 24.6754 194.389 24.8388 193.988 25.1657C193.602 25.4777 193.334 25.8788 193.186 26.3691C193.037 26.8445 192.963 27.3348 192.963 27.8399C192.963 28.345 193.037 28.8427 193.186 29.333C193.334 29.8084 193.602 30.2022 193.988 30.5142C194.389 30.8261 194.939 30.9821 195.637 30.9821ZM205.618 32.5644C205.202 32.5644 204.793 32.505 204.392 32.3861C204.006 32.2821 203.642 32.1261 203.3 31.9181C202.973 31.7101 202.676 31.4724 202.408 31.205C202.156 30.9376 201.955 30.6479 201.807 30.3359C201.673 30.009 201.606 29.6673 201.606 29.3107H203.344C203.344 29.3256 203.352 29.4296 203.367 29.6227C203.396 29.8159 203.478 30.0387 203.612 30.2913C203.746 30.529 203.961 30.737 204.258 30.9153C204.57 31.0936 205.008 31.1827 205.573 31.1827C206.004 31.1827 206.368 31.1307 206.665 31.0267C206.977 30.9227 207.215 30.7816 207.378 30.6033C207.541 30.4102 207.616 30.1799 207.601 29.9124C207.601 29.541 207.46 29.2513 207.178 29.0433C206.895 28.8353 206.531 28.6719 206.086 28.553C205.64 28.4193 205.172 28.293 204.682 28.1742C204.191 28.0553 203.723 27.8993 203.278 27.7062C202.832 27.4982 202.468 27.2233 202.186 26.8816C201.918 26.5251 201.792 26.0496 201.807 25.4554C201.807 24.6531 202.141 24.0365 202.81 23.6057C203.493 23.16 204.355 22.9371 205.395 22.9371C205.9 22.9371 206.39 22.9966 206.866 23.1154C207.341 23.2343 207.764 23.42 208.136 23.6725C208.522 23.9251 208.827 24.2594 209.049 24.6754C209.287 25.0914 209.399 25.6039 209.384 26.2131H207.668C207.683 25.8268 207.616 25.5148 207.467 25.2771C207.334 25.0394 207.148 24.8611 206.91 24.7422C206.672 24.6085 206.42 24.5194 206.152 24.4748C205.9 24.4154 205.655 24.3857 205.417 24.3857C204.823 24.3857 204.355 24.4971 204.013 24.72C203.671 24.928 203.5 25.2102 203.5 25.5668C203.5 25.9382 203.642 26.2279 203.924 26.4359C204.206 26.6439 204.57 26.8074 205.016 26.9262C205.462 27.0451 205.937 27.1639 206.442 27.2828C206.947 27.4016 207.423 27.5651 207.868 27.7731C208.314 27.9662 208.678 28.241 208.96 28.5976C209.243 28.9542 209.384 29.4296 209.384 30.0239C209.384 30.6033 209.22 31.0787 208.893 31.4501C208.581 31.8216 208.143 32.1038 207.579 32.297C207.014 32.4753 206.36 32.5644 205.618 32.5644ZM215.115 32.5644C214.135 32.5644 213.31 32.3638 212.641 31.9627C211.973 31.5616 211.468 31.0119 211.126 30.3136C210.799 29.6005 210.636 28.7982 210.636 27.9068C210.636 26.9856 210.799 26.1759 211.126 25.4777C211.468 24.7645 211.973 24.2074 212.641 23.8063C213.31 23.4051 214.142 23.2045 215.137 23.2045C216.593 23.2045 217.7 23.6354 218.458 24.4971C219.216 25.3588 219.594 26.4954 219.594 27.9068C219.594 28.7833 219.431 29.5782 219.104 30.2913C218.792 30.9896 218.302 31.5467 217.633 31.9627C216.98 32.3638 216.14 32.5644 215.115 32.5644ZM215.115 30.9821C215.843 30.9821 216.4 30.8261 216.787 30.5142C217.173 30.2022 217.433 29.8084 217.567 29.333C217.715 28.8427 217.789 28.345 217.789 27.8399C217.789 27.3348 217.715 26.8445 217.567 26.3691C217.433 25.8788 217.173 25.4777 216.787 25.1657C216.4 24.8388 215.843 24.6754 215.115 24.6754C214.417 24.6754 213.867 24.8388 213.466 25.1657C213.08 25.4777 212.812 25.8788 212.664 26.3691C212.515 26.8445 212.441 27.3348 212.441 27.8399C212.441 28.345 212.515 28.8427 212.664 29.333C212.812 29.8084 213.08 30.2022 213.466 30.5142C213.867 30.8261 214.417 30.9821 215.115 30.9821ZM226.655 32.5644C226.076 32.5644 225.593 32.4753 225.207 32.297C224.821 32.1038 224.501 31.881 224.249 31.6284C224.011 31.3759 223.833 31.1456 223.714 30.9376C223.595 30.7147 223.521 30.5736 223.491 30.5142H223.446V36.2415H221.552V23.2268H223.157L223.469 25.3662H223.513C223.528 25.3068 223.588 25.1657 223.692 24.9428C223.795 24.72 223.966 24.4748 224.204 24.2074C224.442 23.94 224.754 23.7097 225.14 23.5165C225.541 23.3234 226.039 23.2268 226.633 23.2268C227.539 23.2268 228.275 23.4274 228.839 23.8285C229.419 24.2297 229.85 24.7868 230.132 25.4999C230.414 26.1982 230.555 27.0079 230.555 27.929C230.555 28.8502 230.407 29.6599 230.11 30.3582C229.827 31.0564 229.397 31.5987 228.817 31.985C228.253 32.3713 227.532 32.5644 226.655 32.5644ZM226.165 30.9599C226.819 30.9599 227.331 30.8187 227.703 30.5364C228.089 30.2393 228.357 29.8604 228.505 29.3999C228.669 28.9245 228.75 28.4268 228.75 27.9068C228.75 27.3868 228.661 26.8965 228.483 26.4359C228.319 25.9754 228.037 25.6039 227.636 25.3217C227.25 25.0394 226.73 24.8982 226.076 24.8982C225.511 24.8982 225.036 25.0245 224.65 25.2771C224.263 25.5148 223.974 25.8639 223.781 26.3245C223.588 26.7851 223.491 27.3125 223.491 27.9068C223.491 28.5159 223.588 29.0507 223.781 29.5113C223.989 29.9719 224.293 30.3284 224.694 30.581C225.095 30.8336 225.586 30.9599 226.165 30.9599ZM232.191 32.3416V19.7949H234.085V25.3439H234.129C234.144 25.2845 234.204 25.1434 234.308 24.9205C234.412 24.6977 234.575 24.46 234.798 24.2074C235.036 23.94 235.348 23.7097 235.734 23.5165C236.12 23.3234 236.611 23.2268 237.205 23.2268C237.844 23.2268 238.371 23.3308 238.787 23.5388C239.203 23.732 239.53 23.9994 239.768 24.3411C240.02 24.6828 240.206 25.0617 240.325 25.4777C240.444 25.8936 240.518 26.3096 240.548 26.7256C240.592 27.1416 240.614 27.5279 240.614 27.8845V32.3416H238.809V27.8622C238.809 27.2976 238.75 26.7925 238.631 26.3468C238.512 25.8862 238.297 25.5297 237.985 25.2771C237.673 25.0097 237.205 24.876 236.581 24.876C235.957 24.876 235.459 25.0245 235.088 25.3217C234.731 25.6188 234.471 26.0051 234.308 26.4805C234.159 26.9411 234.085 27.4462 234.085 27.9959V32.3416H232.191ZM241.569 36.4866V35.0381H242.884C243.092 35.0381 243.277 35.0084 243.441 34.9489C243.604 34.9044 243.76 34.7855 243.909 34.5924C244.072 34.3992 244.243 34.1021 244.421 33.701L245.201 31.985L241.636 23.2268H243.552L246.115 30.0684L248.856 23.2268H250.795L246.115 33.9015C245.862 34.4661 245.632 34.9192 245.424 35.2609C245.231 35.6026 245.023 35.8626 244.8 36.0409C244.592 36.2192 244.347 36.3381 244.065 36.3975C243.797 36.4569 243.478 36.4866 243.106 36.4866H241.569Z" fill="#CAFAFF"/>
</g>
<defs>
<filter id="filter0_i_104_42" x="78.1196" y="19.5051" width="172.675" height="16.9814" filterUnits="userSpaceOnUse" color-interpolation-filters="sRGB">
<feFlood flood-opacity="0" result="BackgroundImageFix"/>
<feBlend mode="normal" in="SourceGraphic" in2="BackgroundImageFix" result="shape"/>
<feColorMatrix in="SourceAlpha" type="matrix" values="0 0 0 0 0 0 0 0 0 0 0 0 0 0 0 0 0 0 127 0" result="hardAlpha"/>
<feOffset/>
<feGaussianBlur stdDeviation="1.29874"/>
<feComposite in2="hardAlpha" operator="arithmetic" k2="-1" k3="1"/>
<feColorMatrix type="matrix" values="0 0 0 0 0 0 0 0 0 0 0 0 0 0 0 0 0 0 0.16 0"/>
<feBlend mode="normal" in2="shape" result="effect1_innerShadow_104_42"/>
</filter>
</defs>
</svg>
