<svg width="55" height="56" viewBox="0 0 55 56" fill="none" xmlns="http://www.w3.org/2000/svg">
<g style="mix-blend-mode:screen" opacity="0.21">
<path d="M2.36161 2.3707V3.52401H3.64308V4.86953H2.36161V6.08694H0.887919V4.86953H-0.329468V3.52401H0.887919V2.3707H2.36161Z" fill="#33E7FF"/>
<path d="M6.39821 0.448517H7.93596V6.85584H6.46229V2.49887C6.46229 2.56294 6.14192 2.88329 6.14192 2.88329H4.21973L6.39821 0.448517Z" fill="#33E7FF"/>
<path d="M10.3707 6.85585H8.96106V5.51028H10.3707V6.85585Z" fill="#33E7FF"/>
<path fill-rule="evenodd" clip-rule="evenodd" d="M16.8421 0.448517C17.611 0.448517 18.2517 1.08923 18.2517 1.79404V5.44622C18.2517 6.15102 17.611 6.85584 16.8421 6.85584H12.9337C12.1648 6.85584 11.524 6.15102 11.524 5.44622V1.79404C11.524 1.08923 12.1648 0.448517 12.9337 0.448517H16.8421ZM12.9977 1.85814V4.22881L16.0092 1.85814H12.9977ZM16.7781 5.38216V3.01145L13.7666 5.38216H16.7781Z" fill="#33E7FF"/>
<path d="M21.0709 1.40962V1.72998H23.1212V3.07551H21.0709V6.85584H19.6613V1.28146C19.6613 0.576659 20.2379 0 21.0068 0H23.1212V1.40962H21.0709Z" fill="#33E7FF"/>
<path d="M24.7872 5.57437V6.72768C24.7872 7.36841 24.2105 7.881 23.3776 8.00915V5.57437H24.7872Z" fill="#33E7FF"/>
<path d="M30.3615 0.448517H31.8992V6.85584H30.4255V2.49887C30.4255 2.56294 30.1052 2.88329 30.1052 2.88329H28.183L30.3615 0.448517Z" fill="#33E7FF"/>
<path d="M34.3981 6.85585H32.9244V5.51028H34.3981V6.85585Z" fill="#33E7FF"/>
<path fill-rule="evenodd" clip-rule="evenodd" d="M40.8695 0.448517C41.5743 0.448517 42.215 1.08923 42.215 1.79404V5.44622C42.215 6.15102 41.5743 6.85584 40.8695 6.85584H36.8969C36.1281 6.85584 35.5514 6.15102 35.5514 5.44622V1.79404C35.5514 1.08923 36.1281 0.448517 36.8969 0.448517H40.8695ZM37.0251 1.85814V4.22881L40.0365 1.85814H37.0251ZM40.8054 5.38216V3.01145L37.794 5.38216H40.8054Z" fill="#33E7FF"/>
<path d="M45.0342 1.40962V1.72998H47.0846V3.07551H45.0342V6.85584H43.6246V1.28146C43.6246 0.576659 44.2013 0 44.9702 0H47.0846V1.40962H45.0342Z" fill="#33E7FF"/>
<path d="M48.238 5.51028H48.7506V1.79404H48.238V0.448517H48.8147C49.5836 0.448517 50.2243 1.02518 50.2243 1.72998V5.57437C50.2243 6.27918 49.5836 6.85584 48.8147 6.85584H48.238V5.51028Z" fill="#33E7FF"/>
<path d="M52.787 5.57437V6.72768C52.787 7.36841 52.2104 7.881 51.3774 8.00915V5.57437H52.787Z" fill="#33E7FF"/>
<g opacity="0.5">
<path d="M4.86036 22.6178H0.887817V21.2723H4.86036V22.6178Z" fill="#33E7FF"/>
</g>
<g opacity="0.5">
<path d="M7.74379 18.1327H9.28155V24.54H7.80787V20.2471L7.4875 20.5675H5.56531L7.74379 18.1327Z" fill="#33E7FF"/>
</g>
<g opacity="0.5">
<path d="M11.7162 24.54H10.3066V23.1945H11.7162V24.54Z" fill="#33E7FF"/>
</g>
<g opacity="0.5">
<path fill-rule="evenodd" clip-rule="evenodd" d="M18.1875 18.1327C18.9563 18.1327 19.5971 18.7735 19.5971 19.4783V23.1945C19.5971 23.8993 18.9563 24.54 18.1875 24.54H14.279C13.5101 24.54 12.8694 23.8993 12.8694 23.1945V19.4783C12.8694 18.7735 13.5101 18.1327 14.279 18.1327H18.1875ZM14.3431 19.5423V21.9131L17.3545 19.5423H14.3431ZM18.1234 23.1304V20.6956L15.1119 23.1304H18.1234Z" fill="#33E7FF"/>
</g>
<g opacity="0.5">
<path d="M22.4165 19.0938V19.4142H24.4668V20.7597H22.4165V24.54H21.0068V19.0298C21.0068 18.3249 21.5835 17.7483 22.3524 17.7483H24.4668V19.0938H22.4165Z" fill="#33E7FF"/>
</g>
<g opacity="0.5">
<path d="M26.1326 23.2586V24.4119C26.1326 25.0526 25.4919 25.5652 24.723 25.6933V23.2586H26.1326Z" fill="#33E7FF"/>
</g>
<g opacity="0.5">
<path d="M31.707 18.1327H33.2448V24.54H31.7711V20.2471L31.4508 20.5675H29.5286L31.707 18.1327Z" fill="#33E7FF"/>
</g>
<g opacity="0.5">
<path d="M35.7437 24.54H34.27V23.1945H35.7437V24.54Z" fill="#33E7FF"/>
</g>
<g opacity="0.5">
<path fill-rule="evenodd" clip-rule="evenodd" d="M42.215 18.1327C42.9198 18.1327 43.5606 18.7735 43.5606 19.4783V23.1945C43.5606 23.8993 42.9198 24.54 42.215 24.54H38.2425C37.4736 24.54 36.897 23.8993 36.897 23.1945V19.4783C36.897 18.7735 37.4736 18.1327 38.2425 18.1327H42.215ZM38.3706 19.5423V21.9131L41.3821 19.5423H38.3706ZM42.151 23.1304V20.6956L39.1395 23.1304H42.151Z" fill="#33E7FF"/>
</g>
<g opacity="0.5">
<path d="M46.3798 19.0938V19.4142H48.4302V20.7597H46.3798V24.54H44.9702V19.0298C44.9702 18.3249 45.5469 17.7483 46.3157 17.7483H48.4302V19.0938H46.3798Z" fill="#33E7FF"/>
</g>
<g opacity="0.5">
<path d="M49.5194 23.1945H50.0961V19.5423H49.5194V18.1327H50.1601C50.929 18.1327 51.5698 18.7094 51.5698 19.4783V23.2586C51.5698 23.9634 50.929 24.54 50.1601 24.54H49.5194V23.1945Z" fill="#33E7FF"/>
</g>
<g opacity="0.5">
<path d="M54.1326 23.2586V24.4119C54.1326 25.0526 53.556 25.5652 52.723 25.6933V23.2586H54.1326Z" fill="#33E7FF"/>
</g>
<g opacity="0.5">
<path d="M3.1945 30.6911V31.8444H4.47596V33.254H3.1945V34.4073H1.72082V33.254H0.503418V31.8444H1.72082V30.6911H3.1945Z" fill="#33E7FF"/>
</g>
<g opacity="0.5">
<path d="M7.2311 28.7689H8.76887V35.1762H7.29517V30.8833L6.97481 31.2037H5.05261L7.2311 28.7689Z" fill="#33E7FF"/>
</g>
<g opacity="0.5">
<path d="M11.2678 35.1762H9.79407V33.8306H11.2678V35.1762Z" fill="#33E7FF"/>
</g>
<g opacity="0.5">
<path fill-rule="evenodd" clip-rule="evenodd" d="M17.7391 28.7689C18.4439 28.7689 19.0846 29.4096 19.0846 30.1144V33.7666C19.0846 34.4714 18.4439 35.1762 17.7391 35.1762H13.7666C12.9977 35.1762 12.421 34.4714 12.421 33.7666V30.1144C12.421 29.4096 12.9977 28.7689 13.7666 28.7689H17.7391ZM13.8947 30.1785V32.5492L16.9061 30.1785H13.8947ZM17.675 33.7025V31.3318L14.6636 33.7025H17.675Z" fill="#33E7FF"/>
</g>
<g opacity="0.5">
<path d="M21.9039 29.73V30.0503H23.9542V31.3958H21.9039V35.1762H20.4943V29.6018C20.4943 28.897 21.0709 28.3203 21.8398 28.3203H23.9542V29.73H21.9039Z" fill="#33E7FF"/>
</g>
<g opacity="0.5">
<path d="M25.6201 33.8947V35.0481C25.6201 35.6888 25.0434 36.2014 24.2104 36.3295V33.8947H25.6201Z" fill="#33E7FF"/>
</g>
<g opacity="0.5">
<path d="M31.2586 28.7689H32.7323V35.1762H31.2586V30.8833L31.0023 31.2037H29.0801L31.2586 28.7689Z" fill="#33E7FF"/>
</g>
<g opacity="0.5">
<path d="M35.231 35.1762H33.7573V33.8306H35.231V35.1762Z" fill="#33E7FF"/>
</g>
<g opacity="0.5">
<path fill-rule="evenodd" clip-rule="evenodd" d="M41.7024 28.7689C42.4712 28.7689 43.0479 29.4096 43.0479 30.1144V33.7666C43.0479 34.4714 42.4712 35.1762 41.7024 35.1762H37.7298C36.9609 35.1762 36.3843 34.4714 36.3843 33.7666V30.1144C36.3843 29.4096 36.9609 28.7689 37.7298 28.7689H41.7024ZM37.858 30.1785V32.5492L40.8694 30.1785H37.858ZM41.6383 33.7025V31.3318L38.6268 33.7025H41.6383Z" fill="#33E7FF"/>
</g>
<g opacity="0.5">
<path d="M45.9312 29.73V30.0503H47.9175V31.3958H45.9312V35.1762H44.4575V29.6018C44.4575 28.897 45.0983 28.3203 45.8671 28.3203H47.9175V29.73H45.9312Z" fill="#33E7FF"/>
</g>
<g opacity="0.5">
<path d="M49.0709 33.8307H49.5835V30.1144H49.0709V28.7689H49.7117C50.4165 28.7689 51.0572 29.3455 51.0572 30.0504V33.8947C51.0572 34.5996 50.4165 35.1762 49.7117 35.1762H49.0709V33.8307Z" fill="#33E7FF"/>
</g>
<g opacity="0.5">
<path d="M53.6842 33.8947V35.0481C53.6842 35.6888 53.0435 36.2014 52.2106 36.3295V33.8947H53.6842Z" fill="#33E7FF"/>
</g>
<path d="M2.87407 50.1693V51.3226H4.15553V52.7322H2.87407V53.8856H1.40039V52.7322H0.182983V51.3226H1.40039V50.1693H2.87407Z" fill="#33E7FF"/>
<path d="M6.91066 48.2471H8.44844V54.6544H6.97474V50.2975C6.97474 50.3615 6.65437 50.6819 6.65437 50.6819H4.73218L6.91066 48.2471Z" fill="#33E7FF"/>
<path d="M10.8833 54.6544H9.47363V53.3089H10.8833V54.6544Z" fill="#33E7FF"/>
<path fill-rule="evenodd" clip-rule="evenodd" d="M17.3546 48.2471C18.1235 48.2471 18.7642 48.8879 18.7642 49.5927V53.2448C18.7642 53.9496 18.1235 54.6544 17.3546 54.6544H13.4461C12.6772 54.6544 12.0365 53.9496 12.0365 53.2448V49.5927C12.0365 48.8879 12.6772 48.2471 13.4461 48.2471H17.3546ZM13.4461 49.6567V52.0274L16.5216 49.6567H13.4461ZM17.2264 53.1807V50.81L14.215 53.1807H17.2264Z" fill="#33E7FF"/>
<path d="M21.5834 49.2082V49.5286H23.6338V50.8741H21.5834V54.6544H20.1738V49.08C20.1738 48.3752 20.7505 47.7986 21.5194 47.7986H23.6338V49.2082H21.5834Z" fill="#33E7FF"/>
<path d="M25.2997 53.373V54.5263C25.2997 55.167 24.659 55.6796 23.826 55.8077V53.373H25.2997Z" fill="#33E7FF"/>
<path d="M30.8742 48.2471H32.4119V54.6544H30.9382V50.2975C30.9382 50.3615 30.6179 50.6819 30.6179 50.6819H28.6957L30.8742 48.2471Z" fill="#33E7FF"/>
<path d="M34.8467 54.6544H33.4371V53.3089H34.8467V54.6544Z" fill="#33E7FF"/>
<path fill-rule="evenodd" clip-rule="evenodd" d="M41.3181 48.2471C42.0869 48.2471 42.7277 48.8879 42.7277 49.5927V53.2448C42.7277 53.9496 42.0869 54.6544 41.3181 54.6544H37.4096C36.6407 54.6544 36 53.9496 36 53.2448V49.5927C36 48.8879 36.6407 48.2471 37.4096 48.2471H41.3181ZM37.4737 49.6567V52.0274L40.4851 49.6567H37.4737ZM41.254 53.1807V50.81L38.2426 53.1807H41.254Z" fill="#33E7FF"/>
<path d="M45.5469 49.2082V49.5286H47.5973V50.8741H45.5469V54.6544H44.1373V49.08C44.1373 48.3752 44.714 47.7986 45.4829 47.7986H47.5973V49.2082H45.5469Z" fill="#33E7FF"/>
<path d="M48.6865 53.3089H49.2632V49.5927H48.6865V48.2471H49.3273C50.0961 48.2471 50.7369 48.8238 50.7369 49.5286V53.373C50.7369 54.0778 50.0961 54.6544 49.3273 54.6544H48.6865V53.3089Z" fill="#33E7FF"/>
<path d="M53.2998 53.373V54.5263C53.2998 55.167 52.7231 55.6796 51.8901 55.8077V53.373H53.2998Z" fill="#33E7FF"/>
</g>
</svg>
