<svg width="335" height="19" viewBox="0 0 335 19" fill="none" xmlns="http://www.w3.org/2000/svg">
<path d="M319.574 12.1998L334.307 0H325.932L317.196 7.18546H293.365L286.49 13.699L254.801 13.6472L250.407 7.13383H248.753C213.601 7.18553 180.723 7.13383 147.277 7.13383C127.581 7.08214 107.627 7.08209 86.9498 7.08209H85.4506L79.8677 13.699L48.1274 13.7506L41.1487 7.18546H16.9557L8.37448 0H0L14.5778 12.1998H38.564L45.5427 18.765L82.8142 18.7133L88.3973 12.0964C108.61 12.0964 128.047 12.0965 147.277 12.1481C180.206 12.1481 212.567 12.1998 247.099 12.1481L251.441 18.6099L289.023 18.7133L295.95 12.1998H319.574Z" fill="#00DAE2"/>
</svg>
