<svg width="255" height="54" viewBox="0 0 255 54" fill="none" xmlns="http://www.w3.org/2000/svg">
<path d="M1.00657 29.4145H0V16.1053L16.6645 0H177.382L180.961 3.69079H255V17H253.993V4.69737H180.513L176.934 1.00658H17L1.00657 16.5526V29.4145Z" fill="#00E2A7"/>
<path d="M238.336 53.6839H77.5066L74.0395 49.9931H0V36.6839H1.00657V48.9865H74.4868L77.954 52.6773H237.888L253.993 37.1312V24.2694H255V37.5786L238.336 53.6839Z" fill="#00E2A7"/>
<path d="M236.546 50.9997H78.9609L77.0596 48.9866H239.119L236.546 50.9997Z" fill="#00E2A7"/>
<path d="M18.1192 2.68408H176.04L177.83 4.69724H15.9941L18.1192 2.68408Z" fill="#00E2A7"/>
<path d="M67.3288 53.4604L64.6446 50.7762H62.2959L65.092 53.4604H67.3288ZM63.1907 53.4604L60.3946 50.7762H58.1578L60.842 53.4604H63.1907ZM59.1643 53.4604L56.3683 50.7762H54.1314L56.8156 53.4604H59.1643ZM71.5788 53.4604L68.7828 50.7762H66.5459L69.2301 53.4604H71.5788ZM75.717 53.4604L73.0327 50.7762H70.6841L73.4801 53.4604H75.717ZM42.7236 53.4604L39.9275 50.7762H37.6907L40.4867 53.4604H42.7236ZM38.5854 53.4604L35.7893 50.7762H33.5525L36.2367 53.4604H38.5854ZM50.9999 53.4604L48.2038 50.7762H45.967L48.763 53.4604H50.9999ZM55.0262 53.4604L52.342 50.7762H49.9933L52.7894 53.4604H55.0262ZM46.7499 53.4604L44.0657 50.7762H41.717L44.513 53.4604H46.7499ZM26.1709 53.4604L23.3749 50.7762H21.138L23.8222 53.4604H26.1709ZM17.8946 53.4604L15.2104 50.7762H12.8617L15.6578 53.4604H17.8946ZM22.0328 53.4604L19.2367 50.7762H16.9999L19.6841 53.4604H22.0328ZM30.3091 53.4604L27.6249 50.7762H25.2762L28.0722 53.4604H30.3091ZM34.4472 53.4604L31.6512 50.7762H29.4143L32.0986 53.4604H34.4472ZM13.8683 53.4604L11.0722 50.7762H8.83539L11.6314 53.4604H13.8683ZM5.59198 53.4604L2.79592 50.7762H0.559082L3.24329 53.4604H5.59198ZM9.73015 53.4604L7.04591 50.7762H4.69725L7.49331 53.4604H9.73015Z" fill="#00E2A7"/>
<path d="M245.829 2.9076L243.144 0.223389H240.796L243.592 2.9076H245.829ZM241.69 2.9076L238.894 0.223389H236.657L239.342 2.9076H241.69ZM237.552 2.9076L234.868 0.223389H232.519L235.315 2.9076H237.552ZM249.967 2.9076L247.171 0.223389H244.934L247.618 2.9076H249.967ZM254.105 2.9076L251.421 0.223389H249.072L251.868 2.9076H254.105ZM221.111 2.9076L218.315 0.223389H216.079L218.875 2.9076H221.111ZM216.973 2.9076L214.177 0.223389H211.94L214.625 2.9076H216.973ZM229.388 2.9076L226.592 0.223389H224.355L227.039 2.9076H229.388ZM233.526 2.9076L230.842 0.223389H228.493L231.289 2.9076H233.526ZM225.25 2.9076L222.565 0.223389H220.217L223.013 2.9076H225.25ZM204.671 2.9076L201.875 0.223389H199.638L202.322 2.9076H204.671ZM196.394 2.9076L193.71 0.223389H191.361L194.158 2.9076H196.394ZM200.533 2.9076L197.736 0.223389H195.5L198.184 2.9076H200.533ZM208.809 2.9076L206.125 0.223389H203.776L206.572 2.9076H208.809ZM212.947 2.9076L210.151 0.223389H207.914L210.598 2.9076H212.947ZM192.368 2.9076L189.572 0.223389H187.335L190.131 2.9076H192.368ZM184.092 2.9076L181.296 0.223389H179.059L181.743 2.9076H184.092ZM188.23 2.9076L185.546 0.223389H183.197L185.993 2.9076H188.23Z" fill="#00E2A7"/>
<path d="M13.8693 7.3811L3.69165 17.5587V46.6377H66.5469V7.3811H13.8693Z" fill="#00D19A"/>
<path d="M34.705 23.8492C33.7169 23.8492 32.9484 24.6176 32.9484 25.7155L32.8386 33.2907C32.8386 34.2787 33.7169 35.157 34.705 35.157C35.6931 35.157 36.5713 34.2787 36.5713 33.2907V25.7155C36.5713 24.7274 35.6931 23.8492 34.705 23.8492ZM34.705 22.0926C35.6931 22.0926 36.4615 21.2143 36.4615 20.2262C36.4615 19.2382 35.6931 18.4697 34.705 18.4697C33.7169 18.4697 32.9484 19.2382 32.9484 20.2262C32.9484 21.2143 33.7169 22.0926 34.705 22.0926Z" fill="white"/>
<path fill-rule="evenodd" clip-rule="evenodd" d="M34.704 38.9999C31.4105 38.9999 28.3365 37.7923 26.031 35.377C23.7255 33.0715 22.5178 29.9975 22.5178 26.8138C22.5178 20.0071 28.0071 14.5178 34.704 14.5178C37.9976 14.5178 41.0715 15.8352 43.377 18.1407C45.6825 20.4462 47 23.5202 47 26.8138C47 30.1073 45.6825 33.1813 43.377 35.4868C41.0715 37.7923 37.9976 38.9999 34.704 38.9999ZM34.704 15.8352C28.6658 15.8352 23.7255 20.6658 23.7255 26.8138C23.7255 29.6682 24.8233 32.5226 26.9092 34.4987C28.9952 36.5846 31.7398 37.7923 34.704 37.7923C37.6682 37.7923 40.4128 36.5847 42.4988 34.6085C44.5847 32.5226 45.6826 29.778 45.6826 26.8138C45.6826 23.8496 44.5847 21.1049 42.4988 19.019C40.4128 16.9331 37.6682 15.8352 34.704 15.8352Z" fill="white"/>
<g filter="url(#filter0_i_86_1738)">
<path d="M115.908 34.2499C114.609 34.2499 113.435 33.9833 112.385 33.4503C111.336 32.9006 110.503 32.0926 109.886 31.0265C109.27 29.9437 108.962 28.6027 108.962 27.0035C108.978 25.421 109.287 24.0883 109.886 23.0055C110.486 21.9061 111.319 21.0815 112.385 20.5318C113.451 19.9654 114.659 19.6822 116.008 19.6822C117.224 19.6822 118.282 19.9071 119.182 20.3569C120.081 20.79 120.806 21.398 121.356 22.1809C121.922 22.9639 122.297 23.8801 122.48 24.9296H120.331C120.198 24.13 119.915 23.4886 119.482 23.0055C119.048 22.5224 118.524 22.1726 117.907 21.9561C117.308 21.7395 116.675 21.6312 116.008 21.6312C114.426 21.6312 113.201 22.0893 112.335 23.0055C111.469 23.9051 111.036 25.1961 111.036 26.8786C111.036 28.6444 111.461 29.9937 112.31 30.9265C113.16 31.8428 114.367 32.3009 115.933 32.3009C116.666 32.3009 117.341 32.1842 117.957 31.951C118.59 31.7178 119.123 31.3597 119.556 30.8766C119.99 30.3768 120.273 29.7355 120.406 28.9525H122.58C122.397 29.9854 122.022 30.9016 121.456 31.7012C120.906 32.5008 120.165 33.1254 119.232 33.5752C118.315 34.025 117.208 34.2499 115.908 34.2499ZM125.694 34V19.9321H127.818V26.1539H127.868C127.885 26.0873 127.951 25.9291 128.068 25.6792C128.185 25.4293 128.368 25.1628 128.618 24.8796C128.884 24.5797 129.234 24.3215 129.667 24.105C130.1 23.8884 130.65 23.7801 131.316 23.7801C132.033 23.7801 132.624 23.8967 133.091 24.13C133.557 24.3465 133.923 24.6464 134.19 25.0295C134.473 25.4126 134.681 25.8374 134.815 26.3039C134.948 26.7703 135.031 27.2367 135.065 27.7032C135.114 28.1696 135.139 28.6027 135.139 29.0025V34H133.115V28.9775C133.115 28.3445 133.049 27.7781 132.916 27.2784C132.782 26.762 132.541 26.3622 132.191 26.079C131.841 25.7791 131.316 25.6292 130.617 25.6292C129.917 25.6292 129.359 25.7958 128.943 26.129C128.543 26.4621 128.251 26.8952 128.068 27.4283C127.901 27.9447 127.818 28.5111 127.818 29.1274V34H125.694ZM143.156 34.2499C142.007 34.2499 141.065 34 140.332 33.5003C139.599 32.9838 139.058 32.3258 138.708 31.5262C138.358 30.71 138.183 29.8687 138.183 29.0025C138.167 28.0197 138.35 27.1285 138.733 26.3289C139.133 25.5293 139.699 24.8962 140.432 24.4298C141.182 23.9634 142.073 23.7302 143.106 23.7302C144.006 23.7302 144.805 23.9301 145.505 24.3299C146.204 24.713 146.762 25.2627 147.179 25.979C147.595 26.6787 147.82 27.5116 147.854 28.4778C147.87 28.5277 147.879 28.6277 147.879 28.7776C147.879 28.9109 147.879 29.0275 147.879 29.1274H140.157C140.157 30.1936 140.416 31.0265 140.932 31.6262C141.465 32.2092 142.198 32.5008 143.131 32.5008C143.831 32.5008 144.422 32.3258 144.905 31.976C145.405 31.6095 145.713 31.1264 145.83 30.5267H147.854C147.754 31.2264 147.504 31.8594 147.104 32.4258C146.704 32.9922 146.171 33.4419 145.505 33.7751C144.838 34.0916 144.055 34.2499 143.156 34.2499ZM140.232 28.103H145.78C145.763 27.9197 145.713 27.6782 145.63 27.3783C145.563 27.0785 145.43 26.787 145.23 26.5038C145.03 26.2039 144.755 25.954 144.405 25.7541C144.056 25.5542 143.606 25.4543 143.056 25.4543C142.556 25.4543 142.131 25.5376 141.782 25.7042C141.432 25.8708 141.149 26.0956 140.932 26.3788C140.716 26.6454 140.549 26.9369 140.432 27.2534C140.332 27.5532 140.266 27.8364 140.232 28.103ZM155.925 34.2499C154.976 34.2499 154.118 34.05 153.352 33.6502C152.585 33.2504 151.977 32.6673 151.528 31.9011C151.078 31.1348 150.853 30.2019 150.853 29.1025C150.886 28.003 151.119 27.0535 151.553 26.2539C152.002 25.4543 152.61 24.8379 153.377 24.4048C154.143 23.9717 155.009 23.7551 155.975 23.7551C156.941 23.7551 157.766 23.9384 158.449 24.3049C159.149 24.6714 159.698 25.1461 160.098 25.7292C160.498 26.3122 160.74 26.9452 160.823 27.6282H158.899C158.766 26.9785 158.449 26.4704 157.949 26.104C157.45 25.7375 156.817 25.5542 156.05 25.5542C155.384 25.5542 154.818 25.7042 154.351 26.004C153.885 26.2872 153.527 26.687 153.277 27.2034C153.027 27.7032 152.894 28.2862 152.877 28.9525C152.877 30.002 153.152 30.8433 153.701 31.4763C154.251 32.1093 155.026 32.4258 156.025 32.4258C156.742 32.4258 157.366 32.2425 157.899 31.8761C158.432 31.5096 158.766 30.9765 158.899 30.2769H160.823C160.74 30.9765 160.49 31.6262 160.073 32.2259C159.673 32.8256 159.124 33.317 158.424 33.7002C157.724 34.0666 156.891 34.2499 155.925 34.2499ZM166.169 34H164.07V19.9321H166.169V34ZM168.742 27.2284L173.79 34H171.291L167.218 28.6777L168.742 27.2284ZM166.044 31.4763V29.1025L171.116 23.7302H173.715L166.044 31.4763ZM176.175 29.1274V27.6282H181.722V29.1274H176.175ZM185.63 34V23.7801H187.704V34H185.63ZM186.679 22.3558C186.196 22.3558 185.863 22.2309 185.68 21.981C185.513 21.7312 185.43 21.4396 185.43 21.1065C185.43 20.79 185.513 20.5151 185.68 20.2819C185.863 20.032 186.196 19.9071 186.679 19.9071C187.162 19.9071 187.479 20.032 187.629 20.2819C187.795 20.5151 187.879 20.79 187.879 21.1065C187.879 21.4396 187.795 21.7312 187.629 21.981C187.479 22.2309 187.162 22.3558 186.679 22.3558ZM191.142 34V23.7801H192.916L193.266 26.1539H193.316C193.332 26.0873 193.399 25.9291 193.516 25.6792C193.632 25.4293 193.824 25.1628 194.09 24.8796C194.357 24.5797 194.715 24.3215 195.165 24.105C195.615 23.8884 196.181 23.7801 196.864 23.7801C197.58 23.7801 198.163 23.8967 198.613 24.13C199.079 24.3465 199.446 24.6464 199.713 25.0295C199.996 25.396 200.196 25.8124 200.312 26.2789C200.429 26.7287 200.504 27.1951 200.537 27.6782C200.57 28.1446 200.587 28.5861 200.587 29.0025V34H198.563V28.9775C198.563 28.3445 198.496 27.7781 198.363 27.2784C198.23 26.762 197.988 26.3622 197.639 26.079C197.289 25.7791 196.764 25.6292 196.064 25.6292C195.365 25.6292 194.807 25.7958 194.39 26.129C193.99 26.4621 193.699 26.8952 193.516 27.4283C193.349 27.9447 193.266 28.5111 193.266 29.1274V34H191.142Z" fill="#00E2A7"/>
</g>
<defs>
<filter id="filter0_i_86_1738" x="108.962" y="19.6822" width="91.6252" height="14.5677" filterUnits="userSpaceOnUse" color-interpolation-filters="sRGB">
<feFlood flood-opacity="0" result="BackgroundImageFix"/>
<feBlend mode="normal" in="SourceGraphic" in2="BackgroundImageFix" result="shape"/>
<feColorMatrix in="SourceAlpha" type="matrix" values="0 0 0 0 0 0 0 0 0 0 0 0 0 0 0 0 0 0 127 0" result="hardAlpha"/>
<feOffset/>
<feGaussianBlur stdDeviation="1.45621"/>
<feComposite in2="hardAlpha" operator="arithmetic" k2="-1" k3="1"/>
<feColorMatrix type="matrix" values="0 0 0 0 0 0 0 0 0 0 0 0 0 0 0 0 0 0 0.16 0"/>
<feBlend mode="normal" in2="shape" result="effect1_innerShadow_86_1738"/>
</filter>
</defs>
</svg>
