<svg width="255" height="55" viewBox="0 0 255 55" fill="none" xmlns="http://www.w3.org/2000/svg">
<path d="M1.00657 29.7822H0V16.473L16.6645 0.367737H177.382L180.961 4.05853H255V17.3677H253.993V5.06511H180.513L176.934 1.37432H17L1.00657 16.9204V29.7822Z" fill="#44EEFA"/>
<path d="M238.336 54.0516H77.5066L74.0395 50.3608H0V37.0516H1.00657V49.3543H74.4869L77.954 53.045H237.888L253.993 37.499V24.6371H255V37.9464L238.336 54.0516Z" fill="#44EEFA"/>
<path d="M236.547 51.3675H78.961L77.0597 49.3543H239.119L236.547 51.3675Z" fill="#59E5FF"/>
<path d="M18.1193 3.05182H176.04L177.83 5.06498H15.9943L18.1193 3.05182Z" fill="url(#paint0_linear_86_1759)"/>
<path d="M67.3289 53.8281L64.6447 51.1439H62.2961L65.0921 53.8281H67.3289ZM63.1908 53.8281L60.3947 51.1439H58.1579L60.8421 53.8281H63.1908ZM59.1645 53.8281L56.3684 51.1439H54.1316L56.8158 53.8281H59.1645ZM71.5789 53.8281L68.7829 51.1439H66.546L69.2302 53.8281H71.5789ZM75.7171 53.8281L73.0329 51.1439H70.6842L73.4803 53.8281H75.7171ZM42.7237 53.8281L39.9276 51.1439H37.6908L40.4868 53.8281H42.7237ZM38.5855 53.8281L35.7895 51.1439H33.5526L36.2368 53.8281H38.5855ZM51 53.8281L48.2039 51.1439H45.9671L48.7632 53.8281H51ZM55.0263 53.8281L52.3421 51.1439H49.9934L52.7895 53.8281H55.0263ZM46.75 53.8281L44.0658 51.1439H41.7171L44.5131 53.8281H46.75ZM26.171 53.8281L23.375 51.1439H21.1381L23.8223 53.8281H26.171ZM17.8947 53.8281L15.2105 51.1439H12.8618L15.6579 53.8281H17.8947ZM22.0329 53.8281L19.2368 51.1439H17L19.6842 53.8281H22.0329ZM30.3092 53.8281L27.625 51.1439H25.2763L28.0724 53.8281H30.3092ZM34.4473 53.8281L31.6513 51.1439H29.4145L32.0987 53.8281H34.4473ZM13.8684 53.8281L11.0724 51.1439H8.83551L11.6316 53.8281H13.8684ZM5.5921 53.8281L2.79605 51.1439H0.559204L3.24341 53.8281H5.5921ZM9.73027 53.8281L7.04603 51.1439H4.69738L7.49343 53.8281H9.73027Z" fill="url(#paint1_linear_86_1759)"/>
<path d="M245.829 3.27534L243.144 0.591125H240.796L243.592 3.27534H245.829ZM241.69 3.27534L238.894 0.591125H236.657L239.342 3.27534H241.69ZM237.552 3.27534L234.868 0.591125H232.519L235.315 3.27534H237.552ZM249.967 3.27534L247.171 0.591125H244.934L247.618 3.27534H249.967ZM254.105 3.27534L251.421 0.591125H249.072L251.868 3.27534H254.105ZM221.111 3.27534L218.315 0.591125H216.079L218.875 3.27534H221.111ZM216.973 3.27534L214.177 0.591125H211.94L214.625 3.27534H216.973ZM229.388 3.27534L226.592 0.591125H224.355L227.039 3.27534H229.388ZM233.526 3.27534L230.842 0.591125H228.493L231.289 3.27534H233.526ZM225.25 3.27534L222.565 0.591125H220.217L223.013 3.27534H225.25ZM204.671 3.27534L201.875 0.591125H199.638L202.322 3.27534H204.671ZM196.394 3.27534L193.71 0.591125H191.361L194.158 3.27534H196.394ZM200.533 3.27534L197.736 0.591125H195.5L198.184 3.27534H200.533ZM208.809 3.27534L206.125 0.591125H203.776L206.572 3.27534H208.809ZM212.947 3.27534L210.151 0.591125H207.914L210.598 3.27534H212.947ZM192.368 3.27534L189.572 0.591125H187.335L190.131 3.27534H192.368ZM184.092 3.27534L181.296 0.591125H179.059L181.743 3.27534H184.092ZM188.23 3.27534L185.546 0.591125H183.197L185.993 3.27534H188.23Z" fill="#59E5FF"/>
<path d="M13.8693 7.74884L3.69165 17.9265V47.0054H66.5469V7.74884H13.8693Z" fill="#59E5FF"/>
<path d="M30.3583 33.5542C30.3583 35.3308 28.9557 36.8268 27.1791 36.8268C25.4025 36.8268 24 35.3308 24 33.5542C24 31.7776 25.4025 30.3751 27.1791 30.3751C28.9557 30.3751 30.3583 31.7776 30.3583 33.5542Z" fill="white"/>
<path d="M45.5996 33.6477C45.5996 35.4243 44.1035 36.8268 42.3269 36.8268C40.5504 36.8268 39.1478 35.4243 39.1478 33.6477C39.1478 31.8711 40.6439 30.3751 42.4205 30.3751C44.1035 30.3751 45.5996 31.8711 45.5996 33.6477Z" fill="white"/>
<path d="M35.5945 20.1833C35.5945 21.9599 34.0984 23.3624 32.3218 23.3624C30.5452 23.3624 29.1427 21.9599 29.1427 20.1833C29.1427 18.4067 30.5452 16.9107 32.3218 17.0042C34.0984 17.0042 35.5945 18.4067 35.5945 20.1833Z" fill="white"/>
<path d="M42.0461 34.0219H26.6179L31.1996 21.6793L32.2282 22.0533L28.2075 32.9933H42.0461V34.0219Z" fill="white"/>
<g filter="url(#filter0_i_86_1759)">
<path d="M89.5313 34L94.254 19.9321H97.6772L102.5 34H100.276L96.0031 20.8066L91.7302 34H89.5313ZM92.4049 29.8021L92.4799 28.1529H99.4763L99.5763 29.8021H92.4049ZM111.038 34.2499C110.405 34.2499 109.864 34.1499 109.414 33.95C108.964 33.7335 108.598 33.4836 108.315 33.2004C108.031 32.9172 107.823 32.659 107.69 32.4258C107.557 32.1759 107.473 32.0177 107.44 31.951H107.39L107.065 34H105.266V19.9321H107.415V26.1789H107.465C107.482 26.1123 107.548 25.954 107.665 25.7042C107.798 25.4543 107.998 25.1794 108.265 24.8796C108.531 24.5797 108.889 24.3215 109.339 24.105C109.806 23.8884 110.372 23.7801 111.038 23.7801C112.038 23.7801 112.854 24.005 113.487 24.4548C114.12 24.8879 114.595 25.5043 114.911 26.3039C115.228 27.0868 115.386 28.003 115.386 29.0525C115.386 30.0686 115.228 30.9682 114.911 31.7511C114.612 32.5341 114.137 33.1504 113.487 33.6002C112.854 34.0333 112.038 34.2499 111.038 34.2499ZM110.439 32.4508C111.172 32.4508 111.746 32.2925 112.163 31.976C112.596 31.6429 112.896 31.2181 113.062 30.7017C113.246 30.1686 113.337 29.6105 113.337 29.0275C113.337 28.4445 113.237 27.8947 113.037 27.3783C112.854 26.8619 112.538 26.4455 112.088 26.129C111.655 25.8124 111.072 25.6542 110.339 25.6542C109.706 25.6542 109.173 25.7958 108.739 26.079C108.306 26.3455 107.982 26.737 107.765 27.2534C107.548 27.7698 107.44 28.3612 107.44 29.0275C107.44 29.7105 107.548 30.3102 107.765 30.8266C107.998 31.343 108.34 31.7428 108.789 32.026C109.239 32.3092 109.789 32.4508 110.439 32.4508ZM123.166 34.2499C122.067 34.2499 121.142 34.025 120.392 33.5752C119.643 33.1254 119.076 32.5091 118.693 31.7261C118.327 30.9265 118.144 30.027 118.144 29.0275C118.144 27.9947 118.327 27.0868 118.693 26.3039C119.076 25.5043 119.643 24.8796 120.392 24.4298C121.142 23.98 122.075 23.7551 123.191 23.7551C124.823 23.7551 126.065 24.2382 126.914 25.2044C127.764 26.1706 128.188 27.445 128.188 29.0275C128.188 30.0103 128.005 30.9016 127.639 31.7012C127.289 32.4841 126.739 33.1088 125.99 33.5752C125.257 34.025 124.315 34.2499 123.166 34.2499ZM123.166 32.4758C123.982 32.4758 124.607 32.3009 125.04 31.951C125.473 31.6012 125.765 31.1598 125.915 30.6267C126.081 30.077 126.164 29.5189 126.164 28.9525C126.164 28.3862 126.081 27.8364 125.915 27.3034C125.765 26.7536 125.473 26.3039 125.04 25.954C124.607 25.5876 123.982 25.4043 123.166 25.4043C122.383 25.4043 121.767 25.5876 121.317 25.954C120.884 26.3039 120.584 26.7536 120.417 27.3034C120.251 27.8364 120.168 28.3862 120.168 28.9525C120.168 29.5189 120.251 30.077 120.417 30.6267C120.584 31.1598 120.884 31.6012 121.317 31.951C121.767 32.3009 122.383 32.4758 123.166 32.4758ZM135.006 34.2499C134.323 34.2499 133.748 34.1416 133.282 33.925C132.832 33.7085 132.466 33.417 132.183 33.0505C131.916 32.684 131.716 32.2759 131.583 31.8261C131.45 31.3763 131.358 30.9099 131.308 30.4268C131.258 29.9437 131.233 29.4773 131.233 29.0275V23.7801H133.282V29.0275C133.282 29.6272 133.34 30.1852 133.457 30.7017C133.574 31.2014 133.815 31.6095 134.182 31.926C134.548 32.2425 135.089 32.4008 135.806 32.4008C136.505 32.4008 137.047 32.2425 137.43 31.926C137.813 31.5929 138.08 31.1764 138.23 30.6767C138.396 30.1769 138.488 29.6605 138.504 29.1274V23.7801H140.653V34H138.879L138.529 31.8761H138.479C138.429 32.0427 138.329 32.2592 138.18 32.5257C138.03 32.7756 137.821 33.0338 137.555 33.3004C137.288 33.5669 136.939 33.7918 136.505 33.975C136.089 34.1583 135.589 34.2499 135.006 34.2499ZM146.853 34C146.154 34 145.637 33.8168 145.304 33.4503C144.971 33.0838 144.804 32.5257 144.804 31.7761V25.0295H146.778V32.3508H149.152V34H146.853ZM143.23 25.2794V23.7801C143.613 23.7801 143.921 23.7551 144.155 23.7052C144.405 23.6552 144.588 23.5552 144.704 23.4053C144.838 23.2387 144.929 22.9805 144.979 22.6307C145.029 22.2642 145.054 21.7728 145.054 21.1565H146.778V23.7801H149.127V25.2794H143.23ZM165.908 34.2499C164.608 34.2499 163.434 33.9833 162.384 33.4503C161.335 32.9006 160.502 32.0926 159.886 31.0265C159.269 29.9437 158.961 28.6027 158.961 27.0035C158.978 25.421 159.286 24.0883 159.886 23.0055C160.485 21.9061 161.318 21.0815 162.384 20.5318C163.451 19.9654 164.658 19.6822 166.008 19.6822C167.224 19.6822 168.281 19.9071 169.181 20.3569C170.081 20.79 170.805 21.398 171.355 22.1809C171.921 22.9639 172.296 23.8801 172.479 24.9296H170.33C170.197 24.13 169.914 23.4886 169.481 23.0055C169.048 22.5224 168.523 22.1726 167.907 21.9561C167.307 21.7395 166.674 21.6312 166.008 21.6312C164.425 21.6312 163.201 22.0893 162.334 23.0055C161.468 23.9051 161.035 25.1961 161.035 26.8786C161.035 28.6444 161.46 29.9937 162.309 30.9265C163.159 31.8428 164.367 32.3009 165.933 32.3009C166.666 32.3009 167.34 32.1842 167.957 31.951C168.59 31.7178 169.123 31.3597 169.556 30.8766C169.989 30.3768 170.272 29.7355 170.405 28.9525H172.579C172.396 29.9854 172.021 30.9016 171.455 31.7012C170.905 32.5008 170.164 33.1254 169.231 33.5752C168.315 34.025 167.207 34.2499 165.908 34.2499ZM176.068 34V19.9321H179.667L183.615 33.0755H183.665L187.538 19.9321H191.136V34H189.012L189.137 20.9066H189.087L185.139 34H182.065L178.142 20.9066H178.092L178.192 34H176.068ZM197.501 29.4023V27.0285L204.423 19.9321H207.121V20.2069L197.501 29.4023ZM195.527 34V19.9321H197.601V34H195.527ZM205.023 34L199.425 26.6287L200.925 25.1544L207.421 33.7251V34H205.023ZM210.855 33.8001V19.9321H212.929V33.8001H210.855ZM210.855 34V32.2009H220.3V34H210.855Z" fill="#59E5FF"/>
</g>
<defs>
<filter id="filter0_i_86_1759" x="89.5314" y="19.6822" width="130.769" height="14.5677" filterUnits="userSpaceOnUse" color-interpolation-filters="sRGB">
<feFlood flood-opacity="0" result="BackgroundImageFix"/>
<feBlend mode="normal" in="SourceGraphic" in2="BackgroundImageFix" result="shape"/>
<feColorMatrix in="SourceAlpha" type="matrix" values="0 0 0 0 0 0 0 0 0 0 0 0 0 0 0 0 0 0 127 0" result="hardAlpha"/>
<feOffset/>
<feGaussianBlur stdDeviation="1.45621"/>
<feComposite in2="hardAlpha" operator="arithmetic" k2="-1" k3="1"/>
<feColorMatrix type="matrix" values="0 0 0 0 0 0 0 0 0 0 0 0 0 0 0 0 0 0 0.16 0"/>
<feBlend mode="normal" in2="shape" result="effect1_innerShadow_86_1759"/>
</filter>
<linearGradient id="paint0_linear_86_1759" x1="56365.1" y1="198.642" x2="79775.1" y2="198.642" gradientUnits="userSpaceOnUse">
<stop stop-color="#44EEFA"/>
<stop offset="0.99" stop-color="#8F68FF"/>
</linearGradient>
<linearGradient id="paint1_linear_86_1759" x1="25114.3" y1="437.629" x2="30159.6" y2="437.629" gradientUnits="userSpaceOnUse">
<stop stop-color="#44EEFA"/>
<stop offset="0.99" stop-color="#8F68FF"/>
</linearGradient>
</defs>
</svg>
