<svg width="164" height="39" viewBox="0 0 164 39" fill="none" xmlns="http://www.w3.org/2000/svg">
<path opacity="0.3" d="M154.254 22.4861L158.982 10.5211L54.0948 10.4246L50.7176 4.24906L15.2084 4.15256L5.07666 29.6265L8.06796 34.5476L137.078 34.7406L154.254 22.4861Z" fill="#1B252F"/>
<path d="M53.9983 10.3281L50.7176 4.24906L15.2084 4.15256L5.07666 29.6265L8.06796 34.5476L44.349 34.6441L53.9983 10.3281Z" fill="#134869"/>
<path fill-rule="evenodd" clip-rule="evenodd" d="M137.657 38.0214H137.464L4.59419 37.9249L0.92749 31.7494V31.5564L13.182 0.871876H53.4193L56.7 7.04738L163.71 7.14388L156.859 24.3195L137.657 38.0214ZM5.07665 36.96L137.368 37.153L156.184 23.7406L162.359 8.0123L56.2176 7.9158L52.9369 1.7403H13.8575L1.89241 31.6529L5.07665 36.96Z" fill="#65F2FC"/>
<path d="M69.5341 0.292847L72.3323 5.31046H76.0955L73.2972 0.292847H69.5341ZM62.7796 0.292847L65.5778 5.31046H69.3411L66.4463 0.292847H62.7796ZM56.0251 0.292847L58.9199 5.31046H62.5866L59.7883 0.292847H56.0251ZM89.8939 0.292847L92.6922 5.31046H96.4554L93.6571 0.292847H89.8939ZM76.2885 0.292847L79.1833 5.31046H82.9465L80.0517 0.292847H76.2885ZM83.043 0.292847L85.9378 5.31046H89.7009L86.8062 0.292847H83.043ZM103.403 0.389345L106.201 5.31046H109.964L107.166 0.389345H103.403ZM110.157 0.389345L112.956 5.31046L116.719 5.40696L113.921 0.389345H110.157ZM96.5519 0.389345L99.4467 5.31046H103.113L100.315 0.389345H96.5519ZM116.912 0.389345L119.71 5.40696H123.473L120.675 0.389345H116.912ZM130.421 0.389345L133.219 5.40696H136.982L134.184 0.389345H130.421ZM123.57 0.389345L126.465 5.40696H130.228L127.333 0.389345H123.57ZM150.684 0.389345L153.579 5.40696H157.246L154.447 0.389345H150.684ZM143.93 0.389345L146.728 5.40696H150.491L147.693 0.389345H143.93ZM137.079 0.389345L139.973 5.40696H143.64L140.842 0.389345H137.079ZM157.439 0.485843L160.237 5.40696H164L161.202 0.485843H157.439Z" fill="#65F2FC"/>
<path d="M155.701 28.4688L151.648 38.504H141.613L155.701 28.4688Z" fill="#65F2FC"/>
<path d="M29.2966 16.986C28.4282 16.986 27.7527 17.6614 27.7527 18.6263L27.6562 25.2843C27.6562 26.1527 28.4282 26.9247 29.2966 26.9247C30.1651 26.9247 30.937 26.1527 30.937 25.2843V18.6263C30.937 17.7579 30.1651 16.986 29.2966 16.986ZM29.2966 15.4421C30.1651 15.4421 30.8405 14.6701 30.8405 13.8017C30.8405 12.9333 30.1651 12.2578 29.2966 12.2578C28.4282 12.2578 27.7527 12.9333 27.7527 13.8017C27.7527 14.6701 28.4282 15.4421 29.2966 15.4421Z" fill="white"/>
<path fill-rule="evenodd" clip-rule="evenodd" d="M29.2958 30.3023C26.401 30.3023 23.6992 29.2409 21.6728 27.118C19.6465 25.0917 18.5851 22.3899 18.5851 19.5916C18.5851 13.6091 23.4097 8.78451 29.2958 8.78451C32.1905 8.78451 34.8923 9.9424 36.9186 11.9687C38.945 13.9951 40.1029 16.6969 40.1029 19.5916C40.1029 22.4864 38.945 25.1882 36.9186 27.2145C34.8923 29.2408 32.1905 30.3023 29.2958 30.3023ZM29.2958 9.9424C23.9887 9.9424 19.6465 14.1881 19.6465 19.5916C19.6465 22.1004 20.6114 24.6092 22.4448 26.3461C24.2781 28.1794 26.6905 29.2409 29.2958 29.2409C31.9011 29.2409 34.3133 28.1794 36.1467 26.4426C37.98 24.6092 38.945 22.1969 38.945 19.5916C38.945 16.9863 37.98 14.574 36.1467 12.7407C34.3133 10.9073 31.9011 9.9424 29.2958 9.9424Z" fill="white"/>
<g filter="url(#filter0_i_19_4633)">
<path d="M65.5243 26.1762C64.7218 26.1762 64.0221 26.0098 63.4251 25.677C62.8379 25.3443 62.3829 24.8599 62.0599 24.2238C61.737 23.5877 61.5804 22.8145 61.5902 21.9044C61.6097 20.9845 61.7908 20.2016 62.1333 19.5557C62.4758 18.9097 62.9554 18.4204 63.5719 18.0877C64.1982 17.755 64.9176 17.5886 65.7298 17.5886C66.8161 17.5886 67.6724 17.8332 68.2988 18.3226C68.9251 18.8021 69.3312 19.5067 69.5172 20.4364L68.3428 20.5979C68.2449 20.1477 68.0688 19.7856 67.8143 19.5116C67.5599 19.2376 67.2516 19.0419 66.8895 18.9244C66.5372 18.7972 66.1506 18.7336 65.7298 18.7336C64.7414 18.7336 64.0025 19.0174 63.5132 19.585C63.0239 20.1428 62.7792 20.8915 62.7792 21.831C62.7792 22.839 63.0435 23.6219 63.5719 24.1797C64.1102 24.7278 64.8637 25.0018 65.8326 25.0018C66.273 25.0018 66.6791 24.9284 67.051 24.7816C67.4229 24.625 67.736 24.395 67.9905 24.0917C68.2449 23.7785 68.4064 23.3919 68.4749 22.932H66.4344V22.0071H69.6786V26H68.8419L68.563 24.3706H68.5336C68.4651 24.5565 68.3526 24.7571 68.196 24.9724C68.0492 25.1779 67.8535 25.3737 67.6088 25.5596C67.3642 25.7358 67.0657 25.8826 66.7134 26C66.3708 26.1174 65.9745 26.1762 65.5243 26.1762ZM74.3499 26.1468C73.6746 26.1468 73.1217 26 72.6911 25.7064C72.2605 25.403 71.9424 25.0165 71.7369 24.5467C71.5314 24.0672 71.4286 23.573 71.4286 23.0641C71.4188 22.4867 71.5265 21.9631 71.7516 21.4934C71.9864 21.0236 72.3192 20.6517 72.7498 20.3777C73.1902 20.1037 73.7137 19.9667 74.3205 19.9667C74.849 19.9667 75.3187 20.0841 75.7297 20.319C76.1408 20.5441 76.4686 20.867 76.7133 21.2878C76.9579 21.6989 77.09 22.1882 77.1096 22.7558C77.1194 22.7852 77.1243 22.8439 77.1243 22.932C77.1243 23.0103 77.1243 23.0788 77.1243 23.1375H72.5883C72.5883 23.7638 72.74 24.2531 73.0434 24.6054C73.3565 24.948 73.7871 25.1192 74.3352 25.1192C74.7462 25.1192 75.0936 25.0165 75.3774 24.811C75.671 24.5957 75.8521 24.3118 75.9206 23.9595H77.1096C77.0509 24.3706 76.9041 24.7424 76.6692 25.0752C76.4344 25.4079 76.1212 25.6722 75.7297 25.8679C75.3383 26.0538 74.8783 26.1468 74.3499 26.1468ZM72.6323 22.5356H75.8912C75.8814 22.428 75.8521 22.2861 75.8031 22.1099C75.764 21.9337 75.6857 21.7625 75.5683 21.5961C75.4508 21.42 75.2893 21.2732 75.0838 21.1557C74.8783 21.0383 74.6141 20.9796 74.2911 20.9796C73.9975 20.9796 73.748 21.0285 73.5425 21.1264C73.337 21.2242 73.1706 21.3563 73.0434 21.5227C72.9161 21.6793 72.8183 21.8506 72.7498 22.0365C72.6911 22.2127 72.6519 22.379 72.6323 22.5356ZM80.7653 26C80.3543 26 80.0509 25.8923 79.8552 25.677C79.6594 25.4617 79.5616 25.1339 79.5616 24.6935V20.73H80.7213V25.0311H82.1158V26H80.7653ZM78.6368 20.8768V19.996C78.8618 19.996 79.0429 19.9814 79.1799 19.952C79.3267 19.9226 79.4343 19.8639 79.5029 19.7758C79.5811 19.678 79.635 19.5263 79.6643 19.3208C79.6937 19.1055 79.7084 18.8168 79.7084 18.4547H80.7213V19.996H82.1011V20.8768H78.6368ZM91.563 26.1762C91.1128 26.1762 90.6773 26.1223 90.2565 26.0147C89.8357 25.907 89.454 25.7407 89.1115 25.5156C88.7689 25.2905 88.4949 25.0018 88.2894 24.6495C88.0839 24.2874 87.9762 23.8568 87.9665 23.3577H89.1995C89.1995 23.387 89.2093 23.4653 89.2289 23.5925C89.2485 23.7198 89.2974 23.8666 89.3757 24.0329C89.4638 24.1993 89.591 24.3608 89.7574 24.5174C89.9335 24.6739 90.1733 24.8061 90.4767 24.9137C90.7898 25.0116 91.1813 25.0605 91.651 25.0605C92.0131 25.0605 92.3165 25.0214 92.5612 24.9431C92.8058 24.8648 93.0016 24.762 93.1484 24.6348C93.2952 24.5076 93.3979 24.3755 93.4566 24.2384C93.5251 24.1014 93.5594 23.9791 93.5594 23.8715C93.5594 23.5681 93.4615 23.3234 93.2658 23.1375C93.0798 22.9515 92.8254 22.8047 92.5025 22.6971C92.1795 22.5797 91.8223 22.4769 91.4308 22.3888C91.0492 22.291 90.6675 22.1882 90.2858 22.0805C89.9042 21.9631 89.5518 21.8114 89.2289 21.6255C88.9157 21.4395 88.6711 21.1998 88.4949 20.9062C88.3188 20.6028 88.2405 20.2162 88.26 19.7465C88.2894 19.2963 88.446 18.9097 88.7298 18.5868C89.0136 18.2638 89.4002 18.0192 89.8895 17.8528C90.3886 17.6767 90.9562 17.5886 91.5923 17.5886C92.1697 17.5886 92.6982 17.6913 93.1777 17.8969C93.667 18.1024 94.0585 18.4106 94.3521 18.8217C94.6555 19.2229 94.8023 19.7367 94.7925 20.363H93.6034C93.6132 20.0205 93.5447 19.7465 93.3979 19.541C93.2511 19.3257 93.0603 19.1593 92.8254 19.0419C92.6003 18.9244 92.3654 18.8461 92.1208 18.807C91.8761 18.7581 91.6559 18.7336 91.4602 18.7336C90.9122 18.7336 90.4571 18.8363 90.095 19.0419C89.7427 19.2376 89.5616 19.5165 89.5518 19.8786C89.5421 20.1918 89.635 20.4413 89.8308 20.6273C90.0265 20.8132 90.2858 20.96 90.6088 21.0677C90.9317 21.1753 91.2889 21.2732 91.6804 21.3612C92.0718 21.4493 92.4584 21.5472 92.8401 21.6548C93.2218 21.7625 93.5692 21.9093 93.8823 22.0952C94.2053 22.2714 94.4548 22.5111 94.631 22.8145C94.8169 23.1179 94.9001 23.5094 94.8805 23.9889C94.861 24.4489 94.7044 24.8403 94.4108 25.1633C94.1172 25.4862 93.7258 25.7358 93.2364 25.9119C92.7471 26.0881 92.1893 26.1762 91.563 26.1762ZM98.507 26C98.096 26 97.7926 25.8923 97.5968 25.677C97.4011 25.4617 97.3033 25.1339 97.3033 24.6935V20.73H98.4629V25.0311H99.8575V26H98.507ZM96.3784 20.8768V19.996C96.6035 19.996 96.7846 19.9814 96.9216 19.952C97.0684 19.9226 97.176 19.8639 97.2445 19.7758C97.3228 19.678 97.3767 19.5263 97.406 19.3208C97.4354 19.1055 97.4501 18.8168 97.4501 18.4547H98.4629V19.996H99.8428V20.8768H96.3784ZM103.865 26.1321C103.317 26.1321 102.867 26 102.515 25.7358C102.172 25.4715 101.918 25.1094 101.751 24.6495C101.595 24.1895 101.517 23.661 101.517 23.0641C101.517 22.4475 101.6 21.9093 101.766 21.4493C101.932 20.9796 102.187 20.6126 102.529 20.3483C102.882 20.0841 103.327 19.952 103.865 19.952C104.198 19.952 104.482 20.0009 104.717 20.0988C104.952 20.1869 105.147 20.2994 105.304 20.4364C105.46 20.5734 105.588 20.7153 105.686 20.8621C105.783 20.9991 105.852 21.1215 105.891 21.2291H105.92V19.996H107.168V26H106.126L105.92 24.9284H105.891C105.852 25.036 105.783 25.1584 105.686 25.2954C105.588 25.4324 105.456 25.5645 105.289 25.6917C105.133 25.819 104.937 25.9217 104.702 26C104.467 26.0881 104.188 26.1321 103.865 26.1321ZM104.35 25.0899C104.741 25.0899 105.049 25.0067 105.275 24.8403C105.5 24.6642 105.661 24.4244 105.759 24.121C105.857 23.8176 105.906 23.4702 105.906 23.0788C105.906 22.6579 105.852 22.2958 105.744 21.9925C105.646 21.6891 105.485 21.4591 105.26 21.3025C105.035 21.1362 104.731 21.053 104.35 21.053C103.948 21.053 103.626 21.1459 103.381 21.3319C103.146 21.508 102.975 21.7478 102.867 22.0512C102.769 22.3546 102.72 22.6922 102.72 23.0641C102.72 23.4457 102.769 23.7932 102.867 24.1063C102.975 24.4097 103.146 24.6495 103.381 24.8256C103.626 25.0018 103.948 25.0899 104.35 25.0899ZM109.083 26V19.996H110.213L110.316 21.7282L110.301 23.02V26H109.083ZM110.301 23.299L110.257 21.9778C110.267 21.7625 110.316 21.5423 110.404 21.3172C110.492 21.0823 110.624 20.867 110.8 20.6713C110.986 20.4658 111.221 20.3043 111.505 20.1869C111.799 20.0597 112.151 19.996 112.562 19.996H112.811V21.3466H112.547C112.107 21.3466 111.74 21.3906 111.446 21.4787C111.153 21.557 110.923 21.6793 110.756 21.8457C110.59 22.012 110.473 22.2176 110.404 22.4622C110.336 22.7069 110.301 22.9858 110.301 23.299ZM116.449 26C116.038 26 115.735 25.8923 115.539 25.677C115.344 25.4617 115.246 25.1339 115.246 24.6935V20.73H116.405V25.0311H117.8V26H116.449ZM114.321 20.8768V19.996C114.546 19.996 114.727 19.9814 114.864 19.952C115.011 19.9226 115.118 19.8639 115.187 19.7758C115.265 19.678 115.319 19.5263 115.348 19.3208C115.378 19.1055 115.392 18.8168 115.392 18.4547H116.405V19.996H117.785V20.8768H114.321ZM122.34 26.1468C121.664 26.1468 121.111 26 120.681 25.7064C120.25 25.403 119.932 25.0165 119.727 24.5467C119.521 24.0672 119.418 23.573 119.418 23.0641C119.409 22.4867 119.516 21.9631 119.741 21.4934C119.976 21.0236 120.309 20.6517 120.739 20.3777C121.18 20.1037 121.703 19.9667 122.31 19.9667C122.839 19.9667 123.308 20.0841 123.719 20.319C124.13 20.5441 124.458 20.867 124.703 21.2878C124.948 21.6989 125.08 22.1882 125.099 22.7558C125.109 22.7852 125.114 22.8439 125.114 22.932C125.114 23.0103 125.114 23.0788 125.114 23.1375H120.578C120.578 23.7638 120.73 24.2531 121.033 24.6054C121.346 24.948 121.777 25.1192 122.325 25.1192C122.736 25.1192 123.083 25.0165 123.367 24.811C123.661 24.5957 123.842 24.3118 123.91 23.9595H125.099C125.041 24.3706 124.894 24.7424 124.659 25.0752C124.424 25.4079 124.111 25.6722 123.719 25.8679C123.328 26.0538 122.868 26.1468 122.34 26.1468ZM120.622 22.5356H123.881C123.871 22.428 123.842 22.2861 123.793 22.1099C123.754 21.9337 123.675 21.7625 123.558 21.5961C123.441 21.42 123.279 21.2732 123.074 21.1557C122.868 21.0383 122.604 20.9796 122.281 20.9796C121.987 20.9796 121.738 21.0285 121.532 21.1264C121.327 21.2242 121.16 21.3563 121.033 21.5227C120.906 21.6793 120.808 21.8506 120.739 22.0365C120.681 22.2127 120.642 22.379 120.622 22.5356ZM129.665 26.1468C129.078 26.1468 128.594 26.0147 128.212 25.7504C127.84 25.4862 127.561 25.1241 127.375 24.6642C127.199 24.2042 127.111 23.6806 127.111 23.0934C127.111 22.4769 127.204 21.9386 127.39 21.4787C127.576 21.0089 127.855 20.6468 128.227 20.3924C128.608 20.1282 129.088 19.996 129.665 19.996C130.057 19.996 130.384 20.0597 130.649 20.1869C130.923 20.3141 131.138 20.4658 131.295 20.6419C131.451 20.8181 131.564 20.9796 131.632 21.1264C131.711 21.2732 131.755 21.3661 131.764 21.4053H131.794V17.7354H133.056V26H131.999L131.808 24.7963H131.779C131.759 24.8354 131.711 24.9284 131.632 25.0752C131.554 25.2122 131.432 25.3639 131.265 25.5303C131.099 25.6966 130.884 25.8434 130.619 25.9706C130.355 26.0881 130.037 26.1468 129.665 26.1468ZM130.017 25.0899C130.399 25.0899 130.722 25.0067 130.986 24.8403C131.251 24.6739 131.446 24.4391 131.574 24.1357C131.711 23.8323 131.779 23.48 131.779 23.0788C131.779 22.6873 131.715 22.3399 131.588 22.0365C131.461 21.7331 131.27 21.5031 131.016 21.3466C130.771 21.1802 130.458 21.097 130.076 21.097C129.646 21.097 129.298 21.19 129.034 21.3759C128.779 21.5619 128.594 21.8065 128.476 22.1099C128.368 22.4133 128.315 22.7362 128.315 23.0788C128.315 23.4213 128.364 23.7491 128.461 24.0623C128.569 24.3657 128.745 24.6152 128.99 24.811C129.244 24.9969 129.587 25.0899 130.017 25.0899Z" fill="#CAFAFF"/>
</g>
<defs>
<filter id="filter0_i_19_4633" x="61.5754" y="17.5886" width="71.4807" height="8.58757" filterUnits="userSpaceOnUse" color-interpolation-filters="sRGB">
<feFlood flood-opacity="0" result="BackgroundImageFix"/>
<feBlend mode="normal" in="SourceGraphic" in2="BackgroundImageFix" result="shape"/>
<feColorMatrix in="SourceAlpha" type="matrix" values="0 0 0 0 0 0 0 0 0 0 0 0 0 0 0 0 0 0 127 0" result="hardAlpha"/>
<feOffset/>
<feGaussianBlur stdDeviation="0.855492"/>
<feComposite in2="hardAlpha" operator="arithmetic" k2="-1" k3="1"/>
<feColorMatrix type="matrix" values="0 0 0 0 0 0 0 0 0 0 0 0 0 0 0 0 0 0 0.16 0"/>
<feBlend mode="normal" in2="shape" result="effect1_innerShadow_19_4633"/>
</filter>
</defs>
</svg>
