<svg width="177" height="50" viewBox="0 0 177 50" fill="none" xmlns="http://www.w3.org/2000/svg">
<path d="M169.804 24.7221L155.797 48.9711H132.673L128.295 44.582H105.888L101.51 48.9711H14.4837L0.476562 24.7221L14.4837 0.473145H37.1844L41.9857 5.27176H64.3792L69.1806 0.473145H155.797L159.689 7.21679L169.804 24.7221Z" stroke="#56EF81" stroke-width="0.505967" stroke-miterlimit="10"/>
<path d="M155.675 0.473145H162.448L166.34 7.21679L176.455 24.7221L162.448 48.9711H139.325L134.946 44.582H112.54L108.161 48.9711H21.1348L7.12769 24.7221L21.1348 0.473145H43.8355L48.6369 5.27176H71.0431L75.8445 0.473145H155.675Z" stroke="#56EF81" stroke-width="0.505967" stroke-miterlimit="10"/>
<path d="M155.947 7.1243H149.26L145.416 0.473145H152.104L155.947 7.1243Z" fill="#56EF81"/>
<path d="M145.416 7.1243H138.548L134.608 0.473145H141.464L145.416 7.1243Z" fill="#56EF81"/>
<path d="M43.4319 48.9712H36.7521L32.9009 42.3201H39.5806L43.4319 48.9712Z" fill="#56EF81"/>
<path d="M32.9009 48.9712H26.0371L22.0928 42.3201H28.9565L32.9009 48.9712Z" fill="#56EF81"/>
<path d="M41.801 18.1534H43.6654L48.0491 28.8608H48.2002L52.584 18.1534H54.4483V31.0526H52.9871V21.2522H52.8611L48.8301 31.0526H47.4192L43.3882 21.2522H43.2623V31.0526H41.801V18.1534ZM58.462 31.1534C58.1513 31.1534 57.8846 31.0421 57.6621 30.8196C57.4395 30.597 57.3283 30.3304 57.3283 30.0197C57.3283 29.7089 57.4395 29.4423 57.6621 29.2198C57.8846 28.9972 58.1513 28.8859 58.462 28.8859C58.7727 28.8859 59.0393 28.9972 59.2619 29.2198C59.4844 29.4423 59.5957 29.7089 59.5957 30.0197C59.5957 30.2254 59.5432 30.4144 59.4382 30.5865C59.3375 30.7587 59.201 30.8973 59.0288 31.0022C58.8609 31.103 58.6719 31.1534 58.462 31.1534ZM69.5189 21.3782C69.4433 20.74 69.1368 20.2445 68.5993 19.8918C68.0618 19.5391 67.4026 19.3627 66.6216 19.3627C66.0505 19.3627 65.5509 19.4551 65.1226 19.6398C64.6985 19.8246 64.3668 20.0786 64.1274 20.402C63.8923 20.7253 63.7747 21.0927 63.7747 21.5042C63.7747 21.8485 63.8566 22.1445 64.0203 22.3923C64.1883 22.6358 64.4025 22.8394 64.6628 23.0032C64.9231 23.1628 65.1961 23.295 65.4816 23.4C65.7671 23.5008 66.0296 23.5827 66.2689 23.6456L67.579 23.9984C67.9149 24.0865 68.2886 24.2083 68.7001 24.3637C69.1158 24.519 69.5126 24.7311 69.8905 24.9998C70.2726 25.2643 70.5875 25.6045 70.8353 26.0202C71.083 26.4359 71.2069 26.946 71.2069 27.5507C71.2069 28.2477 71.0242 28.8776 70.6589 29.4402C70.2978 30.0029 69.7687 30.4501 69.0717 30.7818C68.3789 31.1135 67.537 31.2794 66.546 31.2794C65.6223 31.2794 64.8223 31.1303 64.1463 30.8322C63.4745 30.534 62.9454 30.1183 62.5591 29.5851C62.177 29.0518 61.9608 28.4325 61.9104 27.727H63.5228C63.5648 28.2141 63.7285 28.6172 64.014 28.9363C64.3038 29.2513 64.6691 29.4864 65.11 29.6418C65.5551 29.7929 66.0337 29.8685 66.546 29.8685C67.1423 29.8685 67.6776 29.7719 68.1521 29.5788C68.6266 29.3814 69.0024 29.1085 69.2795 28.76C69.5567 28.4073 69.6952 27.9958 69.6952 27.5255C69.6952 27.0972 69.5756 26.7487 69.3362 26.4799C69.0969 26.2112 68.782 25.9929 68.3915 25.8249C68.001 25.6569 67.579 25.51 67.1255 25.384L65.5383 24.9305C64.5305 24.6408 63.7327 24.2272 63.1449 23.6897C62.557 23.1523 62.2631 22.4489 62.2631 21.5798C62.2631 20.8575 62.4583 20.2277 62.8488 19.6902C63.2435 19.1486 63.7726 18.7287 64.436 18.4305C65.1037 18.1282 65.849 17.9771 66.672 17.9771C67.5034 17.9771 68.2424 18.1261 68.889 18.4242C69.5357 18.7182 70.048 19.1213 70.4259 19.6335C70.808 20.1458 71.0095 20.7274 71.0305 21.3782H69.5189ZM74.6568 31.1534C74.3461 31.1534 74.0795 31.0421 73.8569 30.8196C73.6344 30.597 73.5231 30.3304 73.5231 30.0197C73.5231 29.7089 73.6344 29.4423 73.8569 29.2198C74.0795 28.9972 74.3461 28.8859 74.6568 28.8859C74.9676 28.8859 75.2342 28.9972 75.4567 29.2198C75.6793 29.4423 75.7906 29.7089 75.7906 30.0197C75.7906 30.2254 75.7381 30.4144 75.6331 30.5865C75.5323 30.7587 75.3959 30.8973 75.2237 31.0022C75.0557 31.103 74.8668 31.1534 74.6568 31.1534ZM83.4463 31.0526V21.3782H84.9327V31.0526H83.4463ZM84.2021 19.7658C83.9124 19.7658 83.6626 19.6671 83.4526 19.4698C83.2469 19.2724 83.144 19.0352 83.144 18.7581C83.144 18.4809 83.2469 18.2437 83.4526 18.0463C83.6626 17.849 83.9124 17.7503 84.2021 17.7503C84.4919 17.7503 84.7396 17.849 84.9453 18.0463C85.1553 18.2437 85.2603 18.4809 85.2603 18.7581C85.2603 19.0352 85.1553 19.2724 84.9453 19.4698C84.7396 19.6671 84.4919 19.7658 84.2021 19.7658ZM89.1417 25.2329V31.0526H87.6552V21.3782H89.0913V22.8898H89.2173C89.444 22.3986 89.7883 22.0039 90.2502 21.7057C90.7121 21.4034 91.3083 21.2522 92.039 21.2522C92.694 21.2522 93.2672 21.3866 93.7584 21.6553C94.2497 21.9199 94.6318 22.323 94.9047 22.8646C95.1777 23.4021 95.3141 24.0823 95.3141 24.9053V31.0526H93.8277V25.0061C93.8277 24.2461 93.6304 23.654 93.2357 23.2299C92.841 22.8017 92.2993 22.5875 91.6107 22.5875C91.1362 22.5875 90.7121 22.6904 90.3384 22.8961C89.9689 23.1019 89.677 23.4021 89.4629 23.7968C89.2487 24.1915 89.1417 24.6702 89.1417 25.2329ZM103.22 31.0526V18.1534H111.005V19.5391H104.782V23.8976H110.602V25.2832H104.782V29.667H111.106V31.0526H103.22ZM124.2 22.1844H122.638C122.546 21.7351 122.384 21.3404 122.153 21.0003C121.927 20.6602 121.649 20.3747 121.322 20.1437C120.999 19.9086 120.64 19.7322 120.245 19.6146C119.85 19.4971 119.439 19.4383 119.01 19.4383C118.229 19.4383 117.522 19.6356 116.888 20.0303C116.258 20.425 115.756 21.0066 115.383 21.775C115.013 22.5434 114.828 23.4861 114.828 24.603C114.828 25.7199 115.013 26.6626 115.383 27.431C115.756 28.1994 116.258 28.781 116.888 29.1757C117.522 29.5704 118.229 29.7677 119.01 29.7677C119.439 29.7677 119.85 29.7089 120.245 29.5914C120.64 29.4738 120.999 29.2995 121.322 29.0686C121.649 28.8335 121.927 28.5458 122.153 28.2057C122.384 27.8614 122.546 27.4667 122.638 27.0216H124.2C124.083 27.6808 123.869 28.2708 123.558 28.7915C123.247 29.3121 122.861 29.7551 122.399 30.1204C121.937 30.4816 121.419 30.7566 120.843 30.9455C120.272 31.1345 119.661 31.229 119.01 31.229C117.91 31.229 116.932 30.9602 116.075 30.4228C115.219 29.8853 114.545 29.1211 114.054 28.1301C113.562 27.1392 113.317 25.9635 113.317 24.603C113.317 23.2425 113.562 22.0668 114.054 21.0759C114.545 20.0849 115.219 19.3207 116.075 18.7833C116.932 18.2458 117.91 17.9771 119.01 17.9771C119.661 17.9771 120.272 18.0715 120.843 18.2605C121.419 18.4494 121.937 18.7266 122.399 19.0919C122.861 19.453 123.247 19.8939 123.558 20.4145C123.869 20.931 124.083 21.521 124.2 22.1844ZM126.724 31.0526V18.1534H134.509V19.5391H128.286V23.8976H134.106V25.2832H128.286V29.667H134.61V31.0526H126.724Z" fill="#CAFAFF"/>
</svg>
