<svg width="318" height="90" viewBox="0 0 318 90" fill="none" xmlns="http://www.w3.org/2000/svg">
<path opacity="0.6" d="M315.499 86.7186V11.5229V11.2705L315.331 11.1023L307.761 4.37337L307.593 4.20514H307.341H289.929H289.677L289.509 4.37337L281.939 10.9341H200.098L189.752 4.37337L189.584 4.20514H189.332H15.7256H15.4734L15.305 4.37337L4.87526 12.6163L4.62268 12.7845V13.121V70.2327V70.9056H5.29582H58.1177L71.2392 87.055L71.4914 87.3074H71.744H314.911H315.499V86.7186Z" fill="#65F2FC"/>
<path opacity="0.5" d="M317.606 86.8868V68.971H313.4V85.4569H72.5046L59.1309 68.971H6.72914H2.52356V73.0925H57.1123L70.486 89.5784H317.606V86.8868ZM317.606 13.2051V10.5977C314.578 7.85001 311.522 5.10232 308.438 2.35468H288.923C286.344 4.59765 283.765 6.84063 281.185 9.0836H200.691C197.214 6.84063 193.709 4.59765 190.177 2.35468H14.8039C10.7105 5.60699 6.61699 8.83127 2.52356 12.0275V13.2051H7.82283L16.234 6.47616H188.915L199.429 13.2051H242.999C256.232 13.2051 269.494 13.2051 282.783 13.2051L290.438 6.47616H306.839L313.4 12.364V13.2051H317.606Z" fill="#65F2FC"/>
<path d="M307.766 13.2063H317.606V19.01H307.766V13.2063Z" fill="#65F2FC"/>
<path d="M307.766 63.1681H317.606V68.9718H307.766V63.1681Z" fill="#65F2FC"/>
<path opacity="0.5" d="M317.101 86.8031V68.4668H312.811V85.2891H70.4016L56.9437 68.4668H4.28977H0V72.6724H54.9251L68.383 89.5788H317.101V86.8031ZM317.101 11.1027V8.41116C314.017 5.60744 310.905 2.80372 307.765 0H288.166C285.587 2.29905 282.98 4.57009 280.344 6.81307L199.429 6.89716C195.896 4.59811 192.363 2.29905 188.83 0H12.3646C8.27114 3.30839 4.1495 6.61677 0 9.92515V11.1027H5.29928L13.7946 4.20558H187.569L198.167 11.1027H241.989C255.335 11.1027 268.681 11.1027 282.026 11.1027L289.764 4.20558H306.166L312.811 10.2616V11.1027H317.101Z" fill="#65F2FC"/>
<g filter="url(#filter0_i_19_5951)">
<path d="M39.3912 52.5708H37.8012C34.2407 52.5708 31.115 52.2174 28.4243 51.5108C25.7607 50.8041 23.6814 49.9344 22.1866 48.9015C20.6917 47.8415 19.4822 46.5913 18.5581 45.1508C17.634 43.7103 17.036 42.3785 16.7643 41.1554C16.4925 39.9323 16.3566 38.6549 16.3566 37.3231V36.1408C16.3566 34.7818 16.4789 33.5044 16.7235 32.3085C16.9953 31.1126 17.5796 29.8079 18.4766 28.3946C19.3735 26.9541 20.5558 25.731 22.0235 24.7254C23.5184 23.6926 25.6112 22.8364 28.3019 22.1569C31.0199 21.4503 34.1863 21.0969 37.8012 21.0969H39.3912C41.9189 21.0969 44.2291 21.26 46.3219 21.5862C48.4419 21.9123 50.2086 22.3336 51.6219 22.85C53.0625 23.3664 54.3263 23.9915 55.4135 24.7254C56.5278 25.4321 57.3976 26.1523 58.0227 26.8862C58.6478 27.62 59.1507 28.4082 59.5312 29.2508C59.9389 30.0662 60.1971 30.8 60.3058 31.4523C60.4417 32.1046 60.5096 32.7433 60.5096 33.3685V33.8985H48.4827C47.5586 30.8 44.2291 29.2508 38.4943 29.2508C31.7266 29.2508 28.3427 31.6154 28.3427 36.3446V36.8338C28.3427 37.7308 28.4922 38.5869 28.7912 39.4023C29.1173 40.2177 29.6337 41.0195 30.3404 41.8077C31.0743 42.5959 32.1343 43.221 33.5204 43.6831C34.9337 44.1451 36.6053 44.3762 38.535 44.3762C40.2202 44.3762 41.7014 44.2267 42.9789 43.9277C44.2563 43.6015 45.2212 43.2482 45.8735 42.8677C46.5258 42.4872 47.0694 42.0115 47.5043 41.4408C47.9391 40.87 48.1973 40.4623 48.2789 40.2177C48.3604 39.9731 48.4419 39.7013 48.5235 39.4023H60.5096V40.0546C60.5096 40.9787 60.3737 41.93 60.1019 42.9085C59.8302 43.8597 59.2322 44.9469 58.3081 46.17C57.384 47.3659 56.1881 48.4259 54.7204 49.35C53.2799 50.2469 51.2278 51.0079 48.5643 51.6331C45.9278 52.2582 42.8702 52.5708 39.3912 52.5708ZM65.3194 52V21.6677H81.2194L90.5148 38.7092L99.9733 21.6677H115.221V52H103.765V33.0831L93.1241 52H87.2125L76.6125 33.0831V52H65.3194ZM132.764 52H121.186V21.6677H132.764V33.6538L147.686 21.6677H162.078L144.424 35.4477L162.648 52H147.564L132.764 38.4238V52ZM165.865 21.6677H177.443V43.3162H198.48V52H165.865V21.6677Z" fill="#2C6469"/>
</g>
<g filter="url(#filter1_i_19_5951)">
<path d="M84.9193 62.0913H85.9338C87.4218 62.0913 88.7745 62.1965 89.9919 62.4069C91.2243 62.6023 92.2539 62.8653 93.0805 63.196C93.9222 63.5116 94.6512 63.9099 95.2674 64.3909C95.8986 64.8568 96.3946 65.3303 96.7553 65.8112C97.1161 66.2922 97.4016 66.8182 97.612 67.3894C97.8375 67.9605 97.9803 68.479 98.0404 68.9449C98.1155 69.4109 98.1531 69.8993 98.1531 70.4104V71.0867C98.1531 71.5977 98.1155 72.0862 98.0404 72.5521C97.9803 73.0181 97.8375 73.5441 97.612 74.1303C97.4016 74.7014 97.1161 75.235 96.7553 75.731C96.4097 76.2119 95.9212 76.6929 95.2899 77.1738C94.6587 77.6548 93.9297 78.0606 93.1031 78.3913C92.2764 78.7219 91.2469 78.9849 90.0144 79.1803C88.797 79.3907 87.4368 79.496 85.9338 79.496H84.9193C83.4163 79.496 82.0486 79.3907 80.8161 79.1803C79.5987 78.9849 78.5691 78.7219 77.7275 78.3913C76.9008 78.0606 76.1719 77.6548 75.5406 77.1738C74.9093 76.6929 74.4134 76.2119 74.0526 75.731C73.7069 75.235 73.4214 74.7014 73.1959 74.1303C72.9855 73.5441 72.8427 73.0181 72.7676 72.5521C72.7075 72.0862 72.6774 71.5977 72.6774 71.0867V70.4104C72.6774 69.8993 72.7075 69.4109 72.7676 68.9449C72.8427 68.479 72.9855 67.9605 73.1959 67.3894C73.4214 66.8182 73.7069 66.2922 74.0526 65.8112C74.4134 65.3303 74.9093 64.8568 75.5406 64.3909C76.1719 63.9099 76.9008 63.5116 77.7275 63.196C78.5691 62.8653 79.5987 62.6023 80.8161 62.4069C82.0486 62.1965 83.4163 62.0913 84.9193 62.0913ZM91.5249 70.8838V70.5682C91.5249 70.0722 91.4347 69.6138 91.2544 69.1929C91.074 68.7571 90.7659 68.3362 90.33 67.9304C89.9092 67.5246 89.278 67.2015 88.4363 66.961C87.5946 66.7205 86.5876 66.6003 85.4153 66.6003C84.2129 66.6003 83.1908 66.7205 82.3492 66.961C81.5075 67.2015 80.8762 67.5246 80.4554 67.9304C80.0345 68.3362 79.7339 68.7571 79.5536 69.1929C79.3883 69.6138 79.3056 70.0722 79.3056 70.5682V70.8387C79.3056 71.3347 79.3958 71.8081 79.5761 72.259C79.7565 72.6949 80.0571 73.1308 80.4779 73.5667C80.8988 73.9875 81.53 74.3257 82.3717 74.5812C83.2284 74.8367 84.2429 74.9644 85.4153 74.9644C86.5876 74.9644 87.5946 74.8442 88.4363 74.6037C89.293 74.3482 89.9318 74.01 90.3526 73.5892C90.7734 73.1684 91.074 72.74 91.2544 72.3041C91.4347 71.8532 91.5249 71.3798 91.5249 70.8838ZM114.854 73.9274H107.279V79.1803H100.876V62.4069H114.854C120.16 62.4069 122.812 64.2556 122.812 67.953V68.3137C122.812 72.0561 120.16 73.9274 114.854 73.9274ZM107.279 66.6003V69.734H114.087C115.5 69.734 116.207 69.223 116.207 68.201V68.1333C116.207 67.1113 115.5 66.6003 114.087 66.6003H107.279ZM125.385 62.4069H143.939V66.5101H131.697V68.6068H143.691V72.6874H131.697V74.987H144.12V79.1803H125.385V62.4069ZM147.098 62.4069H154.267L164.006 71.9434V62.4069H170.364V79.1803H163.961L153.455 69.0126V79.1803H147.098V62.4069ZM173.654 79.1803V62.4069H180.057V68.3362H190.54V62.4069H196.92V79.1803H190.54V72.8001H180.057V79.1803H173.654ZM211.888 62.0913H212.903C214.391 62.0913 215.744 62.1965 216.961 62.4069C218.193 62.6023 219.223 62.8653 220.05 63.196C220.891 63.5116 221.62 63.9099 222.236 64.3909C222.868 64.8568 223.364 65.3303 223.724 65.8112C224.085 66.2922 224.371 66.8182 224.581 67.3894C224.807 67.9605 224.949 68.479 225.01 68.9449C225.085 69.4109 225.122 69.8993 225.122 70.4104V71.0867C225.122 71.5977 225.085 72.0862 225.01 72.5521C224.949 73.0181 224.807 73.5441 224.581 74.1303C224.371 74.7014 224.085 75.235 223.724 75.731C223.379 76.2119 222.89 76.6929 222.259 77.1738C221.628 77.6548 220.899 78.0606 220.072 78.3913C219.246 78.7219 218.216 78.9849 216.984 79.1803C215.766 79.3907 214.406 79.496 212.903 79.496H211.888C210.385 79.496 209.018 79.3907 207.785 79.1803C206.568 78.9849 205.538 78.7219 204.697 78.3913C203.87 78.0606 203.141 77.6548 202.51 77.1738C201.878 76.6929 201.382 76.2119 201.022 75.731C200.676 75.235 200.39 74.7014 200.165 74.1303C199.955 73.5441 199.812 73.0181 199.737 72.5521C199.677 72.0862 199.647 71.5977 199.647 71.0867V70.4104C199.647 69.8993 199.677 69.4109 199.737 68.9449C199.812 68.479 199.955 67.9605 200.165 67.3894C200.39 66.8182 200.676 66.2922 201.022 65.8112C201.382 65.3303 201.878 64.8568 202.51 64.3909C203.141 63.9099 203.87 63.5116 204.697 63.196C205.538 62.8653 206.568 62.6023 207.785 62.4069C209.018 62.1965 210.385 62.0913 211.888 62.0913ZM218.494 70.8838V70.5682C218.494 70.0722 218.404 69.6138 218.224 69.1929C218.043 68.7571 217.735 68.3362 217.299 67.9304C216.878 67.5246 216.247 67.2015 215.405 66.961C214.564 66.7205 213.557 66.6003 212.384 66.6003C211.182 66.6003 210.16 66.7205 209.318 66.961C208.477 67.2015 207.845 67.5246 207.425 67.9304C207.004 68.3362 206.703 68.7571 206.523 69.1929C206.357 69.6138 206.275 70.0722 206.275 70.5682V70.8387C206.275 71.3347 206.365 71.8081 206.545 72.259C206.726 72.6949 207.026 73.1308 207.447 73.5667C207.868 73.9875 208.499 74.3257 209.341 74.5812C210.198 74.8367 211.212 74.9644 212.384 74.9644C213.557 74.9644 214.564 74.8442 215.405 74.6037C216.262 74.3482 216.901 74.01 217.322 73.5892C217.743 73.1684 218.043 72.74 218.224 72.3041C218.404 71.8532 218.494 71.3798 218.494 70.8838ZM227.665 70.4104V62.4069H234.09V69.9144C234.09 70.4855 234.165 71.0191 234.316 71.5151C234.466 71.996 234.714 72.4695 235.06 72.9354C235.405 73.3863 235.931 73.747 236.638 74.0175C237.359 74.2881 238.223 74.4234 239.23 74.4234C240.222 74.4234 241.072 74.2881 241.778 74.0175C242.484 73.747 243.01 73.3863 243.356 72.9354C243.717 72.4695 243.972 71.996 244.123 71.5151C244.273 71.0191 244.348 70.4855 244.348 69.9144V62.4069H250.751V70.4104C250.751 71.1619 250.676 71.8983 250.525 72.6198C250.375 73.3412 250.059 74.1303 249.579 74.987C249.098 75.8437 248.474 76.5877 247.707 77.2189C246.941 77.8502 245.866 78.3837 244.483 78.8196C243.101 79.2404 241.507 79.4509 239.704 79.4509H238.802C236.938 79.4509 235.308 79.2404 233.91 78.8196C232.512 78.3837 231.422 77.8502 230.641 77.2189C229.874 76.5877 229.251 75.8437 228.77 74.987C228.304 74.1152 228.003 73.3262 227.868 72.6198C227.733 71.9134 227.665 71.1769 227.665 70.4104ZM265.372 79.496H263.32C256.496 79.496 253.085 77.512 253.085 73.5441V73.3187H260.119C260.239 74.8968 261.637 75.6859 264.312 75.6859H264.515C265.372 75.6859 266.085 75.6483 266.657 75.5731C267.228 75.483 267.649 75.3627 267.919 75.2124C268.19 75.0471 268.37 74.8818 268.46 74.7164C268.565 74.5361 268.618 74.3332 268.618 74.1077V74.0852C268.618 73.7696 268.535 73.5216 268.37 73.3412C268.22 73.1458 267.844 72.9805 267.243 72.8452C266.657 72.6949 265.8 72.6047 264.673 72.5747L261.561 72.4845C256.076 72.3342 253.333 70.6508 253.333 67.4344V67.2315C253.333 66.6454 253.415 66.1193 253.581 65.6534C253.746 65.1724 254.047 64.7065 254.482 64.2556C254.918 63.8047 255.489 63.429 256.196 63.1284C256.902 62.8278 257.827 62.5873 258.969 62.4069C260.126 62.2115 261.464 62.1138 262.982 62.1138H264.988C271.782 62.1138 275.179 63.8799 275.179 67.4119V67.5923H268.212C268.077 66.4049 266.724 65.8112 264.154 65.8112H263.929C262.877 65.8112 262.065 65.8788 261.494 66.0141C260.923 66.1344 260.57 66.2771 260.434 66.4425C260.299 66.5928 260.231 66.7957 260.231 67.0512V67.0737C260.231 67.3292 260.306 67.5396 260.457 67.705C260.622 67.8703 260.983 68.0206 261.539 68.1559C262.095 68.2761 262.877 68.3438 263.884 68.3588L266.905 68.4264C270.076 68.5166 272.345 68.96 273.713 69.7566C275.081 70.5381 275.765 71.7781 275.765 73.4765V73.7921C275.765 74.4083 275.69 74.9719 275.539 75.483C275.389 75.979 275.088 76.49 274.638 77.016C274.187 77.527 273.585 77.9629 272.834 78.3236C272.097 78.6693 271.09 78.9549 269.813 79.1803C268.55 79.3907 267.07 79.496 265.372 79.496ZM278.338 62.4069H296.892V66.5101H284.65V68.6068H296.644V72.6874H284.65V74.987H297.073V79.1803H278.338V62.4069Z" fill="#3E878E"/>
</g>
<g filter="url(#filter2_i_19_5951)">
<path d="M231.256 46H207.9V43.8745C207.9 43.4184 207.908 43.0356 207.924 42.7262C207.957 42.4004 208.038 41.9769 208.168 41.4557C208.315 40.9182 208.51 40.454 208.755 40.0631C208.999 39.6559 209.357 39.1999 209.83 38.695C210.318 38.19 210.897 37.7421 211.564 37.3512C212.248 36.9603 213.104 36.5694 214.13 36.1785C215.172 35.7876 216.345 35.4537 217.648 35.1768C218.593 34.9488 219.765 34.7126 221.166 34.4683C222.241 34.2566 222.933 34.053 223.243 33.8575C223.552 33.6621 223.707 33.4096 223.707 33.1001C223.707 32.8558 223.617 32.6604 223.438 32.5138C223.275 32.3509 222.884 32.2125 222.265 32.0985C221.663 31.9681 220.816 31.903 219.725 31.903C218.926 31.903 218.234 31.9681 217.648 32.0985C217.078 32.2288 216.646 32.3753 216.353 32.5382C216.076 32.6848 215.848 32.8884 215.669 33.149C215.506 33.4096 215.4 33.6132 215.351 33.7598C215.319 33.8901 215.294 34.0611 215.278 34.2729H208.193V34.1018C208.193 29.6879 211.792 27.4809 218.992 27.4809H220.042C221.818 27.4809 223.365 27.5868 224.684 27.7985C226.02 27.994 227.078 28.2627 227.86 28.6047C228.658 28.9305 229.294 29.3458 229.766 29.8507C230.238 30.3557 230.556 30.8687 230.719 31.3899C230.898 31.8949 230.987 32.4731 230.987 33.1246V33.2223C230.987 34.2647 230.751 35.1198 230.279 35.7876C229.807 36.4391 228.968 37.001 227.763 37.4734C226.574 37.9457 224.888 38.3611 222.705 38.7194L218.796 39.3791C215.555 39.9328 213.934 40.6169 213.934 41.4313H224.831V39.2813H231.256V46ZM259.008 36.5206V37.2535C259.008 38.019 258.927 38.7601 258.764 39.4768C258.617 40.1934 258.267 40.9915 257.713 41.8711C257.176 42.7343 256.467 43.4836 255.588 44.1188C254.708 44.7377 253.462 45.2671 251.85 45.7068C250.254 46.1303 248.389 46.342 246.255 46.342H245.155C243.022 46.342 241.149 46.1303 239.536 45.7068C237.924 45.2671 236.678 44.7377 235.798 44.1188C234.919 43.4836 234.202 42.7343 233.648 41.8711C233.111 40.9915 232.761 40.1934 232.598 39.4768C232.451 38.7601 232.378 38.019 232.378 37.2535V36.5206C232.378 35.9831 232.41 35.4619 232.476 34.9569C232.557 34.452 232.712 33.8901 232.94 33.2712C233.184 32.6522 233.493 32.0822 233.868 31.561C234.243 31.0235 234.756 30.5023 235.407 29.9973C236.075 29.4761 236.841 29.0364 237.704 28.678C238.583 28.3197 239.658 28.0347 240.929 27.8229C242.199 27.5949 243.608 27.4809 245.155 27.4809H246.255C247.802 27.4809 249.211 27.5949 250.482 27.8229C251.752 28.0347 252.819 28.3197 253.682 28.678C254.545 29.0364 255.303 29.4761 255.954 29.9973C256.622 30.5023 257.143 31.0235 257.518 31.561C257.892 32.0822 258.194 32.6522 258.422 33.2712C258.666 33.8901 258.821 34.452 258.886 34.9569C258.967 35.4619 259.008 35.9831 259.008 36.5206ZM251.801 36.9848V36.6671C251.801 36.1459 251.703 35.6573 251.508 35.2013C251.329 34.7289 251.019 34.2729 250.579 33.8331C250.156 33.377 249.521 33.0187 248.674 32.7581C247.843 32.4975 246.849 32.3672 245.693 32.3672C244.504 32.3672 243.486 32.4975 242.639 32.7581C241.792 33.0187 241.157 33.377 240.733 33.8331C240.31 34.2729 240.009 34.7289 239.829 35.2013C239.65 35.6573 239.561 36.1459 239.561 36.6671V36.9603C239.561 37.4815 239.65 37.9865 239.829 38.4751C240.025 38.9474 240.334 39.4198 240.758 39.8921C241.198 40.3482 241.841 40.7146 242.688 40.9915C243.535 41.2684 244.537 41.4069 245.693 41.4069C246.849 41.4069 247.843 41.2684 248.674 40.9915C249.521 40.7146 250.156 40.3482 250.579 39.8921C251.019 39.4361 251.329 38.9719 251.508 38.4995C251.703 38.0109 251.801 37.506 251.801 36.9848ZM283.054 46H259.697V43.8745C259.697 43.4184 259.706 43.0356 259.722 42.7262C259.754 42.4004 259.836 41.9769 259.966 41.4557C260.113 40.9182 260.308 40.454 260.553 40.0631C260.797 39.6559 261.155 39.1999 261.628 38.695C262.116 38.19 262.694 37.7421 263.362 37.3512C264.046 36.9603 264.901 36.5694 265.927 36.1785C266.97 35.7876 268.143 35.4537 269.446 35.1768C270.39 34.9488 271.563 34.7126 272.964 34.4683C274.039 34.2566 274.731 34.053 275.04 33.8575C275.35 33.6621 275.505 33.4096 275.505 33.1001C275.505 32.8558 275.415 32.6604 275.236 32.5138C275.073 32.3509 274.682 32.2125 274.063 32.0985C273.461 31.9681 272.614 31.903 271.522 31.903C270.724 31.903 270.032 31.9681 269.446 32.0985C268.876 32.2288 268.444 32.3753 268.151 32.5382C267.874 32.6848 267.646 32.8884 267.467 33.149C267.304 33.4096 267.198 33.6132 267.149 33.7598C267.116 33.8901 267.092 34.0611 267.076 34.2729H259.991V34.1018C259.991 29.6879 263.59 27.4809 270.789 27.4809H271.84C273.615 27.4809 275.163 27.5868 276.482 27.7985C277.817 27.994 278.876 28.2627 279.658 28.6047C280.456 28.9305 281.091 29.3458 281.564 29.8507C282.036 30.3557 282.354 30.8687 282.516 31.3899C282.696 31.8949 282.785 32.4731 282.785 33.1246V33.2223C282.785 34.2647 282.549 35.1198 282.077 35.7876C281.604 36.4391 280.766 37.001 279.56 37.4734C278.371 37.9457 276.685 38.3611 274.503 38.7194L270.594 39.3791C267.353 39.9328 265.732 40.6169 265.732 41.4313H276.628V39.2813H283.054V46ZM296.56 46.342H295.387C293.465 46.342 291.788 46.1873 290.354 45.8778C288.937 45.5684 287.862 45.2019 287.129 44.7784C286.397 44.3549 285.81 43.8419 285.37 43.2392C284.947 42.6366 284.686 42.1235 284.589 41.7C284.491 41.2766 284.442 40.8368 284.442 40.3807V40.2097H291.649C291.942 41.301 293.376 41.8466 295.949 41.8466C297.545 41.8466 298.629 41.6593 299.199 41.2847C299.769 40.8938 300.054 40.3889 300.054 39.77V39.6722C300.054 38.3041 298.686 37.62 295.949 37.62C295.233 37.62 294.589 37.6688 294.019 37.7666C293.465 37.848 293.042 37.9457 292.749 38.0597C292.472 38.1738 292.236 38.3122 292.04 38.4751C291.861 38.6217 291.747 38.7357 291.698 38.8171C291.649 38.8986 291.617 38.9719 291.6 39.037H284.784V27.8229H305.991V32.245H291.649V35.2013C292.969 34.1263 295.11 33.5888 298.075 33.5888H298.295C300.054 33.5888 301.544 33.7435 302.766 34.053C303.987 34.3624 304.907 34.8104 305.526 35.3967C306.162 35.9831 306.61 36.6183 306.87 37.3024C307.131 37.9702 307.261 38.7438 307.261 39.6234V39.77C307.261 44.1513 303.694 46.342 296.56 46.342Z" fill="#1E6369"/>
</g>
<defs>
<filter id="filter0_i_19_5951" x="16.3566" y="21.0969" width="182.124" height="31.4738" filterUnits="userSpaceOnUse" color-interpolation-filters="sRGB">
<feFlood flood-opacity="0" result="BackgroundImageFix"/>
<feBlend mode="normal" in="SourceGraphic" in2="BackgroundImageFix" result="shape"/>
<feColorMatrix in="SourceAlpha" type="matrix" values="0 0 0 0 0 0 0 0 0 0 0 0 0 0 0 0 0 0 127 0" result="hardAlpha"/>
<feOffset/>
<feGaussianBlur stdDeviation="2"/>
<feComposite in2="hardAlpha" operator="arithmetic" k2="-1" k3="1"/>
<feColorMatrix type="matrix" values="0 0 0 0 0 0 0 0 0 0 0 0 0 0 0 0 0 0 0.25 0"/>
<feBlend mode="normal" in2="shape" result="effect1_innerShadow_19_5951"/>
</filter>
<filter id="filter1_i_19_5951" x="72.6774" y="62.0913" width="224.395" height="17.4047" filterUnits="userSpaceOnUse" color-interpolation-filters="sRGB">
<feFlood flood-opacity="0" result="BackgroundImageFix"/>
<feBlend mode="normal" in="SourceGraphic" in2="BackgroundImageFix" result="shape"/>
<feColorMatrix in="SourceAlpha" type="matrix" values="0 0 0 0 0 0 0 0 0 0 0 0 0 0 0 0 0 0 127 0" result="hardAlpha"/>
<feOffset/>
<feGaussianBlur stdDeviation="2"/>
<feComposite in2="hardAlpha" operator="arithmetic" k2="-1" k3="1"/>
<feColorMatrix type="matrix" values="0 0 0 0 0 0 0 0 0 0 0 0 0 0 0 0 0 0 0.16 0"/>
<feBlend mode="normal" in2="shape" result="effect1_innerShadow_19_5951"/>
</filter>
<filter id="filter2_i_19_5951" x="207.9" y="27.4809" width="99.3613" height="18.8611" filterUnits="userSpaceOnUse" color-interpolation-filters="sRGB">
<feFlood flood-opacity="0" result="BackgroundImageFix"/>
<feBlend mode="normal" in="SourceGraphic" in2="BackgroundImageFix" result="shape"/>
<feColorMatrix in="SourceAlpha" type="matrix" values="0 0 0 0 0 0 0 0 0 0 0 0 0 0 0 0 0 0 127 0" result="hardAlpha"/>
<feOffset/>
<feGaussianBlur stdDeviation="2"/>
<feComposite in2="hardAlpha" operator="arithmetic" k2="-1" k3="1"/>
<feColorMatrix type="matrix" values="0 0 0 0 0 0 0 0 0 0 0 0 0 0 0 0 0 0 0.16 0"/>
<feBlend mode="normal" in2="shape" result="effect1_innerShadow_19_5951"/>
</filter>
</defs>
</svg>
