<svg width="177" height="50" viewBox="0 0 177 50" fill="none" xmlns="http://www.w3.org/2000/svg">
<path d="M169.804 24.6937L155.797 48.9427H132.673L128.295 44.5535H105.888L101.51 48.9427H14.4837L0.476562 24.6937L14.4837 0.444702H37.1844L41.9857 5.24332H64.3792L69.1806 0.444702H155.797L159.689 7.18835L169.804 24.6937Z" stroke="#56EF81" stroke-width="0.505967" stroke-miterlimit="10"/>
<path d="M155.675 0.444702H162.448L166.34 7.18835L176.455 24.6937L162.448 48.9427H139.325L134.946 44.5535H112.54L108.161 48.9427H21.1348L7.12769 24.6937L21.1348 0.444702H43.8355L48.6369 5.24332H71.0431L75.8445 0.444702H155.675Z" stroke="#56EF81" stroke-width="0.505967" stroke-miterlimit="10"/>
<path d="M155.947 7.09585H149.26L145.416 0.444702H152.104L155.947 7.09585Z" fill="#56EF81"/>
<path d="M145.416 7.09585H138.548L134.608 0.444702H141.464L145.416 7.09585Z" fill="#56EF81"/>
<path d="M43.4319 48.9427H36.7521L32.9009 42.2915H39.5806L43.4319 48.9427Z" fill="#56EF81"/>
<path d="M32.9009 48.9427H26.0371L22.0928 42.2915H28.9565L32.9009 48.9427Z" fill="#56EF81"/>
<path d="M39.0657 18.125H40.93L45.3137 28.8323H45.4649L49.8486 18.125H51.7129V31.0242H50.2517V21.2238H50.1257L46.0947 31.0242H44.6839L40.6529 21.2238H40.5269V31.0242H39.0657V18.125ZM55.7266 31.1249C55.4159 31.1249 55.1493 31.0137 54.9267 30.7911C54.7042 30.5686 54.5929 30.3019 54.5929 29.9912C54.5929 29.6805 54.7042 29.4139 54.9267 29.1913C55.1493 28.9688 55.4159 28.8575 55.7266 28.8575C56.0373 28.8575 56.304 28.9688 56.5265 29.1913C56.7491 29.4139 56.8603 29.6805 56.8603 29.9912C56.8603 30.197 56.8079 30.3859 56.7029 30.5581C56.6021 30.7302 56.4656 30.8688 56.2935 30.9738C56.1255 31.0746 55.9366 31.1249 55.7266 31.1249ZM66.7835 21.3498C66.708 20.7115 66.4014 20.216 65.864 19.8633C65.3265 19.5106 64.6673 19.3343 63.8863 19.3343C63.3152 19.3343 62.8155 19.4266 62.3872 19.6114C61.9631 19.7962 61.6314 20.0502 61.3921 20.3735C61.1569 20.6968 61.0394 21.0642 61.0394 21.4757C61.0394 21.82 61.1212 22.1161 61.285 22.3638C61.453 22.6074 61.6671 22.811 61.9274 22.9748C62.1878 23.1343 62.4607 23.2666 62.7462 23.3716C63.0318 23.4723 63.2942 23.5542 63.5335 23.6172L64.8436 23.9699C65.1795 24.0581 65.5532 24.1799 65.9647 24.3352C66.3804 24.4906 66.7772 24.7026 67.1551 24.9714C67.5372 25.2359 67.8522 25.576 68.0999 25.9917C68.3476 26.4074 68.4715 26.9176 68.4715 27.5222C68.4715 28.2193 68.2889 28.8491 67.9236 29.4118C67.5624 29.9744 67.0334 30.4216 66.3363 30.7533C65.6435 31.0851 64.8016 31.2509 63.8107 31.2509C62.8869 31.2509 62.087 31.1019 61.411 30.8037C60.7391 30.5056 60.2101 30.0899 59.8238 29.5566C59.4417 29.0234 59.2254 28.404 59.175 27.6986H60.7874C60.8294 28.1857 60.9932 28.5888 61.2787 28.9079C61.5684 29.2228 61.9337 29.458 62.3746 29.6133C62.8197 29.7645 63.2984 29.8401 63.8107 29.8401C64.4069 29.8401 64.9423 29.7435 65.4168 29.5503C65.8913 29.353 66.2671 29.0801 66.5442 28.7315C66.8213 28.3788 66.9599 27.9673 66.9599 27.497C66.9599 27.0687 66.8402 26.7202 66.6009 26.4515C66.3615 26.1828 66.0466 25.9644 65.6561 25.7965C65.2656 25.6285 64.8436 25.4815 64.3901 25.3556L62.8029 24.9021C61.7952 24.6124 60.9974 24.1988 60.4095 23.6613C59.8217 23.1238 59.5277 22.4205 59.5277 21.5513C59.5277 20.8291 59.723 20.1993 60.1135 19.6618C60.5082 19.1201 61.0373 18.7002 61.7007 18.4021C62.3683 18.0998 63.1136 17.9486 63.9366 17.9486C64.768 17.9486 65.5071 18.0977 66.1537 18.3958C66.8003 18.6897 67.3126 19.0928 67.6905 19.6051C68.0726 20.1174 68.2742 20.6989 68.2952 21.3498H66.7835ZM71.9215 31.1249C71.6108 31.1249 71.3441 31.0137 71.1216 30.7911C70.899 30.5686 70.7878 30.3019 70.7878 29.9912C70.7878 29.6805 70.899 29.4139 71.1216 29.1913C71.3441 28.9688 71.6108 28.8575 71.9215 28.8575C72.2322 28.8575 72.4988 28.9688 72.7214 29.1913C72.9439 29.4139 73.0552 29.6805 73.0552 29.9912C73.0552 30.197 73.0027 30.3859 72.8977 30.5581C72.797 30.7302 72.6605 30.8688 72.4883 30.9738C72.3204 31.0746 72.1314 31.1249 71.9215 31.1249ZM80.711 31.0242V21.3498H82.1974V31.0242H80.711ZM81.4668 19.7374C81.177 19.7374 80.9272 19.6387 80.7173 19.4413C80.5115 19.244 80.4086 19.0067 80.4086 18.7296C80.4086 18.4525 80.5115 18.2152 80.7173 18.0179C80.9272 17.8205 81.177 17.7219 81.4668 17.7219C81.7565 17.7219 82.0042 17.8205 82.21 18.0179C82.4199 18.2152 82.5249 18.4525 82.5249 18.7296C82.5249 19.0067 82.4199 19.244 82.21 19.4413C82.0042 19.6387 81.7565 19.7374 81.4668 19.7374ZM86.4063 25.2044V31.0242H84.9199V21.3498H86.3559V22.8614H86.4819C86.7086 22.3701 87.053 21.9754 87.5148 21.6773C87.9767 21.375 88.573 21.2238 89.3036 21.2238C89.9586 21.2238 90.5318 21.3582 91.0231 21.6269C91.5144 21.8914 91.8965 22.2945 92.1694 22.8362C92.4423 23.3737 92.5788 24.0539 92.5788 24.8769V31.0242H91.0924V24.9777C91.0924 24.2177 90.895 23.6256 90.5003 23.2015C90.1056 22.7732 89.5639 22.5591 88.8753 22.5591C88.4008 22.5591 87.9767 22.6619 87.603 22.8677C87.2335 23.0734 86.9417 23.3737 86.7275 23.7684C86.5134 24.1631 86.4063 24.6418 86.4063 25.2044ZM101.014 31.0242H99.3764L104.113 18.125H105.725L110.462 31.0242H108.824L104.969 20.1657H104.869L101.014 31.0242ZM101.619 25.9854H108.219V27.3711H101.619V25.9854ZM112.373 31.0242V21.3498H113.86V31.0242H112.373ZM113.129 19.7374C112.839 19.7374 112.589 19.6387 112.38 19.4413C112.174 19.244 112.071 19.0067 112.071 18.7296C112.071 18.4525 112.174 18.2152 112.38 18.0179C112.589 17.8205 112.839 17.7219 113.129 17.7219C113.419 17.7219 113.666 17.8205 113.872 18.0179C114.082 18.2152 114.187 18.4525 114.187 18.7296C114.187 19.0067 114.082 19.244 113.872 19.4413C113.666 19.6387 113.419 19.7374 113.129 19.7374ZM127.164 22.156H125.602C125.509 21.7067 125.347 21.312 125.117 20.9719C124.89 20.6317 124.613 20.3462 124.285 20.1153C123.962 19.8801 123.603 19.7038 123.208 19.5862C122.813 19.4686 122.402 19.4098 121.974 19.4098C121.193 19.4098 120.485 19.6072 119.851 20.0019C119.221 20.3966 118.719 20.9782 118.346 21.7466C117.976 22.515 117.791 23.4576 117.791 24.5746C117.791 25.6915 117.976 26.6342 118.346 27.4026C118.719 28.171 119.221 28.7525 119.851 29.1472C120.485 29.5419 121.193 29.7393 121.974 29.7393C122.402 29.7393 122.813 29.6805 123.208 29.5629C123.603 29.4454 123.962 29.2711 124.285 29.0402C124.613 28.805 124.89 28.5174 125.117 28.1773C125.347 27.833 125.509 27.4383 125.602 26.9932H127.164C127.046 27.6524 126.832 28.2424 126.521 28.763C126.21 29.2837 125.824 29.7267 125.362 30.092C124.9 30.4531 124.382 30.7281 123.806 30.9171C123.235 31.106 122.624 31.2005 121.974 31.2005C120.873 31.2005 119.895 30.9318 119.039 30.3943C118.182 29.8569 117.508 29.0926 117.017 28.1017C116.525 27.1107 116.28 25.935 116.28 24.5746C116.28 23.2141 116.525 22.0384 117.017 21.0474C117.508 20.0565 118.182 19.2923 119.039 18.7548C119.895 18.2173 120.873 17.9486 121.974 17.9486C122.624 17.9486 123.235 18.0431 123.806 18.232C124.382 18.421 124.9 18.6981 125.362 19.0634C125.824 19.4245 126.21 19.8654 126.521 20.3861C126.832 20.9026 127.046 21.4925 127.164 22.156ZM129.688 31.0242V18.125H137.472V19.5106H131.25V23.8691H137.069V25.2548H131.25V29.6385H137.573V31.0242H129.688Z" fill="#CAFAFF"/>
</svg>
