<svg width="255" height="55" viewBox="0 0 255 55" fill="none" xmlns="http://www.w3.org/2000/svg">
<path d="M1.00657 30.0984H0V16.7892L16.6645 0.683899H177.382L180.961 4.37469H255V17.6839H253.993V5.38127H180.513L176.934 1.69048H17L1.00657 17.2365V30.0984Z" fill="#44EEFA"/>
<path d="M238.336 54.3678H77.5066L74.0395 50.677H0V37.3678H1.00657V49.6704H74.4869L77.954 53.3612H237.888L253.993 37.8151V24.9533H255V38.2625L238.336 54.3678Z" fill="#44EEFA"/>
<path d="M236.547 51.6836H78.961L77.0597 49.6705H239.119L236.547 51.6836Z" fill="#59E5FF"/>
<path d="M18.1193 3.36798H176.04L177.83 5.38114H15.9943L18.1193 3.36798Z" fill="url(#paint0_linear_86_1739)"/>
<path d="M67.3289 54.1443L64.6447 51.4601H62.2961L65.0921 54.1443H67.3289ZM63.1908 54.1443L60.3947 51.4601H58.1579L60.8421 54.1443H63.1908ZM59.1645 54.1443L56.3684 51.4601H54.1316L56.8158 54.1443H59.1645ZM71.5789 54.1443L68.7829 51.4601H66.546L69.2302 54.1443H71.5789ZM75.7171 54.1443L73.0329 51.4601H70.6842L73.4803 54.1443H75.7171ZM42.7237 54.1443L39.9276 51.4601H37.6908L40.4868 54.1443H42.7237ZM38.5855 54.1443L35.7895 51.4601H33.5526L36.2368 54.1443H38.5855ZM51 54.1443L48.2039 51.4601H45.9671L48.7632 54.1443H51ZM55.0263 54.1443L52.3421 51.4601H49.9934L52.7895 54.1443H55.0263ZM46.75 54.1443L44.0658 51.4601H41.7171L44.5131 54.1443H46.75ZM26.171 54.1443L23.375 51.4601H21.1381L23.8223 54.1443H26.171ZM17.8947 54.1443L15.2105 51.4601H12.8618L15.6579 54.1443H17.8947ZM22.0329 54.1443L19.2368 51.4601H17L19.6842 54.1443H22.0329ZM30.3092 54.1443L27.625 51.4601H25.2763L28.0724 54.1443H30.3092ZM34.4473 54.1443L31.6513 51.4601H29.4145L32.0987 54.1443H34.4473ZM13.8684 54.1443L11.0724 51.4601H8.83551L11.6316 54.1443H13.8684ZM5.5921 54.1443L2.79605 51.4601H0.559204L3.24341 54.1443H5.5921ZM9.73027 54.1443L7.04603 51.4601H4.69738L7.49343 54.1443H9.73027Z" fill="url(#paint1_linear_86_1739)"/>
<path d="M245.829 3.5915L243.144 0.907288H240.796L243.592 3.5915H245.829ZM241.69 3.5915L238.894 0.907288H236.657L239.342 3.5915H241.69ZM237.552 3.5915L234.868 0.907288H232.519L235.315 3.5915H237.552ZM249.967 3.5915L247.171 0.907288H244.934L247.618 3.5915H249.967ZM254.105 3.5915L251.421 0.907288H249.072L251.868 3.5915H254.105ZM221.111 3.5915L218.315 0.907288H216.079L218.875 3.5915H221.111ZM216.973 3.5915L214.177 0.907288H211.94L214.625 3.5915H216.973ZM229.388 3.5915L226.592 0.907288H224.355L227.039 3.5915H229.388ZM233.526 3.5915L230.842 0.907288H228.493L231.289 3.5915H233.526ZM225.25 3.5915L222.565 0.907288H220.217L223.013 3.5915H225.25ZM204.671 3.5915L201.875 0.907288H199.638L202.322 3.5915H204.671ZM196.394 3.5915L193.71 0.907288H191.361L194.158 3.5915H196.394ZM200.533 3.5915L197.736 0.907288H195.5L198.184 3.5915H200.533ZM208.809 3.5915L206.125 0.907288H203.776L206.572 3.5915H208.809ZM212.947 3.5915L210.151 0.907288H207.914L210.598 3.5915H212.947ZM192.368 3.5915L189.572 0.907288H187.335L190.131 3.5915H192.368ZM184.092 3.5915L181.296 0.907288H179.059L181.743 3.5915H184.092ZM188.23 3.5915L185.546 0.907288H183.197L185.993 3.5915H188.23Z" fill="#59E5FF"/>
<path d="M13.8693 8.065L3.69165 18.2426V47.3216H66.5469V8.065H13.8693Z" fill="#59E5FF"/>
<path fill-rule="evenodd" clip-rule="evenodd" d="M34.0073 17.6754H46L39.0812 34.8342C38.5276 36.3102 37.0516 37.3249 35.3911 37.3249H23.3984L30.3173 20.1662C30.963 18.5979 32.4391 17.6754 34.0073 17.6754ZM38.3432 30.9596H28.2878L27.3653 33.1736H37.4206L38.3432 30.9596ZM40.1882 26.347H30.1328L29.3025 28.5611L39.2657 28.6533L40.1882 26.347ZM42.0332 21.7345H32.0701L31.1476 23.9485H41.203L42.0332 21.7345Z" fill="white"/>
<g filter="url(#filter0_i_86_1739)">
<path d="M87.6784 35V20.9321H97.4235V22.7312H89.7273V27.004H95.7243V28.7282H89.7273V33.3009H97.6733V35H87.6784ZM107.924 24.7801H109.973V25.1549L106.3 35H103.376L99.6782 25.1799V24.7801H101.702L104.851 33.2759H104.901L107.924 24.7801ZM117.119 35.2499C115.97 35.2499 115.029 35 114.296 34.5003C113.563 33.9838 113.021 33.3258 112.671 32.5262C112.322 31.71 112.147 30.8687 112.147 30.0025C112.13 29.0197 112.313 28.1285 112.696 27.3289C113.096 26.5293 113.663 25.8962 114.396 25.4298C115.145 24.9634 116.036 24.7302 117.069 24.7302C117.969 24.7302 118.768 24.9301 119.468 25.3299C120.168 25.713 120.726 26.2627 121.142 26.979C121.559 27.6787 121.784 28.5116 121.817 29.4778C121.834 29.5277 121.842 29.6277 121.842 29.7776C121.842 29.9109 121.842 30.0275 121.842 30.1274H114.121C114.121 31.1936 114.379 32.0265 114.895 32.6262C115.428 33.2092 116.161 33.5008 117.094 33.5008C117.794 33.5008 118.385 33.3258 118.868 32.976C119.368 32.6095 119.676 32.1264 119.793 31.5267H121.817C121.717 32.2264 121.467 32.8594 121.067 33.4258C120.667 33.9922 120.134 34.4419 119.468 34.7751C118.802 35.0916 118.019 35.2499 117.119 35.2499ZM114.196 29.103H119.743C119.726 28.9197 119.676 28.6782 119.593 28.3783C119.526 28.0785 119.393 27.787 119.193 27.5038C118.993 27.2039 118.718 26.954 118.369 26.7541C118.019 26.5542 117.569 26.4543 117.019 26.4543C116.52 26.4543 116.095 26.5376 115.745 26.7042C115.395 26.8708 115.112 27.0956 114.895 27.3788C114.679 27.6454 114.512 27.9369 114.396 28.2534C114.296 28.5532 114.229 28.8364 114.196 29.103ZM125.091 35V24.7801H126.865L127.215 27.1539H127.265C127.282 27.0873 127.348 26.9291 127.465 26.6792C127.581 26.4293 127.773 26.1628 128.04 25.8796C128.306 25.5797 128.664 25.3215 129.114 25.105C129.564 24.8884 130.13 24.7801 130.813 24.7801C131.529 24.7801 132.112 24.8967 132.562 25.13C133.029 25.3465 133.395 25.6464 133.662 26.0295C133.945 26.396 134.145 26.8124 134.261 27.2789C134.378 27.7287 134.453 28.1951 134.486 28.6782C134.52 29.1446 134.536 29.5861 134.536 30.0025V35H132.512V29.9775C132.512 29.3445 132.446 28.7781 132.312 28.2784C132.179 27.762 131.938 27.3622 131.588 27.079C131.238 26.7791 130.713 26.6292 130.014 26.6292C129.314 26.6292 128.756 26.7958 128.339 27.129C127.94 27.4621 127.648 27.8952 127.465 28.4283C127.298 28.9447 127.215 29.5111 127.215 30.1274V35H125.091ZM140.685 35C139.985 35 139.468 34.8168 139.135 34.4503C138.802 34.0838 138.636 33.5257 138.636 32.7761V26.0295H140.61V33.3508H142.983V35H140.685ZM137.061 26.2794V24.7801C137.444 24.7801 137.753 24.7551 137.986 24.7052C138.236 24.6552 138.419 24.5552 138.536 24.4053C138.669 24.2387 138.761 23.9805 138.81 23.6307C138.86 23.2642 138.885 22.7728 138.885 22.1565H140.61V24.7801H142.958V26.2794H137.061ZM155.941 33.2509C156.59 33.2509 157.09 33.2509 157.44 33.2509C157.79 33.2509 158.048 33.2509 158.215 33.2509C159.114 33.2509 159.922 33.1842 160.638 33.051C161.355 32.9011 161.971 32.6345 162.487 32.2514C163.004 31.8516 163.395 31.3102 163.662 30.6272C163.945 29.9275 164.087 29.028 164.087 27.9286C164.087 26.7625 163.845 25.7963 163.362 25.03C162.879 24.2637 162.196 23.689 161.313 23.3059C160.447 22.9227 159.414 22.7312 158.215 22.7312H155.941V33.2509ZM166.286 27.9535C166.286 29.8026 165.927 31.2436 165.211 32.2764C164.511 33.2925 163.512 34.0005 162.213 34.4003C160.93 34.8001 159.414 35 157.665 35C157.398 35 156.974 35 156.391 35C155.807 35 154.966 35 153.867 35V20.9321C155.033 20.9321 155.899 20.9321 156.465 20.9321C157.032 20.9321 157.432 20.9321 157.665 20.9321C159.414 20.9321 160.93 21.1986 162.213 21.7317C163.512 22.2481 164.511 23.0227 165.211 24.0555C165.927 25.0883 166.286 26.3877 166.286 27.9535ZM174.049 35.2499C172.899 35.2499 171.958 35 171.225 34.5003C170.492 33.9838 169.951 33.3258 169.601 32.5262C169.251 31.71 169.076 30.8687 169.076 30.0025C169.059 29.0197 169.243 28.1285 169.626 27.3289C170.026 26.5293 170.592 25.8962 171.325 25.4298C172.075 24.9634 172.966 24.7302 173.999 24.7302C174.898 24.7302 175.698 24.9301 176.397 25.3299C177.097 25.713 177.655 26.2627 178.072 26.979C178.488 27.6787 178.713 28.5116 178.746 29.4778C178.763 29.5277 178.771 29.6277 178.771 29.7776C178.771 29.9109 178.771 30.0275 178.771 30.1274H171.05C171.05 31.1936 171.308 32.0265 171.825 32.6262C172.358 33.2092 173.091 33.5008 174.024 33.5008C174.723 33.5008 175.315 33.3258 175.798 32.976C176.298 32.6095 176.606 32.1264 176.722 31.5267H178.746C178.646 32.2264 178.396 32.8594 177.997 33.4258C177.597 33.9922 177.064 34.4419 176.397 34.7751C175.731 35.0916 174.948 35.2499 174.049 35.2499ZM171.125 29.103H176.672C176.656 28.9197 176.606 28.6782 176.522 28.3783C176.456 28.0785 176.322 27.787 176.123 27.5038C175.923 27.2039 175.648 26.954 175.298 26.7541C174.948 26.5542 174.498 26.4543 173.949 26.4543C173.449 26.4543 173.024 26.5376 172.674 26.7042C172.325 26.8708 172.041 27.0956 171.825 27.3788C171.608 27.6454 171.442 27.9369 171.325 28.2534C171.225 28.5532 171.158 28.8364 171.125 29.103ZM184.969 35C184.269 35 183.753 34.8168 183.42 34.4503C183.087 34.0838 182.92 33.5257 182.92 32.7761V26.0295H184.894V33.3508H187.268V35H184.969ZM181.346 26.2794V24.7801C181.729 24.7801 182.037 24.7551 182.27 24.7052C182.52 24.6552 182.703 24.5552 182.82 24.4053C182.953 24.2387 183.045 23.9805 183.095 23.6307C183.145 23.2642 183.17 22.7728 183.17 22.1565H184.894V24.7801H187.243V26.2794H181.346ZM194.09 35.2249C193.157 35.2249 192.391 35 191.791 34.5502C191.208 34.1005 190.775 33.4841 190.492 32.7012C190.225 31.9182 190.092 31.0187 190.092 30.0025C190.092 28.953 190.233 28.0368 190.517 27.2539C190.8 26.4543 191.233 25.8296 191.816 25.3798C192.416 24.9301 193.174 24.7052 194.09 24.7052C194.656 24.7052 195.139 24.7885 195.539 24.955C195.939 25.105 196.272 25.2965 196.539 25.5298C196.805 25.763 197.022 26.0045 197.188 26.2544C197.355 26.4876 197.471 26.6958 197.538 26.8791H197.588V24.7801H199.712V35H197.938L197.588 33.1759H197.538C197.471 33.3592 197.355 33.5674 197.188 33.8006C197.022 34.0338 196.797 34.2587 196.514 34.4753C196.247 34.6918 195.914 34.8667 195.514 35C195.114 35.1499 194.639 35.2249 194.09 35.2249ZM194.914 33.4508C195.581 33.4508 196.105 33.3092 196.489 33.026C196.872 32.7261 197.147 32.318 197.313 31.8016C197.48 31.2852 197.563 30.6938 197.563 30.0275C197.563 29.3112 197.471 28.6948 197.288 28.1784C197.122 27.662 196.847 27.2705 196.464 27.004C196.08 26.7208 195.564 26.5792 194.914 26.5792C194.231 26.5792 193.682 26.7375 193.265 27.054C192.865 27.3538 192.574 27.762 192.391 28.2784C192.224 28.7948 192.141 29.3695 192.141 30.0025C192.141 30.6522 192.224 31.2436 192.391 31.7766C192.574 32.293 192.865 32.7012 193.265 33.001C193.682 33.3009 194.231 33.4508 194.914 33.4508ZM203.121 35V24.7801H205.195V35H203.121ZM204.17 23.3558C203.687 23.3558 203.354 23.2309 203.171 22.981C203.004 22.7312 202.921 22.4396 202.921 22.1065C202.921 21.79 203.004 21.5151 203.171 21.2819C203.354 21.032 203.687 20.9071 204.17 20.9071C204.654 20.9071 204.97 21.032 205.12 21.2819C205.287 21.5151 205.37 21.79 205.37 22.1065C205.37 22.4396 205.287 22.7312 205.12 22.981C204.97 23.2309 204.654 23.3558 204.17 23.3558ZM208.933 35V20.9321H210.982V35H208.933ZM218.694 35.2499C218.228 35.2499 217.769 35.1832 217.32 35.05C216.887 34.9334 216.478 34.7585 216.095 34.5252C215.729 34.292 215.396 34.0255 215.096 33.7256C214.813 33.4258 214.588 33.101 214.421 32.7511C214.271 32.3846 214.196 32.0015 214.196 31.6017H216.145C216.145 31.6184 216.154 31.735 216.17 31.9515C216.204 32.1681 216.295 32.418 216.445 32.7012C216.595 32.9677 216.837 33.2009 217.17 33.4008C217.52 33.6007 218.011 33.7007 218.644 33.7007C219.127 33.7007 219.535 33.6423 219.868 33.5257C220.218 33.4091 220.485 33.2509 220.668 33.051C220.851 32.8344 220.935 32.5762 220.918 32.2764C220.918 31.8599 220.76 31.5351 220.443 31.3019C220.127 31.0686 219.718 30.8854 219.219 30.7521C218.719 30.6022 218.194 30.4606 217.645 30.3273C217.095 30.1941 216.57 30.0192 216.07 29.8026C215.571 29.5694 215.162 29.2612 214.846 28.8781C214.546 28.4783 214.404 27.9452 214.421 27.2789C214.421 26.3793 214.796 25.688 215.546 25.2049C216.312 24.7052 217.278 24.4553 218.444 24.4553C219.01 24.4553 219.56 24.5219 220.093 24.6552C220.626 24.7885 221.101 24.9967 221.518 25.2799C221.951 25.5631 222.292 25.9379 222.542 26.4043C222.809 26.8708 222.934 27.4455 222.917 28.1285H220.993C221.009 27.6953 220.935 27.3455 220.768 27.079C220.618 26.8124 220.41 26.6125 220.143 26.4793C219.877 26.3294 219.594 26.2294 219.294 26.1794C219.01 26.1128 218.736 26.0795 218.469 26.0795C217.803 26.0795 217.278 26.2044 216.895 26.4543C216.512 26.6875 216.32 27.004 216.32 27.4038C216.32 27.8203 216.478 28.1451 216.795 28.3783C217.111 28.6115 217.52 28.7948 218.019 28.9281C218.519 29.0613 219.052 29.1946 219.619 29.3278C220.185 29.4611 220.718 29.6444 221.218 29.8776C221.717 30.0941 222.126 30.4023 222.442 30.8021C222.759 31.2019 222.917 31.735 222.917 32.4013C222.917 33.051 222.734 33.584 222.367 34.0005C222.017 34.417 221.526 34.7335 220.893 34.95C220.26 35.1499 219.527 35.2499 218.694 35.2499Z" fill="#59E5FF"/>
</g>
<defs>
<filter id="filter0_i_86_1739" x="87.6783" y="20.9071" width="135.264" height="14.3428" filterUnits="userSpaceOnUse" color-interpolation-filters="sRGB">
<feFlood flood-opacity="0" result="BackgroundImageFix"/>
<feBlend mode="normal" in="SourceGraphic" in2="BackgroundImageFix" result="shape"/>
<feColorMatrix in="SourceAlpha" type="matrix" values="0 0 0 0 0 0 0 0 0 0 0 0 0 0 0 0 0 0 127 0" result="hardAlpha"/>
<feOffset/>
<feGaussianBlur stdDeviation="1.45621"/>
<feComposite in2="hardAlpha" operator="arithmetic" k2="-1" k3="1"/>
<feColorMatrix type="matrix" values="0 0 0 0 0 0 0 0 0 0 0 0 0 0 0 0 0 0 0.16 0"/>
<feBlend mode="normal" in2="shape" result="effect1_innerShadow_86_1739"/>
</filter>
<linearGradient id="paint0_linear_86_1739" x1="56365.1" y1="198.958" x2="79775.1" y2="198.958" gradientUnits="userSpaceOnUse">
<stop stop-color="#44EEFA"/>
<stop offset="0.99" stop-color="#8F68FF"/>
</linearGradient>
<linearGradient id="paint1_linear_86_1739" x1="25114.3" y1="437.945" x2="30159.6" y2="437.945" gradientUnits="userSpaceOnUse">
<stop stop-color="#44EEFA"/>
<stop offset="0.99" stop-color="#8F68FF"/>
</linearGradient>
</defs>
</svg>
