<svg width="164" height="39" viewBox="0 0 164 39" fill="none" xmlns="http://www.w3.org/2000/svg">
<path opacity="0.3" d="M154.254 22.3581L158.982 10.3931L54.0948 10.2966L50.7176 4.1211L15.2084 4.0246L5.07666 29.4986L8.06796 34.4197L137.078 34.6127L154.254 22.3581Z" fill="#1B252F"/>
<path d="M53.9983 10.2001L50.7176 4.1211L15.2084 4.0246L5.07666 29.4986L8.06796 34.4197L44.349 34.5162L53.9983 10.2001Z" fill="#134869"/>
<path fill-rule="evenodd" clip-rule="evenodd" d="M137.657 37.8935H137.464L4.59419 37.797L0.92749 31.6215V31.4285L13.182 0.743923H53.4193L56.7 6.91942L163.71 7.01592L156.859 24.1915L137.657 37.8935ZM5.07665 36.832L137.368 37.025L156.184 23.6126L162.359 7.88435L56.2176 7.78785L52.9369 1.61235H13.8575L1.89241 31.525L5.07665 36.832Z" fill="#65F2FC"/>
<path d="M69.5341 0.16489L72.3323 5.1825H76.0955L73.2972 0.16489H69.5341ZM62.7796 0.16489L65.5778 5.1825H69.3411L66.4463 0.16489H62.7796ZM56.0251 0.16489L58.9199 5.1825H62.5866L59.7883 0.16489H56.0251ZM89.8939 0.16489L92.6922 5.1825H96.4554L93.6571 0.16489H89.8939ZM76.2885 0.16489L79.1833 5.1825H82.9465L80.0517 0.16489H76.2885ZM83.043 0.16489L85.9378 5.1825H89.7009L86.8062 0.16489H83.043ZM103.403 0.261388L106.201 5.1825H109.964L107.166 0.261388H103.403ZM110.157 0.261388L112.956 5.1825L116.719 5.279L113.921 0.261388H110.157ZM96.5519 0.261388L99.4467 5.1825H103.113L100.315 0.261388H96.5519ZM116.912 0.261388L119.71 5.279H123.473L120.675 0.261388H116.912ZM130.421 0.261388L133.219 5.279H136.982L134.184 0.261388H130.421ZM123.57 0.261388L126.465 5.279H130.228L127.333 0.261388H123.57ZM150.684 0.261388L153.579 5.279H157.246L154.447 0.261388H150.684ZM143.93 0.261388L146.728 5.279H150.491L147.693 0.261388H143.93ZM137.079 0.261388L139.973 5.279H143.64L140.842 0.261388H137.079ZM157.439 0.357887L160.237 5.279H164L161.202 0.357887H157.439Z" fill="#65F2FC"/>
<path d="M155.701 28.3408L151.648 38.376H141.613L155.701 28.3408Z" fill="#65F2FC"/>
<path d="M29.2966 16.858C28.4282 16.858 27.7527 17.5334 27.7527 18.4984L27.6562 25.1563C27.6562 26.0247 28.4282 26.7967 29.2966 26.7967C30.1651 26.7967 30.937 26.0247 30.937 25.1563V18.4984C30.937 17.6299 30.1651 16.858 29.2966 16.858ZM29.2966 15.3141C30.1651 15.3141 30.8405 14.5422 30.8405 13.6737C30.8405 12.8053 30.1651 12.1299 29.2966 12.1299C28.4282 12.1299 27.7527 12.8053 27.7527 13.6737C27.7527 14.5422 28.4282 15.3141 29.2966 15.3141Z" fill="white"/>
<path fill-rule="evenodd" clip-rule="evenodd" d="M29.2958 30.1743C26.401 30.1743 23.6992 29.1129 21.6728 26.9901C19.6465 24.9637 18.5851 22.2619 18.5851 19.4636C18.5851 13.4811 23.4097 8.65652 29.2958 8.65652C32.1905 8.65652 34.8923 9.81442 36.9186 11.8408C38.945 13.8671 40.1029 16.5689 40.1029 19.4636C40.1029 22.3584 38.945 25.0602 36.9186 27.0865C34.8923 29.1129 32.1905 30.1743 29.2958 30.1743ZM29.2958 9.81441C23.9887 9.81441 19.6465 14.0601 19.6465 19.4636C19.6465 21.9724 20.6114 24.4812 22.4448 26.2181C24.2781 28.0515 26.6905 29.1129 29.2958 29.1129C31.9011 29.1129 34.3133 28.0515 36.1467 26.3146C37.98 24.4812 38.945 22.0689 38.945 19.4636C38.945 16.8583 37.98 14.446 36.1467 12.6127C34.3133 10.7793 31.9011 9.81441 29.2958 9.81441Z" fill="white"/>
<g filter="url(#filter0_i_19_4621)">
<path d="M58.5385 26L61.3129 17.7354H63.3241L66.1572 26H64.8507L62.3405 18.2492L59.8303 26H58.5385ZM60.2267 23.5338L60.2707 22.565H64.381L64.4397 23.5338H60.2267ZM71.1734 26.1468C70.8015 26.1468 70.4835 26.0881 70.2192 25.9706C69.955 25.8434 69.7397 25.6966 69.5733 25.5303C69.407 25.3639 69.2846 25.2122 69.2063 25.0752C69.128 24.9284 69.0791 24.8354 69.0595 24.7963H69.0302L68.8393 26H67.7824V17.7354H69.0449V21.4053H69.0742C69.084 21.3661 69.1232 21.2732 69.1917 21.1264C69.2699 20.9796 69.3874 20.8181 69.544 20.6419C69.7006 20.4658 69.911 20.3141 70.1752 20.1869C70.4492 20.0597 70.7819 19.996 71.1734 19.996C71.7606 19.996 72.2401 20.1282 72.612 20.3924C72.9839 20.6468 73.2628 21.0089 73.4487 21.4787C73.6347 21.9386 73.7277 22.4769 73.7277 23.0934C73.7277 23.6904 73.6347 24.2189 73.4487 24.6788C73.2726 25.1388 72.9937 25.5009 72.612 25.7651C72.2401 26.0196 71.7606 26.1468 71.1734 26.1468ZM70.8211 25.0899C71.2517 25.0899 71.5893 24.9969 71.834 24.811C72.0884 24.6152 72.2646 24.3657 72.3625 24.0623C72.4701 23.7491 72.5239 23.4213 72.5239 23.0788C72.5239 22.7362 72.4652 22.4133 72.3478 22.1099C72.2401 21.8065 72.0542 21.5619 71.7899 21.3759C71.5355 21.19 71.193 21.097 70.7624 21.097C70.3905 21.097 70.0773 21.1802 69.8229 21.3466C69.5684 21.5031 69.3776 21.7331 69.2504 22.0365C69.1232 22.3399 69.0595 22.6873 69.0595 23.0788C69.0595 23.48 69.1232 23.8323 69.2504 24.1357C69.3874 24.4391 69.588 24.6739 69.8522 24.8403C70.1165 25.0067 70.4394 25.0899 70.8211 25.0899ZM78.2982 26.1468C77.6523 26.1468 77.1091 26.0147 76.6687 25.7504C76.2284 25.4862 75.8956 25.1241 75.6705 24.6642C75.4552 24.1944 75.3476 23.6659 75.3476 23.0788C75.3476 22.472 75.4552 21.9386 75.6705 21.4787C75.8956 21.0089 76.2284 20.6419 76.6687 20.3777C77.1091 20.1135 77.6572 19.9814 78.3129 19.9814C79.2719 19.9814 80.001 20.2652 80.5001 20.8328C80.9992 21.4004 81.2488 22.149 81.2488 23.0788C81.2488 23.6562 81.1411 24.1797 80.9258 24.6495C80.7203 25.1094 80.3974 25.4764 79.957 25.7504C79.5264 26.0147 78.9734 26.1468 78.2982 26.1468ZM78.2982 25.1045C78.7777 25.1045 79.1447 25.0018 79.3991 24.7963C79.6536 24.5908 79.8249 24.3314 79.9129 24.0183C80.0108 23.6953 80.0597 23.3675 80.0597 23.0347C80.0597 22.702 80.0108 22.379 79.9129 22.0659C79.8249 21.7429 79.6536 21.4787 79.3991 21.2732C79.1447 21.0579 78.7777 20.9502 78.2982 20.9502C77.8382 20.9502 77.4761 21.0579 77.2119 21.2732C76.9574 21.4787 76.7813 21.7429 76.6834 22.0659C76.5856 22.379 76.5366 22.702 76.5366 23.0347C76.5366 23.3675 76.5856 23.6953 76.6834 24.0183C76.7813 24.3314 76.9574 24.5908 77.2119 24.7963C77.4761 25.0018 77.8382 25.1045 78.2982 25.1045ZM85.254 26.1468C84.8528 26.1468 84.5151 26.0832 84.2411 25.956C83.9769 25.8287 83.7616 25.6575 83.5952 25.4422C83.4386 25.2269 83.3212 24.9871 83.2429 24.7229C83.1646 24.4586 83.1108 24.1846 83.0814 23.9008C83.0521 23.617 83.0374 23.343 83.0374 23.0788V19.996H84.2411V23.0788C84.2411 23.4311 84.2754 23.7589 84.3439 24.0623C84.4124 24.3559 84.5543 24.5957 84.7696 24.7816C84.9849 24.9675 85.303 25.0605 85.7238 25.0605C86.1348 25.0605 86.4529 24.9675 86.6779 24.7816C86.903 24.5859 87.0596 24.3412 87.1477 24.0476C87.2456 23.754 87.2994 23.4506 87.3092 23.1375V19.996H88.5716V26H87.5294L87.3238 24.7522H87.2945C87.2651 24.8501 87.2064 24.9773 87.1183 25.1339C87.0303 25.2807 86.9079 25.4324 86.7513 25.589C86.5948 25.7456 86.3892 25.8777 86.1348 25.9853C85.8901 26.093 85.5965 26.1468 85.254 26.1468ZM92.214 26C91.803 26 91.4996 25.8923 91.3039 25.677C91.1081 25.4617 91.0103 25.1339 91.0103 24.6935V20.73H92.17V25.0311H93.5645V26H92.214ZM90.0854 20.8768V19.996C90.3105 19.996 90.4916 19.9814 90.6286 19.952C90.7754 19.9226 90.883 19.8639 90.9515 19.7758C91.0298 19.678 91.0837 19.5263 91.113 19.3208C91.1424 19.1055 91.1571 18.8168 91.1571 18.4547H92.17V19.996H93.5498V20.8768H90.0854ZM103.408 26.1468C102.645 26.1468 101.955 25.9902 101.338 25.677C100.722 25.3541 100.232 24.8795 99.8702 24.2531C99.5081 23.617 99.3271 22.8292 99.3271 21.8897C99.3369 20.96 99.5179 20.1771 99.8702 19.541C100.223 18.8951 100.712 18.4106 101.338 18.0877C101.965 17.755 102.674 17.5886 103.467 17.5886C104.181 17.5886 104.803 17.7207 105.331 17.9849C105.859 18.2394 106.285 18.5966 106.608 19.0565C106.941 19.5165 107.161 20.0548 107.269 20.6713H106.006C105.928 20.2016 105.762 19.8248 105.507 19.541C105.253 19.2572 104.944 19.0517 104.582 18.9244C104.23 18.7972 103.858 18.7336 103.467 18.7336C102.537 18.7336 101.818 19.0027 101.309 19.541C100.8 20.0694 100.545 20.8279 100.545 21.8163C100.545 22.8537 100.795 23.6464 101.294 24.1944C101.793 24.7327 102.503 25.0018 103.423 25.0018C103.853 25.0018 104.25 24.9333 104.612 24.7963C104.984 24.6593 105.297 24.4489 105.551 24.165C105.806 23.8715 105.972 23.4947 106.05 23.0347H107.327C107.22 23.6415 107 24.1797 106.667 24.6495C106.344 25.1192 105.908 25.4862 105.36 25.7504C104.822 26.0147 104.171 26.1468 103.408 26.1468ZM109.377 26V17.7354H111.491L113.81 25.4569H113.84L116.115 17.7354H118.229V26H116.981L117.055 18.3079H117.025L114.706 26H112.9L110.596 18.3079H110.566L110.625 26H109.377ZM121.969 23.299V21.9044L126.035 17.7354H127.62V17.8969L121.969 23.299ZM120.809 26V17.7354H122.027V26H120.809ZM126.387 26L123.099 21.6695L123.98 20.8034L127.796 25.8385V26H126.387ZM129.814 25.8826V17.7354H131.032V25.8826H129.814ZM129.814 26V24.9431H135.362V26H129.814Z" fill="#CAFAFF"/>
</g>
<defs>
<filter id="filter0_i_19_4621" x="58.5385" y="17.5886" width="76.824" height="8.55821" filterUnits="userSpaceOnUse" color-interpolation-filters="sRGB">
<feFlood flood-opacity="0" result="BackgroundImageFix"/>
<feBlend mode="normal" in="SourceGraphic" in2="BackgroundImageFix" result="shape"/>
<feColorMatrix in="SourceAlpha" type="matrix" values="0 0 0 0 0 0 0 0 0 0 0 0 0 0 0 0 0 0 127 0" result="hardAlpha"/>
<feOffset/>
<feGaussianBlur stdDeviation="0.855492"/>
<feComposite in2="hardAlpha" operator="arithmetic" k2="-1" k3="1"/>
<feColorMatrix type="matrix" values="0 0 0 0 0 0 0 0 0 0 0 0 0 0 0 0 0 0 0.16 0"/>
<feBlend mode="normal" in2="shape" result="effect1_innerShadow_19_4621"/>
</filter>
</defs>
</svg>
