<svg width="177" height="50" viewBox="0 0 177 50" fill="none" xmlns="http://www.w3.org/2000/svg">
<path d="M169.804 24.56L155.797 48.809H132.673L128.295 44.4199H105.888L101.51 48.809H14.4837L0.476562 24.56L14.4837 0.311035H37.1844L41.9857 5.10965H64.3792L69.1806 0.311035H155.797L159.689 7.05468L169.804 24.56Z" stroke="#00DAFA" stroke-width="0.505967" stroke-miterlimit="10"/>
<path d="M155.675 0.311035H162.448L166.34 7.05468L176.455 24.56L162.448 48.809H139.325L134.946 44.4199H112.54L108.161 48.809H21.1348L7.12769 24.56L21.1348 0.311035H43.8355L48.6369 5.10965H71.0431L75.8445 0.311035H155.675Z" stroke="#00DAFA" stroke-width="0.505967" stroke-miterlimit="10"/>
<path d="M155.947 6.96219H149.26L145.416 0.311035H152.104L155.947 6.96219Z" fill="#00DAFA"/>
<path d="M145.416 6.96219H138.548L134.608 0.311035H141.464L145.416 6.96219Z" fill="#00DAFA"/>
<path d="M43.4319 48.8091H36.7521L32.9009 42.158H39.5806L43.4319 48.8091Z" fill="#00DAFA"/>
<path d="M32.9009 48.8091H26.0371L22.0928 42.158H28.9565L32.9009 48.8091Z" fill="#00DAFA"/>
<path d="M37.2419 30.8905V17.9913H41.7516C42.6502 17.9913 43.3913 18.1467 43.975 18.4574C44.5586 18.7639 44.9932 19.1775 45.2788 19.6982C45.5643 20.2146 45.707 20.7878 45.707 21.4176C45.707 21.9719 45.6084 22.4296 45.411 22.7907C45.2179 23.1518 44.9617 23.4373 44.6426 23.6473C44.3277 23.8572 43.9855 24.0126 43.616 24.1134V24.2394C44.0107 24.2645 44.4075 24.4031 44.8064 24.655C45.2053 24.907 45.5391 25.2681 45.8078 25.7384C46.0766 26.2087 46.2109 26.7839 46.2109 27.4642C46.2109 28.1108 46.064 28.6923 45.77 29.2088C45.4761 29.7253 45.0121 30.1347 44.3781 30.437C43.744 30.7393 42.9189 30.8905 41.9028 30.8905H37.2419ZM38.804 29.5048H41.9028C42.9231 29.5048 43.6475 29.3075 44.0758 28.9128C44.5082 28.5139 44.7245 28.031 44.7245 27.4642C44.7245 27.0275 44.6132 26.6244 44.3907 26.2549C44.1681 25.8811 43.8511 25.583 43.4396 25.3605C43.0281 25.1337 42.541 25.0204 41.9784 25.0204H38.804V29.5048ZM38.804 23.6599H41.7012C42.1715 23.6599 42.5956 23.5675 42.9735 23.3828C43.3556 23.198 43.658 22.9377 43.8805 22.6018C44.1072 22.2658 44.2206 21.8711 44.2206 21.4176C44.2206 20.8508 44.0233 20.37 43.6286 19.9753C43.2339 19.5764 42.6082 19.377 41.7516 19.377H38.804V23.6599ZM49.6593 30.9913C49.3486 30.9913 49.082 30.88 48.8594 30.6575C48.6369 30.4349 48.5256 30.1683 48.5256 29.8576C48.5256 29.5468 48.6369 29.2802 48.8594 29.0577C49.082 28.8351 49.3486 28.7238 49.6593 28.7238C49.97 28.7238 50.2367 28.8351 50.4592 29.0577C50.6818 29.2802 50.793 29.5468 50.793 29.8576C50.793 30.0633 50.7406 30.2523 50.6356 30.4244C50.5348 30.5966 50.3983 30.7351 50.2262 30.8401C50.0582 30.9409 49.8693 30.9913 49.6593 30.9913ZM54.191 30.8905H52.5535L57.2899 17.9913H58.9023L63.6387 30.8905H62.0011L58.1465 20.032H58.0457L54.191 30.8905ZM54.7957 25.8518H61.3965V27.2374H54.7957V25.8518ZM66.5297 30.9913C66.219 30.9913 65.9523 30.88 65.7298 30.6575C65.5072 30.4349 65.396 30.1683 65.396 29.8576C65.396 29.5468 65.5072 29.2802 65.7298 29.0577C65.9523 28.8351 66.219 28.7238 66.5297 28.7238C66.8404 28.7238 67.107 28.8351 67.3296 29.0577C67.5521 29.2802 67.6634 29.5468 67.6634 29.8576C67.6634 30.0633 67.6109 30.2523 67.5059 30.4244C67.4052 30.5966 67.2687 30.7351 67.0965 30.8401C66.9286 30.9409 66.7396 30.9913 66.5297 30.9913ZM77.5866 21.2161C77.511 20.5779 77.2045 20.0824 76.667 19.7297C76.1296 19.377 75.4703 19.2006 74.6893 19.2006C74.1183 19.2006 73.6186 19.293 73.1903 19.4777C72.7662 19.6625 72.4345 19.9165 72.1951 20.2398C71.96 20.5632 71.8424 20.9306 71.8424 21.3421C71.8424 21.6864 71.9243 21.9824 72.0881 22.2301C72.256 22.4737 72.4702 22.6773 72.7305 22.8411C72.9908 23.0007 73.2638 23.1329 73.5493 23.2379C73.8348 23.3387 74.0973 23.4206 74.3366 23.4835L75.6467 23.8363C75.9826 23.9244 76.3563 24.0462 76.7678 24.2016C77.1835 24.3569 77.5803 24.569 77.9582 24.8377C78.3403 25.1022 78.6552 25.4424 78.903 25.858C79.1507 26.2737 79.2746 26.7839 79.2746 27.3886C79.2746 28.0856 79.0919 28.7154 78.7266 29.2781C78.3655 29.8408 77.8364 30.288 77.1394 30.6197C76.4466 30.9514 75.6047 31.1172 74.6137 31.1172C73.69 31.1172 72.8901 30.9682 72.214 30.6701C71.5422 30.3719 71.0131 29.9562 70.6268 29.423C70.2447 28.8897 70.0285 28.2704 69.9781 27.5649H71.5905C71.6325 28.052 71.7962 28.4551 72.0818 28.7742C72.3715 29.0891 72.7368 29.3243 73.1777 29.4797C73.6228 29.6308 74.1015 29.7064 74.6137 29.7064C75.21 29.7064 75.7454 29.6098 76.2198 29.4167C76.6943 29.2193 77.0701 28.9464 77.3473 28.5979C77.6244 28.2452 77.763 27.8337 77.763 27.3634C77.763 26.9351 77.6433 26.5866 77.4039 26.3178C77.1646 26.0491 76.8497 25.8308 76.4592 25.6628C76.0687 25.4948 75.6467 25.3479 75.1932 25.2219L73.606 24.7684C72.5982 24.4787 71.8004 24.0651 71.2126 23.5276C70.6247 22.9902 70.3308 22.2868 70.3308 21.4176C70.3308 20.6954 70.526 20.0656 70.9166 19.5281C71.3113 18.9865 71.8403 18.5666 72.5038 18.2684C73.1714 17.9661 73.9167 17.8149 74.7397 17.8149C75.5711 17.8149 76.3101 17.964 76.9568 18.2621C77.6034 18.5561 78.1157 18.9592 78.4936 19.4714C78.8757 19.9837 79.0772 20.5653 79.0982 21.2161H77.5866ZM85.5714 31.0921C84.6645 31.0921 83.8835 30.8779 83.2284 30.4496C82.5734 30.0213 82.0695 29.4314 81.7168 28.6798C81.3641 27.9281 81.1877 27.0694 81.1877 26.1037C81.1877 25.1211 81.3683 24.254 81.7294 23.5024C82.0947 22.7466 82.6028 22.1567 83.2536 21.7326C83.9087 21.3043 84.6729 21.0901 85.5463 21.0901C86.2265 21.0901 86.8395 21.2161 87.3854 21.468C87.9313 21.72 88.3785 22.0727 88.727 22.5262C89.0755 22.9797 89.2917 23.5087 89.3757 24.1134H87.8893C87.7759 23.6725 87.524 23.282 87.1335 22.9419C86.7472 22.5976 86.2265 22.4254 85.5714 22.4254C84.992 22.4254 84.4839 22.5766 84.0472 22.8789C83.6147 23.177 83.2767 23.599 83.0332 24.1449C82.7938 24.6865 82.6742 25.3227 82.6742 26.0533C82.6742 26.8007 82.7917 27.4516 83.0269 28.0058C83.2662 28.5601 83.6021 28.9905 84.0346 29.297C84.4713 29.6035 84.9836 29.7568 85.5714 29.7568C85.9578 29.7568 86.3084 29.6896 86.6233 29.5552C86.9382 29.4209 87.2048 29.2277 87.4232 28.9758C87.6415 28.7238 87.7969 28.4215 87.8893 28.0688H89.3757C89.2917 28.6399 89.0839 29.1542 88.7522 29.6119C88.4246 30.0654 87.99 30.4265 87.4484 30.6953C86.9109 30.9598 86.2853 31.0921 85.5714 31.0921ZM92.632 30.9913C92.3213 30.9913 92.0546 30.88 91.8321 30.6575C91.6095 30.4349 91.4983 30.1683 91.4983 29.8576C91.4983 29.5468 91.6095 29.2802 91.8321 29.0577C92.0546 28.8351 92.3213 28.7238 92.632 28.7238C92.9427 28.7238 93.2094 28.8351 93.4319 29.0577C93.6544 29.2802 93.7657 29.5468 93.7657 29.8576C93.7657 30.0633 93.7132 30.2523 93.6083 30.4244C93.5075 30.5966 93.371 30.7351 93.1989 30.8401C93.0309 30.9409 92.8419 30.9913 92.632 30.9913ZM101.421 30.8905V21.2161H102.908V30.8905H101.421ZM102.177 19.6037C101.888 19.6037 101.638 19.505 101.428 19.3077C101.222 19.1103 101.119 18.8731 101.119 18.5959C101.119 18.3188 101.222 18.0816 101.428 17.8842C101.638 17.6869 101.888 17.5882 102.177 17.5882C102.467 17.5882 102.715 17.6869 102.92 17.8842C103.13 18.0816 103.235 18.3188 103.235 18.5959C103.235 18.8731 103.13 19.1103 102.92 19.3077C102.715 19.505 102.467 19.6037 102.177 19.6037ZM107.117 25.0707V30.8905H105.63V21.2161H107.066V22.7277H107.192C107.419 22.2364 107.763 21.8417 108.225 21.5436C108.687 21.2413 109.284 21.0901 110.014 21.0901C110.669 21.0901 111.242 21.2245 111.734 21.4932C112.225 21.7578 112.607 22.1609 112.88 22.7025C113.153 23.24 113.289 23.9202 113.289 24.7432V30.8905H111.803V24.844C111.803 24.084 111.606 23.4919 111.211 23.0678C110.816 22.6395 110.274 22.4254 109.586 22.4254C109.111 22.4254 108.687 22.5283 108.314 22.734C107.944 22.9398 107.652 23.24 107.438 23.6347C107.224 24.0294 107.117 24.5081 107.117 25.0707ZM121.724 30.8905H120.087L124.823 17.9913H126.436L131.172 30.8905H129.535L125.68 20.032H125.579L121.724 30.8905ZM122.329 25.8518H128.93V27.2374H122.329V25.8518ZM133.084 30.8905V21.2161H134.57V30.8905H133.084ZM133.84 19.6037C133.55 19.6037 133.3 19.505 133.09 19.3077C132.884 19.1103 132.781 18.8731 132.781 18.5959C132.781 18.3188 132.884 18.0816 133.09 17.8842C133.3 17.6869 133.55 17.5882 133.84 17.5882C134.129 17.5882 134.377 17.6869 134.583 17.8842C134.793 18.0816 134.898 18.3188 134.898 18.5959C134.898 18.8731 134.793 19.1103 134.583 19.3077C134.377 19.505 134.129 19.6037 133.84 19.6037ZM137.293 30.8905V21.2161H138.779V30.8905H137.293ZM138.048 19.6037C137.759 19.6037 137.509 19.505 137.299 19.3077C137.093 19.1103 136.99 18.8731 136.99 18.5959C136.99 18.3188 137.093 18.0816 137.299 17.8842C137.509 17.6869 137.759 17.5882 138.048 17.5882C138.338 17.5882 138.586 17.6869 138.792 17.8842C139.002 18.0816 139.107 18.3188 139.107 18.5959C139.107 18.8731 139.002 19.1103 138.792 19.3077C138.586 19.505 138.338 19.6037 138.048 19.6037Z" fill="#CAFAFF"/>
</svg>
