<svg width="164" height="39" viewBox="0 0 164 39" fill="none" xmlns="http://www.w3.org/2000/svg">
<path opacity="0.3" d="M154.254 22.1933L158.982 10.2282L54.0948 10.1317L50.7176 3.95622L15.2084 3.85972L5.07666 29.3337L8.06796 34.2548L137.078 34.4478L154.254 22.1933Z" fill="#1B252F"/>
<path d="M53.9983 10.0352L50.7176 3.95622L15.2084 3.85972L5.07666 29.3337L8.06796 34.2548L44.349 34.3513L53.9983 10.0352Z" fill="#134869"/>
<path fill-rule="evenodd" clip-rule="evenodd" d="M137.657 37.7286H137.464L4.59419 37.6321L0.92749 31.4566V31.2636L13.182 0.579029H53.4193L56.7 6.75453L163.71 6.85103L156.859 24.0266L137.657 37.7286ZM5.07665 36.6671L137.368 36.8601L156.184 23.4477L162.359 7.71945L56.2176 7.62295L52.9369 1.44745H13.8575L1.89241 31.3601L5.07665 36.6671Z" fill="#65F2FC"/>
<path d="M69.5341 0L72.3323 5.01761H76.0955L73.2972 0H69.5341ZM62.7796 0L65.5778 5.01761H69.3411L66.4463 0H62.7796ZM56.0251 0L58.9199 5.01761H62.5866L59.7883 0H56.0251ZM89.8939 0L92.6922 5.01761H96.4554L93.6571 0H89.8939ZM76.2885 0L79.1833 5.01761H82.9465L80.0517 0H76.2885ZM83.043 0L85.9378 5.01761H89.7009L86.8062 0H83.043ZM103.403 0.0964982L106.201 5.01761H109.964L107.166 0.0964982H103.403ZM110.157 0.0964982L112.956 5.01761L116.719 5.11411L113.921 0.0964982H110.157ZM96.5519 0.0964982L99.4467 5.01761H103.113L100.315 0.0964982H96.5519ZM116.912 0.0964982L119.71 5.11411H123.473L120.675 0.0964982H116.912ZM130.421 0.0964982L133.219 5.11411H136.982L134.184 0.0964982H130.421ZM123.57 0.0964982L126.465 5.11411H130.228L127.333 0.0964982H123.57ZM150.684 0.0964982L153.579 5.11411H157.246L154.447 0.0964982H150.684ZM143.93 0.0964982L146.728 5.11411H150.491L147.693 0.0964982H143.93ZM137.079 0.0964982L139.973 5.11411H143.64L140.842 0.0964982H137.079ZM157.439 0.192996L160.237 5.11411H164L161.202 0.192996H157.439Z" fill="#65F2FC"/>
<path d="M155.701 28.1759L151.648 38.2111H141.613L155.701 28.1759Z" fill="#65F2FC"/>
<path d="M29.2966 16.6931C28.4282 16.6931 27.7527 17.3686 27.7527 18.3335L27.6562 24.9914C27.6562 25.8599 28.4282 26.6318 29.2966 26.6318C30.1651 26.6318 30.937 25.8599 30.937 24.9914V18.3335C30.937 17.4651 30.1651 16.6931 29.2966 16.6931ZM29.2966 15.1493C30.1651 15.1493 30.8405 14.3773 30.8405 13.5089C30.8405 12.6404 30.1651 11.965 29.2966 11.965C28.4282 11.965 27.7527 12.6404 27.7527 13.5089C27.7527 14.3773 28.4282 15.1493 29.2966 15.1493Z" fill="white"/>
<path fill-rule="evenodd" clip-rule="evenodd" d="M29.2958 30.0094C26.401 30.0094 23.6992 28.948 21.6728 26.8252C19.6465 24.7989 18.5851 22.0971 18.5851 19.2988C18.5851 13.3163 23.4097 8.49166 29.2958 8.49166C32.1905 8.49166 34.8923 9.64956 36.9186 11.6759C38.945 13.7022 40.1029 16.404 40.1029 19.2988C40.1029 22.1935 38.945 24.8953 36.9186 26.9217C34.8923 28.948 32.1905 30.0094 29.2958 30.0094ZM29.2958 9.64955C23.9887 9.64955 19.6465 13.8952 19.6465 19.2988C19.6465 21.8076 20.6114 24.3164 22.4448 26.0532C24.2781 27.8866 26.6905 28.948 29.2958 28.948C31.9011 28.948 34.3133 27.8866 36.1467 26.1497C37.98 24.3164 38.945 21.9041 38.945 19.2988C38.945 16.6935 37.98 14.2812 36.1467 12.4478C34.3133 10.6145 31.9011 9.64955 29.2958 9.64955Z" fill="white"/>
<g filter="url(#filter0_i_45_3)">
<path d="M81.896 25.7072V17.4425H84.7879C85.4925 17.4425 86.0894 17.5159 86.5788 17.6627C87.0779 17.8095 87.4595 18.0591 87.7238 18.4114C87.988 18.7539 88.1201 19.2286 88.1201 19.8353C88.1201 20.2561 88.0467 20.6329 87.8999 20.9656C87.7629 21.2984 87.5525 21.5626 87.2687 21.7583C86.9849 21.9443 86.6326 22.0373 86.2118 22.0373C86.5347 22.0373 86.7843 22.1009 86.9604 22.2281C87.1464 22.3455 87.2834 22.507 87.3715 22.7125C87.4595 22.9082 87.5183 23.1186 87.5476 23.3437C87.577 23.5688 87.5966 23.789 87.6063 24.0043C87.6259 24.2196 87.6602 24.4056 87.7091 24.5621C87.758 24.7187 87.8412 24.8264 87.9587 24.8851C88.0859 24.9438 88.2669 24.9291 88.5018 24.8411V25.575C88.3648 25.6925 88.1886 25.7708 87.9733 25.8099C87.758 25.8588 87.5378 25.8442 87.3128 25.7659C87.0974 25.6974 86.9115 25.5506 86.7549 25.3255C86.6081 25.0906 86.5347 24.753 86.5347 24.3126C86.5347 23.9016 86.5152 23.559 86.476 23.285C86.4467 23.011 86.3733 22.8006 86.2558 22.6538C86.1384 22.4972 85.9573 22.3847 85.7127 22.3162C85.468 22.2379 85.1353 22.1987 84.7145 22.1987C84.3034 22.1889 83.775 22.1938 83.1291 22.2134V25.7072H81.896ZM83.1291 21.3033H84.8319C85.331 21.3033 85.742 21.2739 86.065 21.2152C86.3879 21.1467 86.6277 21.0146 86.7843 20.8188C86.9507 20.6133 87.0338 20.3148 87.0338 19.9234C87.0338 19.4634 86.936 19.1307 86.7402 18.9252C86.5445 18.7197 86.2607 18.5924 85.8888 18.5435C85.5169 18.4848 85.057 18.4554 84.5089 18.4554H83.1291V21.3033ZM92.4502 25.8539C92.0489 25.8539 91.7113 25.7903 91.4373 25.6631C91.173 25.5359 90.9577 25.3646 90.7914 25.1493C90.6348 24.934 90.5173 24.6943 90.439 24.43C90.3608 24.1658 90.3069 23.8918 90.2776 23.608C90.2482 23.3242 90.2335 23.0501 90.2335 22.7859V19.7032H91.4373V22.7859C91.4373 23.1382 91.4715 23.4661 91.54 23.7694C91.6085 24.063 91.7504 24.3028 91.9657 24.4887C92.181 24.6747 92.4991 24.7677 92.9199 24.7677C93.3309 24.7677 93.649 24.6747 93.8741 24.4887C94.0992 24.293 94.2557 24.0484 94.3438 23.7548C94.4417 23.4612 94.4955 23.1578 94.5053 22.8446V19.7032H95.7677V25.7072H94.7255L94.52 24.4594H94.4906C94.4613 24.5573 94.4025 24.6845 94.3145 24.8411C94.2264 24.9879 94.1041 25.1395 93.9475 25.2961C93.7909 25.4527 93.5854 25.5848 93.3309 25.6925C93.0863 25.8001 92.7927 25.8539 92.4502 25.8539ZM97.8541 25.7072V17.4425H99.0578V25.7072H97.8541ZM103.838 25.8539C103.163 25.8539 102.61 25.7072 102.179 25.4136C101.749 25.1102 101.431 24.7236 101.225 24.2539C101.02 23.7743 100.917 23.2801 100.917 22.7712C100.907 22.1938 101.015 21.6703 101.24 21.2005C101.475 20.7308 101.807 20.3589 102.238 20.0849C102.678 19.8108 103.202 19.6738 103.809 19.6738C104.337 19.6738 104.807 19.7913 105.218 20.0261C105.629 20.2512 105.957 20.5742 106.202 20.995C106.446 21.406 106.578 21.8953 106.598 22.463C106.608 22.4923 106.613 22.551 106.613 22.6391C106.613 22.7174 106.613 22.7859 106.613 22.8446H102.077C102.077 23.471 102.228 23.9603 102.532 24.3126C102.845 24.6551 103.275 24.8264 103.823 24.8264C104.234 24.8264 104.582 24.7236 104.866 24.5181C105.159 24.3028 105.34 24.019 105.409 23.6667H106.598C106.539 24.0777 106.392 24.4496 106.157 24.7823C105.923 25.1151 105.609 25.3793 105.218 25.575C104.827 25.761 104.367 25.8539 103.838 25.8539ZM102.121 22.2428H105.379C105.37 22.1351 105.34 21.9932 105.291 21.8171C105.252 21.6409 105.174 21.4696 105.057 21.3033C104.939 21.1271 104.778 20.9803 104.572 20.8629C104.367 20.7454 104.102 20.6867 103.779 20.6867C103.486 20.6867 103.236 20.7357 103.031 20.8335C102.825 20.9314 102.659 21.0635 102.532 21.2299C102.404 21.3865 102.307 21.5577 102.238 21.7437C102.179 21.9198 102.14 22.0862 102.121 22.2428ZM111.032 25.8539C110.758 25.8539 110.488 25.8148 110.224 25.7365C109.97 25.668 109.73 25.5653 109.505 25.4282C109.29 25.2912 109.094 25.1346 108.918 24.9585C108.751 24.7823 108.619 24.5915 108.521 24.386C108.433 24.1707 108.389 23.9456 108.389 23.7107H109.534C109.534 23.7205 109.539 23.789 109.549 23.9162C109.568 24.0435 109.622 24.1903 109.71 24.3566C109.798 24.5132 109.94 24.6502 110.136 24.7677C110.342 24.8851 110.63 24.9438 111.002 24.9438C111.286 24.9438 111.526 24.9096 111.722 24.8411C111.927 24.7726 112.084 24.6796 112.191 24.5621C112.299 24.4349 112.348 24.2832 112.338 24.1071C112.338 23.8624 112.245 23.6716 112.059 23.5346C111.873 23.3976 111.633 23.2899 111.34 23.2116C111.046 23.1235 110.738 23.0404 110.415 22.9621C110.092 22.8838 109.784 22.781 109.49 22.6538C109.197 22.5168 108.957 22.3357 108.771 22.1106C108.595 21.8758 108.512 21.5626 108.521 21.1712C108.521 20.6427 108.742 20.2366 109.182 19.9527C109.632 19.6592 110.2 19.5124 110.885 19.5124C111.218 19.5124 111.54 19.5515 111.854 19.6298C112.167 19.7081 112.446 19.8304 112.69 19.9968C112.945 20.1632 113.145 20.3833 113.292 20.6574C113.449 20.9314 113.522 21.269 113.512 21.6703H112.382C112.392 21.4158 112.348 21.2103 112.25 21.0537C112.162 20.8971 112.04 20.7797 111.883 20.7014C111.726 20.6133 111.56 20.5546 111.384 20.5253C111.218 20.4861 111.056 20.4665 110.899 20.4665C110.508 20.4665 110.2 20.5399 109.975 20.6867C109.75 20.8237 109.637 21.0097 109.637 21.2446C109.637 21.4892 109.73 21.68 109.916 21.8171C110.102 21.9541 110.342 22.0617 110.635 22.14C110.929 22.2183 111.242 22.2966 111.575 22.3749C111.907 22.4532 112.221 22.5608 112.514 22.6978C112.808 22.8251 113.048 23.0061 113.234 23.241C113.419 23.4759 113.512 23.789 113.512 24.1805C113.512 24.5621 113.405 24.8753 113.189 25.12C112.984 25.3646 112.695 25.5506 112.323 25.6778C111.951 25.7952 111.521 25.8539 111.032 25.8539Z" fill="#CAFAFF"/>
</g>
<defs>
<filter id="filter0_i_45_3" x="81.896" y="17.4425" width="31.6311" height="8.44077" filterUnits="userSpaceOnUse" color-interpolation-filters="sRGB">
<feFlood flood-opacity="0" result="BackgroundImageFix"/>
<feBlend mode="normal" in="SourceGraphic" in2="BackgroundImageFix" result="shape"/>
<feColorMatrix in="SourceAlpha" type="matrix" values="0 0 0 0 0 0 0 0 0 0 0 0 0 0 0 0 0 0 127 0" result="hardAlpha"/>
<feOffset/>
<feGaussianBlur stdDeviation="0.855492"/>
<feComposite in2="hardAlpha" operator="arithmetic" k2="-1" k3="1"/>
<feColorMatrix type="matrix" values="0 0 0 0 0 0 0 0 0 0 0 0 0 0 0 0 0 0 0.16 0"/>
<feBlend mode="normal" in2="shape" result="effect1_innerShadow_45_3"/>
</filter>
</defs>
</svg>
