<svg width="164" height="39" viewBox="0 0 164 39" fill="none" xmlns="http://www.w3.org/2000/svg">
<path opacity="0.3" d="M154.254 22.3581L158.982 10.3931L54.0948 10.2966L50.7176 4.1211L15.2084 4.0246L5.07666 29.4986L8.06796 34.4197L137.078 34.6127L154.254 22.3581Z" fill="#1B252F"/>
<path d="M53.9983 10.2001L50.7176 4.1211L15.2084 4.0246L5.07666 29.4986L8.06796 34.4197L44.349 34.5162L53.9983 10.2001Z" fill="#134869"/>
<path fill-rule="evenodd" clip-rule="evenodd" d="M137.657 37.8935H137.464L4.59419 37.797L0.92749 31.6215V31.4285L13.182 0.743923H53.4193L56.7 6.91942L163.71 7.01592L156.859 24.1915L137.657 37.8935ZM5.07665 36.832L137.368 37.025L156.184 23.6126L162.359 7.88435L56.2176 7.78785L52.9369 1.61235H13.8575L1.89241 31.525L5.07665 36.832Z" fill="#65F2FC"/>
<path d="M69.5341 0.16489L72.3323 5.1825H76.0955L73.2972 0.16489H69.5341ZM62.7796 0.16489L65.5778 5.1825H69.3411L66.4463 0.16489H62.7796ZM56.0251 0.16489L58.9199 5.1825H62.5866L59.7883 0.16489H56.0251ZM89.8939 0.16489L92.6922 5.1825H96.4554L93.6571 0.16489H89.8939ZM76.2885 0.16489L79.1833 5.1825H82.9465L80.0517 0.16489H76.2885ZM83.043 0.16489L85.9378 5.1825H89.7009L86.8062 0.16489H83.043ZM103.403 0.261388L106.201 5.1825H109.964L107.166 0.261388H103.403ZM110.157 0.261388L112.956 5.1825L116.719 5.279L113.921 0.261388H110.157ZM96.5519 0.261388L99.4467 5.1825H103.113L100.315 0.261388H96.5519ZM116.912 0.261388L119.71 5.279H123.473L120.675 0.261388H116.912ZM130.421 0.261388L133.219 5.279H136.982L134.184 0.261388H130.421ZM123.57 0.261388L126.465 5.279H130.228L127.333 0.261388H123.57ZM150.684 0.261388L153.579 5.279H157.246L154.447 0.261388H150.684ZM143.93 0.261388L146.728 5.279H150.491L147.693 0.261388H143.93ZM137.079 0.261388L139.973 5.279H143.64L140.842 0.261388H137.079ZM157.439 0.357887L160.237 5.279H164L161.202 0.357887H157.439Z" fill="#65F2FC"/>
<path d="M155.701 28.3408L151.648 38.376H141.613L155.701 28.3408Z" fill="#65F2FC"/>
<path d="M29.2966 16.858C28.4282 16.858 27.7527 17.5334 27.7527 18.4984L27.6562 25.1563C27.6562 26.0247 28.4282 26.7967 29.2966 26.7967C30.1651 26.7967 30.937 26.0247 30.937 25.1563V18.4984C30.937 17.6299 30.1651 16.858 29.2966 16.858ZM29.2966 15.3141C30.1651 15.3141 30.8405 14.5422 30.8405 13.6737C30.8405 12.8053 30.1651 12.1299 29.2966 12.1299C28.4282 12.1299 27.7527 12.8053 27.7527 13.6737C27.7527 14.5422 28.4282 15.3141 29.2966 15.3141Z" fill="white"/>
<path fill-rule="evenodd" clip-rule="evenodd" d="M29.2958 30.1743C26.401 30.1743 23.6992 29.1129 21.6728 26.9901C19.6465 24.9637 18.5851 22.2619 18.5851 19.4636C18.5851 13.4811 23.4097 8.65652 29.2958 8.65652C32.1905 8.65652 34.8923 9.81442 36.9186 11.8408C38.945 13.8671 40.1029 16.5689 40.1029 19.4636C40.1029 22.3584 38.945 25.0602 36.9186 27.0865C34.8923 29.1129 32.1905 30.1743 29.2958 30.1743ZM29.2958 9.81441C23.9887 9.81441 19.6465 14.0601 19.6465 19.4636C19.6465 21.9724 20.6114 24.4812 22.4448 26.2181C24.2781 28.0515 26.6905 29.1129 29.2958 29.1129C31.9011 29.1129 34.3133 28.0515 36.1467 26.3146C37.98 24.4812 38.945 22.0689 38.945 19.4636C38.945 16.8583 37.98 14.446 36.1467 12.6127C34.3133 10.7793 31.9011 9.81441 29.2958 9.81441Z" fill="white"/>
<g filter="url(#filter0_i_19_4621)">
<path d="M68.7752 26L71.5497 17.7354H73.5608L76.3939 26H75.0874L72.5772 18.2492L70.067 26H68.7752ZM70.4634 23.5338L70.5074 22.565H74.6177L74.6764 23.5338H70.4634ZM81.4101 26.1468C81.0382 26.1468 80.7202 26.0881 80.4559 25.9706C80.1917 25.8434 79.9764 25.6966 79.81 25.5303C79.6437 25.3639 79.5213 25.2122 79.443 25.0752C79.3648 24.9284 79.3158 24.8354 79.2963 24.7963H79.2669L79.0761 26H78.0191V17.7354H79.2816V21.4053H79.3109C79.3207 21.3661 79.3599 21.2732 79.4284 21.1264C79.5067 20.9796 79.6241 20.8181 79.7807 20.6419C79.9373 20.4658 80.1477 20.3141 80.4119 20.1869C80.6859 20.0597 81.0187 19.996 81.4101 19.996C81.9973 19.996 82.4768 20.1282 82.8487 20.3924C83.2206 20.6468 83.4995 21.0089 83.6855 21.4787C83.8714 21.9386 83.9644 22.4769 83.9644 23.0934C83.9644 23.6904 83.8714 24.2189 83.6855 24.6788C83.5093 25.1388 83.2304 25.5009 82.8487 25.7651C82.4768 26.0196 81.9973 26.1468 81.4101 26.1468ZM81.0578 25.0899C81.4884 25.0899 81.826 24.9969 82.0707 24.811C82.3251 24.6152 82.5013 24.3657 82.5992 24.0623C82.7068 23.7491 82.7606 23.4213 82.7606 23.0788C82.7606 22.7362 82.7019 22.4133 82.5845 22.1099C82.4768 21.8065 82.2909 21.5619 82.0267 21.3759C81.7722 21.19 81.4297 21.097 80.9991 21.097C80.6272 21.097 80.314 21.1802 80.0596 21.3466C79.8051 21.5031 79.6143 21.7331 79.4871 22.0365C79.3599 22.3399 79.2963 22.6873 79.2963 23.0788C79.2963 23.48 79.3599 23.8323 79.4871 24.1357C79.6241 24.4391 79.8247 24.6739 80.0889 24.8403C80.3532 25.0067 80.6761 25.0899 81.0578 25.0899ZM88.5349 26.1468C87.889 26.1468 87.3458 26.0147 86.9055 25.7504C86.4651 25.4862 86.1323 25.1241 85.9072 24.6642C85.6919 24.1944 85.5843 23.6659 85.5843 23.0788C85.5843 22.472 85.6919 21.9386 85.9072 21.4787C86.1323 21.0089 86.4651 20.6419 86.9055 20.3777C87.3458 20.1135 87.8939 19.9814 88.5496 19.9814C89.5086 19.9814 90.2377 20.2652 90.7368 20.8328C91.2359 21.4004 91.4855 22.149 91.4855 23.0788C91.4855 23.6562 91.3778 24.1797 91.1625 24.6495C90.957 25.1094 90.6341 25.4764 90.1937 25.7504C89.7631 26.0147 89.2101 26.1468 88.5349 26.1468ZM88.5349 25.1045C89.0144 25.1045 89.3814 25.0018 89.6359 24.7963C89.8903 24.5908 90.0616 24.3314 90.1496 24.0183C90.2475 23.6953 90.2964 23.3675 90.2964 23.0347C90.2964 22.702 90.2475 22.379 90.1496 22.0659C90.0616 21.7429 89.8903 21.4787 89.6359 21.2732C89.3814 21.0579 89.0144 20.9502 88.5349 20.9502C88.0749 20.9502 87.7128 21.0579 87.4486 21.2732C87.1941 21.4787 87.018 21.7429 86.9201 22.0659C86.8223 22.379 86.7733 22.702 86.7733 23.0347C86.7733 23.3675 86.8223 23.6953 86.9201 24.0183C87.018 24.3314 87.1941 24.5908 87.4486 24.7963C87.7128 25.0018 88.0749 25.1045 88.5349 25.1045ZM95.4907 26.1468C95.0895 26.1468 94.7519 26.0832 94.4778 25.956C94.2136 25.8287 93.9983 25.6575 93.8319 25.4422C93.6754 25.2269 93.5579 24.9871 93.4796 24.7229C93.4013 24.4586 93.3475 24.1846 93.3181 23.9008C93.2888 23.617 93.2741 23.343 93.2741 23.0788V19.996H94.4778V23.0788C94.4778 23.4311 94.5121 23.7589 94.5806 24.0623C94.6491 24.3559 94.791 24.5957 95.0063 24.7816C95.2216 24.9675 95.5397 25.0605 95.9605 25.0605C96.3715 25.0605 96.6896 24.9675 96.9147 24.7816C97.1397 24.5859 97.2963 24.3412 97.3844 24.0476C97.4823 23.754 97.5361 23.4506 97.5459 23.1375V19.996H98.8083V26H97.7661L97.5606 24.7522H97.5312C97.5018 24.8501 97.4431 24.9773 97.355 25.1339C97.267 25.2807 97.1446 25.4324 96.988 25.589C96.8315 25.7456 96.626 25.8777 96.3715 25.9853C96.1268 26.093 95.8333 26.1468 95.4907 26.1468ZM102.451 26C102.04 26 101.736 25.8923 101.541 25.677C101.345 25.4617 101.247 25.1339 101.247 24.6935V20.73H102.407V25.0311H103.801V26H102.451ZM100.322 20.8768V19.996C100.547 19.996 100.728 19.9814 100.865 19.952C101.012 19.9226 101.12 19.8639 101.188 19.7758C101.267 19.678 101.32 19.5263 101.35 19.3208C101.379 19.1055 101.394 18.8168 101.394 18.4547H102.407V19.996H103.787V20.8768H100.322ZM113.527 26.2055C112.392 26.2055 111.521 25.8826 110.914 25.2367C110.317 24.581 110.019 23.661 110.019 22.4769V17.7354H111.296V22.4622C111.296 22.9417 111.355 23.3479 111.472 23.6806C111.599 24.0036 111.766 24.2678 111.971 24.4733C112.177 24.669 112.412 24.8158 112.676 24.9137C112.95 25.0018 113.234 25.0458 113.527 25.0458C113.968 25.0458 114.354 24.9675 114.687 24.811C115.029 24.6446 115.294 24.3706 115.48 23.9889C115.675 23.6072 115.773 23.0983 115.773 22.4622V17.7354H117.05V22.4769C117.05 23.6806 116.752 24.6054 116.155 25.2513C115.568 25.8875 114.692 26.2055 113.527 26.2055ZM122.584 26.1762C122.133 26.1762 121.698 26.1223 121.277 26.0147C120.856 25.907 120.475 25.7407 120.132 25.5156C119.79 25.2905 119.516 25.0018 119.31 24.6495C119.105 24.2874 118.997 23.8568 118.987 23.3577H120.22C120.22 23.387 120.23 23.4653 120.25 23.5925C120.269 23.7198 120.318 23.8666 120.396 24.0329C120.484 24.1993 120.612 24.3608 120.778 24.5174C120.954 24.6739 121.194 24.8061 121.497 24.9137C121.811 25.0116 122.202 25.0605 122.672 25.0605C123.034 25.0605 123.337 25.0214 123.582 24.9431C123.827 24.8648 124.022 24.762 124.169 24.6348C124.316 24.5076 124.419 24.3755 124.477 24.2384C124.546 24.1014 124.58 23.9791 124.58 23.8715C124.58 23.5681 124.482 23.3234 124.287 23.1375C124.101 22.9515 123.846 22.8047 123.523 22.6971C123.2 22.5797 122.843 22.4769 122.452 22.3888C122.07 22.291 121.688 22.1882 121.307 22.0805C120.925 21.9631 120.573 21.8114 120.25 21.6255C119.936 21.4395 119.692 21.1998 119.516 20.9062C119.339 20.6028 119.261 20.2162 119.281 19.7465C119.31 19.2963 119.467 18.9097 119.751 18.5868C120.034 18.2638 120.421 18.0192 120.91 17.8528C121.409 17.6767 121.977 17.5886 122.613 17.5886C123.19 17.5886 123.719 17.6913 124.198 17.8969C124.688 18.1024 125.079 18.4106 125.373 18.8217C125.676 19.2229 125.823 19.7367 125.813 20.363H124.624C124.634 20.0205 124.565 19.7465 124.419 19.541C124.272 19.3257 124.081 19.1593 123.846 19.0419C123.621 18.9244 123.386 18.8461 123.141 18.807C122.897 18.7581 122.677 18.7336 122.481 18.7336C121.933 18.7336 121.478 18.8363 121.116 19.0419C120.763 19.2376 120.582 19.5165 120.573 19.8786C120.563 20.1918 120.656 20.4413 120.851 20.6273C121.047 20.8132 121.307 20.96 121.629 21.0677C121.952 21.1753 122.31 21.2732 122.701 21.3612C123.093 21.4493 123.479 21.5472 123.861 21.6548C124.242 21.7625 124.59 21.9093 124.903 22.0952C125.226 22.2714 125.476 22.5111 125.652 22.8145C125.838 23.1179 125.921 23.5094 125.901 23.9889C125.882 24.4489 125.725 24.8403 125.432 25.1633C125.138 25.4862 124.746 25.7358 124.257 25.9119C123.768 26.0881 123.21 26.1762 122.584 26.1762Z" fill="#CAFAFF"/>
</g>
<defs>
<filter id="filter0_i_19_4621" x="68.7753" y="17.5886" width="57.1554" height="8.61693" filterUnits="userSpaceOnUse" color-interpolation-filters="sRGB">
<feFlood flood-opacity="0" result="BackgroundImageFix"/>
<feBlend mode="normal" in="SourceGraphic" in2="BackgroundImageFix" result="shape"/>
<feColorMatrix in="SourceAlpha" type="matrix" values="0 0 0 0 0 0 0 0 0 0 0 0 0 0 0 0 0 0 127 0" result="hardAlpha"/>
<feOffset/>
<feGaussianBlur stdDeviation="0.855492"/>
<feComposite in2="hardAlpha" operator="arithmetic" k2="-1" k3="1"/>
<feColorMatrix type="matrix" values="0 0 0 0 0 0 0 0 0 0 0 0 0 0 0 0 0 0 0.16 0"/>
<feBlend mode="normal" in2="shape" result="effect1_innerShadow_19_4621"/>
</filter>
</defs>
</svg>
