<svg width="327" height="110" viewBox="0 0 327 110" fill="none" xmlns="http://www.w3.org/2000/svg">
<g style="mix-blend-mode:soft-light">
<path d="M13.4634 74.673V35.2528L47.6025 15.5427L81.7415 35.2528V74.673L47.6025 94.3832L13.4634 74.673Z" fill="#0096D7"/>
</g>
<path d="M21.2256 70.1912V39.7346L47.6023 24.5063L73.979 39.7346V70.1912L47.6023 85.4195L21.2256 70.1912Z" fill="#000004" fill-opacity="0.45"/>
<g style="mix-blend-mode:soft-light">
<path d="M81.1218 74.8055V35.1226H314.114L325.57 54.9652L314.114 74.8078H81.1218V74.8055Z" fill="#0096D7"/>
</g>
<path d="M80.9558 74.8205V35.5715H311.61L325.05 55.1971L311.61 74.8227H80.9558V74.8205Z" fill="#000004" fill-opacity="0.45"/>
<path d="M47.6025 95.818L12.2217 75.3916V34.5365L47.6025 14.1101L82.9832 34.5365V75.3916L47.6025 95.818ZM15.3271 73.5975L47.6025 92.2321L79.8779 73.5975V36.3283L47.6025 17.6938L15.3271 36.3283V73.5975Z" fill="#0096D7"/>
<path d="M314.828 76.0472H79.8779V33.8809H314.828L327 54.9652L314.828 76.0495V76.0472ZM82.9833 72.9419H313.036L323.416 54.9629L313.036 36.984H82.9833V72.9419Z" fill="#0096D7"/>
<path d="M237.911 23.7518H250.102L225.948 9.80786H213.758L237.911 23.7518Z" fill="#0096D7"/>
<path d="M211.977 23.7518H230.549L206.395 9.80786H187.823L211.977 23.7518Z" fill="#0096D7"/>
<path d="M180.46 9.80786H123.818L99.6665 23.7518H204.614L180.46 9.80786Z" fill="#0096D7"/>
<path d="M138.164 18.8547V14.7029L134.569 12.6259L130.972 14.7029V18.8547L134.569 20.9317L138.164 18.8547Z" fill="white"/>
<path d="M154.922 18.8547V14.7029L151.327 12.6259L147.729 14.7029V18.8547L151.327 20.9317L154.922 18.8547Z" fill="white"/>
<path d="M171.681 18.8547V14.7029L168.084 12.6259L164.489 14.7029V18.8547L168.084 20.9317L171.681 18.8547Z" fill="white"/>
<path d="M47.6025 8.96139L84.6 30.3241H95.2027V27.4815L47.6025 0L0 27.4815V82.4466L47.6025 109.928L95.2027 82.4466V79.6062H84.5977L47.6025 100.967L7.76235 77.9648V31.9633L47.6025 8.96139Z" fill="#0096D7"/>
<path d="M206.871 79.6062H92.8967V82.4466H201.951L206.871 79.6062Z" fill="#0096D7"/>
<path d="M285.774 79.6062H239.939L244.861 82.4466H280.855L285.774 79.6062Z" fill="#0096D7"/>
<path d="M140.131 27.4792H92.8967V30.3219H145.051L140.131 27.4792Z" fill="#0096D7"/>
<path d="M180.24 30.3219H308.121L303.199 27.4792H185.162L180.24 30.3219Z" fill="#0096D7"/>
<g opacity="0.73" filter="url(#filter0_i_129_1725)">
<path d="M41.9721 63.2513V59.4452H45.5495V48.8743L41.9721 49.883V45.7004L46.8137 44.4227H49.3421V59.4452H52.9734V63.2513H41.9721ZM43.6129 61.8257H51.3057V60.9919H47.8762V45.9156H47.2038L43.4515 46.9915V47.8791L47.0424 46.8301V60.9919H43.6129V61.8257Z" fill="#80D8FF"/>
</g>
<g opacity="0.73" filter="url(#filter1_i_129_1725)">
<path d="M118.163 62.1967V48.0654H123.108C124.313 48.0654 125.333 48.1909 126.17 48.4419C127.023 48.6929 127.676 49.1196 128.128 49.722C128.58 50.3076 128.805 51.1192 128.805 52.1567C128.805 52.8762 128.68 53.5204 128.429 54.0894C128.195 54.6583 127.835 55.1101 127.35 55.4448C126.864 55.7627 126.262 55.9217 125.542 55.9217C126.095 55.9217 126.521 56.0304 126.823 56.248C127.14 56.4488 127.375 56.7249 127.525 57.0763C127.676 57.4109 127.776 57.7707 127.827 58.1556C127.877 58.5404 127.91 58.9169 127.927 59.2851C127.96 59.6532 128.019 59.9711 128.103 60.2389C128.186 60.5066 128.329 60.6907 128.529 60.7911C128.747 60.8915 129.056 60.8664 129.458 60.7158V61.9708C129.224 62.1716 128.923 62.3054 128.554 62.3724C128.186 62.456 127.81 62.4309 127.425 62.2971C127.057 62.1799 126.739 61.9289 126.471 61.5441C126.22 61.1425 126.095 60.5652 126.095 59.8122C126.095 59.1094 126.061 58.5237 125.994 58.0552C125.944 57.5866 125.819 57.2269 125.618 56.9759C125.417 56.7081 125.107 56.5157 124.689 56.3986C124.271 56.2647 123.702 56.1978 122.982 56.1978C122.279 56.181 121.376 56.1894 120.271 56.2229V62.1967H118.163ZM120.271 54.6667H123.183C124.036 54.6667 124.739 54.6165 125.291 54.5161C125.844 54.3989 126.254 54.173 126.521 53.8384C126.806 53.487 126.948 52.9766 126.948 52.3073C126.948 51.5208 126.781 50.9519 126.446 50.6005C126.111 50.2491 125.626 50.0315 124.99 49.9479C124.354 49.8475 123.568 49.7973 122.631 49.7973H120.271V54.6667ZM137.238 62.4477C136.084 62.4477 135.138 62.1967 134.402 61.6947C133.666 61.1759 133.122 60.515 132.77 59.7118C132.419 58.8918 132.243 58.0468 132.243 57.1767C132.227 56.1894 132.411 55.2942 132.796 54.491C133.197 53.6878 133.766 53.0519 134.502 52.5834C135.255 52.1148 136.151 51.8806 137.188 51.8806C138.092 51.8806 138.895 52.0814 139.598 52.483C140.3 52.8678 140.861 53.42 141.279 54.1396C141.698 54.8424 141.924 55.679 141.957 56.6496C141.974 56.6998 141.982 56.8002 141.982 56.9508C141.982 57.0846 141.982 57.2018 141.982 57.3022H134.226C134.226 58.3731 134.486 59.2098 135.004 59.8122C135.54 60.3978 136.276 60.6907 137.213 60.6907C137.916 60.6907 138.51 60.515 138.995 60.1636C139.497 59.7954 139.807 59.3102 139.924 58.7078H141.957C141.857 59.4106 141.606 60.0464 141.204 60.6154C140.802 61.1843 140.267 61.6361 139.598 61.9708C138.928 62.2887 138.142 62.4477 137.238 62.4477ZM134.302 56.2731H139.874C139.857 56.089 139.807 55.8464 139.723 55.5452C139.656 55.244 139.522 54.9511 139.322 54.6667C139.121 54.3655 138.845 54.1145 138.493 53.9137C138.142 53.7129 137.69 53.6125 137.138 53.6125C136.636 53.6125 136.209 53.6961 135.858 53.8635C135.506 54.0308 135.222 54.2567 135.004 54.5412C134.787 54.8089 134.62 55.1017 134.502 55.4197C134.402 55.7209 134.335 56.0053 134.302 56.2731ZM147.932 66.5892V64.6314H152.751V60.1385H152.701C152.667 60.2054 152.584 60.3644 152.45 60.6154C152.316 60.8496 152.107 61.109 151.822 61.3935C151.554 61.6779 151.195 61.9289 150.743 62.1465C150.308 62.3473 149.764 62.4477 149.111 62.4477C148.124 62.4477 147.304 62.2218 146.652 61.77C145.999 61.3182 145.514 60.699 145.196 59.9126C144.895 59.1261 144.744 58.2225 144.744 57.2018C144.744 56.1476 144.903 55.2272 145.221 54.4408C145.539 53.6376 146.024 53.0184 146.677 52.5834C147.329 52.1483 148.149 51.9308 149.136 51.9308C149.806 51.9308 150.366 52.0395 150.818 52.2571C151.27 52.4746 151.621 52.734 151.872 53.0352C152.14 53.3364 152.333 53.6125 152.45 53.8635C152.584 54.1145 152.659 54.2734 152.676 54.3404H152.726V51.9308H154.884V63.5019C154.884 64.2381 154.792 64.8322 154.608 65.284C154.424 65.7358 154.131 66.0621 153.73 66.2629C153.345 66.4804 152.826 66.5892 152.174 66.5892H147.932ZM149.689 60.6405C150.341 60.6405 150.893 60.4982 151.345 60.2138C151.797 59.9293 152.132 59.5277 152.349 59.009C152.584 58.4902 152.701 57.8878 152.701 57.2018C152.701 56.5324 152.592 55.9384 152.374 55.4197C152.157 54.9009 151.831 54.5077 151.395 54.24C150.977 53.9555 150.442 53.8133 149.789 53.8133C149.053 53.8133 148.459 53.9722 148.007 54.2902C147.572 54.6081 147.254 55.0264 147.053 55.5452C146.869 56.0639 146.777 56.6161 146.777 57.2018C146.777 57.7874 146.861 58.348 147.028 58.8835C147.212 59.4022 147.513 59.8289 147.932 60.1636C148.367 60.4815 148.952 60.6405 149.689 60.6405ZM158.495 62.1967V51.9308H160.578V62.1967H158.495ZM159.549 50.5001C159.064 50.5001 158.729 50.3746 158.545 50.1236C158.378 49.8726 158.294 49.5797 158.294 49.2451C158.294 48.9271 158.378 48.651 158.545 48.4168C158.729 48.1658 159.064 48.0403 159.549 48.0403C160.034 48.0403 160.352 48.1658 160.503 48.4168C160.67 48.651 160.754 48.9271 160.754 49.2451C160.754 49.5797 160.67 49.8726 160.503 50.1236C160.352 50.3746 160.034 50.5001 159.549 50.5001ZM168.324 62.4477C167.855 62.4477 167.395 62.3807 166.943 62.2469C166.508 62.1297 166.098 61.954 165.713 61.7198C165.345 61.4855 165.011 61.2178 164.709 60.9166C164.425 60.6154 164.199 60.2891 164.032 59.9377C163.881 59.5695 163.806 59.1847 163.806 58.7831H165.764C165.764 58.7998 165.772 58.9169 165.789 59.1345C165.822 59.352 165.914 59.603 166.065 59.8875C166.215 60.1552 166.458 60.3895 166.793 60.5903C167.144 60.7911 167.638 60.8915 168.274 60.8915C168.759 60.8915 169.169 60.8329 169.503 60.7158C169.855 60.5986 170.123 60.4397 170.307 60.2389C170.491 60.0213 170.574 59.762 170.558 59.4608C170.558 59.0424 170.399 58.7161 170.081 58.4819C169.763 58.2476 169.353 58.0635 168.851 57.9297C168.349 57.7791 167.822 57.6368 167.27 57.503C166.717 57.3691 166.19 57.1934 165.688 56.9759C165.186 56.7416 164.776 56.432 164.458 56.0472C164.157 55.6456 164.015 55.1101 164.032 54.4408C164.032 53.5372 164.408 52.8427 165.161 52.3575C165.931 51.8555 166.901 51.6045 168.073 51.6045C168.642 51.6045 169.194 51.6714 169.729 51.8053C170.265 51.9391 170.742 52.1483 171.16 52.4328C171.595 52.7172 171.938 53.0937 172.189 53.5623C172.457 54.0308 172.582 54.6081 172.566 55.2942H170.633C170.65 54.8591 170.574 54.5077 170.407 54.24C170.256 53.9722 170.047 53.7714 169.78 53.6376C169.512 53.487 169.227 53.3866 168.926 53.3364C168.642 53.2694 168.366 53.236 168.098 53.236C167.429 53.236 166.901 53.3615 166.517 53.6125C166.132 53.8467 165.939 54.1647 165.939 54.5663C165.939 54.9846 166.098 55.3109 166.416 55.5452C166.734 55.7794 167.144 55.9635 167.646 56.0974C168.148 56.2312 168.684 56.3651 169.252 56.499C169.821 56.6328 170.357 56.8169 170.859 57.0512C171.361 57.2687 171.771 57.5783 172.089 57.9799C172.407 58.3815 172.566 58.9169 172.566 59.5863C172.566 60.2389 172.382 60.7743 172.013 61.1927C171.662 61.611 171.168 61.9289 170.533 62.1465C169.897 62.3473 169.16 62.4477 168.324 62.4477ZM178.519 62.1967C177.816 62.1967 177.297 62.0126 176.963 61.6445C176.628 61.2763 176.461 60.7158 176.461 59.9628V53.1858H178.444V60.5401H180.828V62.1967H178.519ZM174.879 53.4368V51.9308C175.264 51.9308 175.574 51.9057 175.808 51.8555C176.059 51.8053 176.243 51.7049 176.36 51.5543C176.494 51.3869 176.586 51.1276 176.636 50.7762C176.687 50.408 176.712 49.9144 176.712 49.2953H178.444V51.9308H180.803V53.4368H174.879ZM184.292 62.1967V51.9308H186.225L186.401 54.8926L186.376 57.1014V62.1967H184.292ZM186.376 57.5783L186.3 55.3193C186.317 54.9511 186.401 54.5746 186.551 54.1898C186.702 53.7882 186.928 53.42 187.229 53.0854C187.547 52.734 187.949 52.4579 188.434 52.2571C188.936 52.0395 189.538 51.9308 190.241 51.9308H190.668V54.24H190.216C189.463 54.24 188.835 54.3153 188.333 54.4659C187.831 54.5997 187.438 54.8089 187.154 55.0934C186.869 55.3778 186.668 55.7292 186.551 56.1476C186.434 56.5659 186.376 57.0428 186.376 57.5783ZM196.976 62.4226C196.039 62.4226 195.269 62.1967 194.666 61.7449C194.081 61.2931 193.646 60.6739 193.361 59.8875C193.093 59.101 192.96 58.1974 192.96 57.1767C192.96 56.1225 193.102 55.2021 193.386 54.4157C193.671 53.6125 194.106 52.985 194.692 52.5332C195.294 52.0814 196.055 51.8555 196.976 51.8555C197.545 51.8555 198.03 51.9391 198.431 52.1065C198.833 52.2571 199.168 52.4495 199.435 52.6838C199.703 52.918 199.921 53.1607 200.088 53.4117C200.255 53.6459 200.372 53.8551 200.439 54.0392H200.49V51.9308H202.623V62.1967H200.841L200.49 60.3644H200.439C200.372 60.5484 200.255 60.7576 200.088 60.9919C199.921 61.2261 199.695 61.452 199.41 61.6696C199.143 61.8871 198.808 62.0628 198.406 62.1967C198.005 62.3473 197.528 62.4226 196.976 62.4226ZM197.804 60.6405C198.473 60.6405 199 60.4982 199.385 60.2138C199.77 59.9126 200.046 59.5026 200.214 58.9839C200.381 58.4651 200.465 57.8711 200.465 57.2018C200.465 56.4822 200.372 55.8631 200.188 55.3444C200.021 54.8256 199.745 54.4324 199.36 54.1647C198.975 53.8802 198.457 53.738 197.804 53.738C197.118 53.738 196.566 53.8969 196.147 54.2149C195.746 54.5161 195.453 54.926 195.269 55.4448C195.101 55.9635 195.018 56.5408 195.018 57.1767C195.018 57.8293 195.101 58.4233 195.269 58.9588C195.453 59.4775 195.746 59.8875 196.147 60.1887C196.566 60.4899 197.118 60.6405 197.804 60.6405ZM208.683 62.1967C207.98 62.1967 207.461 62.0126 207.127 61.6445C206.792 61.2763 206.625 60.7158 206.625 59.9628V53.1858H208.608V60.5401H210.992V62.1967H208.683ZM205.043 53.4368V51.9308C205.428 51.9308 205.738 51.9057 205.972 51.8555C206.223 51.8053 206.407 51.7049 206.524 51.5543C206.658 51.3869 206.75 51.1276 206.8 50.7762C206.851 50.408 206.876 49.9144 206.876 49.2953H208.608V51.9308H210.967V53.4368H205.043ZM214.607 62.1967V51.9308H216.69V62.1967H214.607ZM215.661 50.5001C215.176 50.5001 214.841 50.3746 214.657 50.1236C214.49 49.8726 214.406 49.5797 214.406 49.2451C214.406 48.9271 214.49 48.651 214.657 48.4168C214.841 48.1658 215.176 48.0403 215.661 48.0403C216.146 48.0403 216.464 48.1658 216.615 48.4168C216.782 48.651 216.866 48.9271 216.866 49.2451C216.866 49.5797 216.782 49.8726 216.615 50.1236C216.464 50.3746 216.146 50.5001 215.661 50.5001ZM224.863 62.4477C223.758 62.4477 222.83 62.2218 222.077 61.77C221.324 61.3182 220.755 60.699 220.37 59.9126C220.002 59.1094 219.818 58.2058 219.818 57.2018C219.818 56.1643 220.002 55.2523 220.37 54.4659C220.755 53.6627 221.324 53.0352 222.077 52.5834C222.83 52.1316 223.767 51.9057 224.888 51.9057C226.528 51.9057 227.774 52.3909 228.628 53.3615C229.481 54.332 229.908 55.6121 229.908 57.2018C229.908 58.189 229.724 59.0843 229.356 59.8875C229.004 60.6739 228.452 61.3014 227.699 61.77C226.963 62.2218 226.017 62.4477 224.863 62.4477ZM224.863 60.6656C225.683 60.6656 226.31 60.4899 226.745 60.1385C227.18 59.7871 227.473 59.3436 227.624 58.8082C227.791 58.256 227.875 57.6954 227.875 57.1265C227.875 56.5575 227.791 56.0053 227.624 55.4699C227.473 54.9177 227.18 54.4659 226.745 54.1145C226.31 53.7463 225.683 53.5623 224.863 53.5623C224.076 53.5623 223.457 53.7463 223.005 54.1145C222.57 54.4659 222.269 54.9177 222.102 55.4699C221.934 56.0053 221.851 56.5575 221.851 57.1265C221.851 57.6954 221.934 58.256 222.102 58.8082C222.269 59.3436 222.57 59.7871 223.005 60.1385C223.457 60.4899 224.076 60.6656 224.863 60.6656ZM233.066 62.1967V51.9308H234.849L235.2 54.3153H235.25C235.267 54.2483 235.334 54.0894 235.451 53.8384C235.568 53.5874 235.76 53.3196 236.028 53.0352C236.296 52.734 236.656 52.4746 237.108 52.2571C237.559 52.0395 238.128 51.9308 238.814 51.9308C239.534 51.9308 240.12 52.0479 240.571 52.2822C241.04 52.4997 241.408 52.8009 241.676 53.1858C241.96 53.5539 242.161 53.9722 242.278 54.4408C242.395 54.8926 242.471 55.3611 242.504 55.8464C242.537 56.3149 242.554 56.7583 242.554 57.1767V62.1967H240.521V57.1516C240.521 56.5157 240.454 55.9468 240.32 55.4448C240.186 54.926 239.944 54.5244 239.592 54.24C239.241 53.9388 238.714 53.7882 238.011 53.7882C237.308 53.7882 236.748 53.9555 236.329 54.2902C235.928 54.6248 235.635 55.0599 235.451 55.5954C235.284 56.1141 235.2 56.683 235.2 57.3022V62.1967H233.066ZM255.471 57.5783V55.1938L262.423 48.0654H265.134V48.3415L255.471 57.5783ZM253.488 62.1967V48.0654H255.571V62.1967H253.488ZM263.026 62.1967L257.403 54.7922L258.909 53.3113L265.435 61.9206V62.1967H263.026ZM272.68 62.4477C271.525 62.4477 270.58 62.1967 269.844 61.6947C269.108 61.1759 268.564 60.515 268.212 59.7118C267.861 58.8918 267.685 58.0468 267.685 57.1767C267.668 56.1894 267.853 55.2942 268.237 54.491C268.639 53.6878 269.208 53.0519 269.944 52.5834C270.697 52.1148 271.592 51.8806 272.63 51.8806C273.533 51.8806 274.337 52.0814 275.039 52.483C275.742 52.8678 276.303 53.42 276.721 54.1396C277.139 54.8424 277.365 55.679 277.399 56.6496C277.416 56.6998 277.424 56.8002 277.424 56.9508C277.424 57.0846 277.424 57.2018 277.424 57.3022H269.668C269.668 58.3731 269.927 59.2098 270.446 59.8122C270.982 60.3978 271.718 60.6907 272.655 60.6907C273.358 60.6907 273.952 60.515 274.437 60.1636C274.939 59.7954 275.249 59.3102 275.366 58.7078H277.399C277.298 59.4106 277.047 60.0464 276.646 60.6154C276.244 61.1843 275.709 61.6361 275.039 61.9708C274.37 62.2887 273.584 62.4477 272.68 62.4477ZM269.743 56.2731H275.316C275.299 56.089 275.249 55.8464 275.165 55.5452C275.098 55.244 274.964 54.9511 274.763 54.6667C274.563 54.3655 274.286 54.1145 273.935 53.9137C273.584 53.7129 273.132 53.6125 272.58 53.6125C272.078 53.6125 271.651 53.6961 271.3 53.8635C270.948 54.0308 270.664 54.2567 270.446 54.5412C270.229 54.8089 270.061 55.1017 269.944 55.4197C269.844 55.7209 269.777 56.0053 269.743 56.2731ZM279.684 66.8653V65.2338H281.165C281.399 65.2338 281.608 65.2003 281.792 65.1334C281.976 65.0832 282.152 64.9493 282.319 64.7318C282.503 64.5142 282.696 64.1796 282.897 63.7278L283.775 61.7951L279.759 51.9308H281.918L284.804 59.6365L287.891 51.9308H290.075L284.804 63.9537C284.52 64.5895 284.26 65.0999 284.026 65.4848C283.809 65.8696 283.574 66.1625 283.323 66.3633C283.089 66.5641 282.813 66.6979 282.495 66.7649C282.194 66.8318 281.834 66.8653 281.416 66.8653H279.684Z" fill="#80D8FF"/>
</g>
<defs>
<filter id="filter0_i_129_1725" x="41.9722" y="44.4227" width="11.0012" height="18.8286" filterUnits="userSpaceOnUse" color-interpolation-filters="sRGB">
<feFlood flood-opacity="0" result="BackgroundImageFix"/>
<feBlend mode="normal" in="SourceGraphic" in2="BackgroundImageFix" result="shape"/>
<feColorMatrix in="SourceAlpha" type="matrix" values="0 0 0 0 0 0 0 0 0 0 0 0 0 0 0 0 0 0 127 0" result="hardAlpha"/>
<feOffset/>
<feGaussianBlur stdDeviation="1.56754"/>
<feComposite in2="hardAlpha" operator="arithmetic" k2="-1" k3="1"/>
<feColorMatrix type="matrix" values="0 0 0 0 0 0 0 0 0 0 0 0 0 0 0 0 0 0 0.16 0"/>
<feBlend mode="normal" in2="shape" result="effect1_innerShadow_129_1725"/>
</filter>
<filter id="filter1_i_129_1725" x="118.163" y="48.0403" width="171.912" height="18.825" filterUnits="userSpaceOnUse" color-interpolation-filters="sRGB">
<feFlood flood-opacity="0" result="BackgroundImageFix"/>
<feBlend mode="normal" in="SourceGraphic" in2="BackgroundImageFix" result="shape"/>
<feColorMatrix in="SourceAlpha" type="matrix" values="0 0 0 0 0 0 0 0 0 0 0 0 0 0 0 0 0 0 127 0" result="hardAlpha"/>
<feOffset/>
<feGaussianBlur stdDeviation="1.46277"/>
<feComposite in2="hardAlpha" operator="arithmetic" k2="-1" k3="1"/>
<feColorMatrix type="matrix" values="0 0 0 0 0 0 0 0 0 0 0 0 0 0 0 0 0 0 0.16 0"/>
<feBlend mode="normal" in2="shape" result="effect1_innerShadow_129_1725"/>
</filter>
</defs>
</svg>
