<svg width="327" height="111" viewBox="0 0 327 111" fill="none" xmlns="http://www.w3.org/2000/svg">
<g style="mix-blend-mode:soft-light">
<path d="M13.4634 75.01V35.5898L47.6025 15.8796L81.7415 35.5898V75.01L47.6025 94.7201L13.4634 75.01Z" fill="#00D17D"/>
</g>
<path d="M21.2256 70.5282V40.0716L47.6023 24.8433L73.979 40.0716V70.5282L47.6023 85.7565L21.2256 70.5282Z" fill="#000004" fill-opacity="0.45"/>
<g style="mix-blend-mode:soft-light">
<path d="M81.1218 75.1425V35.4595H314.114L325.57 55.3021L314.114 75.1447H81.1218V75.1425Z" fill="#00D17D"/>
</g>
<path d="M80.9558 75.1575V35.9084H311.61L325.05 55.5341L311.61 75.1597H80.9558V75.1575Z" fill="#000004" fill-opacity="0.45"/>
<path d="M47.6025 96.155L12.2217 75.7286V34.8735L47.6025 14.4471L82.9832 34.8735V75.7286L47.6025 96.155ZM15.3271 73.9345L47.6025 92.5691L79.8778 73.9345V36.6653L47.6025 18.0307L15.3271 36.6653V73.9345Z" fill="#00D17D"/>
<path d="M314.828 76.3842H79.8779V34.2178H314.828L327 55.3021L314.828 76.3865V76.3842ZM82.9833 73.2788H313.036L323.416 55.2999L313.036 37.321H82.9833V73.2788Z" fill="#00D17D"/>
<path d="M237.911 24.0888H250.102L225.948 10.1449H213.758L237.911 24.0888Z" fill="#00D17D"/>
<path d="M211.977 24.0888H230.549L206.395 10.1449H187.823L211.977 24.0888Z" fill="#00D17D"/>
<path d="M180.46 10.1449H123.818L99.6665 24.0888H204.614L180.46 10.1449Z" fill="#00D17D"/>
<path d="M138.164 19.1916V15.0399L134.569 12.9629L130.972 15.0399V19.1916L134.569 21.2686L138.164 19.1916Z" fill="white"/>
<path d="M154.922 19.1916V15.0399L151.327 12.9629L147.729 15.0399V19.1916L151.327 21.2686L154.922 19.1916Z" fill="white"/>
<path d="M171.681 19.1916V15.0399L168.084 12.9629L164.489 15.0399V19.1916L168.084 21.2686L171.681 19.1916Z" fill="white"/>
<path d="M47.6025 9.29837L84.6 30.6611H95.2027V27.8184L47.6025 0.336975L0 27.8184V82.7836L47.6025 110.265L95.2027 82.7836V79.9432H84.5977L47.6025 101.304L7.76235 78.3018V32.3003L47.6025 9.29837Z" fill="#00D17D"/>
<path d="M206.871 79.9432H92.8967V82.7836H201.951L206.871 79.9432Z" fill="#00D17D"/>
<path d="M285.774 79.9432H239.939L244.861 82.7836H280.855L285.774 79.9432Z" fill="#00D17D"/>
<path d="M140.131 27.8162H92.8967V30.6589H145.051L140.131 27.8162Z" fill="#00D17D"/>
<path d="M180.24 30.6589H308.121L303.199 27.8162H185.162L180.24 30.6589Z" fill="#00D17D"/>
<g opacity="0.73" filter="url(#filter0_i_129_1750)">
<path d="M40.4969 64.8149V57.0548L43.2674 54.2843H48.3915L49.2119 53.464V50.6128L48.3915 49.7924H45.1099L44.2895 50.6128V52.536H40.4969V48.7568L43.2674 45.9863H50.234L53.0045 48.7568V55.3199L50.234 58.0904H45.1099L44.2895 58.9108V61.0088H53.0045V64.8149H40.4969ZM42.057 63.3489H51.3502V62.5151H42.8908V58.0904L44.4644 56.5303H49.4539L51.5385 54.4457V49.4158L49.4943 47.385H44.1013L42.057 49.4158V51.0835H42.8908V49.7655L44.4644 48.2054H49.1177L50.7047 49.7655V54.0961L49.0774 55.6965H44.1013L42.057 57.7407V63.3489Z" fill="#00FA96"/>
</g>
<g opacity="0.73" filter="url(#filter1_i_129_1750)">
<path d="M121.442 62.1977V48.0225H123.648V62.1977H121.442ZM119.371 62.6818V60.7452H125.692V62.6818H119.371ZM119.371 49.4749V47.5383H125.692V49.4749H119.371ZM129.844 62.6818V51.6806H131.753L132.13 54.2359H132.184C132.202 54.1642 132.273 53.9938 132.399 53.7248C132.524 53.4558 132.731 53.1689 133.018 52.8641C133.304 52.5413 133.69 52.2634 134.174 52.0303C134.658 51.7971 135.268 51.6806 136.003 51.6806C136.774 51.6806 137.402 51.8061 137.886 52.0571C138.388 52.2903 138.783 52.613 139.07 53.0255C139.374 53.42 139.59 53.8683 139.715 54.3704C139.841 54.8545 139.921 55.3566 139.957 55.8767C139.993 56.3787 140.011 56.8539 140.011 57.3022V62.6818H137.832V57.2753C137.832 56.5939 137.76 55.9842 137.617 55.4463C137.474 54.8904 137.214 54.46 136.837 54.1552C136.46 53.8324 135.896 53.671 135.142 53.671C134.389 53.671 133.789 53.8503 133.34 54.209C132.91 54.5676 132.596 55.0339 132.399 55.6077C132.22 56.1636 132.13 56.7732 132.13 57.4367V62.6818H129.844ZM143.455 62.6818V51.6806H145.365L145.742 54.2359H145.795C145.813 54.1642 145.885 53.9938 146.011 53.7248C146.136 53.4558 146.342 53.1689 146.629 52.8641C146.916 52.5413 147.302 52.2634 147.786 52.0303C148.27 51.7971 148.88 51.6806 149.615 51.6806C150.386 51.6806 151.014 51.8061 151.498 52.0571C152 52.2903 152.394 52.613 152.681 53.0255C152.986 53.42 153.201 53.8683 153.327 54.3704C153.452 54.8545 153.533 55.3566 153.569 55.8767C153.605 56.3787 153.623 56.8539 153.623 57.3022V62.6818H151.444V57.2753C151.444 56.5939 151.372 55.9842 151.229 55.4463C151.085 54.8904 150.825 54.46 150.449 54.1552C150.072 53.8324 149.507 53.671 148.754 53.671C148.001 53.671 147.4 53.8503 146.952 54.209C146.522 54.5676 146.208 55.0339 146.011 55.6077C145.831 56.1636 145.742 56.7732 145.742 57.4367V62.6818H143.455ZM162.124 62.9508C160.94 62.9508 159.945 62.7087 159.138 62.2246C158.331 61.7404 157.722 61.0769 157.309 60.2341C156.915 59.3734 156.717 58.4051 156.717 57.3291C156.717 56.2174 156.915 55.2401 157.309 54.3973C157.722 53.5365 158.331 52.8641 159.138 52.3799C159.945 51.8958 160.949 51.6537 162.151 51.6537C163.908 51.6537 165.244 52.1737 166.159 53.2138C167.073 54.2538 167.53 55.6256 167.53 57.3291C167.53 58.3871 167.333 59.3465 166.939 60.2072C166.562 61.05 165.97 61.7225 165.163 62.2246C164.374 62.7087 163.361 62.9508 162.124 62.9508ZM162.124 61.0411C163.003 61.0411 163.675 60.8528 164.141 60.4762C164.608 60.0996 164.921 59.6244 165.083 59.0506C165.262 58.4589 165.352 57.8581 165.352 57.2484C165.352 56.6388 165.262 56.047 165.083 55.4732C164.921 54.8814 164.608 54.3973 164.141 54.0207C163.675 53.6262 163.003 53.4289 162.124 53.4289C161.281 53.4289 160.618 53.6262 160.134 54.0207C159.667 54.3973 159.345 54.8814 159.165 55.4732C158.986 56.047 158.896 56.6388 158.896 57.2484C158.896 57.8581 158.986 58.4589 159.165 59.0506C159.345 59.6244 159.667 60.0996 160.134 60.4762C160.618 60.8528 161.281 61.0411 162.124 61.0411ZM178.635 51.6806H180.841V52.084L176.887 62.6818H173.74L169.759 52.1109V51.6806H171.938L175.327 60.8259H175.38L178.635 51.6806ZM187.637 62.9239C186.633 62.9239 185.808 62.6818 185.163 62.1977C184.535 61.7135 184.069 61.05 183.764 60.2072C183.477 59.3644 183.334 58.3961 183.334 57.3022C183.334 56.1725 183.486 55.1863 183.791 54.3435C184.096 53.4827 184.562 52.8103 185.19 52.3261C185.835 51.842 186.651 51.5999 187.637 51.5999C188.247 51.5999 188.767 51.6895 189.198 51.8689C189.628 52.0303 189.987 52.2365 190.273 52.4875C190.56 52.7386 190.794 52.9986 190.973 53.2676C191.152 53.5186 191.278 53.7428 191.349 53.94H191.403V51.6806H193.69V62.6818H191.78L191.403 60.7183H191.349C191.278 60.9155 191.152 61.1397 190.973 61.3907C190.794 61.6418 190.551 61.8839 190.247 62.117C189.96 62.3501 189.601 62.5384 189.171 62.6818C188.74 62.8432 188.229 62.9239 187.637 62.9239ZM188.525 61.0142C189.242 61.0142 189.807 60.8617 190.22 60.5569C190.632 60.2341 190.928 59.7948 191.107 59.2389C191.287 58.683 191.376 58.0464 191.376 57.3291C191.376 56.5581 191.278 55.8946 191.08 55.3387C190.901 54.7828 190.605 54.3614 190.193 54.0745C189.78 53.7696 189.224 53.6172 188.525 53.6172C187.79 53.6172 187.198 53.7876 186.75 54.1283C186.319 54.4511 186.006 54.8904 185.808 55.4463C185.629 56.0022 185.539 56.6208 185.539 57.3022C185.539 58.0016 185.629 58.6382 185.808 59.212C186.006 59.7679 186.319 60.2072 186.75 60.53C187.198 60.8528 187.79 61.0142 188.525 61.0142ZM200.183 62.6818C199.43 62.6818 198.874 62.4846 198.516 62.0901C198.157 61.6956 197.978 61.0948 197.978 60.2879V53.0255H200.103V60.9066H202.658V62.6818H200.183ZM196.283 53.2945V51.6806C196.696 51.6806 197.027 51.6537 197.278 51.5999C197.547 51.5461 197.745 51.4385 197.87 51.2771C198.014 51.0978 198.112 50.8198 198.166 50.4433C198.22 50.0488 198.247 49.5198 198.247 48.8563H200.103V51.6806H202.631V53.2945H196.283ZM206.532 62.6818V51.6806H208.764V62.6818H206.532ZM207.662 50.1474C207.141 50.1474 206.783 50.0129 206.586 49.7439C206.406 49.4749 206.317 49.1611 206.317 48.8025C206.317 48.4618 206.406 48.1659 206.586 47.9149C206.783 47.6459 207.141 47.5114 207.662 47.5114C208.182 47.5114 208.522 47.6459 208.684 47.9149C208.863 48.1659 208.953 48.4618 208.953 48.8025C208.953 49.1611 208.863 49.4749 208.684 49.7439C208.522 50.0129 208.182 50.1474 207.662 50.1474ZM217.522 62.9508C216.339 62.9508 215.343 62.7087 214.536 62.2246C213.73 61.7404 213.12 61.0769 212.707 60.2341C212.313 59.3734 212.116 58.4051 212.116 57.3291C212.116 56.2174 212.313 55.2401 212.707 54.3973C213.12 53.5365 213.73 52.8641 214.536 52.3799C215.343 51.8958 216.348 51.6537 217.549 51.6537C219.306 51.6537 220.642 52.1737 221.557 53.2138C222.471 54.2538 222.929 55.6256 222.929 57.3291C222.929 58.3871 222.731 59.3465 222.337 60.2072C221.96 61.05 221.369 61.7225 220.562 62.2246C219.773 62.7087 218.759 62.9508 217.522 62.9508ZM217.522 61.0411C218.401 61.0411 219.073 60.8528 219.539 60.4762C220.006 60.0996 220.32 59.6244 220.481 59.0506C220.66 58.4589 220.75 57.8581 220.75 57.2484C220.75 56.6388 220.66 56.047 220.481 55.4732C220.32 54.8814 220.006 54.3973 219.539 54.0207C219.073 53.6262 218.401 53.4289 217.522 53.4289C216.679 53.4289 216.016 53.6262 215.532 54.0207C215.065 54.3973 214.743 54.8814 214.563 55.4732C214.384 56.047 214.294 56.6388 214.294 57.2484C214.294 57.8581 214.384 58.4589 214.563 59.0506C214.743 59.6244 215.065 60.0996 215.532 60.4762C216.016 60.8528 216.679 61.0411 217.522 61.0411ZM226.314 62.6818V51.6806H228.223L228.6 54.2359H228.654C228.672 54.1642 228.743 53.9938 228.869 53.7248C228.994 53.4558 229.201 53.1689 229.487 52.8641C229.774 52.5413 230.16 52.2634 230.644 52.0303C231.128 51.7971 231.738 51.6806 232.473 51.6806C233.244 51.6806 233.872 51.8061 234.356 52.0571C234.858 52.2903 235.253 52.613 235.54 53.0255C235.844 53.42 236.06 53.8683 236.185 54.3704C236.311 54.8545 236.391 55.3566 236.427 55.8767C236.463 56.3787 236.481 56.8539 236.481 57.3022V62.6818H234.302V57.2753C234.302 56.5939 234.23 55.9842 234.087 55.4463C233.944 54.8904 233.684 54.46 233.307 54.1552C232.93 53.8324 232.366 53.671 231.612 53.671C230.859 53.671 230.259 53.8503 229.81 54.209C229.38 54.5676 229.066 55.0339 228.869 55.6077C228.69 56.1636 228.6 56.7732 228.6 57.4367V62.6818H226.314ZM250.322 57.7326V55.1773L257.773 47.5383H260.678V47.8342L250.322 57.7326ZM248.197 62.6818V47.5383H250.43V62.6818H248.197ZM258.419 62.6818L252.394 54.7469L254.007 53.16L261.001 62.3859V62.6818H258.419ZM268.765 62.9508C267.527 62.9508 266.514 62.6818 265.725 62.1439C264.936 61.588 264.353 60.8797 263.977 60.0189C263.6 59.1403 263.412 58.2347 263.412 57.3022C263.394 56.2443 263.591 55.2849 264.004 54.4242C264.434 53.5634 265.044 52.882 265.833 52.3799C266.64 51.8778 267.599 51.6268 268.711 51.6268C269.679 51.6268 270.54 51.842 271.293 52.2723C272.046 52.6848 272.647 53.2765 273.095 54.0476C273.544 54.8007 273.786 55.6973 273.822 56.7374C273.839 56.7912 273.848 56.8988 273.848 57.0602C273.848 57.2036 273.848 57.3291 273.848 57.4367H265.537C265.537 58.5844 265.815 59.481 266.371 60.1265C266.945 60.7541 267.734 61.0679 268.738 61.0679C269.491 61.0679 270.128 60.8797 270.648 60.5031C271.186 60.1086 271.517 59.5886 271.643 58.943H273.822C273.714 59.6962 273.445 60.3776 273.015 60.9873C272.584 61.5969 272.01 62.0811 271.293 62.4397C270.576 62.7804 269.733 62.9508 268.765 62.9508ZM265.618 56.3339H271.589C271.571 56.1367 271.517 55.8767 271.428 55.5539C271.356 55.2311 271.212 54.9173 270.997 54.6125C270.782 54.2897 270.486 54.0207 270.11 53.8055C269.733 53.5903 269.249 53.4827 268.657 53.4827C268.119 53.4827 267.662 53.5724 267.285 53.7517C266.909 53.931 266.604 54.1731 266.371 54.478C266.138 54.7649 265.958 55.0787 265.833 55.4194C265.725 55.7422 265.654 56.047 265.618 56.3339ZM276.27 67.6848V65.9365H277.857C278.108 65.9365 278.332 65.9006 278.53 65.8289C278.727 65.7751 278.915 65.6316 279.094 65.3985C279.292 65.1654 279.498 64.8068 279.713 64.3226L280.654 62.2515L276.351 51.6806H278.664L281.757 59.9382L285.066 51.6806H287.406L281.757 64.5647C281.452 65.2461 281.174 65.793 280.923 66.2055C280.69 66.6179 280.439 66.9317 280.17 67.1469C279.919 67.3621 279.623 67.5055 279.283 67.5772C278.96 67.649 278.574 67.6848 278.126 67.6848H276.27Z" fill="#00FA96"/>
</g>
<defs>
<filter id="filter0_i_129_1750" x="40.4968" y="45.9863" width="12.5076" height="18.8286" filterUnits="userSpaceOnUse" color-interpolation-filters="sRGB">
<feFlood flood-opacity="0" result="BackgroundImageFix"/>
<feBlend mode="normal" in="SourceGraphic" in2="BackgroundImageFix" result="shape"/>
<feColorMatrix in="SourceAlpha" type="matrix" values="0 0 0 0 0 0 0 0 0 0 0 0 0 0 0 0 0 0 127 0" result="hardAlpha"/>
<feOffset/>
<feGaussianBlur stdDeviation="1.56754"/>
<feComposite in2="hardAlpha" operator="arithmetic" k2="-1" k3="1"/>
<feColorMatrix type="matrix" values="0 0 0 0 0 0 0 0 0 0 0 0 0 0 0 0 0 0 0.16 0"/>
<feBlend mode="normal" in2="shape" result="effect1_innerShadow_129_1750"/>
</filter>
<filter id="filter1_i_129_1750" x="119.371" y="47.5114" width="168.035" height="20.1734" filterUnits="userSpaceOnUse" color-interpolation-filters="sRGB">
<feFlood flood-opacity="0" result="BackgroundImageFix"/>
<feBlend mode="normal" in="SourceGraphic" in2="BackgroundImageFix" result="shape"/>
<feColorMatrix in="SourceAlpha" type="matrix" values="0 0 0 0 0 0 0 0 0 0 0 0 0 0 0 0 0 0 127 0" result="hardAlpha"/>
<feOffset/>
<feGaussianBlur stdDeviation="1.56754"/>
<feComposite in2="hardAlpha" operator="arithmetic" k2="-1" k3="1"/>
<feColorMatrix type="matrix" values="0 0 0 0 0 0 0 0 0 0 0 0 0 0 0 0 0 0 0.16 0"/>
<feBlend mode="normal" in2="shape" result="effect1_innerShadow_129_1750"/>
</filter>
</defs>
</svg>
