<svg width="327" height="111" viewBox="0 0 327 111" fill="none" xmlns="http://www.w3.org/2000/svg">
<g style="mix-blend-mode:soft-light">
<path d="M13.4634 75.3471V35.9268L47.6025 16.2167L81.7415 35.9268V75.3471L47.6025 95.0572L13.4634 75.3471Z" fill="#B2A600"/>
</g>
<path d="M21.2256 70.8652V40.4086L47.6023 25.1803L73.979 40.4086V70.8652L47.6023 86.0935L21.2256 70.8652Z" fill="#000004" fill-opacity="0.45"/>
<g style="mix-blend-mode:soft-light">
<path d="M81.1218 75.4795V35.7965H314.114L325.57 55.6391L314.114 75.4818H81.1218V75.4795Z" fill="#B2A600"/>
</g>
<path d="M80.9558 75.4945V36.2455H311.61L325.05 55.8711L311.61 75.4967H80.9558V75.4945Z" fill="#000004" fill-opacity="0.45"/>
<path d="M47.6025 96.492L12.2217 76.0656V35.2105L47.6025 14.7841L82.9832 35.2105V76.0656L47.6025 96.492ZM15.3271 74.2715L47.6025 92.9061L79.8778 74.2715V37.0024L47.6025 18.3678L15.3271 37.0024V74.2715Z" fill="#B2A600"/>
<path d="M314.828 76.7212H79.8779V34.5548H314.828L327 55.6392L314.828 76.7235V76.7212ZM82.9833 73.6158H313.036L323.416 55.6369L313.036 37.658H82.9833V73.6158Z" fill="#B2A600"/>
<path d="M237.911 24.4258H250.102L225.948 10.4819H213.758L237.911 24.4258Z" fill="#B2A600"/>
<path d="M211.977 24.4258H230.549L206.395 10.4819H187.823L211.977 24.4258Z" fill="#B2A600"/>
<path d="M180.46 10.4819H123.818L99.6665 24.4258H204.614L180.46 10.4819Z" fill="#B2A600"/>
<path d="M138.164 19.5286V15.3769L134.569 13.2999L130.972 15.3769V19.5286L134.569 21.6056L138.164 19.5286Z" fill="white"/>
<path d="M154.922 19.5286V15.3769L151.327 13.2999L147.729 15.3769V19.5286L151.327 21.6056L154.922 19.5286Z" fill="white"/>
<path d="M171.681 19.5286V15.3769L168.084 13.2999L164.489 15.3769V19.5286L168.084 21.6056L171.681 19.5286Z" fill="white"/>
<path d="M47.6025 9.63537L84.6 30.9981H95.2027V28.1554L47.6025 0.673981L0 28.1554V83.1206L47.6025 110.602L95.2027 83.1206V80.2802H84.5977L47.6025 101.641L7.76235 78.6388V32.6373L47.6025 9.63537Z" fill="#B2A600"/>
<path d="M206.871 80.2802H92.8967V83.1206H201.951L206.871 80.2802Z" fill="#B2A600"/>
<path d="M285.774 80.2802H239.939L244.861 83.1206H280.855L285.774 80.2802Z" fill="#B2A600"/>
<path d="M140.131 28.1532H92.8967V30.9959H145.051L140.131 28.1532Z" fill="#B2A600"/>
<path d="M180.24 30.9959H308.121L303.199 28.1532H185.162L180.24 30.9959Z" fill="#B2A600"/>
<g opacity="0.73" filter="url(#filter0_i_129_1774)">
<path d="M43.32 65.1519L40.5495 62.3814V58.7367H44.3421V60.5254L45.1625 61.3458H48.3499L49.1702 60.5254V58.4677L48.3499 57.6473H45.4449V53.8547H48.3364L49.1702 52.9537V50.9498L48.3499 50.1294H45.1625L44.3421 50.9498V52.7385H40.5495V49.0938L43.32 46.3233H50.1924L52.9629 49.0938V54.8903L52.1156 55.7376L52.9629 56.6118V62.3814L50.1924 65.1519H43.32ZM44.0596 63.6187H49.4527L51.4969 61.5744V57.4053L49.8158 55.7376L51.4969 54.0699V49.8066L49.4527 47.7758H44.0596L42.0154 49.8066V51.4608H42.8492V50.1697L44.4362 48.5962H49.0761L50.6631 50.1697V53.7068L49.0358 55.3207H46.6418V56.1545H49.0358L50.6631 57.7549V61.2248L49.0761 62.7848H44.4362L42.8492 61.2248V60.0009H42.0154V61.5744L44.0596 63.6187Z" fill="#B2A600"/>
</g>
<g opacity="0.73" filter="url(#filter1_i_129_1774)">
<path d="M143.66 47.8753H146.027L144.844 50.7803L141.697 63.0189H138.066L134.085 47.8753H136.479L139.895 62.0236L143.66 47.8753ZM153.209 47.8753H155.603L151.542 63.0189H147.937L144.844 50.7803L143.634 47.8753H146.027L149.739 62.0236L153.209 47.8753ZM163.094 63.2878C161.911 63.2878 160.915 63.0458 160.109 62.5616C159.302 62.0774 158.692 61.414 158.279 60.5711C157.885 59.7104 157.688 58.7421 157.688 57.6662C157.688 56.5544 157.885 55.5771 158.279 54.7343C158.692 53.8736 159.302 53.2011 160.109 52.717C160.915 52.2328 161.92 51.9907 163.121 51.9907C164.878 51.9907 166.214 52.5107 167.129 53.5508C168.043 54.5908 168.501 55.9626 168.501 57.6662C168.501 58.7242 168.303 59.6835 167.909 60.5443C167.532 61.3871 166.941 62.0595 166.134 62.5616C165.345 63.0458 164.332 63.2878 163.094 63.2878ZM163.094 61.3781C163.973 61.3781 164.645 61.1898 165.112 60.8132C165.578 60.4367 165.892 59.9615 166.053 59.3876C166.232 58.7959 166.322 58.1952 166.322 57.5855C166.322 56.9758 166.232 56.384 166.053 55.8102C165.892 55.2185 165.578 54.7343 165.112 54.3577C164.645 53.9632 163.973 53.766 163.094 53.766C162.251 53.766 161.588 53.9632 161.104 54.3577C160.638 54.7343 160.315 55.2185 160.135 55.8102C159.956 56.384 159.866 56.9758 159.866 57.5855C159.866 58.1952 159.956 58.7959 160.135 59.3876C160.315 59.9615 160.638 60.4367 161.104 60.8132C161.588 61.1898 162.251 61.3781 163.094 61.3781ZM171.886 63.0189V52.0176H173.795L174.172 54.5729H174.226C174.244 54.5012 174.315 54.3308 174.441 54.0619C174.566 53.7929 174.773 53.506 175.06 53.2011C175.346 52.8783 175.732 52.6004 176.216 52.3673C176.7 52.1342 177.31 52.0176 178.045 52.0176C178.816 52.0176 179.444 52.1431 179.928 52.3942C180.43 52.6273 180.825 52.9501 181.112 53.3625C181.416 53.757 181.632 54.2053 181.757 54.7074C181.883 55.1916 181.963 55.6937 181.999 56.2137C182.035 56.7158 182.053 57.191 182.053 57.6393V63.0189H179.874V57.6124C179.874 56.931 179.803 56.3213 179.659 55.7833C179.516 55.2274 179.256 54.7971 178.879 54.4922C178.503 54.1694 177.938 54.0081 177.185 54.0081C176.431 54.0081 175.831 54.1874 175.382 54.546C174.952 54.9047 174.638 55.3709 174.441 55.9447C174.262 56.5006 174.172 57.1103 174.172 57.7738V63.0189H171.886ZM190.339 63.2878C189.263 63.2878 188.376 63.0458 187.676 62.5616C186.995 62.0774 186.484 61.414 186.143 60.5711C185.82 59.7283 185.659 58.769 185.659 57.6931C185.659 56.5634 185.829 55.5771 186.17 54.7343C186.511 53.8736 187.022 53.2101 187.703 52.7439C188.402 52.2597 189.281 52.0176 190.339 52.0176C191.056 52.0176 191.657 52.1342 192.141 52.3673C192.643 52.6004 193.038 52.8783 193.325 53.2011C193.612 53.5239 193.818 53.8198 193.943 54.0888C194.087 54.3577 194.168 54.5281 194.185 54.5998H194.239V47.8753H196.552V63.0189H194.616L194.266 60.8132H194.212C194.177 60.885 194.087 61.0553 193.943 61.3243C193.8 61.5753 193.576 61.8533 193.271 62.1581C192.966 62.463 192.572 62.7319 192.087 62.9651C191.603 63.1802 191.02 63.2878 190.339 63.2878ZM190.985 61.3512C191.684 61.3512 192.276 61.1988 192.76 60.8939C193.244 60.5891 193.603 60.1587 193.836 59.6028C194.087 59.0469 194.212 58.4014 194.212 57.6662C194.212 56.9489 194.096 56.3123 193.863 55.7564C193.63 55.2005 193.28 54.7791 192.814 54.4922C192.365 54.1874 191.792 54.035 191.092 54.035C190.303 54.035 189.667 54.2053 189.182 54.546C188.716 54.8867 188.376 55.335 188.16 55.8909C187.963 56.4468 187.864 57.0386 187.864 57.6662C187.864 58.2938 187.954 58.8945 188.133 59.4683C188.331 60.0242 188.653 60.4815 189.102 60.8401C189.568 61.1808 190.196 61.3512 190.985 61.3512ZM205.243 63.2878C204.006 63.2878 202.993 63.0189 202.204 62.4809C201.415 61.925 200.832 61.2167 200.455 60.356C200.079 59.4773 199.89 58.5717 199.89 57.6393C199.872 56.5813 200.07 55.6219 200.482 54.7612C200.912 53.9005 201.522 53.2191 202.311 52.717C203.118 52.2149 204.077 51.9638 205.189 51.9638C206.158 51.9638 207.018 52.179 207.771 52.6094C208.525 53.0218 209.125 53.6136 209.574 54.3846C210.022 55.1378 210.264 56.0344 210.3 57.0744C210.318 57.1282 210.327 57.2358 210.327 57.3972C210.327 57.5407 210.327 57.6662 210.327 57.7738H202.015C202.015 58.9214 202.293 59.818 202.849 60.4636C203.423 61.0912 204.212 61.405 205.216 61.405C205.969 61.405 206.606 61.2167 207.126 60.8401C207.664 60.4456 207.996 59.9256 208.121 59.2801H210.3C210.192 60.0332 209.923 60.7146 209.493 61.3243C209.063 61.934 208.489 62.4181 207.771 62.7768C207.054 63.1175 206.211 63.2878 205.243 63.2878ZM202.096 56.671H208.067C208.049 56.4737 207.996 56.2137 207.906 55.8909C207.834 55.5681 207.691 55.2543 207.476 54.9495C207.26 54.6267 206.964 54.3577 206.588 54.1425C206.211 53.9274 205.727 53.8198 205.135 53.8198C204.597 53.8198 204.14 53.9094 203.764 54.0888C203.387 54.2681 203.082 54.5102 202.849 54.815C202.616 55.1019 202.437 55.4157 202.311 55.7564C202.204 56.0792 202.132 56.384 202.096 56.671ZM214.013 63.0189V52.0176H216.084L216.272 55.1916L216.245 57.5586V63.0189H214.013ZM216.245 58.0696L216.164 55.6488C216.182 55.2543 216.272 54.8509 216.433 54.4384C216.595 54.0081 216.837 53.6136 217.16 53.2549C217.5 52.8783 217.931 52.5825 218.451 52.3673C218.989 52.1342 219.634 52.0176 220.387 52.0176H220.845V54.4922H220.36C219.554 54.4922 218.881 54.5729 218.343 54.7343C217.805 54.8778 217.384 55.1019 217.079 55.4068C216.774 55.7116 216.559 56.0882 216.433 56.5365C216.308 56.9848 216.245 57.4958 216.245 58.0696ZM234.182 58.0696V55.5143L241.633 47.8753H244.538V48.1712L234.182 58.0696ZM232.057 63.0189V47.8753H234.29V63.0189H232.057ZM242.278 63.0189L236.253 55.084L237.867 53.497L244.86 62.723V63.0189H242.278ZM252.624 63.2878C251.387 63.2878 250.374 63.0189 249.585 62.4809C248.796 61.925 248.213 61.2167 247.837 60.356C247.46 59.4773 247.272 58.5717 247.272 57.6393C247.254 56.5813 247.451 55.6219 247.863 54.7612C248.294 53.9005 248.903 53.2191 249.692 52.717C250.499 52.2149 251.459 51.9638 252.571 51.9638C253.539 51.9638 254.4 52.179 255.153 52.6094C255.906 53.0218 256.507 53.6136 256.955 54.3846C257.403 55.1378 257.645 56.0344 257.681 57.0744C257.699 57.1282 257.708 57.2358 257.708 57.3972C257.708 57.5407 257.708 57.6662 257.708 57.7738H249.397C249.397 58.9214 249.675 59.818 250.23 60.4636C250.804 61.0912 251.593 61.405 252.597 61.405C253.351 61.405 253.987 61.2167 254.507 60.8401C255.045 60.4456 255.377 59.9256 255.502 59.2801H257.681C257.574 60.0332 257.305 60.7146 256.874 61.3243C256.444 61.934 255.87 62.4181 255.153 62.7768C254.435 63.1175 253.593 63.2878 252.624 63.2878ZM249.477 56.671H255.449C255.431 56.4737 255.377 56.2137 255.287 55.8909C255.215 55.5681 255.072 55.2543 254.857 54.9495C254.642 54.6267 254.346 54.3577 253.969 54.1425C253.593 53.9274 253.108 53.8198 252.517 53.8198C251.979 53.8198 251.522 53.9094 251.145 54.0888C250.768 54.2681 250.464 54.5102 250.23 54.815C249.997 55.1019 249.818 55.4157 249.692 55.7564C249.585 56.0792 249.513 56.384 249.477 56.671ZM260.13 68.0219V66.2735H261.717C261.968 66.2735 262.192 66.2376 262.389 66.1659C262.586 66.1121 262.775 65.9687 262.954 65.7355C263.151 65.5024 263.357 65.1438 263.573 64.6596L264.514 62.5885L260.21 52.0176H262.524L265.617 60.2753L268.925 52.0176H271.265L265.617 64.9017C265.312 65.5831 265.034 66.1301 264.783 66.5425C264.55 66.9549 264.299 67.2687 264.03 67.4839C263.779 67.6991 263.483 67.8426 263.142 67.9143C262.819 67.986 262.434 68.0219 261.986 68.0219H260.13Z" fill="#B2A600"/>
</g>
<defs>
<filter id="filter0_i_129_1774" x="40.5496" y="46.3233" width="12.4133" height="18.8286" filterUnits="userSpaceOnUse" color-interpolation-filters="sRGB">
<feFlood flood-opacity="0" result="BackgroundImageFix"/>
<feBlend mode="normal" in="SourceGraphic" in2="BackgroundImageFix" result="shape"/>
<feColorMatrix in="SourceAlpha" type="matrix" values="0 0 0 0 0 0 0 0 0 0 0 0 0 0 0 0 0 0 127 0" result="hardAlpha"/>
<feOffset/>
<feGaussianBlur stdDeviation="1.56754"/>
<feComposite in2="hardAlpha" operator="arithmetic" k2="-1" k3="1"/>
<feColorMatrix type="matrix" values="0 0 0 0 0 0 0 0 0 0 0 0 0 0 0 0 0 0 0.16 0"/>
<feBlend mode="normal" in2="shape" result="effect1_innerShadow_129_1774"/>
</filter>
<filter id="filter1_i_129_1774" x="134.085" y="47.8753" width="137.181" height="20.1465" filterUnits="userSpaceOnUse" color-interpolation-filters="sRGB">
<feFlood flood-opacity="0" result="BackgroundImageFix"/>
<feBlend mode="normal" in="SourceGraphic" in2="BackgroundImageFix" result="shape"/>
<feColorMatrix in="SourceAlpha" type="matrix" values="0 0 0 0 0 0 0 0 0 0 0 0 0 0 0 0 0 0 127 0" result="hardAlpha"/>
<feOffset/>
<feGaussianBlur stdDeviation="1.56754"/>
<feComposite in2="hardAlpha" operator="arithmetic" k2="-1" k3="1"/>
<feColorMatrix type="matrix" values="0 0 0 0 0 0 0 0 0 0 0 0 0 0 0 0 0 0 0.16 0"/>
<feBlend mode="normal" in2="shape" result="effect1_innerShadow_129_1774"/>
</filter>
</defs>
</svg>
