<svg width="267" height="90" viewBox="0 0 267 90" fill="none" xmlns="http://www.w3.org/2000/svg">
<g style="mix-blend-mode:soft-light">
<path d="M10.9761 60.878V28.7402L38.8083 12.6713L66.6405 28.7402V60.878L38.8083 76.9469L10.9761 60.878Z" fill="#D20080"/>
</g>
<path opacity="0.45" d="M17.3047 57.2241V32.394L38.8086 19.979L60.3125 32.394V57.2241L38.8086 69.6392L17.3047 57.2241Z" fill="#000004" fill-opacity="0.45"/>
<path d="M27 44.6629C27 38.208 32.208 33 38.6629 33C45.1179 33 50.3992 38.208 50.3992 44.6629C50.3992 51.1178 45.1179 56.3258 38.6629 56.3258C32.208 56.3258 27 51.1178 27 44.6629Z" fill="#ED0090"/>
<path d="M34.1885 44.6631C34.1885 42.1691 36.169 40.1887 38.6629 40.1887C41.1569 40.1887 43.1373 42.1691 43.1373 44.6631C43.1373 47.157 41.1569 49.1375 38.6629 49.1375C36.169 49.1375 34.1885 47.157 34.1885 44.6631Z" fill="white"/>
<g style="mix-blend-mode:soft-light">
<path d="M66.1353 60.986V28.634H256.084L265.424 44.8109L256.084 60.9878H66.1353V60.986Z" fill="#D20080"/>
</g>
<path opacity="0.45" d="M66 60.9982V29H254.043L265 45L254.043 61H66V60.9982Z" fill="#000004" fill-opacity="0.45"/>
<path d="M38.8084 78.1166L9.96387 61.4638V28.1562L38.8084 11.5034L67.653 28.1562V61.4638L38.8084 78.1166ZM12.4956 60.0011L38.8084 75.1932L65.1213 60.0011V29.6171L38.8084 14.425L12.4956 29.6171V60.0011Z" fill="#D20080"/>
<path d="M256.666 61.9983H65.1211V27.6217H256.666L266.59 44.8109L256.666 62.0001V61.9983ZM67.6528 59.4666H255.206L263.668 44.8091L255.206 30.1516H67.6528V59.4666Z" fill="#D20080"/>
<path d="M193.96 19.3639H203.898L184.207 7.99599H174.269L193.96 19.3639Z" fill="#D20080"/>
<path d="M172.817 19.3639H187.957L168.266 7.99599H153.125L172.817 19.3639Z" fill="#D20080"/>
<path d="M147.123 7.996H100.944L81.2544 19.3639H166.814L147.123 7.996Z" fill="#D20080"/>
<path d="M112.64 15.3714V11.9867L109.709 10.2934L106.776 11.9867V15.3714L109.709 17.0647L112.64 15.3714Z" fill="white"/>
<path d="M126.301 15.3714V11.9867L123.371 10.2934L120.438 11.9867V15.3714L123.371 17.0647L126.301 15.3714Z" fill="white"/>
<path d="M139.965 15.3714V11.9867L137.032 10.2934L134.102 11.9867V15.3714L137.032 17.0647L139.965 15.3714Z" fill="white"/>
<path d="M38.8084 7.30587L68.971 24.7221H77.615V22.4045L38.8084 0L0 22.4045V67.2155L38.8084 89.62L77.615 67.2155V64.8998H68.9692L38.8084 82.3141L6.32833 63.5616V26.0584L38.8084 7.30587Z" fill="#D20080"/>
<path d="M168.654 64.8998H75.7349V67.2155H164.643L168.654 64.8998Z" fill="#D20080"/>
<path d="M232.981 64.8998H195.613L199.625 67.2155H228.97L232.981 64.8998Z" fill="#D20080"/>
<path d="M114.243 22.4027H75.7349V24.7202H118.254L114.243 22.4027Z" fill="#D20080"/>
<path d="M146.943 24.7202H251.198L247.186 22.4027H150.956L146.943 24.7202Z" fill="#D20080"/>
<g opacity="0.73" filter="url(#filter0_i_129_1798)">
<path d="M100.304 51.05V39.6142H104.732C105.734 39.6142 106.587 39.7293 107.291 39.9595C107.995 40.1761 108.537 40.535 108.916 41.036C109.309 41.5235 109.505 42.1871 109.505 43.0266C109.505 43.6766 109.404 44.2386 109.2 44.7126C108.997 45.1865 108.699 45.5521 108.307 45.8094C107.928 46.0667 107.474 46.1954 106.946 46.1954C107.311 46.1954 107.596 46.2698 107.799 46.4188C108.002 46.5542 108.158 46.7438 108.266 46.9875C108.374 47.2177 108.449 47.4615 108.49 47.7188C108.544 47.9761 108.591 48.2266 108.632 48.4703C108.686 48.7141 108.754 48.924 108.835 49.1C108.93 49.2625 109.072 49.3708 109.261 49.425C109.451 49.4656 109.715 49.4182 110.054 49.2828V50.6641C109.742 50.9349 109.383 51.1109 108.977 51.1922C108.571 51.2734 108.178 51.2464 107.799 51.1109C107.42 50.9755 107.102 50.7115 106.844 50.3188C106.601 49.9125 106.479 49.3573 106.479 48.6531C106.479 48.2875 106.458 47.9693 106.418 47.6985C106.391 47.4141 106.309 47.1839 106.174 47.0079C106.052 46.8183 105.856 46.6761 105.585 46.5813C105.328 46.473 104.969 46.412 104.508 46.3985C104.061 46.3714 103.479 46.3782 102.761 46.4188V51.05H100.304ZM102.761 44.6719H104.488C105.138 44.6719 105.666 44.6516 106.072 44.611C106.492 44.5704 106.804 44.4485 107.007 44.2454C107.21 44.0423 107.311 43.7037 107.311 43.2298C107.311 42.6746 107.19 42.2886 106.946 42.072C106.702 41.8418 106.343 41.7063 105.869 41.6657C105.395 41.6251 104.806 41.6048 104.102 41.6048H102.761V44.6719ZM112.804 51.05V39.6142H121.193V41.7063H115.201V44.2657H119.751V46.2563H115.201V49.0797H121.416V51.05H112.804ZM126.834 49.0391C127.281 49.0391 127.62 49.0391 127.85 49.0391C128.08 49.0391 128.242 49.0391 128.337 49.0391C128.96 49.0391 129.509 48.9917 129.983 48.8969C130.47 48.7886 130.883 48.599 131.222 48.3282C131.56 48.0573 131.817 47.6782 131.993 47.1907C132.183 46.7032 132.278 46.0735 132.278 45.3016C132.278 44.5027 132.115 43.8391 131.79 43.311C131.479 42.7829 131.025 42.3902 130.429 42.1329C129.847 41.8621 129.15 41.7267 128.337 41.7267H126.834V49.0391ZM134.878 45.3219C134.878 46.825 134.58 47.9964 133.984 48.836C133.388 49.662 132.542 50.2375 131.445 50.5625C130.362 50.8875 129.089 51.05 127.626 51.05C127.396 51.05 127.03 51.05 126.529 51.05C126.042 51.05 125.338 51.05 124.417 51.05V39.6142C125.392 39.6142 126.116 39.6142 126.59 39.6142C127.064 39.6142 127.41 39.6142 127.626 39.6142C129.089 39.6142 130.362 39.8308 131.445 40.2642C132.542 40.684 133.388 41.3136 133.984 42.1532C134.58 42.9928 134.878 44.049 134.878 45.3219ZM137.746 51.05V39.6142H146.135V41.7063H140.143V44.2657H144.693V46.2563H140.143V49.0797H146.359V51.05H137.746ZM149.156 51.05V39.6142H157.545V41.7063H151.553V44.2657H156.103V46.2563H151.553V49.0797H157.768V51.05H149.156ZM160.708 51.05V39.6142H164.973L167.167 50.0141H167.208L169.361 39.6142H173.606V51.05H171.067L171.25 40.6704H171.209L168.955 51.05H165.38L163.145 40.6704H163.105L163.247 51.05H160.708ZM187.154 51.2531C186.084 51.2531 185.109 51.0365 184.229 50.6031C183.349 50.1698 182.645 49.5198 182.117 48.6531C181.602 47.7729 181.352 46.6896 181.365 45.4032C181.379 44.1303 181.636 43.047 182.137 42.1532C182.652 41.2595 183.349 40.5824 184.229 40.122C185.109 39.648 186.105 39.4111 187.215 39.4111C188.312 39.4111 189.246 39.6074 190.018 40.0001C190.79 40.3928 191.393 40.9209 191.826 41.5845C192.273 42.248 192.564 42.9792 192.699 43.7782H190.16C190.079 43.2095 189.876 42.7829 189.551 42.4985C189.226 42.2006 188.847 41.9975 188.414 41.8892C187.994 41.7808 187.594 41.7267 187.215 41.7267C186.091 41.7267 185.238 42.0313 184.656 42.6407C184.073 43.2501 183.782 44.11 183.782 45.2204C183.782 46.412 184.067 47.3328 184.635 47.9828C185.204 48.6328 186.057 48.9578 187.195 48.9578C187.601 48.9578 188.014 48.8969 188.434 48.775C188.867 48.6531 189.246 48.4365 189.571 48.125C189.91 47.8 190.12 47.3532 190.201 46.7844H192.74C192.605 47.5969 192.314 48.3485 191.867 49.0391C191.42 49.7162 190.804 50.2578 190.018 50.6641C189.246 51.0568 188.292 51.2531 187.154 51.2531ZM200.428 51.3344C198.559 51.3344 197.13 50.7995 196.142 49.7297C195.153 48.6464 194.659 47.1907 194.659 45.3626C194.659 44.1574 194.869 43.1147 195.289 42.2345C195.722 41.3407 196.365 40.6501 197.218 40.1626C198.071 39.6616 199.141 39.4111 200.428 39.4111C202.31 39.4111 203.739 39.9527 204.714 41.036C205.689 42.1058 206.176 43.548 206.176 45.3626C206.176 46.5407 205.959 47.5834 205.526 48.4906C205.093 49.3844 204.449 50.0818 203.596 50.5828C202.743 51.0839 201.687 51.3344 200.428 51.3344ZM200.387 48.9578C201.145 48.9578 201.775 48.8021 202.276 48.4906C202.777 48.1792 203.149 47.7526 203.393 47.211C203.637 46.6558 203.759 46.0396 203.759 45.3626C203.759 44.6855 203.637 44.0693 203.393 43.5141C203.149 42.9589 202.777 42.5188 202.276 42.1938C201.789 41.8688 201.159 41.7063 200.387 41.7063C199.304 41.7063 198.471 42.0449 197.889 42.722C197.32 43.399 197.035 44.2792 197.035 45.3626C197.035 46.0261 197.157 46.6355 197.401 47.1907C197.658 47.7323 198.031 48.1657 198.518 48.4906C199.006 48.8021 199.629 48.9578 200.387 48.9578ZM211.523 49.0391C211.97 49.0391 212.308 49.0391 212.539 49.0391C212.769 49.0391 212.931 49.0391 213.026 49.0391C213.649 49.0391 214.197 48.9917 214.671 48.8969C215.159 48.7886 215.572 48.599 215.91 48.3282C216.249 48.0573 216.506 47.6782 216.682 47.1907C216.872 46.7032 216.967 46.0735 216.967 45.3016C216.967 44.5027 216.804 43.8391 216.479 43.311C216.168 42.7829 215.714 42.3902 215.118 42.1329C214.536 41.8621 213.839 41.7267 213.026 41.7267H211.523V49.0391ZM219.567 45.3219C219.567 46.825 219.269 47.9964 218.673 48.836C218.077 49.662 217.231 50.2375 216.134 50.5625C215.05 50.8875 213.778 51.05 212.315 51.05C212.085 51.05 211.719 51.05 211.218 51.05C210.731 51.05 210.027 51.05 209.106 51.05V39.6142C210.081 39.6142 210.805 39.6142 211.279 39.6142C211.753 39.6142 212.098 39.6142 212.315 39.6142C213.778 39.6142 215.05 39.8308 216.134 40.2642C217.231 40.684 218.077 41.3136 218.673 42.1532C219.269 42.9928 219.567 44.049 219.567 45.3219ZM222.435 51.05V39.6142H230.824V41.7063H224.832V44.2657H229.382V46.2563H224.832V49.0797H231.047V51.05H222.435Z" fill="#FF78CA"/>
</g>
<defs>
<filter id="filter0_i_129_1798" x="100.304" y="39.411" width="130.744" height="11.9233" filterUnits="userSpaceOnUse" color-interpolation-filters="sRGB">
<feFlood flood-opacity="0" result="BackgroundImageFix"/>
<feBlend mode="normal" in="SourceGraphic" in2="BackgroundImageFix" result="shape"/>
<feColorMatrix in="SourceAlpha" type="matrix" values="0 0 0 0 0 0 0 0 0 0 0 0 0 0 0 0 0 0 127 0" result="hardAlpha"/>
<feOffset/>
<feGaussianBlur stdDeviation="1.18375"/>
<feComposite in2="hardAlpha" operator="arithmetic" k2="-1" k3="1"/>
<feColorMatrix type="matrix" values="0 0 0 0 0 0 0 0 0 0 0 0 0 0 0 0 0 0 0.16 0"/>
<feBlend mode="normal" in2="shape" result="effect1_innerShadow_129_1798"/>
</filter>
</defs>
</svg>
