<svg width="143" height="12" viewBox="0 0 143 12" fill="none" xmlns="http://www.w3.org/2000/svg">
<g filter="url(#filter0_i_143_564)">
<path d="M4.5926 7.22629L0.969084 0.429858H2.71513L5.38113 5.79942L8.02836 0.429858H9.77441L6.09457 7.22629H4.5926ZM4.57382 11V6.98222H6.13212V11H4.57382ZM14.0606 11.1877C13.2345 11.1877 12.5399 11.0188 11.9766 10.6808C11.4134 10.3429 10.9878 9.87978 10.6999 9.2915C10.4246 8.69071 10.2869 8.01483 10.2869 7.26384C10.2869 6.48782 10.4246 5.80567 10.6999 5.2174C10.9878 4.61661 11.4134 4.14724 11.9766 3.8093C12.5399 3.47136 13.2408 3.30238 14.0794 3.30238C15.306 3.30238 16.2385 3.66536 16.8768 4.39131C17.5151 5.11727 17.8343 6.07478 17.8343 7.26384C17.8343 8.00231 17.6966 8.67194 17.4213 9.27273C17.1584 9.861 16.7454 10.3304 16.1821 10.6808C15.6314 11.0188 14.9242 11.1877 14.0606 11.1877ZM14.0606 9.85474C14.6739 9.85474 15.1433 9.72332 15.4687 9.46048C15.7941 9.19763 16.0132 8.86595 16.1258 8.46542C16.251 8.05238 16.3136 7.63308 16.3136 7.20752C16.3136 6.78196 16.251 6.36891 16.1258 5.96839C16.0132 5.55534 15.7941 5.2174 15.4687 4.95455C15.1433 4.67919 14.6739 4.54151 14.0606 4.54151C13.4723 4.54151 13.0092 4.67919 12.6713 4.95455C12.3459 5.2174 12.1206 5.55534 11.9954 5.96839C11.8702 6.36891 11.8076 6.78196 11.8076 7.20752C11.8076 7.63308 11.8702 8.05238 11.9954 8.46542C12.1206 8.86595 12.3459 9.19763 12.6713 9.46048C13.0092 9.72332 13.4723 9.85474 14.0606 9.85474ZM22.9569 11.1877C22.4437 11.1877 22.0119 11.1064 21.6614 10.9437C21.3235 10.781 21.0481 10.5619 20.8353 10.2866C20.6351 10.0112 20.4849 9.70455 20.3847 9.3666C20.2846 9.02866 20.2158 8.6782 20.1782 8.31522C20.1407 7.95224 20.1219 7.60178 20.1219 7.26384V3.32116H21.6614V7.26384C21.6614 7.71443 21.7052 8.13373 21.7928 8.52174C21.8805 8.89724 22.0619 9.20389 22.3373 9.4417C22.6127 9.67951 23.0194 9.79842 23.5577 9.79842C24.0833 9.79842 24.4901 9.67951 24.778 9.4417C25.0659 9.19137 25.2662 8.87846 25.3788 8.50297C25.504 8.12747 25.5728 7.73946 25.5853 7.33894V3.32116H27.1999V11H25.8669L25.6041 9.40415H25.5665C25.529 9.52932 25.4539 9.69203 25.3413 9.89229C25.2286 10.08 25.0721 10.274 24.8719 10.4743C24.6716 10.6746 24.4088 10.8435 24.0833 10.9812C23.7704 11.1189 23.3949 11.1877 22.9569 11.1877ZM29.7744 11V3.32116H31.2201L31.3515 5.53657L31.3327 7.18874V11H29.7744ZM31.3327 7.54546L31.2764 5.85574C31.2889 5.58038 31.3515 5.29876 31.4641 5.01088C31.5768 4.71048 31.7458 4.43512 31.9711 4.18479C32.2089 3.92195 32.5093 3.71543 32.8722 3.56523C33.2477 3.40252 33.6983 3.32116 34.224 3.32116H34.5432V5.04843H34.2052C33.642 5.04843 33.1726 5.10475 32.7971 5.2174C32.4216 5.31753 32.1275 5.47399 31.9147 5.68677C31.702 5.89955 31.5518 6.16239 31.4641 6.4753C31.3765 6.78821 31.3327 7.14493 31.3327 7.54546ZM41.9376 11V3.32116H43.3833L43.5147 5.53657L43.4959 7.18874V11H41.9376ZM43.4959 7.54546L43.4396 5.85574C43.4521 5.58038 43.5147 5.29876 43.6273 5.01088C43.74 4.71048 43.909 4.43512 44.1343 4.18479C44.3721 3.92195 44.6725 3.71543 45.0354 3.56523C45.4109 3.40252 45.8615 3.32116 46.3872 3.32116H46.7064V5.04843H46.3684C45.8052 5.04843 45.3358 5.10475 44.9603 5.2174C44.5849 5.31753 44.2907 5.47399 44.0779 5.68677C43.8652 5.89955 43.715 6.16239 43.6273 6.4753C43.5397 6.78821 43.4959 7.14493 43.4959 7.54546ZM52.1967 11.1877C51.333 11.1877 50.6258 11 50.0751 10.6245C49.5244 10.2365 49.1176 9.7421 48.8548 9.14131C48.5919 8.528 48.4605 7.89592 48.4605 7.24507C48.448 6.50659 48.5857 5.83696 48.8735 5.23618C49.1739 4.63539 49.5995 4.15976 50.1502 3.8093C50.7135 3.45884 51.3831 3.28361 52.1591 3.28361C52.835 3.28361 53.4358 3.43381 53.9615 3.7342C54.4872 4.02208 54.9065 4.43512 55.2194 4.97333C55.5323 5.49902 55.7013 6.12484 55.7263 6.8508C55.7388 6.88835 55.7451 6.96345 55.7451 7.07609C55.7451 7.17622 55.7451 7.26384 55.7451 7.33894H49.9437C49.9437 8.13999 50.1377 8.76581 50.5257 9.21641C50.9262 9.65448 51.477 9.87352 52.1779 9.87352C52.7036 9.87352 53.1479 9.7421 53.5109 9.47925C53.8864 9.20389 54.1179 8.84091 54.2055 8.39032H55.7263C55.6512 8.91601 55.4635 9.39164 55.1631 9.8172C54.8627 10.2428 54.4621 10.5807 53.9615 10.831C53.4608 11.0688 52.8725 11.1877 52.1967 11.1877ZM50 6.56918H54.168C54.1555 6.4315 54.1179 6.25001 54.0554 6.02471C54.0053 5.79942 53.9052 5.58038 53.755 5.3676C53.6048 5.1423 53.3982 4.95455 53.1354 4.80436C52.8725 4.65416 52.5346 4.57906 52.1216 4.57906C51.7461 4.57906 51.4269 4.64164 51.1641 4.76681C50.9012 4.89197 50.6884 5.06094 50.5257 5.27372C50.363 5.47399 50.2378 5.69303 50.1502 5.93084C50.0751 6.15613 50.0251 6.36891 50 6.56918ZM61.5658 11.1877C60.8148 11.1877 60.1953 11.0188 59.7071 10.6808C59.2315 10.3429 58.8748 9.87978 58.637 9.2915C58.4117 8.70323 58.299 8.0336 58.299 7.28261C58.299 6.49408 58.4179 5.80567 58.6557 5.2174C58.8935 4.61661 59.2503 4.1535 59.7259 3.82807C60.214 3.49013 60.8273 3.32116 61.5658 3.32116C62.0665 3.32116 62.4858 3.40252 62.8237 3.56523C63.1742 3.72794 63.4495 3.92195 63.6498 4.14724C63.8501 4.37254 63.994 4.57906 64.0816 4.76681C64.1817 4.95456 64.2381 5.07346 64.2506 5.12353H64.2881V0.429858H65.9028V11H64.551L64.3069 9.46048H64.2694C64.2443 9.51054 64.1817 9.62945 64.0816 9.8172C63.9815 9.99243 63.825 10.1864 63.6122 10.3992C63.3995 10.612 63.1241 10.7997 62.7862 10.9625C62.4482 11.1126 62.0414 11.1877 61.5658 11.1877ZM62.0164 9.83597C62.5045 9.83597 62.9176 9.72958 63.2555 9.5168C63.5935 9.30402 63.8438 9.00363 64.0065 8.61562C64.1817 8.22761 64.2694 7.77701 64.2694 7.26384C64.2694 6.76318 64.188 6.31885 64.0253 5.93084C63.8626 5.54283 63.6185 5.24869 63.2931 5.04843C62.9802 4.83565 62.5796 4.72926 62.0915 4.72926C61.5408 4.72926 61.0964 4.84816 60.7585 5.08598C60.4331 5.32379 60.1953 5.6367 60.0451 6.02471C59.9074 6.41272 59.8385 6.82576 59.8385 7.26384C59.8385 7.70192 59.9011 8.12122 60.0263 8.52174C60.164 8.90975 60.3893 9.22892 60.7022 9.47925C61.0276 9.71706 61.4657 9.83597 62.0164 9.83597ZM71.9687 11.1877C71.1051 11.1877 70.3979 11 69.8472 10.6245C69.2965 10.2365 68.8897 9.7421 68.6268 9.14131C68.364 8.528 68.2326 7.89592 68.2326 7.24507C68.2201 6.50659 68.3577 5.83696 68.6456 5.23618C68.946 4.63539 69.3716 4.15976 69.9223 3.8093C70.4855 3.45884 71.1552 3.28361 71.9312 3.28361C72.6071 3.28361 73.2079 3.43381 73.7336 3.7342C74.2592 4.02208 74.6786 4.43512 74.9915 4.97333C75.3044 5.49902 75.4733 6.12484 75.4984 6.8508C75.5109 6.88835 75.5172 6.96345 75.5172 7.07609C75.5172 7.17622 75.5172 7.26384 75.5172 7.33894H69.7158C69.7158 8.13999 69.9098 8.76581 70.2978 9.21641C70.6983 9.65448 71.249 9.87352 71.95 9.87352C72.4757 9.87352 72.92 9.7421 73.283 9.47925C73.6585 9.20389 73.89 8.84091 73.9776 8.39032H75.4984C75.4233 8.91601 75.2355 9.39164 74.9351 9.8172C74.6347 10.2428 74.2342 10.5807 73.7336 10.831C73.2329 11.0688 72.6446 11.1877 71.9687 11.1877ZM69.7721 6.56918H73.9401C73.9276 6.4315 73.89 6.25001 73.8274 6.02471C73.7774 5.79942 73.6772 5.58038 73.527 5.3676C73.3768 5.1423 73.1703 4.95455 72.9075 4.80436C72.6446 4.65416 72.3067 4.57906 71.8936 4.57906C71.5181 4.57906 71.199 4.64164 70.9361 4.76681C70.6733 4.89197 70.4605 5.06094 70.2978 5.27372C70.1351 5.47399 70.0099 5.69303 69.9223 5.93084C69.8472 6.15613 69.7971 6.36891 69.7721 6.56918ZM81.4881 11.1877C80.6245 11.1877 79.9173 11 79.3665 10.6245C78.8158 10.2365 78.409 9.7421 78.1462 9.14131C77.8833 8.528 77.7519 7.89592 77.7519 7.24507C77.7394 6.50659 77.8771 5.83696 78.165 5.23618C78.4654 4.63539 78.8909 4.15976 79.4416 3.8093C80.0049 3.45884 80.6745 3.28361 81.4505 3.28361C82.1264 3.28361 82.7272 3.43381 83.2529 3.7342C83.7786 4.02208 84.1979 4.43512 84.5108 4.97333C84.8237 5.49902 84.9927 6.12484 85.0177 6.8508C85.0302 6.88835 85.0365 6.96345 85.0365 7.07609C85.0365 7.17622 85.0365 7.26384 85.0365 7.33894H79.2351C79.2351 8.13999 79.4291 8.76581 79.8171 9.21641C80.2177 9.65448 80.7684 9.87352 81.4693 9.87352C81.995 9.87352 82.4393 9.7421 82.8023 9.47925C83.1778 9.20389 83.4094 8.84091 83.497 8.39032H85.0177C84.9426 8.91601 84.7549 9.39164 84.4545 9.8172C84.1541 10.2428 83.7536 10.5807 83.2529 10.831C82.7522 11.0688 82.164 11.1877 81.4881 11.1877ZM79.2914 6.56918H83.4594C83.4469 6.4315 83.4094 6.25001 83.3468 6.02471C83.2967 5.79942 83.1966 5.58038 83.0464 5.3676C82.8962 5.1423 82.6897 4.95455 82.4268 4.80436C82.164 4.65416 81.826 4.57906 81.413 4.57906C81.0375 4.57906 80.7183 4.64164 80.4555 4.76681C80.1926 4.89197 79.9799 5.06094 79.8171 5.27372C79.6544 5.47399 79.5293 5.69303 79.4416 5.93084C79.3665 6.15613 79.3165 6.36891 79.2914 6.56918ZM87.4778 11V3.32116H88.9422L88.9985 5.10475H89.0361C89.0486 5.02965 89.0987 4.89823 89.1863 4.71048C89.2739 4.52274 89.4053 4.32247 89.5806 4.10969C89.7683 3.89692 90.0061 3.71543 90.294 3.56523C90.5944 3.40252 90.9699 3.32116 91.4205 3.32116C91.8585 3.32116 92.2215 3.40877 92.5094 3.584C92.7973 3.74672 93.0226 3.96576 93.1853 4.24112C93.3605 4.50396 93.4857 4.79184 93.5608 5.10475H93.5983C93.6234 5.02965 93.6859 4.89823 93.7861 4.71048C93.8862 4.52274 94.0301 4.32247 94.2179 4.10969C94.4182 3.8844 94.6747 3.69665 94.9877 3.54645C95.3006 3.39626 95.6823 3.32116 96.1329 3.32116C96.6211 3.32116 97.0216 3.42129 97.3345 3.62155C97.6599 3.82182 97.9165 4.08466 98.1043 4.41009C98.292 4.723 98.4297 5.06094 98.5173 5.42392C98.6049 5.77438 98.6612 6.11233 98.6863 6.43775C98.7113 6.76318 98.7238 7.03229 98.7238 7.24507V11H97.2031V7.22629C97.2031 7.02603 97.1906 6.78821 97.1655 6.51285C97.153 6.22497 97.0967 5.94335 96.9965 5.66799C96.9089 5.39263 96.7587 5.16733 96.546 4.9921C96.3332 4.80436 96.0328 4.71048 95.6448 4.71048C95.1942 4.71048 94.8375 4.83565 94.5746 5.08598C94.3118 5.33631 94.124 5.66173 94.0114 6.06226C93.9112 6.46279 93.8612 6.88835 93.8612 7.33894V11H92.3404V7.22629C92.3404 7.02603 92.3279 6.78821 92.3029 6.51285C92.2904 6.22497 92.234 5.94335 92.1339 5.66799C92.0463 5.39263 91.8961 5.16733 91.6833 4.9921C91.4705 4.80436 91.1701 4.71048 90.7821 4.71048C90.3315 4.71048 89.9748 4.83565 89.712 5.08598C89.4491 5.33631 89.2614 5.66173 89.1487 6.06226C89.0486 6.46279 88.9985 6.88835 88.9985 7.33894V11H87.4778ZM109.938 11.1877C109.224 11.1877 108.58 11.0375 108.004 10.7372C107.428 10.4368 106.971 9.99868 106.634 9.42293C106.296 8.84717 106.127 8.14625 106.127 7.32016C106.152 6.49408 106.327 5.78064 106.652 5.17985C106.99 4.57906 107.447 4.11595 108.023 3.79053C108.599 3.4651 109.249 3.30238 109.975 3.30238C110.701 3.30238 111.321 3.44006 111.834 3.71543C112.36 3.99079 112.773 4.34751 113.073 4.78558C113.374 5.22366 113.555 5.69928 113.618 6.21246H112.172C112.072 5.72432 111.834 5.34256 111.459 5.0672C111.083 4.79184 110.608 4.65416 110.032 4.65416C109.531 4.65416 109.106 4.76681 108.755 4.9921C108.405 5.20488 108.136 5.50528 107.948 5.89329C107.76 6.26878 107.66 6.70686 107.647 7.20752C107.647 7.99605 107.854 8.62813 108.267 9.10376C108.68 9.57938 109.262 9.8172 110.013 9.8172C110.551 9.8172 111.021 9.67951 111.421 9.40415C111.822 9.12879 112.072 8.72826 112.172 8.20257H113.618C113.555 8.72826 113.367 9.21641 113.054 9.667C112.754 10.1176 112.341 10.4868 111.815 10.7747C111.29 11.0501 110.664 11.1877 109.938 11.1877ZM119.455 11.1877C118.629 11.1877 117.935 11.0188 117.371 10.6808C116.808 10.3429 116.383 9.87978 116.095 9.2915C115.819 8.69071 115.682 8.01483 115.682 7.26384C115.682 6.48782 115.819 5.80567 116.095 5.2174C116.383 4.61661 116.808 4.14724 117.371 3.8093C117.935 3.47136 118.636 3.30238 119.474 3.30238C120.701 3.30238 121.633 3.66536 122.272 4.39131C122.91 5.11727 123.229 6.07478 123.229 7.26384C123.229 8.00231 123.091 8.67194 122.816 9.27273C122.553 9.861 122.14 10.3304 121.577 10.6808C121.026 11.0188 120.319 11.1877 119.455 11.1877ZM119.455 9.85474C120.069 9.85474 120.538 9.72332 120.864 9.46048C121.189 9.19763 121.408 8.86595 121.521 8.46542C121.646 8.05238 121.708 7.63308 121.708 7.20752C121.708 6.78196 121.646 6.36891 121.521 5.96839C121.408 5.55534 121.189 5.2174 120.864 4.95455C120.538 4.67919 120.069 4.54151 119.455 4.54151C118.867 4.54151 118.404 4.67919 118.066 4.95455C117.741 5.2174 117.515 5.55534 117.39 5.96839C117.265 6.36891 117.203 6.78196 117.203 7.20752C117.203 7.63308 117.265 8.05238 117.39 8.46542C117.515 8.86595 117.741 9.19763 118.066 9.46048C118.404 9.72332 118.867 9.85474 119.455 9.85474ZM128.971 11.1877C128.22 11.1877 127.601 11.0188 127.113 10.6808C126.637 10.3429 126.28 9.87978 126.042 9.2915C125.817 8.70323 125.704 8.0336 125.704 7.28261C125.704 6.49408 125.823 5.80567 126.061 5.2174C126.299 4.61661 126.656 4.1535 127.131 3.82807C127.62 3.49013 128.233 3.32116 128.971 3.32116C129.472 3.32116 129.891 3.40252 130.229 3.56523C130.58 3.72794 130.855 3.92195 131.055 4.14724C131.256 4.37254 131.399 4.57906 131.487 4.76681C131.587 4.95456 131.644 5.07346 131.656 5.12353H131.694V0.429858H133.308V11H131.956L131.712 9.46048H131.675C131.65 9.51054 131.587 9.62945 131.487 9.8172C131.387 9.99243 131.231 10.1864 131.018 10.3992C130.805 10.612 130.53 10.7997 130.192 10.9625C129.854 11.1126 129.447 11.1877 128.971 11.1877ZM129.422 9.83597C129.91 9.83597 130.323 9.72958 130.661 9.5168C130.999 9.30402 131.249 9.00363 131.412 8.61562C131.587 8.22761 131.675 7.77701 131.675 7.26384C131.675 6.76318 131.593 6.31885 131.431 5.93084C131.268 5.54283 131.024 5.24869 130.699 5.04843C130.386 4.83565 129.985 4.72926 129.497 4.72926C128.946 4.72926 128.502 4.84816 128.164 5.08598C127.839 5.32379 127.601 5.6367 127.451 6.02471C127.313 6.41272 127.244 6.82576 127.244 7.26384C127.244 7.70192 127.307 8.12122 127.432 8.52174C127.569 8.90975 127.795 9.22892 128.108 9.47925C128.433 9.71706 128.871 9.83597 129.422 9.83597ZM139.374 11.1877C138.511 11.1877 137.803 11 137.253 10.6245C136.702 10.2365 136.295 9.7421 136.032 9.14131C135.769 8.528 135.638 7.89592 135.638 7.24507C135.626 6.50659 135.763 5.83696 136.051 5.23618C136.351 4.63539 136.777 4.15976 137.328 3.8093C137.891 3.45884 138.561 3.28361 139.337 3.28361C140.013 3.28361 140.613 3.43381 141.139 3.7342C141.665 4.02208 142.084 4.43512 142.397 4.97333C142.71 5.49902 142.879 6.12484 142.904 6.8508C142.916 6.88835 142.923 6.96345 142.923 7.07609C142.923 7.17622 142.923 7.26384 142.923 7.33894H137.121C137.121 8.13999 137.315 8.76581 137.703 9.21641C138.104 9.65448 138.655 9.87352 139.355 9.87352C139.881 9.87352 140.325 9.7421 140.688 9.47925C141.064 9.20389 141.295 8.84091 141.383 8.39032H142.904C142.829 8.91601 142.641 9.39164 142.341 9.8172C142.04 10.2428 141.64 10.5807 141.139 10.831C140.638 11.0688 140.05 11.1877 139.374 11.1877ZM137.178 6.56918H141.346C141.333 6.4315 141.295 6.25001 141.233 6.02471C141.183 5.79942 141.083 5.58038 140.933 5.3676C140.782 5.1423 140.576 4.95455 140.313 4.80436C140.05 4.65416 139.712 4.57906 139.299 4.57906C138.924 4.57906 138.604 4.64164 138.342 4.76681C138.079 4.89197 137.866 5.06094 137.703 5.27372C137.541 5.47399 137.415 5.69303 137.328 5.93084C137.253 6.15613 137.203 6.36891 137.178 6.56918Z" fill="#00FA96"/>
</g>
<defs>
<filter id="filter0_i_143_564" x="0.968994" y="0.429871" width="141.954" height="10.7579" filterUnits="userSpaceOnUse" color-interpolation-filters="sRGB">
<feFlood flood-opacity="0" result="BackgroundImageFix"/>
<feBlend mode="normal" in="SourceGraphic" in2="BackgroundImageFix" result="shape"/>
<feColorMatrix in="SourceAlpha" type="matrix" values="0 0 0 0 0 0 0 0 0 0 0 0 0 0 0 0 0 0 127 0" result="hardAlpha"/>
<feOffset/>
<feGaussianBlur stdDeviation="0.585757"/>
<feComposite in2="hardAlpha" operator="arithmetic" k2="-1" k3="1"/>
<feColorMatrix type="matrix" values="0 0 0 0 0 0 0 0 0 0 0 0 0 0 0 0 0 0 0.16 0"/>
<feBlend mode="normal" in2="shape" result="effect1_innerShadow_143_564"/>
</filter>
</defs>
</svg>
