<svg width="226" height="18" viewBox="0 0 226 18" fill="none" xmlns="http://www.w3.org/2000/svg">
<g filter="url(#filter0_i_19_6041)">
<path d="M12.9193 0.0913018H13.9338C15.4218 0.0913018 16.7745 0.196511 17.9919 0.40693C19.2243 0.602319 20.2539 0.865343 21.0805 1.196C21.9222 1.51163 22.6512 1.90992 23.2674 2.39088C23.8986 2.85681 24.3946 3.33025 24.7553 3.81121C25.1161 4.29217 25.4016 4.81821 25.612 5.38935C25.8375 5.96049 25.9803 6.47902 26.0404 6.94495C26.1155 7.41088 26.1531 7.89935 26.1531 8.41037V9.08671C26.1531 9.59773 26.1155 10.0862 26.0404 10.5521C25.9803 11.0181 25.8375 11.5441 25.612 12.1303C25.4016 12.7014 25.1161 13.235 24.7553 13.731C24.4097 14.2119 23.9212 14.6929 23.2899 15.1738C22.6587 15.6548 21.9297 16.0606 21.1031 16.3913C20.2764 16.7219 19.2469 16.9849 18.0144 17.1803C16.797 17.3907 15.4368 17.496 13.9338 17.496H12.9193C11.4163 17.496 10.0486 17.3907 8.8161 17.1803C7.59868 16.9849 6.56913 16.7219 5.72745 16.3913C4.90081 16.0606 4.17186 15.6548 3.5406 15.1738C2.90934 14.6929 2.41336 14.2119 2.05264 13.731C1.70695 13.235 1.42138 12.7014 1.19593 12.1303C0.985513 11.5441 0.842729 11.0181 0.767579 10.5521C0.707459 10.0862 0.677399 9.59773 0.677399 9.08671V8.41037C0.677399 7.89935 0.707459 7.41088 0.767579 6.94495C0.842729 6.47902 0.985513 5.96049 1.19593 5.38935C1.42138 4.81821 1.70695 4.29217 2.05264 3.81121C2.41336 3.33025 2.90934 2.85681 3.5406 2.39088C4.17186 1.90992 4.90081 1.51163 5.72745 1.196C6.56913 0.865343 7.59868 0.602319 8.8161 0.40693C10.0486 0.196511 11.4163 0.0913018 12.9193 0.0913018ZM19.5249 8.88381V8.56818C19.5249 8.07219 19.4347 7.61378 19.2544 7.19294C19.074 6.75707 18.7659 6.33624 18.33 5.93043C17.9092 5.52462 17.278 5.20148 16.4363 4.961C15.5946 4.72052 14.5876 4.60028 13.4153 4.60028C12.2129 4.60028 11.1908 4.72052 10.3492 4.961C9.50748 5.20148 8.87622 5.52462 8.45539 5.93043C8.03455 6.33624 7.73395 6.75707 7.55359 7.19294C7.38826 7.61378 7.3056 8.07219 7.3056 8.56818V8.83872C7.3056 9.33471 7.39578 9.80815 7.57614 10.259C7.7565 10.6949 8.05709 11.1308 8.47793 11.5667C8.89877 11.9875 9.53003 12.3257 10.3717 12.5812C11.2284 12.8367 12.2429 12.9644 13.4153 12.9644C14.5876 12.9644 15.5946 12.8442 16.4363 12.6037C17.293 12.3482 17.9318 12.01 18.3526 11.5892C18.7734 11.1684 19.074 10.74 19.2544 10.3041C19.4347 9.85324 19.5249 9.3798 19.5249 8.88381ZM42.854 11.9274H35.2789V17.1803H28.8761V0.40693H42.854C48.1595 0.40693 50.8123 2.25561 50.8123 5.95297V6.31369C50.8123 10.0561 48.1595 11.9274 42.854 11.9274ZM35.2789 4.60028V7.73402H42.0874C43.5002 7.73402 44.2067 7.223 44.2067 6.20097V6.13333C44.2067 5.1113 43.5002 4.60028 42.0874 4.60028H35.2789ZM53.3849 0.40693H71.9393V4.5101H59.6975V6.60677H71.6913V10.6874H59.6975V12.987H72.1197V17.1803H53.3849V0.40693ZM75.0976 0.40693H82.2668L92.0062 9.94342V0.40693H98.3639V17.1803H91.9611L81.4552 7.01258V17.1803H75.0976V0.40693ZM101.654 17.1803V0.40693H108.057V6.33624H118.54V0.40693H124.92V17.1803H118.54V10.8001H108.057V17.1803H101.654ZM139.888 0.0913018H140.903C142.391 0.0913018 143.744 0.196511 144.961 0.40693C146.193 0.602319 147.223 0.865343 148.05 1.196C148.891 1.51163 149.62 1.90992 150.236 2.39088C150.868 2.85681 151.364 3.33025 151.724 3.81121C152.085 4.29217 152.371 4.81821 152.581 5.38935C152.807 5.96049 152.949 6.47902 153.01 6.94495C153.085 7.41088 153.122 7.89935 153.122 8.41037V9.08671C153.122 9.59773 153.085 10.0862 153.01 10.5521C152.949 11.0181 152.807 11.5441 152.581 12.1303C152.371 12.7014 152.085 13.235 151.724 13.731C151.379 14.2119 150.89 14.6929 150.259 15.1738C149.628 15.6548 148.899 16.0606 148.072 16.3913C147.246 16.7219 146.216 16.9849 144.984 17.1803C143.766 17.3907 142.406 17.496 140.903 17.496H139.888C138.385 17.496 137.018 17.3907 135.785 17.1803C134.568 16.9849 133.538 16.7219 132.697 16.3913C131.87 16.0606 131.141 15.6548 130.51 15.1738C129.878 14.6929 129.382 14.2119 129.022 13.731C128.676 13.235 128.39 12.7014 128.165 12.1303C127.955 11.5441 127.812 11.0181 127.737 10.5521C127.677 10.0862 127.647 9.59773 127.647 9.08671V8.41037C127.647 7.89935 127.677 7.41088 127.737 6.94495C127.812 6.47902 127.955 5.96049 128.165 5.38935C128.39 4.81821 128.676 4.29217 129.022 3.81121C129.382 3.33025 129.878 2.85681 130.51 2.39088C131.141 1.90992 131.87 1.51163 132.697 1.196C133.538 0.865343 134.568 0.602319 135.785 0.40693C137.018 0.196511 138.385 0.0913018 139.888 0.0913018ZM146.494 8.88381V8.56818C146.494 8.07219 146.404 7.61378 146.224 7.19294C146.043 6.75707 145.735 6.33624 145.299 5.93043C144.878 5.52462 144.247 5.20148 143.405 4.961C142.564 4.72052 141.557 4.60028 140.384 4.60028C139.182 4.60028 138.16 4.72052 137.318 4.961C136.477 5.20148 135.845 5.52462 135.425 5.93043C135.004 6.33624 134.703 6.75707 134.523 7.19294C134.357 7.61378 134.275 8.07219 134.275 8.56818V8.83872C134.275 9.33471 134.365 9.80815 134.545 10.259C134.726 10.6949 135.026 11.1308 135.447 11.5667C135.868 11.9875 136.499 12.3257 137.341 12.5812C138.198 12.8367 139.212 12.9644 140.384 12.9644C141.557 12.9644 142.564 12.8442 143.405 12.6037C144.262 12.3482 144.901 12.01 145.322 11.5892C145.743 11.1684 146.043 10.74 146.224 10.3041C146.404 9.85324 146.494 9.3798 146.494 8.88381ZM155.665 8.41037V0.40693H162.09V7.91438C162.09 8.48552 162.165 9.01908 162.316 9.51507C162.466 9.99602 162.714 10.4695 163.06 10.9354C163.405 11.3863 163.931 11.747 164.638 12.0175C165.359 12.2881 166.223 12.4234 167.23 12.4234C168.222 12.4234 169.072 12.2881 169.778 12.0175C170.484 11.747 171.01 11.3863 171.356 10.9354C171.717 10.4695 171.972 9.99602 172.123 9.51507C172.273 9.01908 172.348 8.48552 172.348 7.91438V0.40693H178.751V8.41037C178.751 9.16186 178.676 9.89833 178.525 10.6198C178.375 11.3412 178.059 12.1303 177.579 12.987C177.098 13.8437 176.474 14.5877 175.707 15.2189C174.941 15.8502 173.866 16.3837 172.483 16.8196C171.101 17.2404 169.507 17.4509 167.704 17.4509H166.802C164.938 17.4509 163.308 17.2404 161.91 16.8196C160.512 16.3837 159.422 15.8502 158.641 15.2189C157.874 14.5877 157.251 13.8437 156.77 12.987C156.304 12.1152 156.003 11.3262 155.868 10.6198C155.733 9.91336 155.665 9.17689 155.665 8.41037ZM193.372 17.496H191.32C184.496 17.496 181.085 15.512 181.085 11.5441V11.3187H188.119C188.239 12.8968 189.637 13.6859 192.312 13.6859H192.515C193.372 13.6859 194.085 13.6483 194.657 13.5731C195.228 13.483 195.649 13.3627 195.919 13.2124C196.19 13.0471 196.37 12.8818 196.46 12.7164C196.565 12.5361 196.618 12.3332 196.618 12.1077V12.0852C196.618 11.7696 196.535 11.5216 196.37 11.3412C196.22 11.1458 195.844 10.9805 195.243 10.8452C194.657 10.6949 193.8 10.6047 192.673 10.5747L189.561 10.4845C184.076 10.3342 181.333 8.65084 181.333 5.43444V5.23154C181.333 4.64537 181.415 4.11932 181.581 3.65339C181.746 3.17244 182.047 2.70651 182.482 2.25561C182.918 1.80471 183.489 1.42897 184.196 1.12837C184.902 0.827768 185.827 0.587289 186.969 0.40693C188.126 0.211541 189.464 0.113846 190.982 0.113846H192.988C199.782 0.113846 203.179 1.87986 203.179 5.4119V5.59226H196.212C196.077 4.40489 194.724 3.81121 192.154 3.81121H191.929C190.877 3.81121 190.065 3.87884 189.494 4.01411C188.923 4.13435 188.57 4.27714 188.434 4.44247C188.299 4.59277 188.231 4.79567 188.231 5.05118V5.07372C188.231 5.32923 188.306 5.53965 188.457 5.70498C188.622 5.87031 188.983 6.02061 189.539 6.15588C190.095 6.27612 190.877 6.34375 191.884 6.35878L194.905 6.42642C198.076 6.5166 200.345 6.95998 201.713 7.75656C203.081 8.53812 203.765 9.77809 203.765 11.4765V11.7921C203.765 12.4083 203.69 12.9719 203.539 13.483C203.389 13.979 203.088 14.49 202.638 15.016C202.187 15.527 201.585 15.9629 200.834 16.3236C200.097 16.6693 199.09 16.9549 197.813 17.1803C196.55 17.3907 195.07 17.496 193.372 17.496ZM206.338 0.40693H224.892V4.5101H212.65V6.60677H224.644V10.6874H212.65V12.987H225.073V17.1803H206.338V0.40693Z" fill="#3E878E"/>
</g>
<defs>
<filter id="filter0_i_19_6041" x="0.677368" y="0.0913086" width="224.395" height="17.4047" filterUnits="userSpaceOnUse" color-interpolation-filters="sRGB">
<feFlood flood-opacity="0" result="BackgroundImageFix"/>
<feBlend mode="normal" in="SourceGraphic" in2="BackgroundImageFix" result="shape"/>
<feColorMatrix in="SourceAlpha" type="matrix" values="0 0 0 0 0 0 0 0 0 0 0 0 0 0 0 0 0 0 127 0" result="hardAlpha"/>
<feOffset/>
<feGaussianBlur stdDeviation="2"/>
<feComposite in2="hardAlpha" operator="arithmetic" k2="-1" k3="1"/>
<feColorMatrix type="matrix" values="0 0 0 0 0 0 0 0 0 0 0 0 0 0 0 0 0 0 0.16 0"/>
<feBlend mode="normal" in2="shape" result="effect1_innerShadow_19_6041"/>
</filter>
</defs>
</svg>
