<svg width="327" height="110" viewBox="0 0 327 110" fill="none" xmlns="http://www.w3.org/2000/svg">
<g style="mix-blend-mode:soft-light">
<path d="M13.4634 74.684V35.2638L47.6025 15.5537L81.7415 35.2638V74.684L47.6025 94.3942L13.4634 74.684Z" fill="#00585B"/>
</g>
<g style="mix-blend-mode:soft-light">
<path d="M21.2256 70.2022V39.7456L47.6023 24.5173L73.979 39.7456V70.2022L47.6023 85.4305L21.2256 70.2022Z" fill="#00585B"/>
</g>
<g style="mix-blend-mode:soft-light">
<path d="M21.2256 70.2022V39.7456L47.6023 24.5173L73.979 39.7456V70.2022L47.6023 85.4305L21.2256 70.2022Z" fill="#00585B"/>
</g>
<g style="mix-blend-mode:soft-light">
<path d="M21.2256 70.2022V39.7456L47.6023 24.5173L73.979 39.7456V70.2022L47.6023 85.4305L21.2256 70.2022Z" fill="#00585B"/>
</g>
<path d="M21.2256 70.2022V39.7456L47.6023 24.5173L73.979 39.7456V70.2022L47.6023 85.4305L21.2256 70.2022Z" fill="#000004" fill-opacity="0.45"/>
<g style="mix-blend-mode:soft-light">
<path d="M81.1218 74.8165V35.1335H314.114L325.57 54.9762L314.114 74.8188H81.1218V74.8165Z" fill="#00585B"/>
</g>
<g style="mix-blend-mode:soft-light">
<path d="M80.9558 74.8315V35.5824H311.61L325.05 55.2081L311.61 74.8337H80.9558V74.8315Z" fill="#00585B"/>
</g>
<g style="mix-blend-mode:soft-light">
<path d="M80.9558 74.8315V35.5824H311.61L325.05 55.2081L311.61 74.8337H80.9558V74.8315Z" fill="#00585B"/>
</g>
<path d="M80.9558 74.8315V35.5824H311.61L325.05 55.2081L311.61 74.8337H80.9558V74.8315Z" fill="#000004" fill-opacity="0.45"/>
<path d="M47.6025 95.829L12.2217 75.4026V34.5475L47.6025 14.1211L82.9832 34.5475V75.4026L47.6025 95.829ZM15.3271 73.6085L47.6025 92.2431L79.8778 73.6085V36.3393L47.6025 17.7047L15.3271 36.3393V73.6085Z" fill="#00585B"/>
<path d="M314.828 76.0582H79.8779V33.8918H314.828L327 54.9761L314.828 76.0604V76.0582ZM82.9833 72.9528H313.036L323.416 54.9739L313.036 36.995H82.9833V72.9528Z" fill="#00585B"/>
<path d="M237.911 23.7628H250.102L225.948 9.81889H213.758L237.911 23.7628Z" fill="#00585B"/>
<path d="M211.977 23.7628H230.549L206.395 9.81889H187.823L211.977 23.7628Z" fill="#00585B"/>
<path d="M180.46 9.81889H123.818L99.6665 23.7628H204.614L180.46 9.81889Z" fill="#00585B"/>
<path d="M138.164 18.8656V14.7139L134.569 12.6369L130.972 14.7139V18.8656L134.569 20.9426L138.164 18.8656Z" fill="white"/>
<path d="M154.922 18.8656V14.7139L151.327 12.6369L147.729 14.7139V18.8656L151.327 20.9426L154.922 18.8656Z" fill="white"/>
<path d="M171.681 18.8656V14.7139L168.084 12.6369L164.489 14.7139V18.8656L168.084 20.9426L171.681 18.8656Z" fill="white"/>
<path d="M47.6025 8.97238L84.6 30.3351H95.2027V27.4924L47.6025 0.0109863L0 27.4924V82.4576L47.6025 109.939L95.2027 82.4576V79.6172H84.5977L47.6025 100.978L7.76235 77.9758V31.9743L47.6025 8.97238Z" fill="#00585B"/>
<path d="M206.871 79.6172H92.8967V82.4576H201.951L206.871 79.6172Z" fill="#00585B"/>
<path d="M285.774 79.6172H239.939L244.861 82.4576H280.855L285.774 79.6172Z" fill="#00585B"/>
<path d="M140.131 27.4902H92.8967V30.3329H145.051L140.131 27.4902Z" fill="#00585B"/>
<path d="M180.24 30.3329H308.121L303.199 27.4902H185.162L180.24 30.3329Z" fill="#00585B"/>
<g opacity="0.73" filter="url(#filter0_i_130_3)">
<path d="M45.1534 59.3917V56.5943L48.7577 53.0034V50.2867L47.9239 49.4664H45.9066L45.0727 50.2867V51.8199H41.2801V48.4308L44.0506 45.6603H49.7799L52.5503 48.4308V54.6039L48.9595 58.2082V59.3917H45.1534ZM46.5521 62.996H47.6549V62.1622H46.5521V62.996ZM45.0593 64.4888V60.6828H49.1074V64.4888H45.0593ZM46.6866 58.1544H47.507V57.6299L51.071 53.9852V49.1839L49.0267 47.1397H44.8979L42.8537 49.1839V50.4212H43.6875V49.5336L45.261 47.9735H48.6502L50.2371 49.5336V53.6759L46.6866 57.3206V58.1544Z" fill="#1A7700"/>
</g>
<g opacity="0.73" filter="url(#filter1_i_130_3)">
<path d="M172.102 58.8569V56.5419L175.085 53.5702V51.3219L174.395 50.643H172.726L172.036 51.3219V52.5907H168.897V49.786L171.19 47.4932H175.931L178.224 49.786V54.8946L175.252 57.8775V58.8569H172.102ZM173.26 61.8398H174.173V61.1497H173.26V61.8398ZM172.024 63.0752V59.9254H175.375V63.0752H172.024ZM173.371 57.833H174.05V57.3989L177 54.3827V50.4092L175.308 48.7175H171.891L170.199 50.4092V51.4332H170.889V50.6986L172.191 49.4075H174.996L176.31 50.6986V54.1267L173.371 57.1429V57.833ZM185.454 58.8569V56.5419L188.437 53.5702V51.3219L187.747 50.643H186.077L185.387 51.3219V52.5907H182.249V49.786L184.541 47.4932H189.283L191.576 49.786V54.8946L188.604 57.8775V58.8569H185.454ZM186.612 61.8398H187.524V61.1497H186.612V61.8398ZM185.376 63.0752V59.9254H188.726V63.0752H185.376ZM186.723 57.833H187.402V57.3989L190.351 54.3827V50.4092L188.66 48.7175H185.243L183.551 50.4092V51.4332H184.241V50.6986L185.543 49.4075H188.348L189.661 50.6986V54.1267L186.723 57.1429V57.833ZM198.806 58.8569V56.5419L201.789 53.5702V51.3219L201.099 50.643H199.429L198.739 51.3219V52.5907H195.6V49.786L197.893 47.4932H202.634L204.927 49.786V54.8946L201.956 57.8775V58.8569H198.806ZM199.963 61.8398H200.876V61.1497H199.963V61.8398ZM198.728 63.0752V59.9254H202.078V63.0752H198.728ZM200.075 57.833H200.754V57.3989L203.703 54.3827V50.4092L202.011 48.7175H198.594L196.903 50.4092V51.4332H197.593V50.6986L198.895 49.4075H201.7L203.013 50.6986V54.1267L200.075 57.1429V57.833Z" fill="#1A7700"/>
</g>
<defs>
<filter id="filter0_i_130_3" x="41.28" y="45.6603" width="11.2703" height="18.8285" filterUnits="userSpaceOnUse" color-interpolation-filters="sRGB">
<feFlood flood-opacity="0" result="BackgroundImageFix"/>
<feBlend mode="normal" in="SourceGraphic" in2="BackgroundImageFix" result="shape"/>
<feColorMatrix in="SourceAlpha" type="matrix" values="0 0 0 0 0 0 0 0 0 0 0 0 0 0 0 0 0 0 127 0" result="hardAlpha"/>
<feOffset/>
<feGaussianBlur stdDeviation="1.56754"/>
<feComposite in2="hardAlpha" operator="arithmetic" k2="-1" k3="1"/>
<feColorMatrix type="matrix" values="0 0 0 0 0 0 0 0 0 0 0 0 0 0 0 0 0 0 0.16 0"/>
<feBlend mode="normal" in2="shape" result="effect1_innerShadow_130_3"/>
</filter>
<filter id="filter1_i_130_3" x="168.897" y="47.4932" width="36.0303" height="15.582" filterUnits="userSpaceOnUse" color-interpolation-filters="sRGB">
<feFlood flood-opacity="0" result="BackgroundImageFix"/>
<feBlend mode="normal" in="SourceGraphic" in2="BackgroundImageFix" result="shape"/>
<feColorMatrix in="SourceAlpha" type="matrix" values="0 0 0 0 0 0 0 0 0 0 0 0 0 0 0 0 0 0 127 0" result="hardAlpha"/>
<feOffset/>
<feGaussianBlur stdDeviation="1.29726"/>
<feComposite in2="hardAlpha" operator="arithmetic" k2="-1" k3="1"/>
<feColorMatrix type="matrix" values="0 0 0 0 0 0 0 0 0 0 0 0 0 0 0 0 0 0 0.16 0"/>
<feBlend mode="normal" in2="shape" result="effect1_innerShadow_130_3"/>
</filter>
</defs>
</svg>
