<svg width="44" height="41" viewBox="0 0 44 41" fill="none" xmlns="http://www.w3.org/2000/svg">
<path opacity="0.39" fill-rule="evenodd" clip-rule="evenodd" d="M37.162 0L44 4.25769V40.9369H43.5846H7.12565L7.09367 41L7.02978 40.9369H6.80612V40.8108L0.127783 36.7108L0.159768 36.6792H0V0H37.162ZM37.162 36.1115L43.1692 39.77V5.04615H37.162V36.1115ZM41.955 40.18L36.2992 36.7108H7.60496V40.18H41.955ZM37.1939 1.16695V4.28922H42.0508L37.1939 1.16695ZM6.83803 39.7385V36.7108H1.94912L6.83803 39.7385ZM2.07698 0.851562L7.28542 4.32079H36.3631V0.851562H2.07698ZM6.83803 5.14078L0.830745 1.16695V35.9538H6.83803V5.14078ZM36.395 5.10925H7.63686V35.9223H36.395V5.10925Z" fill="#65F2FC"/>
</svg>
