{
  "accessors": [
    {
      "bufferView": 2,
      "componentType": 5126,
      "count": 1994,
      "max": [
        0.20360031723976135,
        0.6619619131088257,
        0.7626206278800964
      ],
      "min": [
        -0.19320687651634216,
        -0.6917462348937988,
        -2.065218448638916
      ],
      "type": "VEC3"
    },
    {
      "bufferView": 2,
      "byteOffset": 23928,
      "componentType": 5126,
      "count": 1994,
      "max": [
        0.9998654127120972,
        0.9973482489585876,
        0.9977878332138062
      ],
      "min": [
        -0.9999581575393677,
        -0.9991724491119385,
        -0.9986612200737
      ],
      "type": "VEC3"
    },
    {
      "bufferView": 3,
      "componentType": 5126,
      "count": 1994,
      "max": [
        0.9980521202087402,
        0.9987646341323853,
        0.9638392925262451,
        1.0
      ],
      "min": [
        -0.9991034269332886,
        -0.9089162349700928,
        -0.9717863202095032,
        -1.0
      ],
      "type": "VEC4"
    },
    {
      "bufferView": 1,
      "componentType": 5126,
      "count": 1994,
      "max": [
        0.9714586138725281,
        0.9816402196884155
      ],
      "min": [
        0.004904852248728275,
        0.007597264833748341
      ],
      "type": "VEC2"
    },
    {
      "bufferView": 0,
      "componentType": 5125,
      "count": 10146,
      "type": "SCALAR"
    }
  ],
  "asset": {
    "extras": {
      "author": "unfa (https://sketchfab.com/unfa)",
      "license": "CC-BY-4.0 (http://creativecommons.org/licenses/by/4.0/)",
      "source": "https://sketchfab.com/3d-models/magic-key-bd55b399a34e4c08af84e214959e1dc8",
      "title": "Magic Key"
    },
    "generator": "Sketchfab-12.67.0",
    "version": "2.0"
  },
  "bufferViews": [
    {
      "buffer": 0,
      "byteLength": 40584,
      "name": "floatBufferViews",
      "target": 34963
    },
    {
      "buffer": 0,
      "byteLength": 15952,
      "byteOffset": 40584,
      "byteStride": 8,
      "name": "floatBufferViews",
      "target": 34962
    },
    {
      "buffer": 0,
      "byteLength": 47856,
      "byteOffset": 56536,
      "byteStride": 12,
      "name": "floatBufferViews",
      "target": 34962
    },
    {
      "buffer": 0,
      "byteLength": 31904,
      "byteOffset": 104392,
      "byteStride": 16,
      "name": "floatBufferViews",
      "target": 34962
    }
  ],
  "buffers": [
    {
      "byteLength": 136296,
      "uri": "scene.bin"
    }
  ],
  "images": [
    {
      "uri": "textures/Material.001_baseColor.jpeg"
    },
    {
      "uri": "textures/Material.001_metallicRoughness.png"
    },
    {
      "uri": "textures/Material.001_emissive.jpeg"
    },
    {
      "uri": "textures/Material.001_normal.jpeg"
    }
  ],
  "materials": [
    {
      "doubleSided": true,
      "emissiveFactor": [
        1.0,
        1.0,
        1.0
      ],
      "emissiveTexture": {
        "index": 2
      },
      "name": "Material.001",
      "normalTexture": {
        "index": 3
      },
      "pbrMetallicRoughness": {
        "baseColorTexture": {
          "index": 0
        },
        "metallicRoughnessTexture": {
          "index": 1
        }
      }
    }
  ],
  "meshes": [
    {
      "name": "Lowpoly 2_Material.001_0",
      "primitives": [
        {
          "attributes": {
            "NORMAL": 1,
            "POSITION": 0,
            "TANGENT": 2,
            "TEXCOORD_0": 3
          },
          "indices": 4,
          "material": 0,
          "mode": 4
        }
      ]
    }
  ],
  "nodes": [
    {
      "children": [
        1
      ],
      "matrix": [
        0.0037679350934922695,
        0.0,
        0.0,
        0.0,
        0.0,
        8.366496592176519e-19,
        -0.0037679350934922695,
        0.0,
        0.0,
        0.0037679350934922695,
        8.366496592176519e-19,
        0.0,
        0.0,
        0.0,
        0.0,
        1.0
      ],
      "name": "Sketchfab_model"
    },
    {
      "children": [
        2
      ],
      "matrix": [
        1.0,
        0.0,
        0.0,
        0.0,
        0.0,
        0.0,
        1.0,
        0.0,
        0.0,
        -1.0,
        0.0,
        0.0,
        0.0,
        0.0,
        0.0,
        1.0
      ],
      "name": "f8f1016a6d6040d48e2a7da908615025.fbx"
    },
    {
      "children": [
        3
      ],
      "name": "RootNode"
    },
    {
      "children": [
        4,
        5
      ],
      "matrix": [
        100.0,
        0.0,
        0.0,
        0.0,
        0.0,
        25.88188371965504,
        -96.59258819972811,
        0.0,
        0.0,
        96.59258819972811,
        25.88188371965504,
        0.0,
        0.0,
        71.39551544189453,
        0.0,
        1.0
      ],
      "name": "Lowpoly 2"
    },
    {
      "mesh": 0,
      "name": "Lowpoly 2_Material.001_0"
    },
    {
      "children": [
        6
      ],
      "matrix": [
        1.0,
        0.0,
        0.0,
        0.0,
        0.0,
        0.2588191291984935,
        0.9659260505846959,
        0.0,
        0.0,
        -0.9659260505846959,
        0.2588191291984935,
        0.0,
        0.1761804074048996,
        -0.007120855152606964,
        -0.4706481695175171,
        1.0
      ],
      "name": "Point"
    },
    {
      "children": [
        7
      ],
      "matrix": [
        1.0,
        0.0,
        0.0,
        0.0,
        0.0,
        2.220446049250313e-16,
        1.0,
        0.0,
        0.0,
        -1.0,
        2.220446049250313e-16,
        0.0,
        0.0,
        0.0,
        0.0,
        1.0
      ],
      "name": "Object_6"
    },
    {
      "name": "Object_7"
    }
  ],
  "samplers": [
    {
      "magFilter": 9729,
      "minFilter": 9987,
      "wrapS": 10497,
      "wrapT": 10497
    }
  ],
  "scene": 0,
  "scenes": [
    {
      "name": "Sketchfab_Scene",
      "nodes": [
        0
      ]
    }
  ],
  "textures": [
    {
      "sampler": 0,
      "source": 0
    },
    {
      "sampler": 0,
      "source": 1
    },
    {
      "sampler": 0,
      "source": 2
    },
    {
      "sampler": 0,
      "source": 3
    }
  ]
}
