<svg width="280" height="64" viewBox="0 0 280 64" fill="none" xmlns="http://www.w3.org/2000/svg">
<path d="M209.127 63.6726H75.2826L69.9337 58.5668H0.519531V56.3786H70.7846L76.1335 61.4844H208.033L212.044 56.3786H280V58.5668H213.138L209.127 63.6726Z" fill="#00DAE2"/>
<path d="M97.6493 7.02252L98.8649 5.44216H181.651L183.232 7.02252H269.3L266.991 4.83433H188.702L183.84 0.0932617H95.9473L92.1788 4.83433H13.4041L11.2159 7.02252H97.6493Z" fill="#00DAE2"/>
<path d="M206.696 59.5393H77.2281L71.8792 54.4335H0.398438V18.5716L9.8806 8.9679H96.8002V10.062H10.3669L1.49256 19.0579V53.3395H72.3655L77.5928 58.4452H206.088L210.1 53.3395H278.906V19.0579L270.153 10.062H184.328V8.9679H270.639L280 18.5716V54.4335H210.707L206.696 59.5393Z" fill="#00DAE2"/>
</svg>
