<svg width="60" height="80" viewBox="0 0 60 80" fill="none" xmlns="http://www.w3.org/2000/svg">
<g opacity="0.12">
<path d="M106.532 50.702H16.3788V27.9146H106.532V50.702Z" fill="#163C5B"/>
<path d="M21.9331 33.3271L22.2179 33.1847H23.0725L25.7785 44.0087H25.9209L28.7693 34.4665H29.9087L32.6147 44.0087H32.8996L35.6056 33.1847H36.4601L36.6025 33.3271L33.7541 45.0057H31.9026L29.339 36.1755L26.7754 45.0057H24.924L21.9331 33.3271Z" fill="#1EAAAD"/>
<path fill-rule="evenodd" clip-rule="evenodd" d="M37.03 44.7208L41.0178 33.1847H43.0117L46.9995 44.7208L46.8571 45.0057H45.8602L44.8632 41.8724H39.1663L38.1694 45.0057H37.1725L37.03 44.7208ZM39.5936 40.8755H44.5784L42.2996 34.1816H41.8724L39.5936 40.8755Z" fill="#1EAAAD"/>
<path fill-rule="evenodd" clip-rule="evenodd" d="M48.9928 45.0057V33.1847H54.5472C56.2563 33.1847 57.1108 34.0392 57.1108 35.7483V37.5998C57.1108 39.1189 56.4462 39.926 55.1169 40.0209L57.5381 44.7208L57.3957 45.0057H56.3987L53.8351 40.1634H50.1322V45.0057H48.9928ZM50.1322 39.1664H54.6897C55.5442 39.1664 55.9714 38.6917 55.9714 37.7422V35.4634C55.9714 34.6089 55.5442 34.1816 54.6897 34.1816H50.1322V39.1664Z" fill="#1EAAAD"/>
<path d="M59.9595 45.0057V33.1847H61.2413L68.0775 43.2966V33.1847H69.2169V45.0057H67.9351L61.0988 34.8938V45.0057H59.9595Z" fill="#1EAAAD"/>
<path d="M9.68457 9.3996L13.6724 13.6722H16.9481L12.9603 9.3996H9.68457Z" fill="#1EAAAD"/>
<path d="M15.6667 9.3996L19.6546 13.6722H22.9302L19.0849 9.3996H15.6667Z" fill="#1EAAAD"/>
<path d="M21.6489 9.3996L25.6367 13.6722H29.0548L25.067 9.3996H21.6489Z" fill="#1EAAAD"/>
<path d="M27.7732 9.3996L31.6186 13.6722H35.0367L31.0489 9.3996H27.7732Z" fill="#1EAAAD"/>
<path d="M33.7539 9.3996L37.7417 13.6722H41.0174L37.0296 9.3996H33.7539Z" fill="#1EAAAD"/>
<path d="M39.7361 9.3996L43.7239 13.6722H46.9996L43.0118 9.3996H39.7361Z" fill="#1EAAAD"/>
<path d="M45.7183 9.3996L49.7061 13.6722H53.1242L49.1364 9.3996H45.7183Z" fill="#1EAAAD"/>
<path d="M51.8411 9.3996L55.6864 13.6722H59.1046L55.1168 9.3996H51.8411Z" fill="#1EAAAD"/>
<path d="M57.8232 9.3996L61.811 13.6722H65.0867L61.0989 9.3996H57.8232Z" fill="#1EAAAD"/>
<path d="M9.68457 64.9446L13.6724 69.3597H16.9481L12.9603 64.9446H9.68457Z" fill="#1EAAAD"/>
<path d="M15.6667 64.9446L19.6546 69.3597H22.9302L19.0849 64.9446H15.6667Z" fill="#1EAAAD"/>
<path d="M21.6489 64.9446L25.6367 69.3597H29.0548L25.067 64.9446H21.6489Z" fill="#1EAAAD"/>
<path d="M27.7732 64.9446L31.6186 69.3597H35.0367L31.0489 64.9446H27.7732Z" fill="#1EAAAD"/>
<path d="M33.7539 64.9446L37.7417 69.3597H41.0174L37.0296 64.9446H33.7539Z" fill="#1EAAAD"/>
<path d="M39.7361 64.9446L43.7239 69.3597H46.9996L43.0118 64.9446H39.7361Z" fill="#1EAAAD"/>
<path d="M45.7183 64.9446L49.7061 69.3597H53.1242L49.1364 64.9446H45.7183Z" fill="#1EAAAD"/>
<path d="M51.8411 64.9446L55.6864 69.3597H59.1046L55.1168 64.9446H51.8411Z" fill="#1EAAAD"/>
<path d="M57.8232 64.9446L61.811 69.3597H65.0867L61.0989 64.9446H57.8232Z" fill="#1EAAAD"/>
<path d="M114.508 74.9138H83.3174V74.4866H114.365L118.78 70.0715V4.13037H4.13112V70.0715L8.54618 74.4866H39.594V74.9138H8.40376C8.40376 74.9138 8.35629 74.9138 8.26134 74.9138L3.70386 70.3563C3.70386 70.2614 3.70386 70.2139 3.70386 70.2139V3.98799C3.70386 3.84556 3.84628 3.70312 3.84628 3.70312H118.923C119.065 3.70312 119.208 3.84556 119.208 3.98799V70.2139C119.208 70.2139 119.208 70.2614 119.208 70.3563L114.65 74.9138C114.555 74.9138 114.508 74.9138 114.508 74.9138Z" fill="#1EAAAD"/>
<path fill-rule="evenodd" clip-rule="evenodd" d="M81.1804 77.1923H41.7297L39.1661 74.6287L41.7297 72.0651H81.1804L83.6016 74.6287L81.1804 77.1923ZM42.157 76.765H81.038L83.1743 74.6287L81.038 72.6348H42.157L40.0207 74.6287L42.157 76.765Z" fill="#1EAAAD"/>
<path d="M39.024 77.0503H84.1716L82.4626 78.7594H40.7331L39.024 77.0503Z" fill="#1EAAAD"/>
<path fill-rule="evenodd" clip-rule="evenodd" d="M82.4616 79.0441H40.7322C40.7322 79.0441 40.6847 78.9966 40.5898 78.9016L38.8807 77.1926C38.7858 77.0977 38.7383 77.0027 38.7383 76.9077C38.8332 76.8128 38.9282 76.7653 39.0231 76.7653H84.1707C84.2656 76.7653 84.3606 76.8128 84.4555 76.9077C84.4555 77.0027 84.4081 77.0977 84.3131 77.1926L82.6041 78.9016C82.5091 78.9966 82.4616 79.0441 82.4616 79.0441ZM40.8746 78.4744H82.3192L83.601 77.1926H39.5928L40.8746 78.4744Z" fill="#1EAAAD"/>
<path d="M25.7793 77.05H41.588L39.4517 74.7712H23.6429L25.7793 77.05Z" fill="#1EAAAD"/>
<path fill-rule="evenodd" clip-rule="evenodd" d="M41.5872 77.1928H25.7785C25.7785 77.1928 25.731 77.1928 25.636 77.1928L23.4997 74.914C23.4048 74.914 23.3573 74.8665 23.3573 74.7716C23.4522 74.6766 23.5472 74.6292 23.6421 74.6292H39.4509C39.5459 74.6292 39.5933 74.6292 39.5933 74.6292L41.8721 76.7655C41.8721 76.8604 41.8721 76.9554 41.8721 77.0503C41.8721 77.1453 41.7771 77.1928 41.5872 77.1928ZM25.9209 76.7655H41.0176L39.3085 75.0564H24.2118L25.9209 76.7655Z" fill="#1EAAAD"/>
<path d="M44.1507 0.284973H79.1864L82.7469 3.84551H40.5902L44.1507 0.284973Z" fill="#1EAAAD"/>
<path fill-rule="evenodd" clip-rule="evenodd" d="M82.7467 4.13021H40.59C40.495 4.13021 40.4476 4.08277 40.4476 3.98782C40.3526 3.89288 40.3526 3.79791 40.4476 3.70296L44.0081 0.14243C44.103 0.0474825 44.1505 0 44.1505 0H79.1862C79.2811 0 79.3286 0.0474825 79.3286 0.14243L82.8891 3.70296C82.9841 3.79791 83.0315 3.89288 83.0315 3.98782C82.9366 4.08277 82.8416 4.13021 82.7467 4.13021ZM41.1597 3.70296H82.177L79.0437 0.569699H44.2929L41.1597 3.70296Z" fill="#1EAAAD"/>
<path d="M0.285767 38.8812L3.8463 42.4417V44.0083L0.285767 40.4478V38.8812Z" fill="#1EAAAD"/>
<path fill-rule="evenodd" clip-rule="evenodd" d="M4.13022 44.5778L0 40.59V38.3112L4.13022 42.299V44.5778ZM0.569685 40.4475L3.56053 43.4384V42.5839L0.569685 39.4506V40.4475Z" fill="#1EAAAD"/>
<path d="M0.285767 44.2934L3.8463 47.8539V49.4206L0.285767 45.86V44.2934Z" fill="#1EAAAD"/>
<path fill-rule="evenodd" clip-rule="evenodd" d="M4.13022 49.99L0 46.0022V43.7234L4.13022 47.7112V49.99ZM0.569685 45.7173L3.56053 48.8506V47.8537L0.569685 44.8628V45.7173Z" fill="#1EAAAD"/>
<path d="M3.84595 60.2446V29.4816L5.69742 31.1906V58.3931L3.84595 60.2446Z" fill="#1EAAAD"/>
<path fill-rule="evenodd" clip-rule="evenodd" d="M3.84628 60.5291C3.75133 60.4342 3.70386 60.3393 3.70386 60.2443V29.4813C3.70386 29.3863 3.75133 29.3388 3.84628 29.3388C3.94122 29.2439 4.03617 29.2439 4.13112 29.3388L5.84018 30.9055C5.93513 31.0004 5.9826 31.0954 5.9826 31.1903V58.3928C5.9826 58.4877 5.93513 58.5827 5.84018 58.6777L4.13112 60.3867C4.03617 60.4816 3.94122 60.5291 3.84628 60.5291ZM4.13112 30.051V59.6746L5.41291 58.3928V31.1903L4.13112 30.051Z" fill="#1EAAAD"/>
<path d="M13.2458 3.98767H3.84595V2.13617H11.3943L13.2458 3.98767Z" fill="#1EAAAD"/>
<path fill-rule="evenodd" clip-rule="evenodd" d="M13.2461 4.13066H3.84628L3.70386 3.98827V2.13677C3.70386 1.99435 3.84628 1.85193 3.84628 1.85193H11.3946C11.4896 1.85193 11.537 1.89941 11.537 1.99436L13.3885 3.70341C13.4835 3.79836 13.4835 3.89332 13.3885 3.98827C13.3885 4.08322 13.341 4.13066 13.2461 4.13066ZM4.13112 3.70341H12.6764L11.2522 2.42163H4.13112V3.70341Z" fill="#1EAAAD"/>
<path d="M3.84656 2.13617V38.8809L0.855713 36.1749V5.26946L3.84656 2.13617Z" fill="#1EAAAD"/>
<path fill-rule="evenodd" clip-rule="evenodd" d="M3.84564 39.1663C3.84564 39.1663 3.79817 39.1188 3.70322 39.0239L0.712365 36.3179C0.617418 36.2229 0.569946 36.1755 0.569946 36.1755V5.27005C0.569946 5.17511 0.617418 5.08014 0.712365 4.98519L3.70322 1.99436C3.79817 1.89941 3.89311 1.85193 3.98806 1.85193C4.08301 1.94688 4.13048 2.04182 4.13048 2.13677V38.8815C4.13048 38.9765 4.08301 39.0239 3.98806 39.0239C3.98806 39.1188 3.94058 39.1663 3.84564 39.1663ZM0.997209 36.0331L3.70322 38.3118V2.70644L0.997209 5.27005V36.0331Z" fill="#1EAAAD"/>
<path d="M17.2336 4.13021L16.9487 3.84539L20.6517 0.14243C20.6517 0.0474825 20.6992 0 20.7941 0H44.1512V0.569699H20.7941L17.2336 4.13021Z" fill="#1EAAAD"/>
<path d="M20.936 4.13063L20.6511 3.84582L24.2117 0.142853L24.6389 0.427691L20.936 4.13063Z" fill="#1EAAAD"/>
<path d="M43.5816 75.7684H43.1543V73.6321H43.5816V75.7684Z" fill="#1EAAAD"/>
<path d="M48.708 75.7684H48.2808V73.6321H48.708V75.7684Z" fill="#1EAAAD"/>
<path d="M46.1455 75.7684H45.7183V73.6321H46.1455V75.7684Z" fill="#1EAAAD"/>
<path d="M51.272 75.7684H50.8447V73.6321H51.272V75.7684Z" fill="#1EAAAD"/>
<path d="M53.9785 75.7684H53.4088V73.6321H53.9785V75.7684Z" fill="#1EAAAD"/>
<path d="M56.541 75.7684H55.9713V73.6321H56.541V75.7684Z" fill="#1EAAAD"/>
<path d="M59.105 75.7684H58.5353V73.6321H59.105V75.7684Z" fill="#1EAAAD"/>
<path d="M104.823 25.9209H80.8959L78.6172 23.4997H44.2936L42.0149 25.9209H18.0881L9.40039 17.2332L9.82765 16.8059L18.3729 25.3512H41.73L44.1512 23.0724H78.7596L81.1808 25.3512H104.538L113.083 16.9483L113.368 17.2332L104.823 25.9209Z" fill="#1EAAAD"/>
<path d="M9.82765 61.8114L9.40039 61.3841L18.0881 52.8388H42.0149L44.2936 55.1176H78.6172L80.8959 52.8388H104.823L113.368 61.3841L113.083 61.8114L104.538 53.2661H81.1808L78.7596 55.5448H44.1512L41.73 53.2661H18.3729L9.82765 61.8114Z" fill="#1EAAAD"/>
<path d="M40.8747 23.6424H20.0812V23.2151H40.8747V23.6424Z" fill="#1EAAAD"/>
<path d="M40.8747 55.5444H20.0812V55.1171H40.8747V55.5444Z" fill="#1EAAAD"/>
<path fill-rule="evenodd" clip-rule="evenodd" d="M8.11841 55.1169V23.4994L10.9668 26.3478V52.2685L8.11841 55.1169ZM8.54567 24.7812V53.9776L10.3972 52.1261V26.6327L8.54567 24.7812Z" fill="#1EAAAD"/>
<path d="M74.7721 26.3484L76.1963 27.915L74.7721 29.4816H48.5665L47.1423 27.915L48.5665 26.3484H74.7721Z" fill="#163C5B"/>
<path d="M74.7721 49.2778L76.1963 50.702L74.7721 52.2687H48.5665L47.1423 50.702L48.5665 49.2778H74.7721Z" fill="#163C5B"/>
<path d="M103.683 58.3932L107.528 62.2386H15.8088L19.6542 58.3932H103.683Z" fill="#163C5B"/>
<path d="M103.683 20.5091L107.528 16.6638H15.8088L19.6542 20.5091H103.683Z" fill="#163C5B"/>
</g>
</svg>
