<svg width="282" height="45" viewBox="0 0 282 45" fill="none" xmlns="http://www.w3.org/2000/svg">
<path d="M55.7513 24.0921H51.3101L59.7956 0.248322H64.2368L55.7513 24.0921Z" fill="#65F2FC"/>
<path d="M48.8284 24.0921H44.3872L52.8727 0.248322H57.3139L48.8284 24.0921Z" fill="#65F2FC"/>
<path d="M48.8034 24.1169H17.0945V23.5711H48.8034V24.1169Z" fill="#65F2FC"/>
<path d="M56.1234 31.6101H2.23302L0 28.8808H53.9399L56.1234 31.6101Z" fill="#65F2FC"/>
<path d="M92.8689 44.4623H65.7253L53.5181 29.2033L53.9399 28.8808L65.9734 43.9413H92.8689V44.4623Z" fill="#65F2FC"/>
<path opacity="0.7" d="M0 28.8808L2.23302 31.6101H39.3012L36.9938 28.8808H0Z" fill="#BDE6FF"/>
<path opacity="0.7" d="M59.7957 0.248322L56.4709 9.5774H60.9122L64.2369 0.248322H59.7957Z" fill="#BDE6FF"/>
<path d="M232.954 24.0921H237.395L228.91 0.248322H224.493L232.954 24.0921Z" fill="#65F2FC"/>
<path d="M226.056 24.0921H230.472L222.012 0.248322H217.571L226.056 24.0921Z" fill="#65F2FC"/>
<path d="M232.979 24.1169H264.688V23.5711H232.979V24.1169Z" fill="#65F2FC"/>
<path fill-rule="evenodd" clip-rule="evenodd" d="M264.44 23.8437C264.44 22.7272 265.333 21.834 266.45 21.834C267.541 21.834 268.459 22.7272 268.459 23.8437C268.459 24.9603 267.541 25.8535 266.45 25.8535C265.333 25.8535 264.44 24.9603 264.44 23.8437ZM264.961 23.8437C264.961 24.6625 265.631 25.3324 266.45 25.3324C267.268 25.3324 267.914 24.6625 267.914 23.8437C267.914 23.025 267.268 22.3551 266.45 22.3551C265.631 22.3551 264.961 23.025 264.961 23.8437Z" fill="#65F2FC"/>
<path d="M225.685 31.6101H279.55L281.783 28.8808H227.843L225.685 31.6101Z" fill="#65F2FC"/>
<path d="M188.914 44.4623H216.057L228.264 29.2033L227.867 28.8808L215.809 43.9413H188.914V44.4623Z" fill="#65F2FC"/>
<path opacity="0.2" d="M215.14 0H121.899H66.6438L56.6448 28.1361L67.3881 41.9312H121.899H214.396L225.139 28.1361L215.14 0Z" fill="#000616"/>
<path d="M265.854 23.8436C265.854 24.1662 266.127 24.4143 266.449 24.4143C266.772 24.4143 267.02 24.1662 267.02 23.8436C267.02 23.5211 266.772 23.2482 266.449 23.2482C266.127 23.2482 265.854 23.5211 265.854 23.8436Z" fill="white"/>
<path opacity="0.7" d="M281.783 28.8808L279.55 31.6101H242.482L244.789 28.8808H281.783Z" fill="#BDE6FF"/>
<path opacity="0.7" d="M222.012 0.248322L225.312 9.5774H220.87L217.571 0.248322H222.012Z" fill="#BDE6FF"/>
<g filter="url(#filter0_i_104_20)">
<path d="M79.2173 26.6269H77.5597V15.3831H79.2173V26.6269ZM78.9776 15.3831H81.9533C83.2048 15.3831 84.1635 15.6893 84.8292 16.3018C85.5082 16.9142 85.8477 17.8329 85.8477 19.0578C85.8477 20.1629 85.5015 21.0216 84.8092 21.6341C84.1169 22.2465 83.1649 22.5527 81.9533 22.5527H78.9776V21.2946H81.7536C82.5524 21.2946 83.1782 21.1082 83.6309 20.7354C84.0969 20.3626 84.3299 19.7967 84.3299 19.0378C84.3299 18.2523 84.1035 17.6798 83.6509 17.3203C83.1982 16.9475 82.5658 16.7611 81.7536 16.7611H78.9776V15.3831ZM87.1287 26.6269V18.4587H88.6664L88.8062 20.8152L88.7863 22.5727V26.6269H87.1287ZM88.7863 22.9522L88.7264 21.1548C88.7397 20.8618 88.8062 20.5623 88.9261 20.2561C89.0459 19.9365 89.2256 19.6436 89.4653 19.3773C89.7183 19.0977 90.0378 18.878 90.4239 18.7183C90.8233 18.5452 91.3026 18.4587 91.8618 18.4587H92.2013V20.296H91.8419C91.2427 20.296 90.7434 20.3559 90.344 20.4757C89.9446 20.5823 89.6317 20.7487 89.4054 20.975C89.179 21.2014 89.0193 21.481 88.9261 21.8138C88.8329 22.1467 88.7863 22.5261 88.7863 22.9522ZM97.0429 26.8266C96.1642 26.8266 95.4253 26.6468 94.8261 26.2874C94.227 25.9279 93.7743 25.4352 93.4681 24.8095C93.1752 24.1704 93.0287 23.4514 93.0287 22.6526C93.0287 21.8271 93.1752 21.1015 93.4681 20.4757C93.7743 19.8367 94.227 19.3374 94.8261 18.9779C95.4253 18.6184 96.1709 18.4387 97.0629 18.4387C98.3677 18.4387 99.3596 18.8248 100.039 19.597C100.718 20.3692 101.057 21.3878 101.057 22.6526C101.057 23.4381 100.911 24.1504 100.618 24.7895C100.338 25.4153 99.8988 25.9146 99.2997 26.2874C98.7139 26.6468 97.9616 26.8266 97.0429 26.8266ZM97.0429 25.4086C97.6953 25.4086 98.1946 25.2688 98.5408 24.9892C98.8869 24.7096 99.1199 24.3568 99.2398 23.9308C99.3729 23.4914 99.4395 23.0454 99.4395 22.5927C99.4395 22.14 99.3729 21.7006 99.2398 21.2746C99.1199 20.8352 98.8869 20.4757 98.5408 20.1961C98.1946 19.9032 97.6953 19.7568 97.0429 19.7568C96.4172 19.7568 95.9246 19.9032 95.5651 20.1961C95.2189 20.4757 94.9793 20.8352 94.8461 21.2746C94.713 21.7006 94.6464 22.14 94.6464 22.5927C94.6464 23.0454 94.713 23.4914 94.8461 23.9308C94.9793 24.3568 95.2189 24.7096 95.5651 24.9892C95.9246 25.2688 96.4172 25.4086 97.0429 25.4086ZM104.709 30.1218V28.5641H108.543V24.9892H108.503C108.477 25.0425 108.41 25.169 108.304 25.3687C108.197 25.5551 108.031 25.7614 107.804 25.9878C107.591 26.2141 107.305 26.4138 106.946 26.5869C106.599 26.7467 106.167 26.8266 105.647 26.8266C104.862 26.8266 104.209 26.6468 103.69 26.2874C103.171 25.9279 102.785 25.4352 102.532 24.8095C102.292 24.1837 102.172 23.4648 102.172 22.6526C102.172 21.8138 102.299 21.0815 102.552 20.4558C102.805 19.8167 103.191 19.3241 103.71 18.9779C104.229 18.6317 104.882 18.4587 105.667 18.4587C106.2 18.4587 106.646 18.5452 107.005 18.7183C107.365 18.8914 107.645 19.0977 107.844 19.3374C108.057 19.577 108.21 19.7967 108.304 19.9964C108.41 20.1961 108.47 20.3226 108.483 20.3759H108.523V18.4587H110.241V27.6654C110.241 28.2512 110.168 28.7238 110.021 29.0833C109.875 29.4428 109.642 29.7024 109.322 29.8622C109.016 30.0353 108.603 30.1218 108.084 30.1218H104.709ZM106.107 25.3886C106.626 25.3886 107.065 25.2755 107.425 25.0491C107.784 24.8228 108.051 24.5033 108.224 24.0905C108.41 23.6778 108.503 23.1985 108.503 22.6526C108.503 22.12 108.417 21.6474 108.244 21.2346C108.071 20.8219 107.811 20.509 107.465 20.296C107.132 20.0697 106.706 19.9565 106.187 19.9565C105.601 19.9565 105.128 20.083 104.769 20.3359C104.422 20.5889 104.17 20.9218 104.01 21.3345C103.863 21.7472 103.79 22.1866 103.79 22.6526C103.79 23.1186 103.857 23.5646 103.99 23.9907C104.136 24.4034 104.376 24.7429 104.709 25.0092C105.055 25.2622 105.521 25.3886 106.107 25.3886ZM111.995 26.6269V18.4587H113.533L113.673 20.8152L113.653 22.5727V26.6269H111.995ZM113.653 22.9522L113.593 21.1548C113.606 20.8618 113.673 20.5623 113.793 20.2561C113.912 19.9365 114.092 19.6436 114.332 19.3773C114.585 19.0977 114.904 18.878 115.29 18.7183C115.69 18.5452 116.169 18.4587 116.728 18.4587H117.068V20.296H116.708C116.109 20.296 115.61 20.3559 115.21 20.4757C114.811 20.5823 114.498 20.7487 114.272 20.975C114.045 21.2014 113.886 21.481 113.793 21.8138C113.699 22.1467 113.653 22.5261 113.653 22.9522ZM121.088 26.8066C120.343 26.8066 119.73 26.6269 119.251 26.2674C118.785 25.9079 118.439 25.4153 118.212 24.7895C117.999 24.1637 117.893 23.4448 117.893 22.6326C117.893 21.7938 118.006 21.0616 118.232 20.4358C118.459 19.7967 118.805 19.2974 119.271 18.938C119.75 18.5785 120.356 18.3987 121.088 18.3987C121.541 18.3987 121.927 18.4653 122.247 18.5984C122.566 18.7183 122.832 18.8714 123.045 19.0578C123.258 19.2442 123.432 19.4372 123.565 19.637C123.698 19.8233 123.791 19.9898 123.844 20.1362H123.884V18.4587H125.582V26.6269H124.164L123.884 25.169H123.844C123.791 25.3154 123.698 25.4818 123.565 25.6682C123.432 25.8546 123.252 26.0344 123.025 26.2075C122.812 26.3806 122.546 26.5203 122.227 26.6269C121.907 26.7467 121.528 26.8066 121.088 26.8066ZM121.747 25.3886C122.28 25.3886 122.699 25.2755 123.005 25.0491C123.312 24.8095 123.531 24.4833 123.665 24.0706C123.798 23.6578 123.864 23.1852 123.864 22.6526C123.864 22.0801 123.791 21.5875 123.645 21.1747C123.511 20.762 123.292 20.4491 122.985 20.2361C122.679 20.0097 122.267 19.8966 121.747 19.8966C121.201 19.8966 120.762 20.0231 120.429 20.276C120.11 20.5157 119.877 20.8419 119.73 21.2546C119.597 21.6674 119.53 22.1267 119.53 22.6326C119.53 23.1519 119.597 23.6245 119.73 24.0506C119.877 24.4633 120.11 24.7895 120.429 25.0292C120.762 25.2688 121.201 25.3886 121.747 25.3886ZM127.048 26.6269V18.4587H128.606L128.666 20.3559H128.706C128.719 20.276 128.772 20.1362 128.866 19.9365C128.959 19.7368 129.099 19.5238 129.285 19.2974C129.485 19.0711 129.738 18.878 130.044 18.7183C130.363 18.5452 130.763 18.4587 131.242 18.4587C131.708 18.4587 132.094 18.5518 132.401 18.7382C132.707 18.9113 132.946 19.1443 133.119 19.4372C133.306 19.7168 133.439 20.0231 133.519 20.3559H133.559C133.585 20.276 133.652 20.1362 133.759 19.9365C133.865 19.7368 134.018 19.5238 134.218 19.2974C134.431 19.0578 134.704 18.8581 135.037 18.6983C135.37 18.5385 135.776 18.4587 136.255 18.4587C136.774 18.4587 137.2 18.5652 137.533 18.7782C137.879 18.9912 138.152 19.2708 138.352 19.617C138.552 19.9498 138.698 20.3093 138.791 20.6954C138.884 21.0682 138.944 21.4277 138.971 21.7739C138.998 22.12 139.011 22.4063 139.011 22.6326V26.6269H137.393V22.6127C137.393 22.3996 137.38 22.1467 137.353 21.8538C137.34 21.5475 137.28 21.248 137.174 20.955C137.08 20.6621 136.921 20.4225 136.694 20.2361C136.468 20.0364 136.148 19.9365 135.736 19.9365C135.256 19.9365 134.877 20.0697 134.597 20.3359C134.318 20.6022 134.118 20.9484 133.998 21.3744C133.892 21.8005 133.838 22.2532 133.838 22.7325V26.6269H132.221V22.6127C132.221 22.3996 132.207 22.1467 132.181 21.8538C132.168 21.5475 132.108 21.248 132.001 20.955C131.908 20.6621 131.748 20.4225 131.522 20.2361C131.295 20.0364 130.976 19.9365 130.563 19.9365C130.084 19.9365 129.704 20.0697 129.425 20.3359C129.145 20.6022 128.945 20.9484 128.826 21.3744C128.719 21.8005 128.666 22.2532 128.666 22.7325V26.6269H127.048ZM143.979 26.8266C143.606 26.8266 143.24 26.7733 142.881 26.6668C142.534 26.5736 142.208 26.4338 141.902 26.2474C141.609 26.061 141.343 25.848 141.103 25.6083C140.877 25.3687 140.697 25.1091 140.564 24.8295C140.444 24.5365 140.384 24.2303 140.384 23.9108H141.942C141.942 23.9241 141.949 24.0173 141.962 24.1904C141.988 24.3635 142.062 24.5632 142.182 24.7895C142.301 25.0025 142.494 25.1889 142.761 25.3487C143.04 25.5085 143.433 25.5884 143.939 25.5884C144.325 25.5884 144.651 25.5418 144.918 25.4486C145.197 25.3554 145.41 25.2289 145.557 25.0691C145.703 24.896 145.77 24.6897 145.756 24.45C145.756 24.1172 145.63 23.8575 145.377 23.6711C145.124 23.4847 144.798 23.3383 144.398 23.2318C143.999 23.1119 143.58 22.9988 143.14 22.8923C142.701 22.7857 142.281 22.6459 141.882 22.4729C141.483 22.2865 141.156 22.0401 140.903 21.7339C140.664 21.4144 140.551 20.9883 140.564 20.4558C140.564 19.7368 140.863 19.1843 141.463 18.7982C142.075 18.3987 142.847 18.199 143.779 18.199C144.232 18.199 144.671 18.2523 145.097 18.3588C145.523 18.4653 145.903 18.6317 146.236 18.8581C146.582 19.0844 146.855 19.384 147.055 19.7568C147.268 20.1296 147.367 20.5889 147.354 21.1348H145.816C145.83 20.7886 145.77 20.509 145.637 20.296C145.517 20.083 145.35 19.9232 145.137 19.8167C144.924 19.6969 144.698 19.617 144.458 19.577C144.232 19.5238 144.012 19.4972 143.799 19.4972C143.267 19.4972 142.847 19.597 142.541 19.7967C142.235 19.9831 142.082 20.2361 142.082 20.5556C142.082 20.8885 142.208 21.1481 142.461 21.3345C142.714 21.5209 143.04 21.6674 143.44 21.7739C143.839 21.8804 144.265 21.9869 144.718 22.0934C145.171 22.1999 145.597 22.3464 145.996 22.5328C146.395 22.7059 146.722 22.9522 146.975 23.2717C147.228 23.5912 147.354 24.0173 147.354 24.5499C147.354 25.0691 147.208 25.4952 146.915 25.828C146.635 26.1609 146.242 26.4138 145.736 26.5869C145.23 26.7467 144.645 26.8266 143.979 26.8266ZM155.477 25.2289C155.996 25.2289 156.395 25.2289 156.675 25.2289C156.955 25.2289 157.161 25.2289 157.294 25.2289C158.013 25.2289 158.659 25.1756 159.231 25.0691C159.804 24.9493 160.296 24.7363 160.709 24.43C161.122 24.1105 161.435 23.6778 161.648 23.1319C161.874 22.5727 161.987 21.8538 161.987 20.975C161.987 20.043 161.794 19.2708 161.408 18.6584C161.022 18.0459 160.476 17.5866 159.771 17.2804C159.078 16.9741 158.253 16.821 157.294 16.821H155.477V25.2289ZM163.745 20.995C163.745 22.4729 163.459 23.6245 162.886 24.45C162.327 25.2622 161.528 25.828 160.489 26.1476C159.464 26.4671 158.253 26.6269 156.855 26.6269C156.642 26.6269 156.302 26.6269 155.836 26.6269C155.37 26.6269 154.698 26.6269 153.819 26.6269V15.3831C154.751 15.3831 155.443 15.3831 155.896 15.3831C156.349 15.3831 156.668 15.3831 156.855 15.3831C158.253 15.3831 159.464 15.5961 160.489 16.0222C161.528 16.4349 162.327 17.054 162.886 17.8795C163.459 18.705 163.745 19.7435 163.745 20.995ZM168.951 26.8266C168.032 26.8266 167.28 26.6269 166.694 26.2274C166.108 25.8147 165.676 25.2888 165.396 24.6497C165.116 23.9973 164.977 23.325 164.977 22.6326C164.963 21.8471 165.11 21.1348 165.416 20.4957C165.736 19.8566 166.188 19.3507 166.774 18.9779C167.373 18.6051 168.085 18.4187 168.911 18.4187C169.63 18.4187 170.269 18.5785 170.828 18.898C171.387 19.2042 171.833 19.6436 172.166 20.2161C172.499 20.7753 172.679 21.441 172.705 22.2132C172.719 22.2532 172.725 22.3331 172.725 22.4529C172.725 22.5594 172.725 22.6526 172.725 22.7325H166.554C166.554 23.5846 166.761 24.2503 167.173 24.7296C167.599 25.1956 168.185 25.4286 168.931 25.4286C169.49 25.4286 169.963 25.2888 170.349 25.0092C170.748 24.7163 170.995 24.3302 171.088 23.8509H172.705C172.626 24.4101 172.426 24.916 172.106 25.3687C171.787 25.8214 171.361 26.1808 170.828 26.4471C170.296 26.7001 169.67 26.8266 168.951 26.8266ZM166.614 21.9137H171.048C171.035 21.7672 170.995 21.5742 170.928 21.3345C170.875 21.0948 170.768 20.8618 170.608 20.6355C170.449 20.3959 170.229 20.1961 169.949 20.0364C169.67 19.8766 169.31 19.7967 168.871 19.7967C168.472 19.7967 168.132 19.8633 167.852 19.9964C167.573 20.1296 167.347 20.3093 167.173 20.5357C167 20.7487 166.867 20.9817 166.774 21.2346C166.694 21.4743 166.641 21.7006 166.614 21.9137ZM176.68 26.6269C176.121 26.6269 175.708 26.4804 175.442 26.1875C175.176 25.8946 175.043 25.4486 175.043 24.8494V19.4572H176.62V25.3088H178.518V26.6269H176.68ZM173.785 19.6569V18.4587C174.091 18.4587 174.337 18.4387 174.523 18.3987C174.723 18.3588 174.87 18.2789 174.963 18.1591C175.069 18.0259 175.143 17.8196 175.182 17.54C175.222 17.2471 175.242 16.8543 175.242 16.3617H176.62V18.4587H178.498V19.6569H173.785ZM182.972 26.8066C182.226 26.8066 181.614 26.6269 181.134 26.2674C180.668 25.9079 180.322 25.4153 180.096 24.7895C179.883 24.1637 179.776 23.4448 179.776 22.6326C179.776 21.7938 179.889 21.0616 180.116 20.4358C180.342 19.7967 180.688 19.2974 181.154 18.938C181.633 18.5785 182.239 18.3987 182.972 18.3987C183.424 18.3987 183.81 18.4653 184.13 18.5984C184.449 18.7183 184.716 18.8714 184.929 19.0578C185.142 19.2442 185.315 19.4372 185.448 19.637C185.581 19.8233 185.674 19.9898 185.728 20.1362H185.768V18.4587H187.465V26.6269H186.047L185.768 25.169H185.728C185.674 25.3154 185.581 25.4818 185.448 25.6682C185.315 25.8546 185.135 26.0344 184.909 26.2075C184.696 26.3806 184.429 26.5203 184.11 26.6269C183.79 26.7467 183.411 26.8066 182.972 26.8066ZM183.631 25.3886C184.163 25.3886 184.583 25.2755 184.889 25.0491C185.195 24.8095 185.415 24.4833 185.548 24.0706C185.681 23.6578 185.748 23.1852 185.748 22.6526C185.748 22.0801 185.674 21.5875 185.528 21.1747C185.395 20.762 185.175 20.4491 184.869 20.2361C184.563 20.0097 184.15 19.8966 183.631 19.8966C183.085 19.8966 182.645 20.0231 182.313 20.276C181.993 20.5157 181.76 20.8419 181.614 21.2546C181.48 21.6674 181.414 22.1267 181.414 22.6326C181.414 23.1519 181.48 23.6245 181.614 24.0506C181.76 24.4633 181.993 24.7895 182.313 25.0292C182.645 25.2688 183.085 25.3886 183.631 25.3886ZM189.191 26.6269V18.4587H190.849V26.6269H189.191ZM190.03 17.3203C189.644 17.3203 189.378 17.2204 189.231 17.0207C189.098 16.821 189.031 16.588 189.031 16.3217C189.031 16.0688 189.098 15.8491 189.231 15.6627C189.378 15.463 189.644 15.3631 190.03 15.3631C190.416 15.3631 190.669 15.463 190.789 15.6627C190.922 15.8491 190.989 16.0688 190.989 16.3217C190.989 16.588 190.922 16.821 190.789 17.0207C190.669 17.2204 190.416 17.3203 190.03 17.3203ZM192.838 26.6269V15.3831H194.475V26.6269H192.838ZM199.641 26.8266C199.268 26.8266 198.902 26.7733 198.542 26.6668C198.196 26.5736 197.87 26.4338 197.564 26.2474C197.271 26.061 197.005 25.848 196.765 25.6083C196.539 25.3687 196.359 25.1091 196.226 24.8295C196.106 24.5365 196.046 24.2303 196.046 23.9108H197.604C197.604 23.9241 197.61 24.0173 197.624 24.1904C197.65 24.3635 197.724 24.5632 197.843 24.7895C197.963 25.0025 198.156 25.1889 198.423 25.3487C198.702 25.5085 199.095 25.5884 199.601 25.5884C199.987 25.5884 200.313 25.5418 200.579 25.4486C200.859 25.3554 201.072 25.2289 201.219 25.0691C201.365 24.896 201.432 24.6897 201.418 24.45C201.418 24.1172 201.292 23.8575 201.039 23.6711C200.786 23.4847 200.46 23.3383 200.06 23.2318C199.661 23.1119 199.241 22.9988 198.802 22.8923C198.363 22.7857 197.943 22.6459 197.544 22.4729C197.144 22.2865 196.818 22.0401 196.565 21.7339C196.326 21.4144 196.212 20.9883 196.226 20.4558C196.226 19.7368 196.525 19.1843 197.124 18.7982C197.737 18.3987 198.509 18.199 199.441 18.199C199.894 18.199 200.333 18.2523 200.759 18.3588C201.185 18.4653 201.565 18.6317 201.898 18.8581C202.244 19.0844 202.517 19.384 202.716 19.7568C202.929 20.1296 203.029 20.5889 203.016 21.1348H201.478C201.491 20.7886 201.432 20.509 201.298 20.296C201.179 20.083 201.012 19.9232 200.799 19.8167C200.586 19.6969 200.36 19.617 200.12 19.577C199.894 19.5238 199.674 19.4972 199.461 19.4972C198.928 19.4972 198.509 19.597 198.203 19.7967C197.897 19.9831 197.744 20.2361 197.744 20.5556C197.744 20.8885 197.87 21.1481 198.123 21.3345C198.376 21.5209 198.702 21.6674 199.102 21.7739C199.501 21.8804 199.927 21.9869 200.38 22.0934C200.832 22.1999 201.258 22.3464 201.658 22.5328C202.057 22.7059 202.383 22.9522 202.636 23.2717C202.889 23.5912 203.016 24.0173 203.016 24.5499C203.016 25.0691 202.869 25.4952 202.577 25.828C202.297 26.1609 201.904 26.4138 201.398 26.5869C200.892 26.7467 200.306 26.8266 199.641 26.8266Z" fill="#CAFAFF"/>
</g>
<defs>
<filter id="filter0_i_104_20" x="77.5596" y="15.3631" width="125.476" height="14.7587" filterUnits="userSpaceOnUse" color-interpolation-filters="sRGB">
<feFlood flood-opacity="0" result="BackgroundImageFix"/>
<feBlend mode="normal" in="SourceGraphic" in2="BackgroundImageFix" result="shape"/>
<feColorMatrix in="SourceAlpha" type="matrix" values="0 0 0 0 0 0 0 0 0 0 0 0 0 0 0 0 0 0 127 0" result="hardAlpha"/>
<feOffset/>
<feGaussianBlur stdDeviation="1.16387"/>
<feComposite in2="hardAlpha" operator="arithmetic" k2="-1" k3="1"/>
<feColorMatrix type="matrix" values="0 0 0 0 0 0 0 0 0 0 0 0 0 0 0 0 0 0 0.16 0"/>
<feBlend mode="normal" in2="shape" result="effect1_innerShadow_104_20"/>
</filter>
</defs>
</svg>
