<svg width="280" height="64" viewBox="0 0 280 64" fill="none" xmlns="http://www.w3.org/2000/svg">
<path d="M209.127 63.5793H75.2826L69.9337 58.4735H0.519531V56.2853H70.7846L76.1335 61.3911H208.033L212.044 56.2853H280V58.4735H213.138L209.127 63.5793Z" fill="#00D17D"/>
<path d="M97.6494 6.92923L98.865 5.34887H181.651L183.232 6.92923H269.3L266.991 4.74104H188.702L183.84 -3.05176e-05H95.9475L92.1789 4.74104H13.4042L11.2161 6.92923H97.6494Z" fill="#00D17D"/>
<path d="M206.696 59.446H77.2281L71.8792 54.3403H0.398438V18.4783L9.8806 8.87463H96.8002V9.96873H10.3669L1.49256 18.9646V53.2462H72.3655L77.5928 58.352H206.088L210.1 53.2462H278.906V18.9646L270.153 9.96873H184.328V8.87463H270.639L280 18.4783V54.3403H210.707L206.696 59.446Z" fill="#00D17D"/>
<g filter="url(#filter0_i_143_460)">
<path d="M65.754 39.6359C64.4705 39.6359 63.3104 39.3726 62.2737 38.8461C61.237 38.3031 60.4143 37.505 59.8054 36.4518C59.1966 35.3823 58.8922 34.0576 58.8922 32.4779C58.9086 30.9147 59.213 29.5983 59.8054 28.5287C60.3978 27.4426 61.2206 26.6281 62.2737 26.0851C63.3268 25.5256 64.5198 25.2459 65.8527 25.2459C67.0539 25.2459 68.0988 25.468 68.9874 25.9123C69.876 26.3401 70.5918 26.9407 71.1348 27.7141C71.6943 28.4875 72.0645 29.3926 72.2456 30.4292H70.1228C69.9912 29.6394 69.7115 29.0059 69.2836 28.5287C68.8558 28.0515 68.3374 27.7059 67.7286 27.492C67.1362 27.2781 66.5109 27.1711 65.8527 27.1711C64.2895 27.1711 63.08 27.6236 62.2243 28.5287C61.3687 29.4173 60.9408 30.6925 60.9408 32.3545C60.9408 34.0988 61.3604 35.4316 62.1997 36.3531C63.0389 37.2582 64.2319 37.7107 65.7787 37.7107C66.5027 37.7107 67.1691 37.5955 67.778 37.3651C68.4033 37.1347 68.9298 36.781 69.3577 36.3038C69.7855 35.8101 70.0652 35.1766 70.1969 34.4032H72.3443C72.1633 35.4234 71.793 36.3284 71.2336 37.1183C70.6905 37.9081 69.9583 38.5252 69.0368 38.9695C68.1318 39.4138 67.0375 39.6359 65.754 39.6359ZM79.9375 39.6359C78.8515 39.6359 77.9382 39.4138 77.1977 38.9695C76.4572 38.5252 75.8978 37.9164 75.5193 37.143C75.1573 36.3531 74.9763 35.4645 74.9763 34.4772C74.9763 33.457 75.1573 32.5602 75.5193 31.7868C75.8978 30.997 76.4572 30.3799 77.1977 29.9356C77.9382 29.4913 78.8597 29.2692 79.9622 29.2692C81.5748 29.2692 82.8007 29.7464 83.6399 30.7008C84.4792 31.6552 84.8988 32.914 84.8988 34.4772C84.8988 35.4481 84.7178 36.3284 84.3557 37.1183C84.0102 37.8917 83.4672 38.5087 82.7267 38.9695C82.0026 39.4138 81.0729 39.6359 79.9375 39.6359ZM79.9375 37.8834C80.7438 37.8834 81.3609 37.7107 81.7887 37.3651C82.2166 37.0196 82.5045 36.5835 82.6526 36.0569C82.8172 35.5139 82.8995 34.9627 82.8995 34.4032C82.8995 33.8437 82.8172 33.3007 82.6526 32.7741C82.5045 32.2311 82.2166 31.7868 81.7887 31.4412C81.3609 31.0792 80.7438 30.8982 79.9375 30.8982C79.1641 30.8982 78.5553 31.0792 78.111 31.4412C77.6832 31.7868 77.387 32.2311 77.2224 32.7741C77.0579 33.3007 76.9756 33.8437 76.9756 34.4032C76.9756 34.9627 77.0579 35.5139 77.2224 36.0569C77.387 36.5835 77.6832 37.0196 78.111 37.3651C78.5553 37.7107 79.1641 37.8834 79.9375 37.8834ZM88.0049 39.3891V29.2938H89.7574L90.103 31.6387H90.1523C90.1688 31.5729 90.2346 31.4166 90.3498 31.1697C90.465 30.9229 90.6542 30.6596 90.9175 30.3799C91.1808 30.0837 91.5346 29.8286 91.9789 29.6147C92.4232 29.4008 92.9826 29.2938 93.6573 29.2938C94.3649 29.2938 94.9408 29.409 95.3851 29.6394C95.8458 29.8533 96.2078 30.1495 96.4711 30.528C96.7509 30.89 96.9483 31.3014 97.0635 31.7621C97.1787 32.2064 97.2528 32.6672 97.2857 33.1444C97.3186 33.6051 97.335 34.0412 97.335 34.4525V39.3891H95.3357V34.4279C95.3357 33.8026 95.2699 33.2431 95.1383 32.7494C95.0066 32.2393 94.768 31.8444 94.4225 31.5647C94.0769 31.2685 93.5586 31.1204 92.8674 31.1204C92.1763 31.1204 91.6251 31.2849 91.2137 31.614C90.8188 31.9431 90.5308 32.371 90.3498 32.8975C90.1852 33.4076 90.103 33.9671 90.103 34.576V39.3891H88.0049ZM103.137 43.7086V41.7833H107.876V37.3651H107.827C107.794 37.4309 107.711 37.5873 107.58 37.8341C107.448 38.0645 107.242 38.3195 106.963 38.5992C106.699 38.879 106.346 39.1258 105.901 39.3397C105.473 39.5372 104.939 39.6359 104.297 39.6359C103.326 39.6359 102.52 39.4138 101.878 38.9695C101.236 38.5252 100.759 37.9164 100.446 37.143C100.15 36.3696 100.002 35.481 100.002 34.4772C100.002 33.4405 100.158 32.5355 100.471 31.7621C100.784 30.9723 101.261 30.3634 101.903 29.9356C102.544 29.5078 103.351 29.2938 104.322 29.2938C104.98 29.2938 105.531 29.4008 105.975 29.6147C106.42 29.8286 106.765 30.0837 107.012 30.3799C107.275 30.6761 107.465 30.9476 107.58 31.1944C107.711 31.4412 107.785 31.5976 107.802 31.6634H107.851V29.2938H109.974V40.6726C109.974 41.3966 109.883 41.9808 109.702 42.4251C109.521 42.8694 109.233 43.1902 108.839 43.3877C108.46 43.6016 107.95 43.7086 107.308 43.7086H103.137ZM104.865 37.8588C105.506 37.8588 106.049 37.7189 106.494 37.4392C106.938 37.1594 107.267 36.7645 107.481 36.2544C107.711 35.7443 107.827 35.1519 107.827 34.4772C107.827 33.819 107.72 33.2349 107.506 32.7247C107.292 32.2146 106.971 31.8279 106.543 31.5647C106.132 31.2849 105.605 31.145 104.963 31.145C104.239 31.145 103.655 31.3014 103.211 31.614C102.783 31.9267 102.47 32.338 102.273 32.8482C102.092 33.3583 102.001 33.9013 102.001 34.4772C102.001 35.0532 102.084 35.6044 102.248 36.131C102.429 36.6411 102.725 37.0607 103.137 37.3898C103.565 37.7024 104.141 37.8588 104.865 37.8588ZM113.376 39.3891V29.2938H115.277L115.45 32.2064L115.425 34.3785V39.3891H113.376ZM115.425 34.8475L115.351 32.626C115.367 32.264 115.45 31.8938 115.598 31.5153C115.746 31.1204 115.968 30.7584 116.264 30.4292C116.577 30.0837 116.972 29.8122 117.449 29.6147C117.943 29.4008 118.535 29.2938 119.226 29.2938H119.646V31.5647H119.201C118.461 31.5647 117.844 31.6387 117.35 31.7868C116.857 31.9184 116.47 32.1241 116.19 32.4039C115.91 32.6836 115.713 33.0292 115.598 33.4405C115.483 33.8519 115.425 34.3209 115.425 34.8475ZM125.849 39.6112C124.927 39.6112 124.17 39.3891 123.578 38.9448C123.002 38.5005 122.574 37.8917 122.295 37.1183C122.031 36.3449 121.9 35.4563 121.9 34.4525C121.9 33.4159 122.039 32.5108 122.319 31.7374C122.599 30.9476 123.027 30.3305 123.603 29.8862C124.195 29.4419 124.944 29.2198 125.849 29.2198C126.408 29.2198 126.886 29.3021 127.28 29.4666C127.675 29.6147 128.004 29.804 128.268 30.0343C128.531 30.2647 128.745 30.5033 128.91 30.7501C129.074 30.9805 129.189 31.1862 129.255 31.3672H129.304V29.2938H131.402V39.3891H129.65L129.304 37.5873H129.255C129.189 37.7683 129.074 37.974 128.91 38.2043C128.745 38.4347 128.523 38.6568 128.243 38.8708C127.98 39.0847 127.651 39.2575 127.256 39.3891C126.861 39.5372 126.392 39.6112 125.849 39.6112ZM126.663 37.8588C127.322 37.8588 127.84 37.7189 128.218 37.4392C128.597 37.143 128.868 36.7398 129.033 36.2297C129.197 35.7196 129.28 35.1354 129.28 34.4772C129.28 33.7697 129.189 33.1608 129.008 32.6507C128.844 32.1406 128.572 31.7539 128.194 31.4906C127.815 31.2109 127.305 31.071 126.663 31.071C125.989 31.071 125.446 31.2273 125.034 31.54C124.639 31.8362 124.351 32.2393 124.17 32.7494C124.006 33.2595 123.924 33.8272 123.924 34.4525C123.924 35.0943 124.006 35.6785 124.17 36.205C124.351 36.7151 124.639 37.1183 125.034 37.4145C125.446 37.7107 125.989 37.8588 126.663 37.8588ZM137.362 39.3891C136.671 39.3891 136.16 39.2081 135.831 38.8461C135.502 38.4841 135.338 37.9328 135.338 37.1923V30.528H137.288V37.76H139.632V39.3891H137.362ZM133.783 30.7748V29.2938C134.161 29.2938 134.466 29.2692 134.696 29.2198C134.943 29.1704 135.124 29.0717 135.239 28.9236C135.371 28.759 135.461 28.504 135.51 28.1584C135.56 27.7964 135.584 27.311 135.584 26.7021H137.288V29.2938H139.608V30.7748H133.783ZM146.495 39.6359C145.82 39.6359 145.252 39.529 144.792 39.3151C144.347 39.1011 143.985 38.8132 143.705 38.4512C143.442 38.0891 143.245 37.686 143.113 37.2417C142.981 36.7974 142.891 36.3367 142.842 35.8595C142.792 35.3823 142.768 34.9215 142.768 34.4772V29.2938H144.792V34.4772C144.792 35.0696 144.849 35.6209 144.964 36.131C145.08 36.6246 145.318 37.0278 145.68 37.3404C146.042 37.6531 146.577 37.8094 147.285 37.8094C147.976 37.8094 148.51 37.6531 148.889 37.3404C149.267 37.0113 149.531 36.5999 149.679 36.1063C149.843 35.6126 149.934 35.1025 149.95 34.576V29.2938H152.073V39.3891H150.32L149.975 37.2911H149.926C149.876 37.4556 149.777 37.6695 149.629 37.9328C149.481 38.1796 149.276 38.4347 149.012 38.698C148.749 38.9613 148.403 39.1834 147.976 39.3644C147.564 39.5454 147.071 39.6359 146.495 39.6359ZM155.581 39.3891V25.4927H157.605V39.3891H155.581ZM164.507 39.6112C163.586 39.6112 162.829 39.3891 162.236 38.9448C161.661 38.5005 161.233 37.8917 160.953 37.1183C160.69 36.3449 160.558 35.4563 160.558 34.4525C160.558 33.4159 160.698 32.5108 160.978 31.7374C161.257 30.9476 161.685 30.3305 162.261 29.8862C162.854 29.4419 163.602 29.2198 164.507 29.2198C165.067 29.2198 165.544 29.3021 165.939 29.4666C166.334 29.6147 166.663 29.804 166.926 30.0343C167.189 30.2647 167.403 30.5033 167.568 30.7501C167.733 30.9805 167.848 31.1862 167.914 31.3672H167.963V29.2938H170.061V39.3891H168.308L167.963 37.5873H167.914C167.848 37.7683 167.733 37.974 167.568 38.2043C167.403 38.4347 167.181 38.6568 166.902 38.8708C166.638 39.0847 166.309 39.2575 165.914 39.3891C165.519 39.5372 165.05 39.6112 164.507 39.6112ZM165.322 37.8588C165.98 37.8588 166.498 37.7189 166.877 37.4392C167.255 37.143 167.527 36.7398 167.691 36.2297C167.856 35.7196 167.938 35.1354 167.938 34.4772C167.938 33.7697 167.848 33.1608 167.667 32.6507C167.502 32.1406 167.231 31.7539 166.852 31.4906C166.474 31.2109 165.964 31.071 165.322 31.071C164.647 31.071 164.104 31.2273 163.693 31.54C163.298 31.8362 163.01 32.2393 162.829 32.7494C162.664 33.2595 162.582 33.8272 162.582 34.4525C162.582 35.0943 162.664 35.6785 162.829 36.205C163.01 36.7151 163.298 37.1183 163.693 37.4145C164.104 37.7107 164.647 37.8588 165.322 37.8588ZM176.02 39.3891C175.329 39.3891 174.819 39.2081 174.49 38.8461C174.161 38.4841 173.996 37.9328 173.996 37.1923V30.528H175.946V37.76H178.291V39.3891H176.02ZM172.441 30.7748V29.2938C172.82 29.2938 173.124 29.2692 173.354 29.2198C173.601 29.1704 173.782 29.0717 173.897 28.9236C174.029 28.759 174.12 28.504 174.169 28.1584C174.218 27.7964 174.243 27.311 174.243 26.7021H175.946V29.2938H178.266V30.7748H172.441ZM181.846 39.3891V29.2938H183.894V39.3891H181.846ZM182.882 27.8869C182.405 27.8869 182.076 27.7635 181.895 27.5167C181.73 27.2699 181.648 26.9819 181.648 26.6528C181.648 26.3401 181.73 26.0686 181.895 25.8382C182.076 25.5914 182.405 25.468 182.882 25.468C183.359 25.468 183.672 25.5914 183.82 25.8382C183.985 26.0686 184.067 26.3401 184.067 26.6528C184.067 26.9819 183.985 27.2699 183.82 27.5167C183.672 27.7635 183.359 27.8869 182.882 27.8869ZM191.931 39.6359C190.845 39.6359 189.932 39.4138 189.191 38.9695C188.451 38.5252 187.891 37.9164 187.513 37.143C187.151 36.3531 186.97 35.4645 186.97 34.4772C186.97 33.457 187.151 32.5602 187.513 31.7868C187.891 30.997 188.451 30.3799 189.191 29.9356C189.932 29.4913 190.853 29.2692 191.956 29.2692C193.568 29.2692 194.794 29.7464 195.633 30.7008C196.472 31.6552 196.892 32.914 196.892 34.4772C196.892 35.4481 196.711 36.3284 196.349 37.1183C196.004 37.8917 195.46 38.5087 194.72 38.9695C193.996 39.4138 193.066 39.6359 191.931 39.6359ZM191.931 37.8834C192.737 37.8834 193.354 37.7107 193.782 37.3651C194.21 37.0196 194.498 36.5835 194.646 36.0569C194.811 35.5139 194.893 34.9627 194.893 34.4032C194.893 33.8437 194.811 33.3007 194.646 32.7741C194.498 32.2311 194.21 31.7868 193.782 31.4412C193.354 31.0792 192.737 30.8982 191.931 30.8982C191.157 30.8982 190.549 31.0792 190.104 31.4412C189.676 31.7868 189.38 32.2311 189.216 32.7741C189.051 33.3007 188.969 33.8437 188.969 34.4032C188.969 34.9627 189.051 35.5139 189.216 36.0569C189.38 36.5835 189.676 37.0196 190.104 37.3651C190.549 37.7107 191.157 37.8834 191.931 37.8834ZM199.998 39.3891V29.2938H201.751L202.096 31.6387H202.146C202.162 31.5729 202.228 31.4166 202.343 31.1697C202.458 30.9229 202.648 30.6596 202.911 30.3799C203.174 30.0837 203.528 29.8286 203.972 29.6147C204.416 29.4008 204.976 29.2938 205.651 29.2938C206.358 29.2938 206.934 29.409 207.378 29.6394C207.839 29.8533 208.201 30.1495 208.464 30.528C208.744 30.89 208.942 31.3014 209.057 31.7621C209.172 32.2064 209.246 32.6672 209.279 33.1444C209.312 33.6051 209.328 34.0412 209.328 34.4525V39.3891H207.329V34.4279C207.329 33.8026 207.263 33.2431 207.132 32.7494C207 32.2393 206.761 31.8444 206.416 31.5647C206.07 31.2685 205.552 31.1204 204.861 31.1204C204.17 31.1204 203.618 31.2849 203.207 31.614C202.812 31.9431 202.524 32.371 202.343 32.8975C202.179 33.4076 202.096 33.9671 202.096 34.576V39.3891H199.998ZM216.71 39.6359C216.249 39.6359 215.797 39.5701 215.352 39.4385C214.924 39.3233 214.521 39.1505 214.143 38.9201C213.781 38.6898 213.452 38.4265 213.156 38.1303C212.876 37.8341 212.654 37.5132 212.489 37.1676C212.341 36.8056 212.267 36.4272 212.267 36.0322H214.192C214.192 36.0487 214.2 36.1639 214.217 36.3778C214.25 36.5917 214.34 36.8385 214.488 37.1183C214.636 37.3816 214.875 37.6119 215.204 37.8094C215.55 38.0069 216.035 38.1056 216.66 38.1056C217.138 38.1056 217.541 38.048 217.87 37.9328C218.216 37.8176 218.479 37.6613 218.66 37.4638C218.841 37.2499 218.923 36.9949 218.907 36.6987C218.907 36.2873 218.75 35.9664 218.438 35.736C218.125 35.5057 217.722 35.3247 217.228 35.193C216.735 35.0449 216.216 34.9051 215.673 34.7734C215.13 34.6418 214.612 34.469 214.118 34.2551C213.625 34.0247 213.221 33.7203 212.909 33.3418C212.613 32.9469 212.473 32.4203 212.489 31.7621C212.489 30.8735 212.859 30.1906 213.6 29.7134C214.357 29.2198 215.311 28.973 216.463 28.973C217.022 28.973 217.566 29.0388 218.092 29.1704C218.619 29.3021 219.088 29.5078 219.499 29.7875C219.927 30.0672 220.264 30.4375 220.511 30.8982C220.774 31.359 220.898 31.9267 220.881 32.6013H218.981C218.997 32.1735 218.923 31.8279 218.759 31.5647C218.61 31.3014 218.405 31.1039 218.141 30.9723C217.878 30.8242 217.598 30.7254 217.302 30.6761C217.022 30.6103 216.751 30.5773 216.488 30.5773C215.829 30.5773 215.311 30.7008 214.933 30.9476C214.554 31.178 214.365 31.4906 214.365 31.8855C214.365 32.2969 214.521 32.6178 214.834 32.8482C215.147 33.0785 215.55 33.2595 216.043 33.3912C216.537 33.5228 217.064 33.6545 217.623 33.7861C218.183 33.9177 218.709 34.0988 219.203 34.3291C219.696 34.543 220.1 34.8475 220.412 35.2424C220.725 35.6373 220.881 36.1639 220.881 36.8221C220.881 37.4638 220.7 37.9904 220.338 38.4018C219.993 38.8132 219.507 39.1258 218.882 39.3397C218.257 39.5372 217.533 39.6359 216.71 39.6359Z" fill="#00FA96"/>
</g>
<defs>
<filter id="filter0_i_143_460" x="58.8921" y="25.2458" width="162.014" height="18.4627" filterUnits="userSpaceOnUse" color-interpolation-filters="sRGB">
<feFlood flood-opacity="0" result="BackgroundImageFix"/>
<feBlend mode="normal" in="SourceGraphic" in2="BackgroundImageFix" result="shape"/>
<feColorMatrix in="SourceAlpha" type="matrix" values="0 0 0 0 0 0 0 0 0 0 0 0 0 0 0 0 0 0 127 0" result="hardAlpha"/>
<feOffset/>
<feGaussianBlur stdDeviation="0.770087"/>
<feComposite in2="hardAlpha" operator="arithmetic" k2="-1" k3="1"/>
<feColorMatrix type="matrix" values="0 0 0 0 0 0 0 0 0 0 0 0 0 0 0 0 0 0 0.16 0"/>
<feBlend mode="normal" in2="shape" result="effect1_innerShadow_143_460"/>
</filter>
</defs>
</svg>
