<svg width="249" height="368" viewBox="0 0 249 368" fill="none" xmlns="http://www.w3.org/2000/svg">
<path d="M248.017 367.465L248.017 21.2412L232.656 7.91946L202.436 7.91946" stroke="#00D17D" stroke-width="1.59828" stroke-miterlimit="10"/>
<path d="M247.721 367.169L244.761 367.169L244.761 344.263L247.721 341.869L247.721 367.169Z" fill="#47F6B0" stroke="#00D17D" stroke-width="0.591957"/>
<path d="M59.1828 365.325L23.7367 365.325L1.7343 345.481L1.73431 112.7" stroke="#00D17D" stroke-width="1.59828" stroke-miterlimit="10"/>
<path d="M42.3118 366.634L25.8547 366.634L24.5364 365.621L42.3118 365.621L42.3118 366.634Z" fill="#47F6B0" stroke="#00D17D" stroke-width="0.591957"/>
<path d="M6.20312 30.8056L6.20312 10.8906L28.8027 10.8906L6.20312 30.8056Z" fill="#47F6B0" stroke="#00D17D" stroke-width="0.591957"/>
<path d="M45.5676 7.91946L21.8894 7.91946L21.8894 10.5947" stroke="#00D17D" stroke-width="1.59828" stroke-miterlimit="10"/>
<path d="M1.7628 105.296L1.7628 25.5757L7.68237 25.5757" stroke="#00D17D" stroke-width="1.59828" stroke-miterlimit="10"/>
<path d="M234.994 368L234.994 365.325" stroke="#00D17D" stroke-width="1.59828" stroke-miterlimit="10"/>
<path d="M226.706 368L226.706 365.325" stroke="#00D17D" stroke-width="1.59828" stroke-miterlimit="10"/>
<path d="M219.011 368L219.011 365.325" stroke="#00D17D" stroke-width="1.59828" stroke-miterlimit="10"/>
<path d="M210.724 368L210.724 365.325" stroke="#00D17D" stroke-width="1.59828" stroke-miterlimit="10"/>
<path d="M203.028 368L203.028 363.185" stroke="#00D17D" stroke-width="1.59828" stroke-miterlimit="10"/>
<path d="M194.741 368L194.741 365.325" stroke="#00D17D" stroke-width="1.59828" stroke-miterlimit="10"/>
<path d="M187.045 368L187.045 365.325" stroke="#00D17D" stroke-width="1.59828" stroke-miterlimit="10"/>
<path d="M179.35 368L179.35 365.325" stroke="#00D17D" stroke-width="1.59828" stroke-miterlimit="10"/>
<path d="M171.062 368L171.062 365.325" stroke="#00D17D" stroke-width="1.59828" stroke-miterlimit="10"/>
<path d="M163.367 368L163.367 363.185" stroke="#00D17D" stroke-width="1.59828" stroke-miterlimit="10"/>
<path d="M155.08 368L155.08 365.325" stroke="#00D17D" stroke-width="1.59828" stroke-miterlimit="10"/>
<path d="M147.384 368L147.384 365.325" stroke="#00D17D" stroke-width="1.59828" stroke-miterlimit="10"/>
<path d="M139.097 368L139.097 365.325" stroke="#00D17D" stroke-width="1.59828" stroke-miterlimit="10"/>
<path d="M131.401 368L131.401 365.325" stroke="#00D17D" stroke-width="1.59828" stroke-miterlimit="10"/>
<path d="M123.114 368L123.114 363.185" stroke="#00D17D" stroke-width="1.59828" stroke-miterlimit="10"/>
<path d="M115.419 368L115.419 365.325" stroke="#00D17D" stroke-width="1.59828" stroke-miterlimit="10"/>
<path d="M107.723 368L107.723 365.325" stroke="#00D17D" stroke-width="1.59828" stroke-miterlimit="10"/>
<path d="M99.4355 368L99.4355 365.325" stroke="#00D17D" stroke-width="1.59828" stroke-miterlimit="10"/>
<path d="M91.7405 368L91.7405 365.325" stroke="#00D17D" stroke-width="1.59828" stroke-miterlimit="10"/>
<path d="M83.4529 368L83.4529 363.185" stroke="#00D17D" stroke-width="1.59828" stroke-miterlimit="10"/>
<path d="M75.7573 368L75.7573 365.325" stroke="#00D17D" stroke-width="1.59828" stroke-miterlimit="10"/>
<path d="M67.4702 368L67.4702 365.325" stroke="#00D17D" stroke-width="1.59828" stroke-miterlimit="10"/>
<path d="M187.611 1.49902C191.546 1.49902 194.741 4.3681 194.741 7.90198C194.741 11.4708 191.546 14.3399 187.611 14.3399L61.5768 14.3399C57.6419 14.3399 54.4472 11.4708 54.4472 7.90197C54.4472 4.3681 57.6419 1.49902 61.5768 1.49902L187.611 1.49902Z" stroke="#00D17D" stroke-width="1.59828" stroke-miterlimit="10"/>
<path d="M62.7278 12.9734C59.6087 12.9734 57.1107 10.6735 57.1106 7.91968C57.1106 5.16579 59.6086 2.86499 62.7278 2.86499L66.5364 2.86499L70.5852 12.9734L62.7278 12.9734Z" fill="#47F6B0" stroke="#00D17D" stroke-width="0.591957"/>
<path d="M72.3691 12.9734L68.4922 2.86499L73.1904 2.86499L77.1016 12.9734L72.3691 12.9734Z" fill="#47F6B0" stroke="#00D17D" stroke-width="0.591957"/>
<path d="M79.5098 12.9734L75.5977 2.86499L80.3311 2.86499L84.207 12.9734L79.5098 12.9734Z" fill="#47ECAA" stroke="#00D17D" stroke-width="0.591957"/>
<path d="M86.8276 12.9734L82.7095 2.86499L87.7349 2.86499L91.8911 12.9734L86.8276 12.9734Z" fill="#36C48B" stroke="#00D17D" stroke-width="0.591957"/>
<path d="M93.9707 12.9734L89.8145 2.86499L94.877 2.86499L98.9951 12.9734L93.9707 12.9734Z" fill="#32C88C" stroke="#00D17D" stroke-width="0.591957"/>
<path d="M101.375 12.9734L97.498 2.86499L102.196 2.86499L106.107 12.9734L101.375 12.9734Z" fill="#2C9C6F" stroke="#2C9C6F" stroke-width="0.591957"/>
<path d="M108.516 12.9734L104.604 2.86499L109.337 2.86499L113.213 12.9734L108.516 12.9734Z" fill="#12774E" stroke="#12774E" stroke-width="0.591957"/>
</svg>
