<svg width="280" height="64" viewBox="0 0 280 64" fill="none" xmlns="http://www.w3.org/2000/svg">
<path d="M209.127 63.5793H75.2826L69.9337 58.4735H0.519531V56.2853H70.7846L76.1335 61.3911H208.033L212.044 56.2853H280V58.4735H213.138L209.127 63.5793Z" fill="#00D17D"/>
<path d="M97.6494 6.92923L98.865 5.34887H181.651L183.232 6.92923H269.3L266.991 4.74104H188.702L183.84 -3.05176e-05H95.9475L92.1789 4.74104H13.4042L11.2161 6.92923H97.6494Z" fill="#00D17D"/>
<path d="M206.696 59.446H77.2281L71.8792 54.3403H0.398438V18.4783L9.8806 8.87463H96.8002V9.96873H10.3669L1.49256 18.9646V53.2462H72.3655L77.5928 58.352H206.088L210.1 53.2462H278.906V18.9646L270.153 9.96873H184.328V8.87463H270.639L280 18.4783V54.3403H210.707L206.696 59.446Z" fill="#00D17D"/>
<g filter="url(#filter0_i_129_3282)">
<path d="M65.3843 38.9448V25.937H67.4083V38.9448H65.3843ZM63.4838 39.3891V37.6119H69.2842V39.3891H63.4838ZM63.4838 27.2699V25.4927H69.2842V27.2699H63.4838ZM73.094 39.3891V29.2938H74.8465L75.1921 31.6387H75.2414C75.2579 31.5729 75.3237 31.4166 75.4389 31.1697C75.5541 30.9229 75.7433 30.6596 76.0066 30.3799C76.2699 30.0837 76.6237 29.8286 77.068 29.6147C77.5123 29.4008 78.0717 29.2938 78.7464 29.2938C79.454 29.2938 80.0299 29.409 80.4742 29.6394C80.9349 29.8533 81.2969 30.1495 81.5602 30.528C81.84 30.89 82.0374 31.3014 82.1526 31.7621C82.2678 32.2064 82.3419 32.6672 82.3748 33.1444C82.4077 33.6051 82.4241 34.0412 82.4241 34.4525V39.3891H80.4248V34.4279C80.4248 33.8026 80.359 33.2431 80.2274 32.7494C80.0957 32.2393 79.8571 31.8444 79.5116 31.5647C79.166 31.2685 78.6477 31.1204 77.9565 31.1204C77.2654 31.1204 76.7142 31.2849 76.3028 31.614C75.9079 31.9431 75.6199 32.371 75.4389 32.8975C75.2743 33.4076 75.1921 33.9671 75.1921 34.576V39.3891H73.094ZM85.5849 39.3891V29.2938H87.3373L87.6829 31.6387H87.7323C87.7487 31.5729 87.8145 31.4166 87.9297 31.1697C88.0449 30.9229 88.2342 30.6596 88.4974 30.3799C88.7607 30.0837 89.1145 29.8286 89.5588 29.6147C90.0031 29.4008 90.5626 29.2938 91.2372 29.2938C91.9448 29.2938 92.5207 29.409 92.965 29.6394C93.4258 29.8533 93.7878 30.1495 94.0511 30.528C94.3308 30.89 94.5283 31.3014 94.6435 31.7621C94.7586 32.2064 94.8327 32.6672 94.8656 33.1444C94.8985 33.6051 94.915 34.0412 94.915 34.4525V39.3891H92.9157V34.4279C92.9157 33.8026 92.8498 33.2431 92.7182 32.7494C92.5866 32.2393 92.348 31.8444 92.0024 31.5647C91.6568 31.2685 91.1385 31.1204 90.4474 31.1204C89.7563 31.1204 89.205 31.2849 88.7936 31.614C88.3987 31.9431 88.1107 32.371 87.9297 32.8975C87.7652 33.4076 87.6829 33.9671 87.6829 34.576V39.3891H85.5849ZM102.716 39.6359C101.63 39.6359 100.717 39.4138 99.9763 38.9695C99.2358 38.5252 98.6763 37.9164 98.2979 37.143C97.9358 36.3531 97.7548 35.4645 97.7548 34.4772C97.7548 33.457 97.9358 32.5602 98.2979 31.7868C98.6763 30.997 99.2358 30.3799 99.9763 29.9356C100.717 29.4913 101.638 29.2692 102.741 29.2692C104.353 29.2692 105.579 29.7464 106.418 30.7008C107.258 31.6552 107.677 32.914 107.677 34.4772C107.677 35.4481 107.496 36.3284 107.134 37.1183C106.789 37.8917 106.246 38.5087 105.505 38.9695C104.781 39.4138 103.851 39.6359 102.716 39.6359ZM102.716 37.8834C103.522 37.8834 104.139 37.7107 104.567 37.3651C104.995 37.0196 105.283 36.5835 105.431 36.0569C105.596 35.5139 105.678 34.9627 105.678 34.4032C105.678 33.8437 105.596 33.3007 105.431 32.7741C105.283 32.2311 104.995 31.7868 104.567 31.4412C104.139 31.0792 103.522 30.8982 102.716 30.8982C101.943 30.8982 101.334 31.0792 100.89 31.4412C100.462 31.7868 100.166 32.2311 100.001 32.7741C99.8364 33.3007 99.7541 33.8437 99.7541 34.4032C99.7541 34.9627 99.8364 35.5139 100.001 36.0569C100.166 36.5835 100.462 37.0196 100.89 37.3651C101.334 37.7107 101.943 37.8834 102.716 37.8834ZM117.867 29.2938H119.891V29.6641L116.263 39.3891H113.375L109.722 29.6888V29.2938H111.721L114.831 37.686H114.881L117.867 29.2938ZM126.128 39.6112C125.207 39.6112 124.45 39.3891 123.858 38.9448C123.282 38.5005 122.854 37.8917 122.574 37.1183C122.311 36.3449 122.179 35.4563 122.179 34.4525C122.179 33.4159 122.319 32.5108 122.599 31.7374C122.879 30.9476 123.306 30.3305 123.882 29.8862C124.475 29.4419 125.223 29.2198 126.128 29.2198C126.688 29.2198 127.165 29.3021 127.56 29.4666C127.955 29.6147 128.284 29.804 128.547 30.0343C128.811 30.2647 129.025 30.5033 129.189 30.7501C129.354 30.9805 129.469 31.1862 129.535 31.3672H129.584V29.2938H131.682V39.3891H129.93L129.584 37.5873H129.535C129.469 37.7683 129.354 37.974 129.189 38.2043C129.025 38.4347 128.802 38.6568 128.523 38.8708C128.259 39.0847 127.93 39.2575 127.535 39.3891C127.14 39.5372 126.671 39.6112 126.128 39.6112ZM126.943 37.8588C127.601 37.8588 128.12 37.7189 128.498 37.4392C128.876 37.143 129.148 36.7398 129.313 36.2297C129.477 35.7196 129.559 35.1354 129.559 34.4772C129.559 33.7697 129.469 33.1608 129.288 32.6507C129.123 32.1406 128.852 31.7539 128.473 31.4906C128.095 31.2109 127.585 31.071 126.943 31.071C126.268 31.071 125.725 31.2273 125.314 31.54C124.919 31.8362 124.631 32.2393 124.45 32.7494C124.285 33.2595 124.203 33.8272 124.203 34.4525C124.203 35.0943 124.285 35.6785 124.45 36.205C124.631 36.7151 124.919 37.1183 125.314 37.4145C125.725 37.7107 126.268 37.8588 126.943 37.8588ZM137.641 39.3891C136.95 39.3891 136.44 39.2081 136.111 38.8461C135.782 38.4841 135.617 37.9328 135.617 37.1923V30.528H137.567V37.76H139.912V39.3891H137.641ZM134.062 30.7748V29.2938C134.441 29.2938 134.745 29.2692 134.976 29.2198C135.222 29.1704 135.403 29.0717 135.519 28.9236C135.65 28.759 135.741 28.504 135.79 28.1584C135.839 27.7964 135.864 27.311 135.864 26.7021H137.567V29.2938H139.887V30.7748H134.062ZM143.467 39.3891V29.2938H145.515V39.3891H143.467ZM144.503 27.8869C144.026 27.8869 143.697 27.7635 143.516 27.5167C143.352 27.2699 143.269 26.9819 143.269 26.6528C143.269 26.3401 143.352 26.0686 143.516 25.8382C143.697 25.5914 144.026 25.468 144.503 25.468C144.981 25.468 145.293 25.5914 145.441 25.8382C145.606 26.0686 145.688 26.3401 145.688 26.6528C145.688 26.9819 145.606 27.2699 145.441 27.5167C145.293 27.7635 144.981 27.8869 144.503 27.8869ZM153.552 39.6359C152.466 39.6359 151.553 39.4138 150.812 38.9695C150.072 38.5252 149.512 37.9164 149.134 37.143C148.772 36.3531 148.591 35.4645 148.591 34.4772C148.591 33.457 148.772 32.5602 149.134 31.7868C149.512 30.997 150.072 30.3799 150.812 29.9356C151.553 29.4913 152.474 29.2692 153.577 29.2692C155.189 29.2692 156.415 29.7464 157.254 30.7008C158.094 31.6552 158.513 32.914 158.513 34.4772C158.513 35.4481 158.332 36.3284 157.97 37.1183C157.625 37.8917 157.082 38.5087 156.341 38.9695C155.617 39.4138 154.687 39.6359 153.552 39.6359ZM153.552 37.8834C154.358 37.8834 154.975 37.7107 155.403 37.3651C155.831 37.0196 156.119 36.5835 156.267 36.0569C156.432 35.5139 156.514 34.9627 156.514 34.4032C156.514 33.8437 156.432 33.3007 156.267 32.7741C156.119 32.2311 155.831 31.7868 155.403 31.4412C154.975 31.0792 154.358 30.8982 153.552 30.8982C152.779 30.8982 152.17 31.0792 151.725 31.4412C151.298 31.7868 151.001 32.2311 150.837 32.7741C150.672 33.3007 150.59 33.8437 150.59 34.4032C150.59 34.9627 150.672 35.5139 150.837 36.0569C151.001 36.5835 151.298 37.0196 151.725 37.3651C152.17 37.7107 152.779 37.8834 153.552 37.8834ZM161.619 39.3891V29.2938H163.372L163.717 31.6387H163.767C163.783 31.5729 163.849 31.4166 163.964 31.1697C164.079 30.9229 164.269 30.6596 164.532 30.3799C164.795 30.0837 165.149 29.8286 165.593 29.6147C166.038 29.4008 166.597 29.2938 167.272 29.2938C167.979 29.2938 168.555 29.409 169 29.6394C169.46 29.8533 169.822 30.1495 170.086 30.528C170.365 30.89 170.563 31.3014 170.678 31.7621C170.793 32.2064 170.867 32.6672 170.9 33.1444C170.933 33.6051 170.95 34.0412 170.95 34.4525V39.3891H168.95V34.4279C168.95 33.8026 168.884 33.2431 168.753 32.7494C168.621 32.2393 168.383 31.8444 168.037 31.5647C167.691 31.2685 167.173 31.1204 166.482 31.1204C165.791 31.1204 165.24 31.2849 164.828 31.614C164.433 31.9431 164.145 32.371 163.964 32.8975C163.8 33.4076 163.717 33.9671 163.717 34.576V39.3891H161.619ZM183.651 34.8475V32.5026L190.488 25.4927H193.154V25.7642L183.651 34.8475ZM181.701 39.3891V25.4927H183.75V39.3891H181.701ZM191.081 39.3891L185.552 32.1077L187.033 30.6514L193.45 39.1176V39.3891H191.081ZM200.575 39.6359C199.439 39.6359 198.51 39.3891 197.785 38.8954C197.061 38.3853 196.527 37.7354 196.181 36.9455C195.836 36.1392 195.663 35.3082 195.663 34.4525C195.646 33.4817 195.827 32.6013 196.206 31.8115C196.601 31.0216 197.16 30.3963 197.884 29.9356C198.625 29.4748 199.505 29.2445 200.525 29.2445C201.414 29.2445 202.204 29.4419 202.895 29.8369C203.586 30.2153 204.137 30.7584 204.549 31.4659C204.96 32.157 205.182 32.9798 205.215 33.9342C205.231 33.9836 205.24 34.0823 205.24 34.2304C205.24 34.362 205.24 34.4772 205.24 34.576H197.613C197.613 35.6291 197.868 36.4518 198.378 37.0442C198.904 37.6202 199.628 37.9081 200.55 37.9081C201.241 37.9081 201.825 37.7354 202.302 37.3898C202.796 37.0278 203.101 36.5506 203.216 35.9582H205.215C205.116 36.6493 204.869 37.2746 204.475 37.8341C204.08 38.3936 203.553 38.8379 202.895 39.167C202.237 39.4796 201.463 39.6359 200.575 39.6359ZM197.687 33.564H203.166C203.15 33.383 203.101 33.1444 203.018 32.8482C202.952 32.552 202.821 32.264 202.623 31.9843C202.426 31.6881 202.154 31.4412 201.809 31.2438C201.463 31.0463 201.019 30.9476 200.476 30.9476C199.982 30.9476 199.563 31.0299 199.217 31.1944C198.872 31.359 198.592 31.5811 198.378 31.8608C198.164 32.1241 197.999 32.4121 197.884 32.7247C197.785 33.0209 197.72 33.3007 197.687 33.564ZM207.462 43.9801V42.3757H208.918C209.149 42.3757 209.354 42.3428 209.535 42.277C209.716 42.2276 209.889 42.096 210.054 41.8821C210.235 41.6681 210.424 41.339 210.621 40.8947L211.485 38.9942L207.536 29.2938H209.659L212.497 36.8715L215.533 29.2938H217.681L212.497 41.1169C212.217 41.7422 211.962 42.2441 211.732 42.6225C211.518 43.001 211.288 43.289 211.041 43.4864C210.811 43.6839 210.539 43.8155 210.226 43.8814C209.93 43.9472 209.576 43.9801 209.165 43.9801H207.462Z" fill="#00FA96"/>
</g>
<defs>
<filter id="filter0_i_129_3282" x="63.4836" y="25.468" width="154.197" height="18.5121" filterUnits="userSpaceOnUse" color-interpolation-filters="sRGB">
<feFlood flood-opacity="0" result="BackgroundImageFix"/>
<feBlend mode="normal" in="SourceGraphic" in2="BackgroundImageFix" result="shape"/>
<feColorMatrix in="SourceAlpha" type="matrix" values="0 0 0 0 0 0 0 0 0 0 0 0 0 0 0 0 0 0 127 0" result="hardAlpha"/>
<feOffset/>
<feGaussianBlur stdDeviation="0.770087"/>
<feComposite in2="hardAlpha" operator="arithmetic" k2="-1" k3="1"/>
<feColorMatrix type="matrix" values="0 0 0 0 0 0 0 0 0 0 0 0 0 0 0 0 0 0 0.16 0"/>
<feBlend mode="normal" in2="shape" result="effect1_innerShadow_129_3282"/>
</filter>
</defs>
</svg>
