<svg width="161" height="40" viewBox="0 0 161 40" fill="none" xmlns="http://www.w3.org/2000/svg">
<path d="M1 2.50104V34.5759L6.18881 39H160V6.60915L153.421 1H3.03846L1 2.50104Z" stroke="#00D17D" stroke-width="1.8882" stroke-miterlimit="10"/>
<path opacity="0.3" d="M28.1184 2.49492L26.5449 4.06842V9.10361L33.2323 2.41624L28.1184 2.49492Z" fill="#00D17D"/>
<path d="M10.0986 1L1 10.7348V34.1326V34.4742L5.23005 39H35V1H10.0986Z" fill="#00D17D"/>
<path d="M25.3894 27.5134H10.1265C10.1265 24.3979 12.6755 21.8488 15.7911 21.8488H19.7248C22.8561 21.8488 25.3894 24.3979 25.3894 27.5134Z" fill="white"/>
<path d="M17.8365 20.2753C15.9325 20.2753 14.3748 18.7332 14.3748 16.8136C14.3748 14.9096 15.9325 13.3519 17.8365 13.3519C19.7561 13.3519 21.2981 14.9096 21.2981 16.8136C21.2981 18.7332 19.7561 20.2753 17.8365 20.2753Z" fill="white"/>
</svg>
