{
	"asset":{
		"generator":"Khronos glTF Blender I/O v3.5.30",
		"version":"2.0"
	},
	"scene":0,
	"scenes":[
		{
			"name":"Scene",
			"nodes":[
				9
			]
		}
	],
	"nodes":[
		{
			"mesh":0,
			"name":"Cube.006",
			"translation":[
				-0.5790663361549377,
				-0.5068140625953674,
				0.04226372390985489
			]
		},
		{
			"mesh":1,
			"name":"Cylinder",
			"rotation":[
				0.70710688829422,
				0,
				0,
				0.7071066498756409
			],
			"scale":[
				1,
				0.5336816310882568,
				1
			],
			"translation":[
				-0.5435786247253418,
				0,
				0.07011038810014725
			]
		},
		{
			"mesh":2,
			"name":"Cylinder.001",
			"rotation":[
				0.70710688829422,
				0,
				0,
				0.7071066498756409
			],
			"scale":[
				1,
				0.5336816310882568,
				1
			],
			"translation":[
				0.5409413576126099,
				0,
				0.07011038810014725
			]
		},
		{
			"mesh":3,
			"name":"Cylinder.002",
			"rotation":[
				0.6645500659942627,
				-0.24160559475421906,
				-0.24160559475421906,
				0.6645500063896179
			],
			"translation":[
				-0.5435786247253418,
				0,
				0.010516558773815632
			]
		},
		{
			"mesh":4,
			"name":"Cylinder.003",
			"rotation":[
				0.6645500659942627,
				-0.24160559475421906,
				-0.24160559475421906,
				0.6645500063896179
			],
			"translation":[
				0.5409413576126099,
				0,
				0.00417900737375021
			]
		},
		{
			"mesh":5,
			"name":"Plane.009",
			"rotation":[
				0.70710688829422,
				0,
				0,
				0.7071066498756409
			],
			"translation":[
				-0.5435786247253418,
				0,
				0.01051656436175108
			]
		},
		{
			"mesh":6,
			"name":"Plane.010",
			"rotation":[
				0.70710688829422,
				0,
				0,
				0.7071066498756409
			],
			"translation":[
				0.5409413576126099,
				0,
				0.00417900737375021
			]
		},
		{
			"mesh":7,
			"name":"Plane.011",
			"rotation":[
				0.70710688829422,
				0,
				0,
				0.7071066498756409
			],
			"translation":[
				0,
				0,
				-0.12094049155712128
			]
		},
		{
			"mesh":8,
			"name":"Plane.035",
			"rotation":[
				0.7071068286895752,
				0,
				0,
				0.7071068286895752
			],
			"scale":[
				0.5279622673988342,
				0.5279621481895447,
				0.5279621481895447
			],
			"translation":[
				-0.8447239995002747,
				-0.7133600115776062,
				0.07323485612869263
			]
		},
		{
			"children":[
				0,
				1,
				2,
				3,
				4,
				5,
				6,
				7,
				8
			],
			"mesh":9,
			"name":"VGA",
			"scale":[
				1.4036507606506348,
				1.4036507606506348,
				1.4036507606506348
			],
			"translation":[
				0.1243399977684021,
				-0.025183960795402527,
				-0.027500413358211517
			]
		}
	],
	"materials":[
		{
			"doubleSided":true,
			"name":"Green",
			"pbrMetallicRoughness":{
				"baseColorFactor":[
					0.02500826120376587,
					0.23301267623901367,
					0.05648598447442055,
					1
				],
				"metallicFactor":0,
				"roughnessFactor":0.5
			}
		},
		{
			"doubleSided":true,
			"name":"Metalic",
			"pbrMetallicRoughness":{
				"baseColorFactor":[
					0.8000000715255737,
					0.8000000715255737,
					0.8000000715255737,
					1
				],
				"roughnessFactor":0.3819444477558136
			}
		},
		{
			"doubleSided":true,
			"name":"White",
			"pbrMetallicRoughness":{
				"baseColorFactor":[
					0.800000011920929,
					0.800000011920929,
					0.800000011920929,
					1
				],
				"metallicFactor":0.2638888955116272,
				"roughnessFactor":0.625
			}
		},
		{
			"doubleSided":true,
			"name":"Black",
			"pbrMetallicRoughness":{
				"baseColorFactor":[
					0.06997636705636978,
					0.06997636705636978,
					0.06997636705636978,
					1
				],
				"roughnessFactor":0.3819444477558136
			}
		},
		{
			"doubleSided":true,
			"name":"Gold",
			"pbrMetallicRoughness":{
				"baseColorFactor":[
					0.8000000715255737,
					0.3531395494937897,
					0.04044796898961067,
					1
				],
				"roughnessFactor":0.3819444477558136
			}
		},
		{
			"doubleSided":true,
			"name":"Black.001",
			"pbrMetallicRoughness":{
				"baseColorFactor":[
					0.06997636705636978,
					0.06997636705636978,
					0.06997636705636978,
					1
				],
				"metallicFactor":0.4375,
				"roughnessFactor":0.6458333134651184
			}
		}
	],
	"meshes":[
		{
			"name":"Cube.006",
			"primitives":[
				{
					"attributes":{
						"POSITION":0,
						"TEXCOORD_0":1,
						"NORMAL":2
					},
					"indices":3,
					"material":0
				}
			]
		},
		{
			"name":"Cylinder",
			"primitives":[
				{
					"attributes":{
						"POSITION":4,
						"TEXCOORD_0":5,
						"NORMAL":6
					},
					"indices":7,
					"material":1
				}
			]
		},
		{
			"name":"Cylinder.001",
			"primitives":[
				{
					"attributes":{
						"POSITION":8,
						"TEXCOORD_0":9,
						"NORMAL":10
					},
					"indices":7,
					"material":1
				}
			]
		},
		{
			"name":"Cylinder.002",
			"primitives":[
				{
					"attributes":{
						"POSITION":11,
						"TEXCOORD_0":12,
						"NORMAL":13
					},
					"indices":14,
					"material":2
				}
			]
		},
		{
			"name":"Cylinder.004",
			"primitives":[
				{
					"attributes":{
						"POSITION":15,
						"TEXCOORD_0":16,
						"NORMAL":17
					},
					"indices":14,
					"material":2
				}
			]
		},
		{
			"name":"Plane.010",
			"primitives":[
				{
					"attributes":{
						"POSITION":18,
						"TEXCOORD_0":19,
						"NORMAL":20
					},
					"indices":21,
					"material":3
				}
			]
		},
		{
			"name":"Plane.012",
			"primitives":[
				{
					"attributes":{
						"POSITION":22,
						"TEXCOORD_0":23,
						"NORMAL":24
					},
					"indices":21,
					"material":3
				}
			]
		},
		{
			"name":"Plane.013",
			"primitives":[
				{
					"attributes":{
						"POSITION":25,
						"TEXCOORD_0":26,
						"NORMAL":27
					},
					"indices":28,
					"material":1
				}
			]
		},
		{
			"name":"Plane.058",
			"primitives":[
				{
					"attributes":{
						"POSITION":29,
						"TEXCOORD_0":30,
						"NORMAL":31
					},
					"indices":32,
					"material":4
				}
			]
		},
		{
			"name":"Cube.005",
			"primitives":[
				{
					"attributes":{
						"POSITION":33,
						"TEXCOORD_0":34,
						"NORMAL":35
					},
					"indices":36,
					"material":5
				}
			]
		}
	],
	"accessors":[
		{
			"bufferView":0,
			"componentType":5126,
			"count":70,
			"max":[
				0.4186525344848633,
				0,
				0.028150254860520363
			],
			"min":[
				-0.46689730882644653,
				-0.22611075639724731,
				-0.028150254860520363
			],
			"type":"VEC3"
		},
		{
			"bufferView":1,
			"componentType":5126,
			"count":70,
			"type":"VEC2"
		},
		{
			"bufferView":2,
			"componentType":5126,
			"count":70,
			"type":"VEC3"
		},
		{
			"bufferView":3,
			"componentType":5123,
			"count":336,
			"type":"SCALAR"
		},
		{
			"bufferView":4,
			"componentType":5126,
			"count":194,
			"max":[
				0.4362139105796814,
				0.1951373666524887,
				0.4362139105796814
			],
			"min":[
				-0.4362139105796814,
				-0.1951373666524887,
				-0.4362139105796814
			],
			"type":"VEC3"
		},
		{
			"bufferView":5,
			"componentType":5126,
			"count":194,
			"type":"VEC2"
		},
		{
			"bufferView":6,
			"componentType":5126,
			"count":194,
			"type":"VEC3"
		},
		{
			"bufferView":7,
			"componentType":5123,
			"count":768,
			"type":"SCALAR"
		},
		{
			"bufferView":8,
			"componentType":5126,
			"count":194,
			"max":[
				0.4362139105796814,
				0.1951373666524887,
				0.4362139105796814
			],
			"min":[
				-0.4362139105796814,
				-0.1951373666524887,
				-0.4362139105796814
			],
			"type":"VEC3"
		},
		{
			"bufferView":9,
			"componentType":5126,
			"count":194,
			"type":"VEC2"
		},
		{
			"bufferView":10,
			"componentType":5126,
			"count":194,
			"type":"VEC3"
		},
		{
			"bufferView":11,
			"componentType":5126,
			"count":82,
			"max":[
				0.12010207772254944,
				0.15925131738185883,
				0.12010207772254944
			],
			"min":[
				-0.12010207772254944,
				-0.15925131738185883,
				-0.12010207772254944
			],
			"type":"VEC3"
		},
		{
			"bufferView":12,
			"componentType":5126,
			"count":82,
			"type":"VEC2"
		},
		{
			"bufferView":13,
			"componentType":5126,
			"count":82,
			"type":"VEC3"
		},
		{
			"bufferView":14,
			"componentType":5123,
			"count":228,
			"type":"SCALAR"
		},
		{
			"bufferView":15,
			"componentType":5126,
			"count":82,
			"max":[
				0.12010207772254944,
				0.15925131738185883,
				0.12010207772254944
			],
			"min":[
				-0.12010207772254944,
				-0.15925131738185883,
				-0.12010207772254944
			],
			"type":"VEC3"
		},
		{
			"bufferView":16,
			"componentType":5126,
			"count":82,
			"type":"VEC2"
		},
		{
			"bufferView":17,
			"componentType":5126,
			"count":82,
			"type":"VEC3"
		},
		{
			"bufferView":18,
			"componentType":5126,
			"count":16,
			"max":[
				0.29702603816986084,
				0.20099666714668274,
				0.07486505806446075
			],
			"min":[
				0.07393883913755417,
				0.02732647955417633,
				-0.0802801251411438
			],
			"type":"VEC3"
		},
		{
			"bufferView":19,
			"componentType":5126,
			"count":16,
			"type":"VEC2"
		},
		{
			"bufferView":20,
			"componentType":5126,
			"count":16,
			"type":"VEC3"
		},
		{
			"bufferView":21,
			"componentType":5123,
			"count":48,
			"type":"SCALAR"
		},
		{
			"bufferView":22,
			"componentType":5126,
			"count":16,
			"max":[
				0.29702603816986084,
				0.20099666714668274,
				0.07486505806446075
			],
			"min":[
				0.07393883913755417,
				0.02732647955417633,
				-0.0802801251411438
			],
			"type":"VEC3"
		},
		{
			"bufferView":23,
			"componentType":5126,
			"count":16,
			"type":"VEC2"
		},
		{
			"bufferView":24,
			"componentType":5126,
			"count":16,
			"type":"VEC3"
		},
		{
			"bufferView":25,
			"componentType":5126,
			"count":90,
			"max":[
				1.1117303371429443,
				0.20370641350746155,
				0.5670465230941772
			],
			"min":[
				-1.3566908836364746,
				-0.10954752564430237,
				-0.5670465230941772
			],
			"type":"VEC3"
		},
		{
			"bufferView":26,
			"componentType":5126,
			"count":90,
			"type":"VEC2"
		},
		{
			"bufferView":27,
			"componentType":5126,
			"count":90,
			"type":"VEC3"
		},
		{
			"bufferView":28,
			"componentType":5123,
			"count":528,
			"type":"SCALAR"
		},
		{
			"bufferView":29,
			"componentType":5126,
			"count":4,
			"max":[
				0.027216659858822823,
				0,
				0.04245966672897339
			],
			"min":[
				-0.027216659858822823,
				-1.2829193263286243e-09,
				-0.07180944085121155
			],
			"type":"VEC3"
		},
		{
			"bufferView":30,
			"componentType":5126,
			"count":4,
			"type":"VEC2"
		},
		{
			"bufferView":31,
			"componentType":5126,
			"count":4,
			"type":"VEC3"
		},
		{
			"bufferView":32,
			"componentType":5123,
			"count":6,
			"type":"SCALAR"
		},
		{
			"bufferView":33,
			"componentType":5126,
			"count":158,
			"max":[
				1.1646242141723633,
				0.5802549123764038,
				0.12347162514925003
			],
			"min":[
				-1.1250653266906738,
				-0.5802549123764038,
				-0.12347162514925003
			],
			"type":"VEC3"
		},
		{
			"bufferView":34,
			"componentType":5126,
			"count":158,
			"type":"VEC2"
		},
		{
			"bufferView":35,
			"componentType":5126,
			"count":158,
			"type":"VEC3"
		},
		{
			"bufferView":36,
			"componentType":5123,
			"count":732,
			"type":"SCALAR"
		}
	],
	"bufferViews":[
		{
			"buffer":0,
			"byteLength":840,
			"byteOffset":0,
			"target":34962
		},
		{
			"buffer":0,
			"byteLength":560,
			"byteOffset":840,
			"target":34962
		},
		{
			"buffer":0,
			"byteLength":840,
			"byteOffset":1400,
			"target":34962
		},
		{
			"buffer":0,
			"byteLength":672,
			"byteOffset":2240,
			"target":34963
		},
		{
			"buffer":0,
			"byteLength":2328,
			"byteOffset":2912,
			"target":34962
		},
		{
			"buffer":0,
			"byteLength":1552,
			"byteOffset":5240,
			"target":34962
		},
		{
			"buffer":0,
			"byteLength":2328,
			"byteOffset":6792,
			"target":34962
		},
		{
			"buffer":0,
			"byteLength":1536,
			"byteOffset":9120,
			"target":34963
		},
		{
			"buffer":0,
			"byteLength":2328,
			"byteOffset":10656,
			"target":34962
		},
		{
			"buffer":0,
			"byteLength":1552,
			"byteOffset":12984,
			"target":34962
		},
		{
			"buffer":0,
			"byteLength":2328,
			"byteOffset":14536,
			"target":34962
		},
		{
			"buffer":0,
			"byteLength":984,
			"byteOffset":16864,
			"target":34962
		},
		{
			"buffer":0,
			"byteLength":656,
			"byteOffset":17848,
			"target":34962
		},
		{
			"buffer":0,
			"byteLength":984,
			"byteOffset":18504,
			"target":34962
		},
		{
			"buffer":0,
			"byteLength":456,
			"byteOffset":19488,
			"target":34963
		},
		{
			"buffer":0,
			"byteLength":984,
			"byteOffset":19944,
			"target":34962
		},
		{
			"buffer":0,
			"byteLength":656,
			"byteOffset":20928,
			"target":34962
		},
		{
			"buffer":0,
			"byteLength":984,
			"byteOffset":21584,
			"target":34962
		},
		{
			"buffer":0,
			"byteLength":192,
			"byteOffset":22568,
			"target":34962
		},
		{
			"buffer":0,
			"byteLength":128,
			"byteOffset":22760,
			"target":34962
		},
		{
			"buffer":0,
			"byteLength":192,
			"byteOffset":22888,
			"target":34962
		},
		{
			"buffer":0,
			"byteLength":96,
			"byteOffset":23080,
			"target":34963
		},
		{
			"buffer":0,
			"byteLength":192,
			"byteOffset":23176,
			"target":34962
		},
		{
			"buffer":0,
			"byteLength":128,
			"byteOffset":23368,
			"target":34962
		},
		{
			"buffer":0,
			"byteLength":192,
			"byteOffset":23496,
			"target":34962
		},
		{
			"buffer":0,
			"byteLength":1080,
			"byteOffset":23688,
			"target":34962
		},
		{
			"buffer":0,
			"byteLength":720,
			"byteOffset":24768,
			"target":34962
		},
		{
			"buffer":0,
			"byteLength":1080,
			"byteOffset":25488,
			"target":34962
		},
		{
			"buffer":0,
			"byteLength":1056,
			"byteOffset":26568,
			"target":34963
		},
		{
			"buffer":0,
			"byteLength":48,
			"byteOffset":27624,
			"target":34962
		},
		{
			"buffer":0,
			"byteLength":32,
			"byteOffset":27672,
			"target":34962
		},
		{
			"buffer":0,
			"byteLength":48,
			"byteOffset":27704,
			"target":34962
		},
		{
			"buffer":0,
			"byteLength":12,
			"byteOffset":27752,
			"target":34963
		},
		{
			"buffer":0,
			"byteLength":1896,
			"byteOffset":27764,
			"target":34962
		},
		{
			"buffer":0,
			"byteLength":1264,
			"byteOffset":29660,
			"target":34962
		},
		{
			"buffer":0,
			"byteLength":1896,
			"byteOffset":30924,
			"target":34962
		},
		{
			"buffer":0,
			"byteLength":1464,
			"byteOffset":32820,
			"target":34963
		}
	],
	"buffers":[
		{
			"byteLength":34284,
			"uri":"data:application/octet-stream;base64,"
		}
	]
}
