{
	"asset":{
		"generator":"Khronos glTF Blender I/O v3.5.30",
		"version":"2.0"
	},
	"scene":0,
	"scenes":[
		{
			"name":"Scene",
			"nodes":[
				4
			]
		}
	],
	"nodes":[
		{
			"mesh":0,
			"name":"Cube.056",
			"translation":[
				0,
				-1.4000000953674316,
				0
			]
		},
		{
			"mesh":1,
			"name":"Cube.057",
			"translation":[
				0,
				-1.9619052410125732,
				0
			]
		},
		{
			"mesh":2,
			"name":"Cube.058",
			"translation":[
				0,
				-1.7516565322875977,
				0
			]
		},
		{
			"mesh":3,
			"name":"Curve",
			"rotation":[
				0.7071068286895752,
				0,
				0,
				0.7071068286895752
			],
			"translation":[
				-0.36428678035736084,
				-0.5923134088516235,
				0.800000011920929
			]
		},
		{
			"children":[
				0,
				1,
				2,
				3
			],
			"mesh":4,
			"name":"MONEY IDEA",
			"rotation":[
				0,
				-0.13052618503570557,
				0,
				0.9914448857307434
			],
			"scale":[
				0.6465663313865662,
				0.6465663909912109,
				0.6465663313865662
			],
			"translation":[
				0,
				0.47932881116867065,
				0
			]
		}
	],
	"materials":[
		{
			"doubleSided":true,
			"name":"PINK",
			"pbrMetallicRoughness":{
				"baseColorFactor":[
					0.7991029620170593,
					0.057805124670267105,
					0.24228107929229736,
					1
				],
				"metallicFactor":0,
				"roughnessFactor":0.699999988079071
			}
		},
		{
			"doubleSided":true,
			"name":"Material",
			"pbrMetallicRoughness":{
				"baseColorFactor":[
					0.06300951540470123,
					0.031895712018013,
					0.7991027235984802,
					1
				],
				"metallicFactor":0,
				"roughnessFactor":0.699999988079071
			}
		},
		{
			"doubleSided":true,
			"name":"IJO",
			"pbrMetallicRoughness":{
				"baseColorFactor":[
					0.1301358938217163,
					0.7991026639938354,
					0.03560154512524605,
					1
				],
				"metallicFactor":0,
				"roughnessFactor":0.699999988079071
			}
		},
		{
			"doubleSided":true,
			"name":"KONENG",
			"pbrMetallicRoughness":{
				"baseColorFactor":[
					0.7991028428077698,
					0.38132575154304504,
					0.05951135605573654,
					1
				],
				"metallicFactor":0,
				"roughnessFactor":0.699999988079071
			}
		}
	],
	"meshes":[
		{
			"name":"Cube.058",
			"primitives":[
				{
					"attributes":{
						"POSITION":0,
						"TEXCOORD_0":1,
						"NORMAL":2
					},
					"indices":3,
					"material":0
				}
			]
		},
		{
			"name":"Cube.059",
			"primitives":[
				{
					"attributes":{
						"POSITION":4,
						"TEXCOORD_0":5,
						"NORMAL":6
					},
					"indices":7,
					"material":1
				}
			]
		},
		{
			"name":"Cube.061",
			"primitives":[
				{
					"attributes":{
						"POSITION":8,
						"TEXCOORD_0":9,
						"NORMAL":10
					},
					"indices":11,
					"material":2
				}
			]
		},
		{
			"name":"Curve",
			"primitives":[
				{
					"attributes":{
						"POSITION":12,
						"TEXCOORD_0":13,
						"NORMAL":14
					},
					"indices":15,
					"material":1
				}
			]
		},
		{
			"name":"Sphere",
			"primitives":[
				{
					"attributes":{
						"POSITION":16,
						"TEXCOORD_0":17,
						"NORMAL":18
					},
					"indices":19,
					"material":3
				}
			]
		}
	],
	"accessors":[
		{
			"bufferView":0,
			"componentType":5126,
			"count":88,
			"max":[
				1.040000081062317,
				0.30000001192092896,
				0.800000011920929
			],
			"min":[
				-1.040000081062317,
				-0.30000001192092896,
				-0.800000011920929
			],
			"type":"VEC3"
		},
		{
			"bufferView":1,
			"componentType":5126,
			"count":88,
			"type":"VEC2"
		},
		{
			"bufferView":2,
			"componentType":5126,
			"count":88,
			"type":"VEC3"
		},
		{
			"bufferView":3,
			"componentType":5123,
			"count":228,
			"type":"SCALAR"
		},
		{
			"bufferView":4,
			"componentType":5126,
			"count":81,
			"max":[
				0.800000011920929,
				0.3999999761581421,
				0.6000000238418579
			],
			"min":[
				-0.800000011920929,
				-0.3999999761581421,
				-0.6000000238418579
			],
			"type":"VEC3"
		},
		{
			"bufferView":5,
			"componentType":5126,
			"count":81,
			"type":"VEC2"
		},
		{
			"bufferView":6,
			"componentType":5126,
			"count":81,
			"type":"VEC3"
		},
		{
			"bufferView":7,
			"componentType":5123,
			"count":228,
			"type":"SCALAR"
		},
		{
			"bufferView":8,
			"componentType":5126,
			"count":120,
			"max":[
				0.5161899924278259,
				0.2853860855102539,
				0.699999988079071
			],
			"min":[
				-0.5161899924278259,
				-0.2853860855102539,
				-0.699999988079071
			],
			"type":"VEC3"
		},
		{
			"bufferView":9,
			"componentType":5126,
			"count":120,
			"type":"VEC2"
		},
		{
			"bufferView":10,
			"componentType":5126,
			"count":120,
			"type":"VEC3"
		},
		{
			"bufferView":11,
			"componentType":5123,
			"count":228,
			"type":"SCALAR"
		},
		{
			"bufferView":12,
			"componentType":5126,
			"count":780,
			"max":[
				0.7467391490936279,
				0.279537171125412,
				0.03354446217417717
			],
			"min":[
				-0.03354446217417717,
				-0.279537171125412,
				-1.2101234197616577
			],
			"type":"VEC3"
		},
		{
			"bufferView":13,
			"componentType":5126,
			"count":780,
			"type":"VEC2"
		},
		{
			"bufferView":14,
			"componentType":5126,
			"count":780,
			"type":"VEC3"
		},
		{
			"bufferView":15,
			"componentType":5123,
			"count":2316,
			"type":"SCALAR"
		},
		{
			"bufferView":16,
			"componentType":5126,
			"count":702,
			"max":[
				0.9999997019767761,
				1,
				0.9999993443489075
			],
			"min":[
				-0.9999990463256836,
				-1.258127212524414,
				-1
			],
			"type":"VEC3"
		},
		{
			"bufferView":17,
			"componentType":5126,
			"count":702,
			"type":"VEC2"
		},
		{
			"bufferView":18,
			"componentType":5126,
			"count":702,
			"type":"VEC3"
		},
		{
			"bufferView":19,
			"componentType":5123,
			"count":3258,
			"type":"SCALAR"
		}
	],
	"bufferViews":[
		{
			"buffer":0,
			"byteLength":1056,
			"byteOffset":0,
			"target":34962
		},
		{
			"buffer":0,
			"byteLength":704,
			"byteOffset":1056,
			"target":34962
		},
		{
			"buffer":0,
			"byteLength":1056,
			"byteOffset":1760,
			"target":34962
		},
		{
			"buffer":0,
			"byteLength":456,
			"byteOffset":2816,
			"target":34963
		},
		{
			"buffer":0,
			"byteLength":972,
			"byteOffset":3272,
			"target":34962
		},
		{
			"buffer":0,
			"byteLength":648,
			"byteOffset":4244,
			"target":34962
		},
		{
			"buffer":0,
			"byteLength":972,
			"byteOffset":4892,
			"target":34962
		},
		{
			"buffer":0,
			"byteLength":456,
			"byteOffset":5864,
			"target":34963
		},
		{
			"buffer":0,
			"byteLength":1440,
			"byteOffset":6320,
			"target":34962
		},
		{
			"buffer":0,
			"byteLength":960,
			"byteOffset":7760,
			"target":34962
		},
		{
			"buffer":0,
			"byteLength":1440,
			"byteOffset":8720,
			"target":34962
		},
		{
			"buffer":0,
			"byteLength":456,
			"byteOffset":10160,
			"target":34963
		},
		{
			"buffer":0,
			"byteLength":9360,
			"byteOffset":10616,
			"target":34962
		},
		{
			"buffer":0,
			"byteLength":6240,
			"byteOffset":19976,
			"target":34962
		},
		{
			"buffer":0,
			"byteLength":9360,
			"byteOffset":26216,
			"target":34962
		},
		{
			"buffer":0,
			"byteLength":4632,
			"byteOffset":35576,
			"target":34963
		},
		{
			"buffer":0,
			"byteLength":8424,
			"byteOffset":40208,
			"target":34962
		},
		{
			"buffer":0,
			"byteLength":5616,
			"byteOffset":48632,
			"target":34962
		},
		{
			"buffer":0,
			"byteLength":8424,
			"byteOffset":54248,
			"target":34962
		},
		{
			"buffer":0,
			"byteLength":6516,
			"byteOffset":62672,
			"target":34963
		}
	],
	"buffers":[
		{
			"byteLength":69188,
			"uri":"data:application/octet-stream;base64,"
		}
	]
}
