{
	"asset":{
		"generator":"Khronos glTF Blender I/O v3.5.30",
		"version":"2.0"
	},
	"extensionsUsed":[
		"KHR_materials_transmission",
		"KHR_materials_ior",
		"KHR_materials_specular"
	],
	"scene":0,
	"scenes":[
		{
			"name":"Scene",
			"nodes":[
				12
			]
		}
	],
	"nodes":[
		{
			"mesh":0,
			"name":"Cylinder.025",
			"translation":[
				0,
				0.5684111714363098,
				0
			]
		},
		{
			"mesh":1,
			"name":"Cylinder.026",
			"translation":[
				0,
				0.3312342166900635,
				0
			]
		},
		{
			"mesh":2,
			"name":"Circle",
			"scale":[
				0.9275678396224976,
				1,
				0.9275678992271423
			],
			"translation":[
				0,
				0.14626528322696686,
				0
			]
		},
		{
			"mesh":3,
			"name":"Cube.022",
			"rotation":[
				-0.7071068286895752,
				0,
				0,
				0.7071068286895752
			],
			"scale":[
				1.1295894384384155,
				1.1295894384384155,
				1.217797040939331
			],
			"translation":[
				0,
				0.1736610233783722,
				-1.5023385286331177
			]
		},
		{
			"mesh":4,
			"name":"Cube.023",
			"rotation":[
				-0.7415754199028015,
				0,
				0,
				0.6708695292472839
			],
			"scale":[
				1.1295894384384155,
				1.130497694015503,
				1.2169537544250488
			],
			"translation":[
				0,
				0.3735494315624237,
				-1.1551164388656616
			]
		},
		{
			"mesh":5,
			"name":"Cylinder.029",
			"rotation":[
				-0.7071068286895752,
				0,
				0,
				0.7071068286895752
			],
			"scale":[
				1.1295894384384155,
				1.1295894384384155,
				1.217797040939331
			],
			"translation":[
				0,
				0.004165142774581909,
				-1.7842475175857544
			]
		},
		{
			"mesh":6,
			"name":"Cylinder.030",
			"rotation":[
				-0.7071068286895752,
				0,
				0,
				0.7071068286895752
			],
			"scale":[
				1.1295894384384155,
				1.1295894384384155,
				1.217797040939331
			],
			"translation":[
				0.7698309421539307,
				0.004165083169937134,
				-1.619800090789795
			]
		},
		{
			"mesh":7,
			"name":"Cylinder.031",
			"rotation":[
				-0.7071068286895752,
				0,
				0,
				0.7071068286895752
			],
			"scale":[
				1.1295894384384155,
				1.1295894384384155,
				1.217797040939331
			],
			"translation":[
				-0.7336887717247009,
				0.004165098071098328,
				-1.6125717163085938
			]
		},
		{
			"mesh":8,
			"name":"Plane.003",
			"rotation":[
				-0.5,
				-0.4999999701976776,
				0.5000000596046448,
				0.5000000596046448
			],
			"scale":[
				1,
				0.9275678396224976,
				0.9275678396224976
			],
			"translation":[
				0.008090478368103504,
				0.03427042439579964,
				0.9523245692253113
			]
		},
		{
			"mesh":9,
			"name":"Plane.004",
			"rotation":[
				0.7071068286895752,
				0.7071068286895752,
				0,
				3.123864544818389e-08
			],
			"scale":[
				1,
				0.9275678992271423,
				0.9275678396224976
			],
			"translation":[
				-0.9523251056671143,
				0.034270331263542175,
				0.008089862763881683
			]
		},
		{
			"mesh":10,
			"name":"Plane.005",
			"rotation":[
				-0.6532814502716064,
				-0.653281569480896,
				0.2705981135368347,
				0.27059805393218994
			],
			"scale":[
				1,
				0.9275679588317871,
				0.9275679588317871
			],
			"translation":[
				-0.6676747798919678,
				0.034270450472831726,
				0.6791159510612488
			]
		},
		{
			"children":[
				2,
				3,
				4,
				5,
				6,
				7,
				8,
				9,
				10
			],
			"mesh":11,
			"name":"Cylinder.027",
			"rotation":[
				0.639706015586853,
				-0.4435065686702728,
				-0.05707160383462906,
				0.6251567602157593
			],
			"scale":[
				1.0066800117492676,
				0.9337641596794128,
				1.0066802501678467
			],
			"translation":[
				0.007458181120455265,
				2.51442813873291,
				0.19773466885089874
			]
		},
		{
			"children":[
				0,
				1,
				11
			],
			"mesh":12,
			"name":"Disc Barake",
			"translation":[
				0,
				-1.187784194946289,
				0
			]
		}
	],
	"materials":[
		{
			"doubleSided":true,
			"name":"White",
			"pbrMetallicRoughness":{
				"baseColorFactor":[
					0.8571419715881348,
					0.8571419715881348,
					0.8571419715881348,
					1
				],
				"metallicFactor":0,
				"roughnessFactor":0.3830709457397461
			}
		},
		{
			"doubleSided":true,
			"extensions":{
				"KHR_materials_transmission":{
					"transmissionFactor":1
				},
				"KHR_materials_ior":{
					"ior":1.0499999523162842
				}
			},
			"name":"Glass",
			"pbrMetallicRoughness":{
				"metallicFactor":0,
				"roughnessFactor":0.7452755570411682
			}
		},
		{
			"doubleSided":true,
			"name":"Dark Grey",
			"pbrMetallicRoughness":{
				"baseColorFactor":[
					0.1237056702375412,
					0.1237056702375412,
					0.1237056702375412,
					1
				],
				"metallicFactor":0,
				"roughnessFactor":0.6181102395057678
			}
		},
		{
			"doubleSided":true,
			"extensions":{
				"KHR_materials_specular":{
					"specularColorFactor":[
						1.0876888780550595,
						1.0876888780550595,
						1.0876888780550595
					]
				},
				"KHR_materials_ior":{
					"ior":1.4500000476837158
				}
			},
			"name":"Orange",
			"pbrMetallicRoughness":{
				"baseColorFactor":[
					0.8571419715881348,
					0.24362029135227203,
					0.03633071109652519,
					1
				],
				"metallicFactor":0,
				"roughnessFactor":0.6181102395057678
			}
		},
		{
			"doubleSided":true,
			"name":"Black",
			"pbrMetallicRoughness":{
				"baseColorFactor":[
					0.03106112964451313,
					0.03106112964451313,
					0.03106112964451313,
					1
				],
				"metallicFactor":0,
				"roughnessFactor":0.6181102395057678
			}
		},
		{
			"doubleSided":true,
			"name":"Grey",
			"pbrMetallicRoughness":{
				"baseColorFactor":[
					0.36723142862319946,
					0.36723142862319946,
					0.36723142862319946,
					1
				],
				"metallicFactor":0,
				"roughnessFactor":0.6181102395057678
			}
		}
	],
	"meshes":[
		{
			"name":"Cylinder.032",
			"primitives":[
				{
					"attributes":{
						"POSITION":0,
						"TEXCOORD_0":1,
						"NORMAL":2
					},
					"indices":3,
					"material":0
				}
			]
		},
		{
			"name":"Cylinder.033",
			"primitives":[
				{
					"attributes":{
						"POSITION":4,
						"TEXCOORD_0":5,
						"NORMAL":6
					},
					"indices":3,
					"material":1
				}
			]
		},
		{
			"name":"Circle",
			"primitives":[
				{
					"attributes":{
						"POSITION":7,
						"TEXCOORD_0":8,
						"NORMAL":9
					},
					"indices":10,
					"material":2
				}
			]
		},
		{
			"name":"Cube.026",
			"primitives":[
				{
					"attributes":{
						"POSITION":11,
						"TEXCOORD_0":12,
						"NORMAL":13
					},
					"indices":14,
					"material":3
				}
			]
		},
		{
			"name":"Cube.001",
			"primitives":[
				{
					"attributes":{
						"POSITION":15,
						"TEXCOORD_0":16,
						"NORMAL":17
					},
					"indices":18,
					"material":3
				}
			]
		},
		{
			"name":"Cylinder.005",
			"primitives":[
				{
					"attributes":{
						"POSITION":19,
						"TEXCOORD_0":20,
						"NORMAL":21
					},
					"indices":22,
					"material":4
				}
			]
		},
		{
			"name":"Cylinder.011",
			"primitives":[
				{
					"attributes":{
						"POSITION":23,
						"TEXCOORD_0":24,
						"NORMAL":25
					},
					"indices":22,
					"material":4
				}
			]
		},
		{
			"name":"Cylinder.036",
			"primitives":[
				{
					"attributes":{
						"POSITION":26,
						"TEXCOORD_0":27,
						"NORMAL":28
					},
					"indices":22,
					"material":4
				}
			]
		},
		{
			"name":"Plane.003",
			"primitives":[
				{
					"attributes":{
						"POSITION":29,
						"TEXCOORD_0":30,
						"NORMAL":31
					},
					"indices":32,
					"material":5
				}
			]
		},
		{
			"name":"Plane.004",
			"primitives":[
				{
					"attributes":{
						"POSITION":33,
						"TEXCOORD_0":34,
						"NORMAL":35
					},
					"indices":32,
					"material":5
				}
			]
		},
		{
			"name":"Plane.005",
			"primitives":[
				{
					"attributes":{
						"POSITION":36,
						"TEXCOORD_0":37,
						"NORMAL":38
					},
					"indices":32,
					"material":5
				}
			]
		},
		{
			"name":"Cylinder.034",
			"primitives":[
				{
					"attributes":{
						"POSITION":39,
						"TEXCOORD_0":40,
						"NORMAL":41
					},
					"indices":42,
					"material":0
				},
				{
					"attributes":{
						"POSITION":43,
						"TEXCOORD_0":44,
						"NORMAL":45
					},
					"indices":46,
					"material":0
				}
			]
		},
		{
			"name":"Cylinder.031",
			"primitives":[
				{
					"attributes":{
						"POSITION":47,
						"TEXCOORD_0":48,
						"NORMAL":49
					},
					"indices":3,
					"material":3
				}
			]
		}
	],
	"accessors":[
		{
			"bufferView":0,
			"componentType":5126,
			"count":130,
			"max":[
				1.876212239265442,
				0.1771680861711502,
				1.876212239265442
			],
			"min":[
				-1.876212239265442,
				-0.177168071269989,
				-1.876212239265442
			],
			"type":"VEC3"
		},
		{
			"bufferView":1,
			"componentType":5126,
			"count":130,
			"type":"VEC2"
		},
		{
			"bufferView":2,
			"componentType":5126,
			"count":130,
			"type":"VEC3"
		},
		{
			"bufferView":3,
			"componentType":5123,
			"count":372,
			"type":"SCALAR"
		},
		{
			"bufferView":4,
			"componentType":5126,
			"count":130,
			"max":[
				1.8555986881256104,
				0.09809615463018417,
				1.8555986881256104
			],
			"min":[
				-1.8555986881256104,
				-0.09809615463018417,
				-1.8555986881256104
			],
			"type":"VEC3"
		},
		{
			"bufferView":5,
			"componentType":5126,
			"count":130,
			"type":"VEC2"
		},
		{
			"bufferView":6,
			"componentType":5126,
			"count":130,
			"type":"VEC3"
		},
		{
			"bufferView":7,
			"componentType":5126,
			"count":128,
			"max":[
				0.9518421292304993,
				0.31234729290008545,
				0.9518421292304993
			],
			"min":[
				-0.9518421292304993,
				0.013917862437665462,
				-0.9518421292304993
			],
			"type":"VEC3"
		},
		{
			"bufferView":8,
			"componentType":5126,
			"count":128,
			"type":"VEC2"
		},
		{
			"bufferView":9,
			"componentType":5126,
			"count":128,
			"type":"VEC3"
		},
		{
			"bufferView":10,
			"componentType":5123,
			"count":576,
			"type":"SCALAR"
		},
		{
			"bufferView":11,
			"componentType":5126,
			"count":72,
			"max":[
				1.1736783981323242,
				0.41823580861091614,
				0.16210651397705078
			],
			"min":[
				-1.4901161193847656e-08,
				-0.5377337336540222,
				-0.05851614847779274
			],
			"type":"VEC3"
		},
		{
			"bufferView":12,
			"componentType":5126,
			"count":72,
			"type":"VEC2"
		},
		{
			"bufferView":13,
			"componentType":5126,
			"count":72,
			"type":"VEC3"
		},
		{
			"bufferView":14,
			"componentType":5123,
			"count":312,
			"type":"SCALAR"
		},
		{
			"bufferView":15,
			"componentType":5126,
			"count":43,
			"max":[
				1.097023606300354,
				0.4921644926071167,
				0.04734541475772858
			],
			"min":[
				-3.5840507645046316e-11,
				-0.20211780071258545,
				-0.050289228558540344
			],
			"type":"VEC3"
		},
		{
			"bufferView":16,
			"componentType":5126,
			"count":43,
			"type":"VEC2"
		},
		{
			"bufferView":17,
			"componentType":5126,
			"count":43,
			"type":"VEC3"
		},
		{
			"bufferView":18,
			"componentType":5123,
			"count":156,
			"type":"SCALAR"
		},
		{
			"bufferView":19,
			"componentType":5126,
			"count":98,
			"max":[
				0.09503283351659775,
				0.09503399580717087,
				0.24674661457538605
			],
			"min":[
				-0.09503283351659775,
				-0.09503161907196045,
				-0.2467467039823532
			],
			"type":"VEC3"
		},
		{
			"bufferView":20,
			"componentType":5126,
			"count":98,
			"type":"VEC2"
		},
		{
			"bufferView":21,
			"componentType":5126,
			"count":98,
			"type":"VEC3"
		},
		{
			"bufferView":22,
			"componentType":5123,
			"count":276,
			"type":"SCALAR"
		},
		{
			"bufferView":23,
			"componentType":5126,
			"count":98,
			"max":[
				0.09503283351659775,
				0.09503399580717087,
				0.24674661457538605
			],
			"min":[
				-0.09503283351659775,
				-0.09503161907196045,
				-0.2467467039823532
			],
			"type":"VEC3"
		},
		{
			"bufferView":24,
			"componentType":5126,
			"count":98,
			"type":"VEC2"
		},
		{
			"bufferView":25,
			"componentType":5126,
			"count":98,
			"type":"VEC3"
		},
		{
			"bufferView":26,
			"componentType":5126,
			"count":98,
			"max":[
				0.09503283351659775,
				0.09503399580717087,
				0.24674661457538605
			],
			"min":[
				-0.09503283351659775,
				-0.09503161907196045,
				-0.2467467039823532
			],
			"type":"VEC3"
		},
		{
			"bufferView":27,
			"componentType":5126,
			"count":98,
			"type":"VEC2"
		},
		{
			"bufferView":28,
			"componentType":5126,
			"count":98,
			"type":"VEC3"
		},
		{
			"bufferView":29,
			"componentType":5126,
			"count":6,
			"max":[
				0.27361541986465454,
				0.25218331813812256,
				0.10281029343605042
			],
			"min":[
				-0.10281029343605042,
				0.029395580291748047,
				-0.10281029343605042
			],
			"type":"VEC3"
		},
		{
			"bufferView":30,
			"componentType":5126,
			"count":6,
			"type":"VEC2"
		},
		{
			"bufferView":31,
			"componentType":5126,
			"count":6,
			"type":"VEC3"
		},
		{
			"bufferView":32,
			"componentType":5123,
			"count":12,
			"type":"SCALAR"
		},
		{
			"bufferView":33,
			"componentType":5126,
			"count":6,
			"max":[
				0.27361541986465454,
				0.25218331813812256,
				0.10281029343605042
			],
			"min":[
				-0.10281029343605042,
				0.029395580291748047,
				-0.10281029343605042
			],
			"type":"VEC3"
		},
		{
			"bufferView":34,
			"componentType":5126,
			"count":6,
			"type":"VEC2"
		},
		{
			"bufferView":35,
			"componentType":5126,
			"count":6,
			"type":"VEC3"
		},
		{
			"bufferView":36,
			"componentType":5126,
			"count":6,
			"max":[
				0.27361541986465454,
				0.25218331813812256,
				0.10281029343605042
			],
			"min":[
				-0.10281029343605042,
				0.029395580291748047,
				-0.10281029343605042
			],
			"type":"VEC3"
		},
		{
			"bufferView":37,
			"componentType":5126,
			"count":6,
			"type":"VEC2"
		},
		{
			"bufferView":38,
			"componentType":5126,
			"count":6,
			"type":"VEC3"
		},
		{
			"bufferView":39,
			"componentType":5126,
			"count":1722,
			"max":[
				1.6016814708709717,
				0.09648779034614563,
				1.6016815900802612
			],
			"min":[
				-1.6016817092895508,
				-0.09648779034614563,
				-1.6016815900802612
			],
			"type":"VEC3"
		},
		{
			"bufferView":40,
			"componentType":5126,
			"count":1722,
			"type":"VEC2"
		},
		{
			"bufferView":41,
			"componentType":5126,
			"count":1722,
			"type":"VEC3"
		},
		{
			"bufferView":42,
			"componentType":5123,
			"count":5832,
			"type":"SCALAR"
		},
		{
			"bufferView":43,
			"componentType":5126,
			"count":1304,
			"max":[
				1.3998615741729736,
				0.09648777544498444,
				1.3998610973358154
			],
			"min":[
				-1.3998613357543945,
				-0.09648777544498444,
				-1.3998618125915527
			],
			"type":"VEC3"
		},
		{
			"bufferView":44,
			"componentType":5126,
			"count":1304,
			"type":"VEC2"
		},
		{
			"bufferView":45,
			"componentType":5126,
			"count":1304,
			"type":"VEC3"
		},
		{
			"bufferView":46,
			"componentType":5123,
			"count":3720,
			"type":"SCALAR"
		},
		{
			"bufferView":47,
			"componentType":5126,
			"count":130,
			"max":[
				2.0892345905303955,
				0.24388420581817627,
				2.0892345905303955
			],
			"min":[
				-2.0892345905303955,
				-0.24388420581817627,
				-2.0892345905303955
			],
			"type":"VEC3"
		},
		{
			"bufferView":48,
			"componentType":5126,
			"count":130,
			"type":"VEC2"
		},
		{
			"bufferView":49,
			"componentType":5126,
			"count":130,
			"type":"VEC3"
		}
	],
	"bufferViews":[
		{
			"buffer":0,
			"byteLength":1560,
			"byteOffset":0,
			"target":34962
		},
		{
			"buffer":0,
			"byteLength":1040,
			"byteOffset":1560,
			"target":34962
		},
		{
			"buffer":0,
			"byteLength":1560,
			"byteOffset":2600,
			"target":34962
		},
		{
			"buffer":0,
			"byteLength":744,
			"byteOffset":4160,
			"target":34963
		},
		{
			"buffer":0,
			"byteLength":1560,
			"byteOffset":4904,
			"target":34962
		},
		{
			"buffer":0,
			"byteLength":1040,
			"byteOffset":6464,
			"target":34962
		},
		{
			"buffer":0,
			"byteLength":1560,
			"byteOffset":7504,
			"target":34962
		},
		{
			"buffer":0,
			"byteLength":1536,
			"byteOffset":9064,
			"target":34962
		},
		{
			"buffer":0,
			"byteLength":1024,
			"byteOffset":10600,
			"target":34962
		},
		{
			"buffer":0,
			"byteLength":1536,
			"byteOffset":11624,
			"target":34962
		},
		{
			"buffer":0,
			"byteLength":1152,
			"byteOffset":13160,
			"target":34963
		},
		{
			"buffer":0,
			"byteLength":864,
			"byteOffset":14312,
			"target":34962
		},
		{
			"buffer":0,
			"byteLength":576,
			"byteOffset":15176,
			"target":34962
		},
		{
			"buffer":0,
			"byteLength":864,
			"byteOffset":15752,
			"target":34962
		},
		{
			"buffer":0,
			"byteLength":624,
			"byteOffset":16616,
			"target":34963
		},
		{
			"buffer":0,
			"byteLength":516,
			"byteOffset":17240,
			"target":34962
		},
		{
			"buffer":0,
			"byteLength":344,
			"byteOffset":17756,
			"target":34962
		},
		{
			"buffer":0,
			"byteLength":516,
			"byteOffset":18100,
			"target":34962
		},
		{
			"buffer":0,
			"byteLength":312,
			"byteOffset":18616,
			"target":34963
		},
		{
			"buffer":0,
			"byteLength":1176,
			"byteOffset":18928,
			"target":34962
		},
		{
			"buffer":0,
			"byteLength":784,
			"byteOffset":20104,
			"target":34962
		},
		{
			"buffer":0,
			"byteLength":1176,
			"byteOffset":20888,
			"target":34962
		},
		{
			"buffer":0,
			"byteLength":552,
			"byteOffset":22064,
			"target":34963
		},
		{
			"buffer":0,
			"byteLength":1176,
			"byteOffset":22616,
			"target":34962
		},
		{
			"buffer":0,
			"byteLength":784,
			"byteOffset":23792,
			"target":34962
		},
		{
			"buffer":0,
			"byteLength":1176,
			"byteOffset":24576,
			"target":34962
		},
		{
			"buffer":0,
			"byteLength":1176,
			"byteOffset":25752,
			"target":34962
		},
		{
			"buffer":0,
			"byteLength":784,
			"byteOffset":26928,
			"target":34962
		},
		{
			"buffer":0,
			"byteLength":1176,
			"byteOffset":27712,
			"target":34962
		},
		{
			"buffer":0,
			"byteLength":72,
			"byteOffset":28888,
			"target":34962
		},
		{
			"buffer":0,
			"byteLength":48,
			"byteOffset":28960,
			"target":34962
		},
		{
			"buffer":0,
			"byteLength":72,
			"byteOffset":29008,
			"target":34962
		},
		{
			"buffer":0,
			"byteLength":24,
			"byteOffset":29080,
			"target":34963
		},
		{
			"buffer":0,
			"byteLength":72,
			"byteOffset":29104,
			"target":34962
		},
		{
			"buffer":0,
			"byteLength":48,
			"byteOffset":29176,
			"target":34962
		},
		{
			"buffer":0,
			"byteLength":72,
			"byteOffset":29224,
			"target":34962
		},
		{
			"buffer":0,
			"byteLength":72,
			"byteOffset":29296,
			"target":34962
		},
		{
			"buffer":0,
			"byteLength":48,
			"byteOffset":29368,
			"target":34962
		},
		{
			"buffer":0,
			"byteLength":72,
			"byteOffset":29416,
			"target":34962
		},
		{
			"buffer":0,
			"byteLength":20664,
			"byteOffset":29488,
			"target":34962
		},
		{
			"buffer":0,
			"byteLength":13776,
			"byteOffset":50152,
			"target":34962
		},
		{
			"buffer":0,
			"byteLength":20664,
			"byteOffset":63928,
			"target":34962
		},
		{
			"buffer":0,
			"byteLength":11664,
			"byteOffset":84592,
			"target":34963
		},
		{
			"buffer":0,
			"byteLength":15648,
			"byteOffset":96256,
			"target":34962
		},
		{
			"buffer":0,
			"byteLength":10432,
			"byteOffset":111904,
			"target":34962
		},
		{
			"buffer":0,
			"byteLength":15648,
			"byteOffset":122336,
			"target":34962
		},
		{
			"buffer":0,
			"byteLength":7440,
			"byteOffset":137984,
			"target":34963
		},
		{
			"buffer":0,
			"byteLength":1560,
			"byteOffset":145424,
			"target":34962
		},
		{
			"buffer":0,
			"byteLength":1040,
			"byteOffset":146984,
			"target":34962
		},
		{
			"buffer":0,
			"byteLength":1560,
			"byteOffset":148024,
			"target":34962
		}
	],
	"buffers":[
		{
			"byteLength":149584,
			"uri":"data:application/octet-stream;base64,"
		}
	]
}
